<?xml version="1.0" encoding="UTF-8"?>
<svg id="Layer_1" data-name="Layer 1" xmlns="http://www.w3.org/2000/svg" viewBox="0 0 22.61 23">
  <defs>
    <style>
      .cls-1 {
        fill: none;
        opacity: .8;
        stroke: #fff;
        stroke-linejoin: round;
      }
    </style>
  </defs>
  <path class="cls-1" d="M11.39,15.91c.93-.01,1.86-.03,2.79-.04l.12,6.63h5.21c0-3.12,0-6.24,0-9.37.18.1.59.3,1.11.24.11-.01,1.15-.14,1.43-.99.22-.66-.17-1.25-.23-1.33-3.48-3.52-6.95-7.03-10.43-10.55C7.86,4.02,4.33,7.53.8,11.05c-.06.08-.45.68-.23,1.33.29.86,1.35.98,1.46.99.53.05.95-.14,1.13-.24,0,3.12,0,6.24,0,9.37h5.29l.12-6.63c.94.01,1.89.03,2.83.04Z"/>
</svg>