<?xml version="1.0" encoding="UTF-8"?>
<svg id="Vector_layer" data-name="Vector layer" xmlns="http://www.w3.org/2000/svg" viewBox="0 0 115.02 135.19">
  <defs>
    <style>
      .cls-1 {
        fill: #f2b3b9;
      }

      .cls-2 {
        fill: #ebd497;
      }

      .cls-3 {
        fill: #9a8c7d;
      }

      .cls-4 {
        fill: #968266;
      }

      .cls-5 {
        fill: #c2ab94;
      }

      .cls-6 {
        fill: #e8dcbb;
      }

      .cls-7 {
        fill: #9a8b7c;
      }

      .cls-8 {
        fill: #e9dcbb;
      }
    </style>
  </defs>
  <path d="M38.02,0s-.03.02-.05.03c-.02,0-.03.01-.05.02.03-.02.06-.03.09-.04Z"/>
  <path d="M82.79,132.11s.01,0,.02,0c0,0,0,0,0,.01,0,0-.01,0-.02,0,0,0,0,0,0-.01Z"/>
  <path class="cls-2" d="M11.12,81.65c.02.14.05.29.07.43-.17-.02-.35-.04-.52-.06-.05-.34-.11-.68-.16-1.02h0c.11,0,.22.02.33.04.06,0,.12.02.18.02h0c.03.2.06.39.09.59Z"/>
  <path class="cls-2" d="M11.9,85.46c.08.34.17.68.26,1.01-.18,0-.35,0-.52,0-.09-.34-.18-.68-.26-1.02.18,0,.35,0,.52.01Z"/>
  <path class="cls-2" d="M104.75,84.8c-.02.08-.05.16-.07.23-.08.25-.16.49-.25.73-.18,0-.35,0-.53,0,.11-.32.22-.64.32-.96.18,0,.35,0,.53,0Z"/>
  <path class="cls-1" d="M37.9,81.09c3.26,5.11-.78,12.27-6.84,12.11-5.46.16-9.59-5.94-7.41-10.95,2.3-6.05,10.99-6.76,14.25-1.16Z"/>
  <path class="cls-1" d="M93.19,84.43c0,.12.01.25.01.37,0,.25,0,.51-.03.76,0,.09-.02.18-.03.27,0,.09-.02.18-.04.26-.02.11-.04.22-.05.33-.02.09-.04.18-.06.28-.01.06-.03.12-.04.18-.02.09-.04.17-.07.26-.02.09-.05.19-.08.28-.02.08-.05.16-.08.23-.09.26-.19.51-.31.76h0c-.13.3-.29.59-.46.86-.06.09-.12.19-.18.28-.27.4-.57.78-.91,1.12-.11.11-.22.22-.34.33-.09.09-.19.17-.29.25-.1.08-.2.16-.3.24,0,0-.02.01-.02.02-.1.07-.2.14-.3.2-.32.22-.67.41-1.04.57-.23.11-.46.2-.7.28-.04.02-.07.03-.11.04-.11.04-.22.07-.34.1t0,0c-.12.03-.24.06-.37.09-.1.02-.2.04-.3.06-.06.01-.13.02-.2.04-.12.02-.25.04-.38.05-.14.02-.28.03-.42.04h-.04c-.14,0-.29.01-.44.01h-.09c-5.59.1-9.62-6.12-7.26-11.18.38-.93.95-1.75,1.64-2.43,1.11-1.09,2.53-1.83,4.05-2.15,2.02-.43,4.18-.13,5.96,1.08.16.1.31.2.45.31.14.11.29.21.42.33.81.68,1.43,1.46,1.88,2.31h0c.12.23.22.45.32.69.05.12.09.23.13.35.04.09.07.19.09.29,0,.02.02.05.02.07.04.12.07.23.09.36,0,0,0,.02,0,.03.03.11.05.22.07.33.02.12.05.24.06.36.01.08.02.16.03.23.01.07.02.14.02.22,0,.09.02.18.02.27Z"/>
  <path d="M36.95,63.78c5.47-.03,5.38,10.28-.14,10.02-4.76-.79-4.69-9.43.14-10.02Z"/>
  <path d="M80.17,63.46c4.79,1.17,4.16,10.41-1.11,9.99-5.02-.97-4.34-10.69,1.11-9.99Z"/>
  <path d="M66.15,96.01c.1.04.17.16.15.27,0,.01,0,.02,0,.02,0,.01,0,.02,0,.03,0,0,0,0,0,0h0s0,.01,0,.02h0c-.27,1.04-1.12,1.82-1.99,2.36-.88.54-1.86.9-2.86,1.16-1.19.3-2.43.44-3.66.44-.12,0-.23,0-.35,0-1.2-.02-2.41-.19-3.57-.53-.78-.23-1.54-.54-2.23-.98-.89-.57-1.73-1.45-1.81-2.56,0-.14.08-.26.22-.27.1-.01.2.05.25.13.01,0,.02.01.04.02,0,0,.02.01.03.02.02.01.03.02.05.04,0,0,0,0,0,0,.04.03.07.05.1.07.12.09.25.16.37.22.16.08.32.14.48.21h0c.23.08.45.14.66.18.29.06.57.1.86.12.35.03.71.03,1.03,0,.36-.02.71-.07,1.05-.14.3-.06.59-.14.86-.23.22-.07.43-.16.64-.26,0-2.5.01-5,.02-7.5,0-1.77.01-3.54.01-5.3-.29-.02-.58-.06-.87-.12-.46-.08-.91-.21-1.36-.36-.44-.15-.85-.35-1.25-.57-.43-.23-.82-.54-1.17-.88-.09-.09-.18-.18-.26-.28-.07-.08-.14-.17-.21-.26-.09-.13-.18-.27-.26-.41-.11-.2-.2-.4-.27-.61-.13-.38-.17-.79-.14-1.18.01-.21.05-.41.11-.61.05-.17.11-.34.18-.5.08-.19.19-.38.3-.55.14-.2.29-.39.45-.57.15-.16.32-.32.49-.46.19-.16.39-.3.6-.44.2-.12.39-.23.6-.34.22-.12.45-.21.68-.3.43-.18.89-.31,1.34-.41.25-.05.49-.1.74-.14.25-.04.51-.06.77-.09.25-.02.5-.03.76-.03.22,0,.44,0,.66.02.48.03.96.09,1.43.19,1.07.22,2.11.63,3,1.28.55.41,1.04.93,1.35,1.55,0,0,0,0,0,.02,0,.02.02.04.03.06,0,0,0,.01,0,.02h0c.3.64.38,1.36.22,2.05-.16.73-.58,1.38-1.11,1.89-.62.61-1.38,1.07-2.18,1.38-.4.16-.8.29-1.22.39,0,.64,0,1.29-.01,1.93,0,.86,0,1.73-.02,2.59,0,1.77-.02,3.54-.03,5.3,0,1.1-.01,2.21-.02,3.31.01,0,.02.01.03.02.1.05.21.1.3.13.17.06.34.1.48.13.26.05.52.08.77.1.38.02.75.02,1.12,0,.47-.03.95-.09,1.38-.18.39-.08.79-.18,1.16-.31.23-.09.47-.18.66-.27.04-.02.09-.04.13-.07.09-.05.2-.04.27.02Z"/>
  <path d="M90.62,81.67c0-.18.13-.33.31-.34.04,0,.07,0,.11,0,0,0,0,0,0,0,0,0,0,0,0,0h0c.41-.04.82-.06,1.23-.09.44-.03.88-.06,1.32-.09.98-.06,1.96-.12,2.93-.19,2.02-.14,4.04-.27,6.05-.39,1.95-.12,3.89-.24,5.84-.35.96-.06,1.93-.12,2.89-.17.84-.05,1.69-.11,2.53-.14.11,0,.21,0,.32,0,.09,0,.19-.01.28,0h.02c.13,0,.25,0,.36.08.22.15.24.48.04.66-.1.09-.22.1-.29.11-.02,0-.05,0-.07,0-.05.02-.1.03-.15.03-.05,0-.1,0-.15.01-.12,0-.24.02-.36.03-.36.03-.71.05-1.07.07-.96.05-1.91.11-2.87.16-1.97.11-3.94.21-5.91.32-1.98.1-3.97.21-5.96.3-1.93.09-3.87.17-5.8.27-.29.02-.58.03-.87.04-.14,0-.28,0-.41,0,0,0-.01,0-.02,0-.17,0-.32-.14-.32-.32Z"/>
  <path d="M108.84,85.79c-.42,0-.85,0-1.27,0-.48,0-.96,0-1.44,0-1.02,0-2.04-.02-3.05-.04-2.02-.03-4.04-.05-6.07-.1-1.21-.02-2.43-.05-3.64-.09-.59-.02-1.18-.04-1.77-.05-.24,0-.47-.01-.71-.02-.12,0-.26-.04-.33-.15-.07-.11-.07-.25,0-.36.05-.08.14-.13.24-.14.09-.02.19-.01.29-.01h.15c.48,0,.96,0,1.43-.02.98-.01,1.96-.02,2.93-.02,2.04-.01,4.07,0,6.1,0,1.23,0,2.46.02,3.69.02.6,0,1.19,0,1.79.02.52.01,1.04.03,1.56.04.12,0,.23,0,.35,0,.13,0,.27,0,.4,0,.34,0,.67.01,1.01.02.34.01.68.02,1.02.05.09,0,.18.01.27.02.04,0,.07-.01.11,0,.09,0,.18.04.25.09.08.01.16.04.22.09.14.12.14.35,0,.47-.06.06-.14.08-.22.09-.07.05-.16.09-.26.09-.04,0-.08,0-.11-.01-.09.01-.19.01-.27.02-.33.02-.66.02-.99.02-.32,0-.64,0-.96,0-.26,0-.52-.02-.78-.02h.06Z"/>
  <path d="M113.1,90.79c-.1-.01-.2-.02-.3-.04-.23-.03-.46-.06-.64-.09-.04,0-.09-.01-.13-.02-.69,0-1.38-.07-2.06-.14-1-.1-2-.22-3-.34-1.93-.23-3.87-.49-5.8-.74-1.77-.22-3.54-.43-5.32-.64-.91-.11-1.82-.21-2.73-.32-.43-.05-.87-.1-1.3-.16-.32-.04-.63-.09-.94-.11-.05,0-.1,0-.15,0-.1-.03-.19-.08-.25-.17-.1-.17-.08-.39.07-.51,0,0,0,0,0,0,.04-.04.1-.07.16-.08,0,0,.01,0,.02,0,0,0,0,0,0,0,0,0,.01,0,.02,0,.01,0,.03,0,.04,0,.05,0,.1,0,.14.02.37.05.75.08,1.12.12.48.05.97.11,1.45.16.99.11,1.98.22,2.97.33,1.97.22,3.95.43,5.93.62,1.77.17,3.54.34,5.31.54.89.09,1.77.19,2.66.3.39.05.79.11,1.18.17.19.03.38.06.55.12.01,0,.02,0,.03,0,.01,0,.03,0,.02,0,.19.02.38.03.56.05.14.02.28.03.41.04.07,0,.14.01.21.03.06.01.12.03.17.07,0,0,0,0,0,0,0,0,0,0,0,0,.06.04.12.1.15.17.12.25-.02.53-.27.62-.04.02-.09.02-.14.02-.06,0-.11,0-.17-.01Z"/>
  <path d="M24.26,83.48c-.4-.04-.8-.07-1.2-.11-.88-.08-1.75-.17-2.63-.27-1.89-.2-3.77-.4-5.66-.61-1.85-.21-3.69-.42-5.54-.63-1.73-.2-3.46-.42-5.19-.62-.46-.05-.93-.1-1.39-.16-.15-.02-.3-.05-.45-.09-.09-.02-.17-.06-.23-.11-.04,0-.08-.01-.12-.02-.1,0-.19-.04-.26-.11-.18-.17-.13-.48.08-.6.09-.05.2-.06.3-.04.03,0,.06,0,.08,0h0s.09-.03.14-.04c.09-.02.19-.01.28,0,.22,0,.44.04.66.06.82.1,1.63.2,2.45.29,1.75.2,3.51.41,5.26.62,3.73.45,7.46.91,11.18,1.41.61.08,1.22.17,1.83.25.23.03.47.07.7.09.14.01.29.02.43.07.18.03.31.2.28.38-.02.18-.17.3-.35.3,0,0,0,0,0,0,0,0,0,0,0,0,0,0,0,0,0,0,0,0,0,0,0,0-.02,0-.05,0-.07,0-.2,0-.4-.04-.59-.06Z"/>
  <path d="M18.57,86.52c-1.93,0-3.85-.02-5.77-.04-1.93-.02-3.85-.04-5.78-.07-.88-.01-1.76-.02-2.64-.04-.9-.01-1.79-.04-2.69-.07-.16,0-.33-.01-.43-.01-.19,0-.38,0-.57-.01-.09,0-.18,0-.26-.02-.05,0-.1-.02-.15-.04-.08-.03-.15-.09-.21-.18,0,0,0,0,0,0-.1-.16-.1-.38.01-.55.14-.21.38-.21.6-.21.18,0,.36,0,.54,0,.43,0,.85,0,1.28,0,.35,0,.71,0,1.06,0,1.81.02,3.62.07,5.43.11,1.94.04,3.87.08,5.81.13,1.91.05,3.83.1,5.75.17.57.02,1.14.04,1.71.07.48.02.97.05,1.41.06.26,0,.52,0,.78,0,.18,0,.34.13.36.32,0,.18-.14.36-.32.36-.2,0-.41-.01-.56-.02-.82-.01-1.63.01-2.44.02-.48,0-.97,0-1.45,0s-.97,0-1.45,0Z"/>
  <path d="M3.15,92.68c-.22.08-.47-.09-.51-.32-.03-.23.15-.43.38-.44.09-.07.21-.11.34-.11,0,0,0,0,0,0,0,0,0,0,0,0h0c.2-.02.41-.07.61-.11.43-.09.85-.2,1.28-.29.65-.14,1.3-.26,1.96-.36.83-.14,1.66-.26,2.49-.39.95-.15,1.89-.29,2.84-.43.87-.13,1.74-.24,2.61-.37.89-.13,1.78-.28,2.67-.42.94-.15,1.88-.29,2.82-.43.72-.11,1.43-.25,2.15-.37.54-.09,1.07-.17,1.61-.25.23-.04.46-.07.69-.1.12-.01.25-.03.37-.05,0,0,0,0,0,0h0s0,0,.01,0c.19-.05.39.09.41.27.03.2-.13.37-.32.38h0c-.16.02-.31.06-.47.09-.32.07-.66.12-.98.19-.64.11-1.28.22-1.93.32-1.72.27-3.43.6-5.15.9-.92.16-1.84.31-2.75.5-.85.17-1.7.32-2.55.48-.95.17-1.91.34-2.86.51-.74.13-1.48.27-2.23.39-.59.09-1.18.17-1.77.23-.45.05-.91.08-1.35.16,0,0-.01,0-.02,0-.06.03-.13.04-.2.04-.06,0-.12-.01-.17-.03Z"/>
  <path class="cls-5" d="M21.86,37.1c.13.04.21.18.17.31h0c.02.08,0,.16-.05.23-1.55,1.76-3.09,3.52-4.63,5.29-.12.13-.23.26-.34.39-.05.06-.13.09-.2.09-.05,0-.11-.02-.15-.05-.04-.04-.07-.08-.08-.13-.03-.02-.05-.05-.07-.08-1.33-2.78-2.66-5.56-3.98-8.34-.04-.09-.02-.18.04-.25-.02-.05-.03-.11-.01-.17.04-.13.18-.21.31-.17.02,0,.03,0,.04.01,0,0,.01,0,.02,0,2.38.76,4.75,1.52,7.12,2.29.61.2,1.21.39,1.82.59Z"/>
  <path class="cls-5" d="M98.92,28.81c.04.05.06.13.05.21-.3,1.48-.59,2.95-.89,4.43-.21,1.03-.41,2.06-.62,3.1-.13.67-.26,1.34-.4,2.01-.02.09-.1.16-.19.18-.04.02-.07.03-.11.03-.06,0-.12-.02-.17-.07-1.83-1.74-3.67-3.48-5.51-5.21-.12-.12-.25-.24-.38-.36,0,0,0,0,0,0,0,0,0,0,0,0-.09-.09-.11-.22-.04-.32.01-.08.07-.16.15-.2,1.61-.82,3.21-1.66,4.82-2.48.98-.5,1.96-1.01,2.95-1.52.12-.06.28.01.33.13.01.03.02.05.02.08Z"/>
  <path class="cls-7" d="M46.47,26.03v.02s0,.02,0,.02c-.27,2.95-.54,5.9-.81,8.85-.28,3.08-.56,6.16-.85,9.23-.12,1.3-.24,2.61-.36,3.91h0v.02s0,.02,0,.03c-.02.12-.14.21-.25.21h0c-.05,0-.11-.02-.14-.06-.09-.02-.17-.09-.19-.18-.36-1.86-.73-3.71-1.09-5.57-.61-3.09-1.22-6.18-1.82-9.28-.37-1.86-.73-3.71-1.1-5.57h0s0-.07,0-.09c0,0,0-.01,0-.02-.01-.05-.01-.1,0-.15.03-.07.09-.14.17-.16.6-.15,1.2-.29,1.79-.44.75-.19,1.51-.38,2.27-.56.08-.02.17-.04.25-.06.59-.14,1.16-.28,1.75-.43,0,0,0,0,.01,0h0c.05-.02.11-.01.16.01h0c.1,0,.18.07.22.16.01.03.02.06.02.1Z"/>
  <path class="cls-7" d="M63.07,25.24s.01.07,0,.1c-.42,3.07-.85,6.14-1.27,9.21-.48,3.51-.97,7.02-1.45,10.54-.24,1.76-.48,3.52-.73,5.27h0s0,.03,0,.04c0,0,0,.02,0,.02,0,.04,0,.07-.02.11-.02.12-.12.23-.25.23h-.02c-.07,0-.13-.04-.18-.09,0,0-.02-.01-.02-.02-.04-.03-.06-.07-.07-.12,0-.02,0-.04-.01-.05v-.03s0-.03,0-.05v-.03c-.28-2.83-.57-5.66-.86-8.49-.35-3.52-.71-7.04-1.06-10.55-.11-1.12-.23-2.25-.34-3.38-.09-.9-.19-1.8-.27-2.7,0-.06.02-.11.05-.16.03-.04.08-.08.13-.09,0,0,0,0,.01,0,.04-.02.07-.03.11-.03.53,0,1.05.02,1.58.02,1.45.02,2.89.05,4.34.07h.09c.05,0,.11.02.14.06,0,0,.02.01.02.02.04.03.06.07.08.11Z"/>
  <path class="cls-7" d="M77.13,27.02s0,.05,0,.08c-.55,2.77-1.12,5.54-1.68,8.32-.58,2.86-1.16,5.71-1.73,8.57-.14.7-.28,1.39-.42,2.08,0,.01,0,.02,0,.03,0,.01,0,.02,0,.03-.02.12-.12.21-.25.21-.02,0-.03,0-.04,0-.04,0-.07-.02-.1-.04-.11-.02-.2-.11-.21-.22,0,0,0-.02,0-.03h0v-.02c-.14-1.75-.27-3.5-.39-5.26-.28-3.74-.56-7.49-.84-11.23-.05-.7-.11-1.41-.16-2.11-.03-.39-.05-.79-.09-1.18,0-.09.03-.16.09-.21.04-.03.09-.05.14-.06.04,0,.09,0,.12.02.02,0,.04,0,.07,0,0,0,.01,0,.02,0,1.03.14,2.06.29,3.09.44.73.1,1.47.2,2.2.31.06,0,.11.04.14.09s.06.1.05.17h0v.02h0Z"/>
  <path class="cls-6" d="M104,81.37c.4-.02.79-.04,1.19-.06-.1.42-.2.84-.31,1.25-.2.75-.42,1.5-.66,2.23-.84,0-1.68-.01-2.52-.02-2.03,0-4.07-.02-6.1,0-.8,0-1.6,0-2.4.02,0-.98-.19-1.95-.56-2.88,1.8-.09,3.6-.17,5.4-.25,1.98-.09,3.97-.2,5.96-.3Z"/>
  <path class="cls-6" d="M23.06,83.37c.07,0,.14.01.2.02-.2.8-.25,1.62-.18,2.42-.27-.01-.55-.03-.83-.04-.57-.03-1.14-.05-1.71-.07-1.91-.07-3.83-.12-5.75-.17-.97-.02-1.93-.05-2.9-.07-.28-1.12-.51-2.25-.7-3.38,1.19.14,2.38.28,3.57.41,1.89.21,3.77.42,5.66.61.88.09,1.75.18,2.63.27Z"/>
  <path class="cls-6" d="M23.82,88.48c-.34.05-.68.1-1.01.16-.72.12-1.43.25-2.15.37-.94.14-1.88.28-2.82.43-.89.14-1.78.29-2.67.42-.61.09-1.23.18-1.84.26-.31-.83-.6-1.68-.86-2.53-.11-.37-.21-.74-.32-1.11.21,0,.43,0,.64,0,1.92.02,3.84.03,5.77.04.48,0,.96,0,1.45,0s.97,0,1.45,0c.57,0,1.14-.02,1.71-.02.12.69.34,1.36.63,1.98Z"/>
  <path class="cls-6" d="M53.26,110.05c-2.68-.04-5.36-.16-8.02-.38-1.2-.1-2.42-.22-3.64-.36-2.36-.28-4.7-.64-7.02-1.15-1.72-.38-3.46-.84-5.16-1.45-.2-.07-.4-.15-.6-.23-.09-.04-.18-.07-.27-.11,0,0,0,0,0,0,.13.04.26.07.39.11.03,0,.06.02.1.02.16.04.32.09.47.12.21.05.41.1.62.14,1.11.24,2.24.39,3.38.45.41.03.82.04,1.23.04.1,0,.2,0,.3,0,.14,0,.25-.1.26-.24,0-.13-.1-.26-.24-.26h-.24c-.81,0-1.62-.04-2.43-.13h0s0,0-.02,0c-.9-.1-1.79-.25-2.67-.46-.85-.21-1.69-.47-2.51-.78-.2-.08-.4-.16-.6-.24-.15-.06-.3-.13-.46-.2-.14-.06-.27-.12-.41-.19-.14-.06-.28-.13-.41-.2-.02-.01-.04-.02-.06-.03h0c-.08-.07-.16-.14-.25-.22-.16-.15-.32-.31-.46-.48-.08-.1-.18-.23-.26-.36-.07-.11-.13-.22-.18-.34,0-.02-.02-.04-.02-.05-.05-.12-.2-.19-.32-.14-.12.05-.2.2-.14.32.07.18.17.35.27.52-.01,0-.02-.01-.03-.02-.21-.12-.41-.26-.62-.39-.21-.14-.43-.29-.64-.43,0,0,0,0,0,0h0c-.77-.55-1.5-1.16-2.21-1.81-.73-.69-1.45-1.45-2.11-2.25-.73-.89-1.42-1.84-2.05-2.84-.71-1.14-1.37-2.35-1.94-3.61-.21-.46-.41-.92-.6-1.39.21-.04.42-.08.62-.12.91-.18,1.84-.34,2.75-.5,1.71-.3,3.43-.63,5.15-.9.64-.1,1.29-.21,1.93-.32.02,0,.03,0,.04,0,.13.22.27.43.41.64h0c.07.11.15.21.23.32.16.2.32.4.5.59.09.09.18.19.27.28.09.09.18.18.28.26.09.09.2.17.29.25.1.08.2.16.3.23.09.07.18.13.27.19.03.02.05.04.08.05.1.07.2.12.29.18.23.14.48.27.73.38.1.05.21.09.31.13.12.05.24.09.36.14.24.08.49.15.75.21.12.03.23.05.36.07.02,0,.04.01.07.01.25.04.5.07.75.09h0c.13,0,.26.01.39.01.07,0,.14,0,.22,0,6.06.16,10.1-7,6.84-12.11-3.25-5.6-11.94-4.89-14.25,1.16-.06.13-.11.27-.16.4-.18-.03-.37-.05-.55-.08-.3-.04-.61-.09-.91-.12-.93-.12-1.86-.25-2.79-.37-2.73-.36-5.47-.69-8.2-1.02-.06,0-.12-.02-.18-.02-.11-.01-.22-.03-.33-.04-.1-.69-.19-1.39-.26-2.08-.4-3.79-.41-7.61-.13-11.39.28-3.81.87-7.6,1.71-11.33.47-2.09,1.02-4.16,1.64-6.21-.54-1.28-1.07-2.57-1.6-3.84-1.47-3.55-2.95-7.11-4.42-10.66-.95-2.29-1.9-4.59-2.85-6.88-.02-.04-.02-.08-.02-.12-.05-.05-.08-.13-.06-.21.02-.13.16-.22.29-.2,3.27.66,6.54,1.32,9.8,1.97,3.68.74,7.37,1.48,11.06,2.22.81.16,1.62.32,2.43.49.03-.09.08-.18.14-.27.2-.29.48-.53.76-.74.37-.28.76-.53,1.15-.77.37-.23.75-.44,1.14-.64,1.64-.87,3.36-1.61,5.09-2.27.9-.34,1.8-.67,2.72-.96.22-.05.43-.1.65-.15.33-.07.65-.15.98-.24h0,0s0,0,.01,0c0,0,0,0-.01,0,0,0,0,0,.01,0,0,0,0,0,0,0,0,0,.02,0,.03,0h0,.01s0,0,0,0c.16-.04.31-.07.46-.11.09-.02.19-.05.28-.08.09-.02.17-.05.25-.07.23-.07.46-.12.69-.17.22-.05.44-.11.66-.17.14-.04.27-.07.41-.11.16-.02.32-.04.49-.06.04,0,.07,0,.11.01.77-.22,1.55-.39,2.33-.53.96-.18,1.94-.31,2.91-.43,1.78-.2,3.56-.32,5.34-.37,0,0,0,0,0,0,.07.01.14,0,.21,0,0,0,.02,0,.03,0,.08,0,.16.01.25.02.03.02.07.02.11.02.11-.02.21-.02.32-.02.07,0,.14,0,.21,0,0,0,0,0,0,0,.02,0,.03,0,.04,0h0c.14,0,.29.02.44.01.11,0,.22,0,.33,0,.26,0,.52-.02.79-.02h.04c.12,0,.25,0,.38,0,.11,0,.21,0,.32,0,.2,0,.41,0,.61,0s.42,0,.63,0c.21,0,.42.01.63,0,0,0,0,0,0,0h0,0s.08,0,.12,0c.11,0,.22,0,.32,0,.17,0,.33.02.49.01h.05-.04.2-.04.07c3.72.14,7.44.48,11.12,1.02,1.66.24,3.3.52,4.94.85.1.03.21.05.31.07h-.02.02s0,0,.01,0c0,0,.02,0,.02,0,.01,0,.03,0,.04.01.02,0,.04,0,.06,0,.02,0,.03,0,.04,0,1.73.36,3.45.78,5.14,1.28,1.55.46,3.09,1,4.57,1.68.01,0,.02,0,.03.01h0s.01.01.02.02h0s0,0,.02,0c.03.01.05.02.07.04.03.01.05.03.07.05,2.76-1.59,5.52-3.2,8.28-4.79,2.48-1.44,4.97-2.88,7.46-4.32.23-.13.46-.27.69-.4.12-.07.27-.03.34.08,0,0,0,0,0,0,.1.04.16.16.14.27-.25,1.48-.49,2.96-.73,4.44-.55,3.37-1.11,6.74-1.66,10.11-.37,2.21-.73,4.43-1.09,6.64-.15.89-.29,1.79-.44,2.69.02.04.05.09.07.13.48.89.89,1.81,1.28,2.74.5,1.2.95,2.43,1.37,3.66.5,1.46.95,2.94,1.35,4.43.54,1.99,1.01,4,1.35,6.04.13.79.24,1.58.31,2.38.03.3.05.61.06.92.42,3.14.5,6.33.28,9.5-.15,2.06-.43,4.12-.86,6.14-.18,0-.35.02-.53.03-.94.05-1.88.11-2.81.17-2.02.12-4.04.25-6.05.39-.98.07-1.96.13-2.93.19-.42.03-.84.06-1.27.09-.45-.85-1.07-1.63-1.88-2.31-.13-.11-.27-.22-.42-.33-.14-.11-.3-.21-.45-.31-3.94-2.69-9.84-.91-11.64,3.5-2.36,5.06,1.67,11.28,7.26,11.18h.09c.15,0,.29,0,.44-.01h.04c.14,0,.28-.02.42-.04.13-.01.25-.03.38-.05l.2-.04c.11-.02.21-.04.3-.06.12-.03.25-.06.38-.09.11-.03.23-.06.34-.1.04-.01.07-.02.11-.04.24-.08.48-.17.7-.28.37-.16.71-.36,1.04-.57.1-.06.2-.13.3-.2,0,0,.02-.01.02-.02.11-.07.21-.16.3-.24.1-.08.2-.16.29-.25.48-.43.89-.92,1.25-1.45.06-.09.12-.18.18-.28.17-.28.33-.57.46-.86l.69.08,2.73.32c1.77.2,3.55.41,5.32.64.39.05.79.1,1.19.15-.44.95-.93,1.88-1.45,2.8-.79,1.38-1.67,2.71-2.63,3.97-.85,1.09-1.77,2.14-2.75,3.13-.86.85-1.8,1.68-2.79,2.43-.9.68-1.84,1.3-2.82,1.86h0s0,0-.01,0c-.07.04-.14.08-.21.12.03-.03.06-.05.09-.08.03-.02.05-.05.08-.07,0,0,.02-.01.02-.02.04-.03.07-.06.11-.09,0,0,0,0,0,0,.09-.07.18-.15.28-.23.2-.16.39-.32.56-.49,0,0,0,0,0,0,.06-.06.12-.12.16-.18.05-.06.09-.12.12-.18.02-.04.04-.07.05-.11,0-.02.01-.04.01-.05.01-.07,0-.13-.04-.19-.03-.04-.07-.08-.14-.11-.12-.03-.24.04-.29.16-.81.93-1.78,1.71-2.88,2.31,0-.16-.2-.28-.36-.2-.98.52-1.96,1.03-3.03,1.37-.05-.11-.19-.17-.3-.13-.89.3-1.77.67-2.68.89-.05,0-.09.02-.14.03-.05,0-.11.01-.16.01-.15.02-.29.03-.44.04-.24.02-.47.03-.71.04-.18,0-.36,0-.54,0h-.13c-.14,0-.26.09-.27.23,0,.13.1.26.23.27h.22c-.02.05-.01.11,0,.15,0,.02,0,.03.02.04h0s.04.05.06.07c.04.03.09.05.15.05,0,0,0,.02,0,.03,0,.02.02.04.03.06-.23.05-.45.11-.68.16-.2.04-.39.09-.59.13-.47.11-.95.2-1.43.3-.23.04-.46.09-.7.13-.24.05-.47.09-.71.13-1.12.2-2.28.39-3.43.55-3.51.5-7.05.81-10.59.98-2.17.11-4.36.16-6.56.16-.61,0-1.23,0-1.84-.01ZM50.03,95.97c-.14.01-.23.14-.22.27.07,1.11.91,1.99,1.81,2.56.69.44,1.45.75,2.23.98,1.16.34,2.37.5,3.57.53.12,0,.23,0,.35,0,1.23,0,2.46-.13,3.66-.44,1-.26,1.98-.62,2.86-1.16.88-.54,1.72-1.32,1.99-2.34h0s0-.02,0-.02h0s0-.01,0-.01c0,0,0-.02,0-.03,0,0,0-.01,0-.02.02-.11-.05-.23-.15-.27-.08-.06-.18-.07-.27-.02-.04.02-.09.05-.13.07-.19.1-.43.19-.66.27-.38.13-.77.23-1.16.31-.43.09-.91.15-1.38.18-.37.02-.74.02-1.12,0-.26-.02-.52-.05-.77-.1-.14-.03-.31-.07-.48-.13-.09-.03-.2-.07-.3-.13,0,0-.02,0-.03-.02,0-1.1.02-2.21.02-3.31.01-1.77.02-3.54.03-5.3,0-.87.01-1.73.02-2.59,0-.64.01-1.29.01-1.93.41-.1.82-.23,1.22-.39.81-.32,1.56-.78,2.18-1.38.53-.52.95-1.16,1.11-1.89.16-.68.07-1.4-.22-2.04h0s0-.01,0-.02c0-.02-.02-.04-.03-.06,0,0,0-.01,0-.02-.31-.62-.8-1.14-1.35-1.55-.89-.65-1.93-1.06-3-1.28-.47-.1-.95-.16-1.43-.19-.22-.02-.44-.02-.66-.02-.25,0-.51,0-.76.03-.26.02-.52.05-.77.09-.25.04-.49.08-.74.14-.46.1-.91.24-1.34.41-.23.09-.46.19-.68.3-.2.11-.4.22-.6.34-.21.13-.41.28-.6.44-.17.14-.34.29-.49.46-.16.18-.32.37-.45.57-.11.17-.22.36-.3.55-.07.16-.14.32-.18.5-.05.2-.09.41-.11.61-.02.39.02.8.14,1.18.07.21.15.42.27.61.08.14.17.27.26.41.06.09.13.18.21.26.09.1.17.19.26.28.35.34.75.64,1.17.88.4.22.81.42,1.25.57.45.15.89.27,1.36.36.29.05.58.09.87.12,0,1.77,0,3.54-.01,5.3,0,2.5-.01,5-.02,7.5-.2.1-.42.18-.64.26-.27.09-.56.17-.86.23-.34.07-.7.12-1.05.14-.32.02-.68.02-1.03,0-.29-.02-.57-.07-.86-.12-.21-.04-.44-.11-.66-.18h0c-.16-.06-.32-.13-.48-.21-.12-.06-.25-.13-.37-.22-.03-.02-.07-.04-.1-.07,0,0,0,0,0,0-.02-.02-.03-.02-.05-.04,0,0-.02-.02-.03-.02-.01,0-.02-.02-.04-.02-.04-.08-.13-.14-.22-.14,0,0-.02,0-.03,0ZM36.79,73.8c2.79.13,4.19-2.44,4.19-5.01s-1.33-5.01-4.02-5.01h-.03c-4.83.59-4.9,9.23-.14,10.02ZM79.04,73.46c5.28.41,5.91-8.82,1.11-9.99-.19-.03-.37-.04-.55-.04-4.94,0-5.41,9.09-.57,10.03ZM56.7,24.99s0,0-.01,0c-.05.01-.1.05-.13.09-.04.05-.05.1-.05.16.09.9.18,1.8.27,2.7.11,1.13.23,2.25.34,3.38.36,3.52.71,7.04,1.06,10.55.29,2.83.58,5.66.86,8.49v.03s0,.03,0,.05v.03s0,.04.01.05c.01.05.04.09.07.12,0,0,0,.02.02.02.04.05.11.09.18.09h.02c.13,0,.23-.1.25-.23,0-.04.01-.07.02-.11,0,0,0-.01,0-.02,0-.01,0-.02,0-.04h0c.25-1.76.49-3.52.73-5.28.48-3.51.97-7.02,1.45-10.54.42-3.07.85-6.14,1.27-9.21,0-.04,0-.07,0-.1-.02-.04-.04-.08-.08-.11,0,0-.02-.01-.02-.02-.04-.04-.09-.06-.14-.06h-.09c-1.45-.02-2.89-.05-4.34-.07-.53,0-1.05-.02-1.58-.02-.04,0-.08,0-.11.03ZM46.05,25.76c-.59.15-1.16.29-1.75.43-.08.02-.17.04-.25.06-.75.18-1.51.37-2.27.56-.6.15-1.2.29-1.79.44-.08.02-.14.09-.17.16-.02.05-.02.1,0,.15,0,0,0,.01,0,.02,0,.03,0,.05,0,.08h0c.36,1.87.73,3.72,1.1,5.58.61,3.09,1.21,6.18,1.82,9.28.36,1.86.73,3.71,1.09,5.57.02.09.1.16.19.18.04.04.09.06.14.06h0c.11,0,.23-.09.25-.21,0-.01,0-.02,0-.03h0v-.02c.12-1.3.24-2.61.36-3.91.29-3.08.57-6.16.85-9.23.27-2.95.54-5.9.81-8.85,0,0,0-.02,0-.02v-.02s0-.07-.02-.1c-.04-.09-.12-.16-.22-.16h0s-.1-.03-.16-.01h0s0,0-.01,0ZM71.41,25.97c-.05,0-.1.03-.14.06-.06.05-.09.13-.09.21.03.39.06.79.09,1.18.05.7.11,1.41.16,2.11.28,3.74.56,7.49.84,11.23.12,1.76.25,3.51.39,5.26v.02h0s0,.03,0,.04c.01.12.1.21.21.22.03.02.06.04.1.04.02,0,.03,0,.04,0,.12,0,.23-.09.25-.21,0,0,0-.02,0-.03,0-.01,0-.02,0-.03.14-.69.28-1.39.42-2.08.58-2.86,1.16-5.71,1.73-8.57.56-2.77,1.13-5.54,1.68-8.32,0-.03,0-.06,0-.08h0v-.02h0c0-.07-.02-.12-.05-.17s-.09-.08-.14-.09c-.73-.11-1.47-.21-2.2-.31-1.03-.15-2.06-.29-3.09-.44,0,0-.01,0-.02,0-.02,0-.05,0-.07,0-.03-.02-.07-.02-.1-.02,0,0-.02,0-.02,0ZM12.53,34.38c-.02.06-.01.12.01.17-.06.07-.08.16-.04.25,1.33,2.78,2.66,5.56,3.98,8.34.02.03.04.06.07.08.02.05.04.1.08.13.05.04.1.05.15.05.07,0,.15-.03.2-.09.11-.13.23-.26.34-.39,1.54-1.76,3.09-3.52,4.63-5.29.05-.06.07-.14.05-.22h0c.04-.14-.04-.27-.17-.31-.61-.2-1.21-.39-1.82-.59-2.38-.76-4.75-1.53-7.12-2.29,0,0-.01,0-.02,0-.01,0-.02,0-.04-.01-.02,0-.05-.01-.07-.01-.11,0-.2.07-.24.18ZM98.57,28.6c-.98.51-1.96,1.01-2.95,1.52-1.61.83-3.21,1.66-4.82,2.48-.08.04-.14.11-.15.2-.07.1-.05.23.04.32,0,0,0,0,0,0,0,0,0,0,0,0,.12.12.25.24.38.36,1.84,1.73,3.68,3.47,5.51,5.21.05.05.11.07.17.07.04,0,.08,0,.11-.03.09-.02.17-.09.19-.18.14-.67.27-1.34.4-2.01.21-1.04.41-2.07.62-3.1.29-1.48.59-2.95.89-4.43.01-.08,0-.16-.05-.21,0-.03,0-.05-.02-.08-.04-.09-.13-.15-.23-.15-.03,0-.07,0-.1.02Z"/>
  <path class="cls-3" d="M76.82,27.4c-.35,0-.32-.66.05-.6.34.07.3.6-.05.6Z"/>
  <path class="cls-3" d="M76.7,26.99s-.06,0-.09,0c-.04,0-.08-.02-.11-.03-.08,0-.15.05-.23.03-1.41-.11-2.83-.56-4.23-.76-.01,0-.02,0-.03,0,0,0,.01,0,.02,0,0,0,0,0,.01,0-.18.02-.35-.03-.53-.03,0,0,0,0,0,0,0,0,0,0,0,0-.41-.05-.25-.61.14-.49,0,0,0,0,0,0,0,0,0,0,0,0,1.02.02,1.99.4,3,.49.76,0,1.57.12,2.3.36.27.16.03.59-.25.45Z"/>
  <path class="cls-3" d="M75.11,26.75c-.05,0-.1-.02-.14-.05-.7-.13-1.4-.21-2.12-.28-.32-.01-.3-.51.02-.5.86-.05,1.69.17,2.53.32.13.03.23.15.21.29-.03.18-.22.25-.38.19-.04.02-.08.03-.12.02Z"/>
  <path class="cls-3" d="M76.48,27.87c-.16-.06-.21-.29-.09-.41.07-.18.07-.39.2-.53,0,0,0,0,0,0,.11-.82.81-.53.52.18-.03.05-.06.14-.12.18-.12.22-.15.72-.51.58Z"/>
  <path class="cls-3" d="M71.49,26.51c-.26-.03-.31-.3-.32-.51,0-.16-.06-.35.12-.45.2-.13.45.11.38.31,0,.02,0,.04,0,.06,0-.02,0-.02,0-.03,0,.06,0,.12.01.18.19.15.05.47-.19.44Z"/>
  <path class="cls-3" d="M76.67,26.8h-.01c-1.43-.43-2.97-.5-4.45-.7-.18.07-.65-.05-.8-.14-.2-.11-.13-.41.07-.46.05,0,.11.02.17.02.33.06,1.21.14,2.18.26.02,0,.03,0,.04.01.02,0,.03,0,.05,0h0c.09.01.19.04.28.05.1.01.2.02.29.03.05.01.1.02.15.04.13.03.26.05.39.07-.01,0-.02,0-.03,0,.1.02.2.03.3.04,0,0,0,0,.01,0,0,0,0,0-.01,0,0,0,0,0,.01,0h.01c.17.02.34.07.52.11-.01,0-.02,0-.03,0,.04,0,.08.02.11.03h0c.07.01.14.04.21.05.07.02.14.02.21.03h0s.01,0,.02,0h0,0c.07.02.14.03.21.05.07.02.14.04.21.05,0,0,0,0,0,0,.03,0,.06.02.09.03.27.14.29.3-.08.48-.04,0-.08-.02-.12-.04Z"/>
  <path class="cls-3" d="M71.44,26.12c-.11-.02-.18-.09-.21-.18-.04-.07-.07-.14-.07-.22-.04-.07-.03-.16,0-.23.02,0,.04,0,.05,0,.02,0,.04,0,.06,0h.02s.04,0,.05,0c0,0,.02,0,.02,0,.03,0,.05,0,.08,0,0,0,0,0,0,0l.19.02c.01.05.02.11.03.16.13.17.05.45-.18.45-.01,0-.02,0-.04,0Z"/>
  <path class="cls-3" d="M76.73,27.29c-.25-.11-.1-.39-.07-.57-.02-.17.04-.31.12-.39.03,0,.07.02.1.03-.01,0-.02,0-.03-.01.11.04.22.07.33.11,0,0,0,0,.01,0,0,.02,0,.05.01.08,0,0,0-.01,0-.02-.02.25-.05.78-.37.78-.03,0-.06,0-.09-.02Z"/>
  <path class="cls-3" d="M61.4,25.45c-.39-.08-.91.15-1.22-.11-.08,0-.18,0-.25-.05-.98,0-1.95-.04-2.94-.04-.14.02-.3-.06-.32-.21-.03-.22.18-.3.36-.31.51-.02,1.01.04,1.52.03,1.07.11,2.54-.25,3.49.22.25.1.19.49-.09.5-.19-.03-.38.03-.56-.03Z"/>
  <path class="cls-3" d="M61.01,25.3c-.14,0-.28.01-.42.02-.32.01-.33-.5,0-.5.52.08,2.27-.42,2.12.46-.21.27-.7.1-.98.13-.25-.06-.55.14-.72-.1Z"/>
  <path class="cls-3" d="M62.72,25.53c-.22-.06-.2-.3-.16-.46v.03s0-.02,0-.04c-.37.07-.68-.2-.51-.39.04,0,.07,0,.11,0h-.04.05s0,0,.01,0c0,0,0,0,.01,0,0,0,0,0,0,0,.11,0,.21.02.32.03h.16c.06,0,.12,0,.18,0h0s0,0,0,0c.01,0,.02,0,.03,0,0,0,0,0,0,0,.08,0,.16.01.25.01,0,.01,0,.02,0,.03,0,0,0-.02,0-.03.01.27.01.8-.35.8-.02,0-.04,0-.06,0Z"/>
  <path class="cls-3" d="M56.58,25.33s-.03-.07-.04-.11c0,0,0,0,0-.01,0,0,0-.02,0-.02,0-.01,0-.02-.01-.02,0,0,0-.01,0-.02,0-.01,0-.02-.01-.03-.01-.03-.01-.05-.01-.09,0-.03-.02-.07-.02-.1,0,0,0-.02,0-.02-.01-.05-.01-.09,0-.13,0-.02,0-.04,0-.07,0-.02,0-.04,0-.05.07,0,.14,0,.21,0,.26,0,.52-.02.79-.02h-.03.07c.12,0,.25,0,.38,0,.11,0,.21,0,.32,0,.2,0,.41,0,.61,0s.42,0,.63,0c.2,0,.4.01.6,0,0,0,0,0,0,0,0,0,.01,0,.01,0,0,0,0,0,.01,0,.04,0,.08,0,.12,0,.11,0,.22,0,.32,0,.17,0,.33.02.49.01h-.03.06-.04.06-.04.2-.04c.18,0,.35-.01.52,0,0,0,0,0,0,0,0,0,0,0,0,0,0,0,.01,0,.02,0h-.02c.16,0,.32.02.47.03h-.04.05s0,0,.01,0c0,0,0,0,.01,0,0,0,0,0,0,0,.11,0,.21.02.32.03h.16c.06,0,.12,0,.18,0h0s0,0,0,0c.01,0,.02,0,.03,0,0,0,0,0,0,0,.05,0,.11,0,.16.01-.02.11-.12.2-.24.2-.61,0-1.22,0-1.83.01-.92,0-1.84,0-2.76.01-.4,0-.8,0-1.2,0,0,.08.02.16.02.25,0,.11-.08.21-.18.25-.02,0-.05,0-.07,0-.09,0-.17-.05-.22-.12Z"/>
  <path class="cls-3" d="M56.86,25.3c-.12,0-.23-.08-.25-.2-.03-.08-.05-.16-.08-.23,0-.03-.02-.06-.03-.09,0-.02-.02-.04-.02-.05,0,0,0-.01,0-.02,0-.02-.01-.04-.02-.06.07,0,.13,0,.2,0,.11,0,.23,0,.34,0,.03.05.05.09.07.15.02.07.02.15.03.22.02.14-.07.26-.21.28h-.04Z"/>
  <path class="cls-3" d="M39.86,27.21c-.05-.17.07-.27.21-.32.22-.05.45-.11.67-.17h0,0s0,0,0,0c0,0,0,0,.01,0,0,0,0,0,0,0,.01,0,.02,0,.03,0h0s0,0,.01,0h0,0c.16-.04.31-.07.46-.11.09-.02.19-.05.28-.08.09-.02.17-.05.25-.07.23-.07.46-.12.69-.17.22-.05.44-.11.66-.17.06-.02.12-.03.18-.05.75-.17,1.51-.33,2.27-.46.28-.11.82.06.54.43-.2.16-.49.18-.73.23-.14.13-.35.1-.52.16-.06.12-.2.17-.32.12-.01,0-.02-.01-.04-.02h0c-.52.11-1.03.26-1.54.4-.13.04-.29-.05-.31-.2-.82.18-1.65.43-2.48.65-.02,0-.05.01-.07.01-.11,0-.21-.08-.24-.18Z"/>
  <path class="cls-3" d="M43.03,26.58c-.04-.13.04-.27.17-.31.47-.14.96-.29,1.43-.43.08-.03.24-.1.43-.17.14-.02.28-.05.41-.08-.01,0-.02,0-.03,0,.23-.05.47-.11.7-.16.06-.01.12-.02.17-.03.13.03.2.12.18.29h0v-.03c0,.21-.03.48-.19.64-.22.36-.68-.1-.36-.35,0,0,0-.02,0-.02-.89.21-1.77.62-2.68.84-.11,0-.21-.08-.24-.19Z"/>
  <path class="cls-3" d="M40,27.72c-.16-.15-.19-.37-.21-.58-.05-.06-.06-.12-.06-.17.01,0,.02,0,.03,0,.33-.07.65-.16.98-.24h0,0s0,0,0,0c0,0,0,0,.01,0,0,0,0,0,0,0,0,0,.02,0,.03,0h0,.01c.16-.04.31-.07.46-.11.09-.02.19-.05.28-.08.09-.02.17-.05.25-.07.23-.07.46-.12.69-.17.22-.05.44-.11.66-.17.24-.06.48-.14.73-.2.09-.02.19-.04.29-.07.09-.02.18-.04.27-.06.35-.09.71-.12,1.06-.2-.01,0-.02,0-.03,0,.23-.05.47-.11.7-.16,0,0,0,0,0,0,.09.04.14.13.13.28-.09.3-.48.15-.7.25-1.6.55-3.33.98-4.97,1.12-.07.02-.14.04-.2.05-.04,0-.07.02-.11.02.02.05.02.09.01.14.17.18.04.47-.16.47-.05,0-.1-.01-.15-.05Z"/>
  <path class="cls-3" d="M40.06,27.75c-.29-.09-.29-.5-.31-.75,0-.01,0-.03,0-.04,0,0,.01,0,.02,0,.17-.04.34-.08.51-.12.01.02.02.03.03.05.09.19.09.4.14.6.06.16-.09.32-.25.32-.05,0-.1-.02-.15-.06Z"/>
  <path class="cls-8" d="M11.7,84.62c.06.28.13.56.2.84-.17,0-.35,0-.52-.01-.28-1.13-.51-2.28-.7-3.43.17.02.35.04.52.06.04.21.07.42.11.62.02.11.04.23.06.34.05.25.09.49.14.73.06.28.12.56.18.84Z"/>
  <path class="cls-8" d="M13.25,89.9c.02.07.05.14.08.21l-.5.07c-.14-.37-.27-.74-.4-1.12-.29-.86-.55-1.73-.79-2.6.18,0,.35,0,.52,0,0,.03.02.06.03.09,0,.02.01.05.02.07.09.32.18.63.27.95.09.31.19.62.29.93.1.31.2.61.31.92.05.16.11.32.17.47Z"/>
  <path class="cls-8" d="M102.35,89.58c.18.02.35.04.52.07-.79,1.71-1.7,3.36-2.74,4.94-1.97,3-4.41,5.7-7.29,7.86-1.88,1.41-3.97,2.56-6.18,3.38h0c-1.65.89-3.42,1.59-5.25,1.79t0,0c-.94.25-1.89.48-2.84.69-.02,0-.04,0-.06,0-.03,0-.05.02-.07.03t0,0c-3.46.75-6.96,1.25-10.48,1.6-3.38.34-6.77.53-10.17.6-.86.02-1.73.02-2.59.02-2.06,0-4.13-.05-6.19-.15-2.06-.1-4.12-.25-6.17-.46-.27-.03-.53-.06-.8-.09-.04-.04-.08-.06-.13-.07-.07-.01-.13,0-.18.04-1.56-.18-3.12-.4-4.67-.67-1.41-.25-2.8-.54-4.19-.89-1.3-.32-2.59-.71-3.84-1.18-.95-.36-1.89-.77-2.78-1.29-.43-.25-.86-.53-1.25-.85-1.35-.69-2.62-1.52-3.8-2.48-1.33-1.09-2.53-2.32-3.6-3.66-1.86-2.31-3.3-4.94-4.41-7.69.16-.03.33-.06.5-.09h0s0,0,0,0c.19.47.39.93.6,1.39.57,1.25,1.23,2.47,1.94,3.61.63,1,1.32,1.96,2.05,2.84.66.8,1.38,1.56,2.11,2.25.7.65,1.43,1.25,2.21,1.81h0s0,0,0,0c.21.15.42.29.64.43.2.13.41.27.62.39,0,0,.02.02.03.02,0,0,0-.01,0-.02,0,0,0,.01.02.01-.11-.16-.2-.34-.27-.52-.05-.12.01-.27.13-.32.08-.03.16-.02.23.03.02.02.04.03.05.05.02.02.03.04.04.06,0,.02.02.04.02.05.05.12.12.23.18.34.09.14.18.27.26.36.14.17.3.33.46.48.08.07.16.14.25.21h0s.04.02.06.04c.14.07.28.14.41.2.14.07.27.13.41.19.15.07.3.14.46.2.2.09.39.16.6.24.82.31,1.66.57,2.51.78.88.21,1.77.36,2.67.46,0,0,.01,0,.02,0h0c.81.09,1.62.13,2.43.13h.24c.14,0,.25.13.24.26,0,.1-.06.18-.15.21-.02,0-.03.01-.05.02-.02,0-.04,0-.05,0-.1,0-.2,0-.3,0-.41,0-.82-.01-1.23-.04-1.14-.06-2.27-.21-3.38-.45-.21-.04-.41-.09-.62-.14-.16-.04-.32-.08-.47-.12-.04,0-.07-.02-.1-.02-.13-.04-.26-.07-.39-.11,0,0,0,0,0,0,.01,0,.02,0,.03.01-.02,0-.03,0-.04-.01,0,0,0,0,0,0,.09.04.18.07.27.11.2.08.4.16.6.23,1.69.61,3.43,1.07,5.16,1.45,2.32.5,4.66.87,7.02,1.15,1.21.14,2.44.27,3.64.36,2.67.22,5.34.34,8.02.38.62,0,1.23.01,1.84.01,2.2,0,4.39-.05,6.56-.16.83-.04,1.66-.09,2.49-.15.77-.05,1.54-.11,2.3-.18.26-.02.52-.04.79-.07.71-.07,1.41-.14,2.12-.22.2-.02.41-.05.61-.07.32-.04.64-.08.96-.12.44-.05.88-.11,1.32-.18,1.16-.16,2.31-.35,3.43-.55.24-.04.47-.09.71-.13.23-.04.46-.09.7-.13.48-.1.95-.2,1.43-.3.2-.04.39-.09.59-.13.23-.05.45-.11.68-.16t0,0s-.02-.04-.03-.06c0-.01,0-.02,0-.03-.02,0-.04,0-.06,0-.14-.03-.21-.18-.18-.31h-.22c-.14,0-.24-.14-.23-.27,0-.07.04-.13.09-.17.05-.04.11-.06.18-.06h.13c.18,0,.36,0,.54,0,.24,0,.47-.02.71-.04.15,0,.29-.02.44-.04.05,0,.11,0,.16-.01.04-.01.09-.02.14-.03.56-.14,1.12-.34,1.68-.54.2-.07.4-.14.6-.21.13-.05.27-.09.4-.14.12-.04.25.02.3.13,1.06-.34,2.05-.85,3.03-1.37.02,0,.04-.02.05-.02.02,0,.04,0,.05,0,.12,0,.25.1.25.23,0,0,0,0,0,0,.14-.07.27-.15.4-.23.27-.16.52-.33.77-.52h0c.12-.09.25-.18.36-.28.12-.09.24-.2.35-.3.12-.1.23-.21.34-.31.22-.21.44-.44.64-.67,0-.02.02-.05.04-.07.02-.02.04-.04.05-.05.05-.04.12-.05.19-.04.06.04.11.07.14.11.04.05.05.12.04.19,0,.02,0,.03-.01.05,0,.04-.02.07-.05.11-.03.06-.07.12-.12.18-.05.06-.1.12-.16.18,0,0,0,0,0,0-.08.09-.17.17-.27.25-.05.04-.09.08-.14.12-.05.04-.1.08-.15.12-.1.08-.19.16-.28.23,0,0,0,0,0,0-.04.03-.07.06-.11.09,0,0-.02.01-.02.02-.03.02-.05.05-.08.07-.03.02-.06.05-.09.07.07-.04.14-.07.21-.11,0,0,0,0,.01,0h0c.98-.56,1.93-1.19,2.82-1.86.99-.76,1.93-1.58,2.79-2.43t0,0c.99-.98,1.91-2.04,2.75-3.13.96-1.27,1.84-2.59,2.63-3.97.52-.91,1.01-1.85,1.45-2.8Z"/>
  <path class="cls-8" d="M105.19,81.31c.18,0,.35-.02.53-.03-.28,1.19-.6,2.36-.97,3.52-.18,0-.35,0-.53,0,.05-.16.1-.32.15-.48.04-.14.09-.28.13-.43.07-.22.13-.44.2-.66s.12-.45.18-.67c.11-.42.21-.83.31-1.25Z"/>
  <path class="cls-8" d="M103.9,85.76c.18,0,.35,0,.53,0-.35,1.01-.73,2.01-1.16,2.98-.17-.02-.34-.04-.52-.05-.11-.01-.23-.02-.34-.04-1.98-.19-3.95-.4-5.93-.62-.99-.11-1.98-.22-2.97-.33-.26-.03-.52-.06-.78-.09.03-.07.05-.15.08-.23.03-.09.06-.18.08-.28.02-.09.05-.17.07-.26.02-.06.03-.12.04-.18.02-.09.04-.18.06-.28.02-.11.04-.22.05-.33.02-.09.03-.17.04-.26.01-.09.02-.18.03-.27.07,0,.13,0,.2,0,1.21.04,2.43.07,3.64.09,2.02.04,4.05.07,6.07.1.27,0,.55,0,.82.01Z"/>
  <path class="cls-4" d="M54.76,135.18c-.97-.1-1.93-.22-2.89-.34-1.52-.19-3.04-.37-4.55-.59.03,0,.06.01.09.02-.34-.05-.68-.11-1.01-.16-.92-.16-1.83-.36-2.75-.55-.96-.21-1.92-.43-2.88-.65-1.46-.34-2.92-.67-4.35-1.12-.06-.02-.13-.04-.19-.06,0-.03,0-.05,0-.08h0s0-.02,0-.02c.25-1.01.5-2.02.75-3.03.76-3.05,1.51-6.11,2.27-9.16.56-2.25,1.12-4.51,1.68-6.77.22-.89.44-1.79.66-2.69.02-.07.06-.12.11-.16.05-.04.11-.05.18-.04.05.01.09.04.13.07.27.03.53.06.8.09,2.05.21,4.11.37,6.17.46,2.06.1,4.12.15,6.19.15.86,0,1.73,0,2.59-.02,3.39-.07,6.79-.26,10.17-.6,3.52-.35,7.02-.86,10.48-1.6t0,0s.05-.02.07-.03c.02,0,.04,0,.06,0,.11.01.21.09.23.2h0s0,.02,0,.02h0c.38,2.18.76,4.35,1.13,6.52.58,3.33,1.16,6.67,1.73,10,.38,2.2.77,4.39,1.14,6.59.02.09.03.17.05.25.01.08-.01.16-.06.21h-.01c-.23.08-.46.14-.69.21,0,0,.02,0,.02,0-.04.01-.07.02-.11.03-1.47.41-2.95.8-4.44,1.1.05,0,.1-.02.14-.03-1.96.38-3.92.71-5.91.93-.92.1-1.84.16-2.76.26-3.67.37-7.36.53-11.05.58.02,0,.04,0,.06,0-.56,0-1.12,0-1.68,0s-1.07,0-1.6,0Z"/>
  <path class="cls-8" d="M42.09,109.86c-.07,0-.13,0-.18-.04,0,0-.02,0-.03,0-.02,0-.04,0-.06,0-.03,0-.06,0-.09,0,0,0,0,0,0,0-.02,0-.04,0-.05,0h-.01s0,0,0,0c0,0,0,0,0,0,0,0,0,0,0,0,0,0,0,0,0,0,0,0,0,0,0,0,0,0,0,0,0,0,0,0,0,0,0,0,0,0,0,0,0,0-.02,0-.04,0-.06,0-.03,0-.05-.01-.08-.02-.01,0-.02,0-.03,0-.03,0-.06-.02-.09-.04-.09-.04-.15-.14-.15-.24-.04-.07-.05-.15-.02-.23.03-.07.09-.12.16-.14.02,0,.05,0,.07-.01.05-.07.14-.11.24-.1.18.02.36.04.54.05.12.01.23.02.35.03.06,0,.12,0,.18.02.11.02.2.1.21.21.02.13-.06.24-.18.28-.05.02-.1.02-.15.01-.03.09-.1.15-.19.17-.04.04-.09.06-.14.07-.02,0-.05.01-.07.01,0,0-.01,0-.02,0-.05.01-.1.01-.16.02,0,0,.02,0,.02,0Z"/>
  <path class="cls-8" d="M41.86,109.84c-.36.03-.46-.69,0-.59.62-.08.63.72,0,.59Z"/>
</svg>