<?xml version="1.0" encoding="UTF-8"?>
<svg id="Layer_1" data-name="Layer 1" xmlns="http://www.w3.org/2000/svg" xmlns:xlink="http://www.w3.org/1999/xlink" viewBox="0 0 1041 564.73">
  <defs>
    <style>
      .cls-1 {
        fill: none;
      }

      .cls-2 {
        fill: url(#radial-gradient);
      }

      .cls-3 {
        fill: #fff;
      }
    </style>
    <radialGradient id="radial-gradient" cx="1456.49" cy="35.66" fx="1456.49" fy="35.66" r="857.23" gradientTransform="translate(-349.63 311.38) scale(.89 -.89)" gradientUnits="userSpaceOnUse">
      <stop offset="0" stop-color="#fff"/>
      <stop offset=".03" stop-color="#cbffff"/>
      <stop offset=".06" stop-color="#96ffff"/>
      <stop offset=".08" stop-color="#68ffff"/>
      <stop offset=".11" stop-color="#43ffff"/>
      <stop offset=".14" stop-color="#25ffff"/>
      <stop offset=".17" stop-color="#1ff"/>
      <stop offset=".19" stop-color="#04ffff"/>
      <stop offset=".22" stop-color="aqua"/>
      <stop offset="1" stop-color="blue" stop-opacity="0"/>
    </radialGradient>
  </defs>
  <g id="Layer_1-2" data-name="Layer 1">
    <g id="g50">
      <g id="g11">
        <g id="g9">
          <path id="path7" class="cls-3" d="M735.73,365.6c-14.41,3.3-52.33,5.2-52.33,5.2l-4.8,15.01s18.91-1.6,32.72-.2c0,0,4.5-.5,5,5.1.2,5.2-.4,10.81-.4,10.81,0,0-.3,3.4-5.1,4.2-5.2.9-40.82,2.2-40.82,2.2l-5.8,19.51s-2.1,4.5,2.7,3.2c4.5-1.2,41.82-8.2,46.73-7.2,5.2,1.3,11.01,8.2,9.31,14.61-2,7.8-39.22,31.62-61.93,29.92,0,0-11.91.8-22.01-15.31-9.41-15.31,3.6-44.42,3.6-44.42,0,0-5.9-13.61-1.6-18.11,0,0,2.6-2.3,10.01-2.9l9.1-18.91s-10.41.7-16.61-6.9c-5.8-7.3-6.2-10.61-1.8-12.61,4.7-2.3,48.03-10.21,77.84-9.21,0,0,10.41-1,19.31,17.01-.1,0,4.3,7.3-3.1,9h0ZM623.57,438.24c-3.8,9-13.91,18.61-26.41,12.61-12.41-6-32.12-46.33-32.12-46.33,0,0-7.5-15.01-8.9-14.71,0,0-1.6-2.9-2.6,13.51-1,16.41.2,48.33-6.3,53.33-6.2,5-13.71,3-17.61-2.9-3.5-5.8-5-19.61-3.1-43.82,2.3-24.21,7.9-50.03,15.11-58.13,7.2-8,13.01-2.2,15.21-.1,0,0,9.61,8.7,25.51,34.32l2.8,4.7s14.41,24.21,15.91,24.11c0,0,1.2,1.1,2.2.3,1.5-.4.9-8.2.9-8.2,0,0-3-26.31-16.11-70.94,0,0-2-5.6-.6-10.81,1.3-5.3,6.6-2.8,6.6-2.8,0,0,20.41,10.21,30.22,43.42,9.71,33.52,3.1,63.43-.7,72.44h0ZM523.32,352.89c-1.7,3.4-2.7,8.3-11.31,9.61,0,0-82.34,5.6-86.25,11.41,0,0-2.9,3.4,1.6,4.4,4.5.9,23.11,3.4,32.12,3.9,9.61.1,42.02.4,53.63,14.91,0,0,6.9,6.9,6.6,22.51-.3,16.01-3.1,21.61-9.31,27.41-6.5,5.4-62.33,30.42-98.35-8,0,0-16.61-18.51,5.7-32.52,0,0,16.11-9.71,57.03,1.7,0,0,12.41,4.5,11.81,9-.7,4.8-10.21,9.91-24.01,9.61-13.41-.4-23.21-6.8-21.31-5.8,1.8.7-14.41-7.8-19.41-2-5,5.3-3.8,8.6,1.1,11.91,12.51,7.1,60.83,4.6,75.24-11.41,0,0,5.7-6.5-3-11.81-8.7-5-33.62-8-43.32-8.5-9.31-.5-43.92.1-48.93-9.1,0,0-5-6.2.5-23.81,5.8-18.41,46.12-25.51,63.53-27.11,0,0,47.93-1.7,56.73,8.1-.1,0,1.1,2.3-.4,5.6h0ZM387.25,460.85c-5.8,4.3-18.11,2.4-21.61-2.4-3.5-4.3-4.7-21.41-4-48.23.7-27.11,1.3-60.73,7.1-66.04,6.2-5.4,10.01-.7,12.41,3,2.6,3.6,5.7,7.6,6.4,16.11.6,8.5,2.6,53.13,2.6,53.13,0,0,2.6,40.22-2.9,44.42h0ZM399.75,316.97c-16.91,5.6-28.52,3.7-38.32-.5-4.3,7.5-6.8,9.81-10.11,10.31-4.8.5-9.1-7.2-9.91-9.71-.8-1.9-3.1-5.1-.3-12.71-9.61-8.6-10.31-20.21-8.7-28.02,2.4-9,18.61-43.22,67.94-47.23,0,0,24.11-1.8,28.22,11.11h.7s23.41.1,22.91,20.91c-.3,20.91-26.01,46.93-52.43,55.83h0ZM353.73,270.65c-5,8-5.2,12.81-2.9,16.11,5.7-8.7,16.11-22.41,31.42-32.82-11.81,1-21.71,6.1-28.52,16.71ZM421.86,257.24c-15.51,2.3-39.52,23.11-50.93,40.12,17.51,3.2,48.43,2,62.13-25.91-.1,0,6.5-17.31-11.21-14.21h0ZM842.89,418.43c-9.31,16.21-35.42,50.03-70.24,42.12-11.51,27.92-21.11,56.03-26.61,98.25,0,0-1.2,8.2-8,5.3-6.7-2.4-17.91-13.61-20.11-29.12-2.4-20.41,6.7-54.93,25.21-94.45-5.4-8.8-9.1-21.41-5.9-39.32,0,0,4.7-33.22,38.02-63.23,0,0,4-3.5,6.3-2.4,2.6,1.1,1.4,11.91-.7,17.11-2.1,5.2-17.01,31.02-17.01,31.02,0,0-9.31,17.41-6.7,31.12,17.51-26.91,57.33-81.24,82.04-64.13,8.3,5.9,12.11,18.81,12.11,32.72-.1,12.31-3,25.31-8.4,35.02h0ZM835.69,375.8s-1.4-10.71-11.81,1.1c-9,9.91-25.21,28.62-38.32,53.93,13.71-1.5,26.91-9,30.92-12.81,6.5-5.8,21.61-21.41,19.21-42.22h0ZM349.92,389.41c-1.9,24.21-11.21,64.94-77.14,85.05-43.52,13.11-84.65,6.8-107.06,1.1-.5,8.9-1.5,12.71-2.9,14.21-1.9,1.9-16.11,10.11-23.91-1.5-3.5-5.5-5.3-15.51-6.3-24.41-50.43-23.21-73.64-56.63-74.54-58.13-1.1-1.1-12.61-13.11-1.1-27.82,10.81-13.31,46.13-26.61,77.94-32.02,1.1-27.21,4.3-47.73,8.1-57.13,4.6-10.91,10.41-1.1,15.41,6.3,4.2,5.5,6.7,29.22,6.9,48.13,20.81-1,33.12.5,56.33,4.7,30.22,5.5,50.43,20.91,48.63,38.42-1.3,17.21-17.11,24.31-23.11,24.81-6.3.5-16.11-4-16.11-4-6.7-3.2-.5-6,7.6-9.51,8.8-4.3,6.8-8.7,6.8-8.7-3.3-9.61-42.52-16.31-81.54-16.31-.2,21.51.9,57.23,1.4,78.04,27.31,5.2,47.73,4.2,47.73,4.2,0,0,99.65-2.8,102.66-66.44,3.1-63.73-99.35-124.87-175.09-144.28-75.64-19.81-118.46-6-122.17-4.1-4,2-.3,2.6-.3,2.6,0,0,4.1.6,11.21,3,7.5,2.4,1.7,6.3,1.7,6.3-12.91,4.1-27.41,1.5-30.22-4.4-2.8-5.9,1.9-11.21,7.3-18.81,5.4-8,11.31-7.7,11.31-7.7,93.55-32.42,207.51,26.21,207.51,26.21,106.76,54.13,124.97,117.56,122.97,142.18h0ZM67.57,386.11c-10.61,5.2-3.3,12.71-3.3,12.71,19.91,21.41,44.42,34.82,67.74,43.12,2.7-36.92,2.3-49.93,2.6-68.54-36.42,2.5-57.43,8.3-67.04,12.71Z"/>
        </g>
      </g>
      <g id="g19">
        <g id="g17">
          <g id="g15">
            <path id="path13" class="cls-3" d="M1041,378.51v13.21c0,2.9-2.3,5.2-5.2,5.2h-62.93c0,3.3.1,6.2.1,8.9,0,19.51-.8,35.42-2.7,53.33-.3,2.7-2.5,4.7-5.1,4.7h-13.61c-1.4,0-2.7-.6-3.6-1.6s-1.4-2.4-1.2-3.8c1.9-17.81,2.8-33.52,2.8-52.63,0-2.8,0-5.7-.1-8.9h-62.23c-2.9,0-5.2-2.3-5.2-5.2v-13.21c0-2.9,2.3-5.2,5.2-5.2h61.33c-1.3-21.51-3.9-42.22-8.1-63.23-.2-1.3.1-2.6.9-3.6s2-1.6,3.3-1.6h14.71c2.3,0,4.2,1.6,4.7,3.9,4.1,21.71,6.7,42.82,8,64.54h63.73c2.8,0,5.2,2.4,5.2,5.2h0Z"/>
          </g>
        </g>
      </g>
      <g id="g48">
        <g id="g46">
          <path id="path21" class="cls-1" d="M199.84,204.11h-.1M199.04,204.21c-.3,0-.6-.1-.9-.1.3.1.6.1.9.1h.3-.3ZM199.04,204.21c-.3,0-.6-.1-.9-.1.3.1.6.1.9.1h.3-.3Z"/>
          <path id="path44" class="cls-2" d="M955.35,273.75c-32.52-79.94-87.45-148.08-158.89-197.11C723.33,26.51,637.58,0,548.53,0c-147.28,0-283.95,73.14-365.5,195.71-.9,1.3-1.1,3-.6,4.5.5,1.6,1.7,2.7,3.2,3.2l11.41,3.9c.7.2,1.4.3,2,.3,2.1,0,4.1-1.1,5.3-2.8,37.42-55.03,88.05-100.75,146.48-132.37,60.33-32.62,128.67-49.93,197.61-49.93,83.35,0,163.69,24.61,232.53,71.04,67.14,45.32,119.26,108.66,150.78,183,.9,2.2,3.1,3.7,5.5,3.7h13.61c1.6,0,3.1-.8,3.9-2.1,1-1.3,1.2-2.9.6-4.4ZM199.04,204.21c-.3,0-.6-.1-.9-.2.3.1.6.2.9.2ZM934.44,278.45c.3.2.6.4.9.5-.3-.2-.6-.3-.9-.5Z"/>
        </g>
      </g>
    </g>
  </g>
</svg>