<?xml version="1.0" encoding="UTF-8"?>
<svg xmlns="http://www.w3.org/2000/svg" viewBox="0 0 92.01 112.87">
  <defs>
    <style>
      .cls-1 {
        fill: #f2c1c6;
      }

      .cls-2 {
        fill: #272727;
      }

      .cls-3 {
        fill: #e5999f;
      }

      .cls-4 {
        fill: #fff;
      }

      .cls-5 {
        fill: #aaa0a1;
      }

      .cls-6 {
        fill: #f3c2c6;
      }

      .cls-7 {
        fill: #aa9fa0;
      }
    </style>
  </defs>
  <g id="Vector_layer" data-name="Vector layer">
    <path class="cls-1" d="M64.91,39.41s.02-.02.03-.03c.26-.56.52-1.12.78-1.68.52-1.12,1.05-2.24,1.57-3.36,1.39-3.17,2.78-6.34,4.21-9.49.1-.23.19-.47.29-.69.03-.07.05-.13.08-.19.19-.44.39-.87.58-1.31.2-.46.4-.92.6-1.37.19-.43.37-.87.57-1.28.11-.23.22-.46.32-.7.08-.19.17-.39.25-.59.18-.42.36-.84.6-1.2,0,0,.01-.02.02-.03.35-.73.72-1.45,1.12-2.14.07-.2.15-.4.24-.58.27-.54.62-1.04,1.05-1.34.01-.03.03-.06.04-.09.03,0,.05,0,.08,0,.12-.08.25-.13.38-.18.35-.11.73-.09,1.09.16.33.23.58.63.73,1.08.18.55.21,1.15.17,1.7-.04.48-.14.95-.28,1.38,0,.05,0,.09-.03.13-.02.04-.05.09-.07.14-.04.1-.08.19-.12.28-.1.22-.22.42-.34.61-.67,1.28-1.33,2.57-2,3.85-1.44,2.78-2.89,5.57-4.33,8.35-1.48,2.85-2.96,5.7-4.44,8.55-.49.94-.98,1.88-1.47,2.84.04,0,.08,0,.12-.02.12-.03.24-.07.35-.11.24-.1.48-.24.7-.39.63-.43,1.2-.99,1.75-1.58.52-.56,1.01-1.17,1.48-1.79.5-.65.97-1.32,1.43-2.01.94-1.39,1.83-2.85,2.68-4.35,1.37-2.41,2.65-4.92,3.85-7.51,1.02-2.19,1.98-4.44,2.88-6.74.58-1.5,1.13-3.01,1.64-4.56.53-1.61,1.02-3.24,1.42-4.93.21-.86.39-1.73.53-2.62.15-.89.26-1.82.25-2.77,0-.43-.03-.87-.12-1.31-.09-.43-.25-.85-.52-1.15-.23-.25-.51-.36-.78-.38-.15,0-.29.01-.44.05-.25.06-.48.17-.71.29-.64.36-1.21.89-1.75,1.44-.64.66-1.24,1.39-1.82,2.15-.69.9-1.35,1.86-1.98,2.84-.72,1.11-1.41,2.27-2.08,3.44-.77,1.34-1.5,2.71-2.21,4.11-1.61,3.18-3.1,6.47-4.44,9.89-.59,1.52-1.16,3.07-1.68,4.65-.48,1.43-.92,2.9-1.31,4.4-.17.65-.33,1.32-.46,1.99-.02.06-.03.14-.04.21,0,0,0,.01,0,.02h0c0,.05-.02.1-.03.15,0,0,0,0,0,.01,0,0,0,0,0,0-.14.69-.25,1.39-.33,2.1-.06.55-.1,1.11-.1,1.67Z"/>
    <path class="cls-4" d="M64.93,39.98s0,.01,0,.02c0,.04.02.07.03.11h0s0,0,0,0c0,0,0,.02,0,.02h0s.02.07.03.1c0,0,0,0,0,.01h0s0,.02,0,.02c.02.04.03.08.05.12.01.05.03.09.04.14h0c.02.1.05.2.07.29h0c.02.06.03.11.06.17.02.05.04.1.06.15h0s0,.01,0,.01h0s0,0,0,0t0,0h0s.02.04.02.05h0s0,.02.01.03c.04.08.08.15.13.22.03.05.06.09.08.14h0s0,0,0,0h0s0,0,0,0h0s.06.09.09.13h0s0,0,0,0c.03.03.05.06.08.09h0s0,0,0,.01c.04.03.07.07.11.1.04.03.07.05.11.07h0s.03.02.04.03c0,0,.02,0,.03.02.02.01.05.02.07.04t0,0h0s.06.01.09.02c.03,0,.07.02.1.03.03,0,.06.02.1.03.03,0,.06.02.1.04.02,0,.03.01.05.02,0,0,0,0,0,0,0,0,.02,0,.03,0,0,0,.02,0,.03,0,0,0,0,0,0-.01.49-.95.98-1.9,1.47-2.84,1.48-2.85,2.96-5.7,4.44-8.55,1.44-2.78,2.89-5.57,4.33-8.35.66-1.28,1.33-2.57,2-3.85.13-.19.24-.4.34-.61.04-.09.08-.19.12-.28.02-.04.05-.09.07-.14.02-.04.03-.09.03-.13.15-.43.24-.89.28-1.38.04-.55.01-1.15-.17-1.7-.15-.45-.4-.85-.73-1.08-.36-.24-.74-.27-1.09-.16-.13.04-.26.1-.38.18-.04.02-.08.05-.12.08-.44.3-.78.8-1.05,1.34-.09.18-.17.38-.24.58-.4.69-.77,1.4-1.12,2.14,0,0-.01.02-.02.03-.24.36-.42.78-.6,1.2-.08.2-.16.4-.25.59-.1.24-.21.47-.32.7-.2.42-.38.85-.57,1.28-.2.45-.4.91-.6,1.37-.19.44-.38.87-.58,1.31-.03.06-.05.13-.08.19-.1.22-.2.46-.29.69-1.43,3.14-2.82,6.31-4.21,9.49-.52,1.12-1.05,2.24-1.57,3.36-.26.56-.52,1.12-.78,1.68-.01,0-.02.01-.03.03-.01,0-.02.02-.03.03,0,.01,0,.03,0,.04h0c0,.05,0,.09.01.14,0,.02,0,.04.01.06t0,.02h0s0,.05,0,.07c0,.02,0,.03,0,.05h0s0,.01,0,.02c0,0,0,0,0,.01,0,0,0,.01,0,.02t0,0h0s0,0,0,0t0,0h0s0,0,0,0c0,.02,0,.05.01.08Z"/>
    <path class="cls-6" d="M66.69,42.07c0-.15-.1-.27-.21-.3,0,0,0,0,0,0,0,0,0,0,0,0,0,0,0,0-.01,0-.01,0-.02,0-.03,0,0,0,0,0,0,0,0,0,0,0,0,0,0,0,0,0,0,0,0,0,0,0,0,0,0,0,0,0,0,0-.01,0-.03,0-.03,0-.02,0-.03,0-.05-.01,0,0-.02,0-.03,0,0,0-.01,0-.02,0-.09-.02-.18-.04-.27-.07,0,0-.02,0-.03,0-.05-.06-.1-.12-.14-.18-.04-.05-.08-.1-.12-.14-.07-.08-.13-.16-.19-.24,0,0-.01-.02-.02-.03,0,0,0,0,0,0-.06-.41-.12-.82-.18-1.23-.03-.17-.05-.34-.08-.52-.01-.1-.03-.2-.04-.3-.01-.09-.03-.18-.04-.27.02-.11.05-.22.08-.33.03-.12.06-.25.08-.37.04-.19.09-.38.14-.58.03-.13-.05-.3-.15-.35-.11-.05-.21.02-.24.16-.05.22-.1.44-.15.66-.03.13-.06.25-.09.38-.01.06-.03.13-.04.19-.02.09-.02.17-.01.27.01.13.04.27.06.4.02.14.04.27.06.4.04.25.07.49.11.73.02.12.04.25.05.37.01.1.03.21.04.31,0,.05.01.1.02.15.01.08.04.14.08.21.04.08.1.14.16.21.04.05.07.09.11.14.09.11.17.21.26.32.05.06.1.12.17.15.04.02.08.03.12.04.05.01.09.02.14.03.04,0,.08.02.11.03.01,0,.03,0,.04,0,0,0,.01,0,.02,0,0,0,.01,0,.02,0,0,0,0,0,0,0,.01,0,.02,0,.03,0,0,0,.01,0,.02,0,0,0,0,0,0,0,0,0,0,0,0,0,0,0,0,0,0,0,0,0,0,0,0,0,0,0,.02,0,.03,0,0,0,0,0,0,0,0,0,0,0,.01,0,0,0,0,0,0,0,0,0,0,0,0,0,0,0,0,0,0,0,.01,0,.03,0,.03,0,0,0,.01,0,.02,0,.02,0,.04,0,.06,0,.08-.02.14-.12.14-.24Z"/>
    <path class="cls-6" d="M67.05,42.11c.29-.01.18-.62-.1-.54-.19.11-.44.03-.65.02-.15-.2-.36-.2-.51-.38-.33-.67-.56-1.56-.45-2.26,0,0,0,.01,0,.02,0,0,0,.01,0,.02.03-.14.04-.29.05-.44.07-.22.14-.61-.12-.7-.32-.03-.26.78-.33,1.08-.09.55.04,1.12.21,1.67.13.57.39,1.17.86,1.3.12.12.22.26.38.22.23.03.47.1.67-.02,0,0,0,0,0,0Z"/>
    <path class="cls-6" d="M67.37,41.8s.07-.01.1-.03c.04-.02.08-.05.12-.08.06-.05.12-.11.17-.18.07-.1.06-.27-.02-.38-.08-.11-.21-.13-.28-.03-.01.01-.02.02-.03.04,0,0,0,0,0,0-.03.04-.07.07-.08.09-.01,0-.03.02-.04.03-.03,0-.06.01-.09.02-.04.02-.07.05-.11.08-.03,0-.06,0-.1,0-.04,0-.08.02-.12.03-.05.02-.1.02-.15.03,0,0,0,0,0,0,0,0,0,0,0,0,0,0,0,0,0,0-.09-.02-.19-.06-.27-.06-.05-.01-.1-.02-.14-.03-.01,0-.02,0-.03,0-.03-.03-.06-.05-.09-.08-.04-.04-.07-.08-.11-.12-.04-.05-.07-.09-.1-.13,0,0,0-.01-.01-.02,0,0,0,0,0,0,0,0,0,0,0,0,0,0,0,0,0-.01-.02-.05-.04-.09-.06-.14-.04-.08-.09-.16-.13-.23-.01-.03-.03-.05-.04-.08,0,0,0,0,0,0-.03-.08-.06-.16-.09-.24,0-.03-.02-.05-.02-.08-.02-.08-.03-.16-.03-.2,0-.17-.01-.34-.03-.51-.03-.22-.06-.44-.09-.64-.01-.11-.02-.22-.02-.34,0-.02,0-.05,0-.07.02-.14.04-.27.07-.41,0,0,.01-.02.02-.03.04-.03.07-.09.08-.15.01-.06,0-.13-.02-.18-.01-.05-.04-.09-.07-.12-.05-.05-.1-.07-.13-.07-.08,0-.14.04-.17.12-.02.03-.03.06-.03.06-.02.03-.03.06-.05.1-.02.04-.03.09-.03.14-.04.17-.06.35-.07.53,0,.09,0,.19.01.28,0,.09.02.18.03.28.02.18.05.36.08.54,0,.11.01.21.02.32,0,.18.03.37.08.55.03.1.06.2.1.3.06.15.13.28.19.38.03.06.05.14.09.19.04.05.07.1.11.15.05.07.1.13.16.19.05.06.11.11.16.16.04.03.08.06.13.09.05.02.09.03.11.03.07.01.14.03.18.03.1.02.21.08.31.06.1-.01.19-.04.28-.07.05,0,.1,0,.15-.01.05-.01.09-.04.13-.08h0s0,0,0,0Z"/>
    <path class="cls-6" d="M66.98,41.73c.2-.1.45-.17.52-.46.04-.35-.31-.47-.41-.2,0,0,0,0,0,0-.31.22-.54.2-.87-.12-.96-.91-.84-2.73-.45-3.8.04-.25.34-.32.21-.63-.06-.13-.19-.19-.28-.13-.73.89-.77,2.71-.32,4.04.31.73,1,1.5,1.6,1.3Z"/>
    <path class="cls-6" d="M67.36,41.33c.53-.38.7-.4,1.11-1.01.22-.31-.22-.7-.37-.34-.67.79-1.95,1.32-2.37-.45-.26-.88-.09-1.76.23-2.45.09-.17.27-.4.08-.62-.4-.3-.6.81-.72,1.16-.55-.23-.18.99-.15,1.39.28,1.56.96,2.78,2.18,2.33Z"/>
    <path class="cls-6" d="M66.12,42.08c.2-.17,0-.65-.22-.51-.27-.1-.46-.43-.56-.74-.35-.93-.37-1.97-.07-2.78.23-.47.41-.97.58-1.5.04-.13.01-.29-.09-.38-.09-.08-.23-.06-.27.07-.2.78-.6,1.39-.76,2.19-.24,1.15.19,3.8,1.4,3.66Z"/>
    <path class="cls-6" d="M64.96,39.56c.12-.03.16-.21.12-.35.17-1.41.39-2.87.92-4.03.09-.16.29-.35.12-.6-.57-.93-1.98,5.25-1.16,4.98Z"/>
    <path class="cls-6" d="M66.81,42.14c.56-.26,1.01-.74,1.45-1.22.22-.15,0-.64-.22-.49-.53.48-.99,1.19-1.7,1.24,0,0,.01,0,.03,0-.14-.05-.29-.09-.43-.14-.08-.16-.21-.25-.34-.3-.02-.03-.02-.07-.04-.1.05-.33-.34-.51-.39-.18-.05.37.18.76.46.85,0,0,0,0,0,0,0,0,0,0,0,0,0,0,0,0,0,0h0s0,0,0,0c.09.21.28.27.43.31.26.1.51.13.75.03Z"/>
    <path class="cls-6" d="M67.6,41.86c-1.19-.54-2.49-.68-3.78-.83-.25.02-.5.02-.75-.01-.64-.14-.46-.95.12-1.05,1.08-.48,2.23-.49,3.35-.1.67.3,2.73.52,2.38,1.52-.15.29-.52.44-.83.38-.13.13-.33.17-.5.09Z"/>
    <path class="cls-6" d="M64.9,41.68c-.12-.05-.18-.21-.12-.33.06-.51.15-1.07.27-1.59-.3-.97.38-2.62.64-3.62-.04-.23.1-.59.37-.59.1-.33.42-1.5.81-.77-.16.79-.49,1.56-.72,2.34-.37,1.46-.64,2.95-.91,4.44-.05.13-.21.18-.33.12Z"/>
    <path class="cls-6" d="M65.02,42.37c-.16,0-.27-.15-.24-.3.18-2.1.83-4.09,1.35-6.13.17-.52.36-1.05.49-1.56.07-.18.34-.2.44-.04-.19,1.48-1.2,4.07-1.49,5.82-.16.68-.21,1.39-.31,2.07-.04.09-.14.15-.23.15Z"/>
    <path class="cls-6" d="M64.83,41.77c.03-2.81,1.38-5.45,2.14-8.12.05-.27.1-.88.52-.7.16.1.13.28.04.42-.64,2.59-1.88,5.09-2.2,7.74-.09.28.11.66-.18.8-.12.05-.27-.02-.32-.14Z"/>
    <path class="cls-6" d="M37.15,44.22c-1.63-2.02-2.95-4.32-4.73-6.21-.13-.15-.36-.27-.2-.5.18-.23.45,0,.58.16,1.27,1.39,2.33,2.89,3.4,4.43.42.62.87,1.22,1.35,1.8.2.25-.2.57-.4.3Z"/>
    <path class="cls-6" d="M37.49,44.98c-1.93-2.51-3.56-5.27-5.79-7.52-.14-.11-.29-.23-.32-.41-.08-.32.43-.44.49-.11,1.88,1.69,3.12,3.93,4.7,5.88.46.61.8,1.23,1.28,1.81.22.23-.13.59-.36.36Z"/>
    <path class="cls-6" d="M37.44,44.82c-1.89-2.41-3.49-5.09-5.84-7.06-.18-.12-.31-.4-.07-.54.12-.07.28-.02.34.09,1.58,1.33,2.8,2.92,4.03,4.56.67.87,1.24,1.8,1.95,2.64.2.25-.2.56-.4.3Z"/>
    <path class="cls-7" d="M67.71,99.39s0,.05,0,.07c-.04-.06-.11-.11-.19-.11h-.31c-1.86-.02-3.72-.03-5.58-.05-2.57-.02-5.14-.04-7.72-.07-2.58-.02-5.16-.04-7.75-.06-1.61-.02-3.21-.03-4.82-.04h-.02s-.07.01-.11.03c-.06,0-.11.03-.16.07,0-.02,0-.04,0-.05,0,0,0-.02.01-.03.38-1.52.76-3.05,1.13-4.57-.2-.06-.36-.15-.46-.28-.69-.16-.81-.85.02-.72.08-.1.22-.13.33-.07.04.02.07.06.09.1.07.01.16.02.25.03,0-.01,0-.03,0-.04h0c.04-.14.19-.21.32-.17.11.04.17.13.17.24.56.03,1.18.07,1.48.38.29.02.57.05.85.07.16-.12.37-.08.55-.04.57.12,1.22.06,1.75.31.61-.17,1.34.14,1.99.11,2,.16,4.07-.13,6.04.21,2.25-.12,4.47.06,6.73-.1.94.09,1.97-.48,2.88-.15.36-.03.73-.29,1.09-.17.21-.07.55.03.46.31.05.14-.05.3-.19.33.36,1.43.73,2.86,1.09,4.29.02.06.03.12.05.18Z"/>
    <path class="cls-2" d="M69.09,104.04s.01.06,0,.09t0,0s-.03-.07-.06-.1h0c-.04-.09-.13-.15-.23-.15h-.04c-.65,0-1.3,0-1.94,0-2.34,0-4.68.02-7.03.02-3.34.01-6.68.02-10.02.04-1.75,0-3.5.01-5.25.02-1.47,0-2.95.01-4.42.01-.01,0-.02,0-.03,0-.02-.02-.05-.04-.08-.04-.09-.03-.18,0-.25.06,0-.02,0-.04,0-.07.38-1.43.77-2.86,1.16-4.29.02-.07.04-.14.05-.21,0-.02.01-.05.02-.07.02-.05.04-.1.07-.13.04-.04.1-.07.16-.07.03-.02.07-.03.11-.03h.02c1.61.02,3.21.03,4.82.04,2.58.02,5.16.04,7.75.06,2.57.02,5.15.04,7.72.07,1.86.02,3.72.03,5.58.05h.31c.08,0,.15.05.19.11h0s0,0,0,0c.07.03.12.09.15.16,0,.03.02.06.02.09,0,.01,0,.02.01.03h0c.34,1.24.68,2.46,1.03,3.68.05.2.11.41.17.61Z"/>
    <path class="cls-5" d="M70.38,108.72c.02.08.04.16.07.24-.02-.04-.06-.08-.11-.1-.05-.07-.13-.11-.22-.11h-.43c-1.57,0-3.14,0-4.71-.02-2.45,0-4.9-.02-7.35-.02-2.49,0-4.98-.02-7.48-.02-2.08,0-4.16-.02-6.23-.02-1.58,0-3.16-.02-4.74-.02-.14-.03-.3-.06-.45-.05h0s-.05-.03-.07-.03c-.08-.02-.18.01-.24.07.33-1.19.67-2.38,1-3.57.09-.33.19-.66.28-.98.01-.04.03-.07.07-.1h0c.06-.06.16-.09.25-.06.03,0,.06.02.08.04,0,0,.02,0,.03,0,1.47,0,2.95,0,4.42-.01,1.75,0,3.5-.01,5.25-.02,3.34-.01,6.68-.02,10.02-.04,2.34,0,4.68-.02,7.03-.02.64,0,1.29,0,1.94,0h.04c.1,0,.19.06.23.14h0s.05.07.06.1t0,0s.02.06.02.09c.42,1.5.84,3,1.26,4.5Z"/>
    <path class="cls-2" d="M48.18,112.57s.02,0,.02,0c0,0-.02,0-.02,0Z"/>
    <path class="cls-2" d="M54.39,112.85c-2.06-.08-4.12-.19-6.18-.28,0,0,0,0,0,0-.02,0-.03,0-.05,0,0,0,.01,0,.02,0-.02,0-.04,0-.06,0-1.77-.11-3.54-.28-5.3-.48-1.76-.21-3.52-.42-5.28-.67.21-.71.43-1.42.64-2.13.06-.18.11-.37.17-.54h0s.03-.07.05-.09c.06-.06.16-.09.24-.07.03,0,.05.02.07.03h0c.14-.01.3.02.45.05,1.58,0,3.16,0,4.74.02,2.08,0,4.16.01,6.23.02,2.5,0,4.99.02,7.48.02,2.45,0,4.9.01,7.35.02,1.57,0,3.14.01,4.71.02h.43c.09,0,.17.04.22.11.05.02.09.05.11.1.01.02.02.03.02.05,0,0,0,.01,0,.02h0s0,0,0,0h0s0,.01,0,.02c0,0,0,.02,0,.03.24.75.48,1.5.71,2.25-.16.03-.31.07-.47.1.06-.02.11-.03.17-.04-.28.07-.56.11-.84.19-.3.09-.57.22-.87.31-.18.04-.36.07-.55.09-.32.03-.64.05-.97.07-.28.01-.56.05-.83.09-.58.09-1.17.14-1.75.23-.52.07-1.04.15-1.56.18-1.08.07-2.15.12-3.23.18h.03s-.04,0-.06,0c0,0,.01,0,.02,0,0,0,0,0,.01,0,0,0,0,0-.01,0-.02,0-.04,0-.06,0h.04s-.07,0-.1,0c.02,0,.04,0,.06,0-.95.04-1.9.03-2.84.08-.7.03-1.4.06-2.1.06-.31,0-.61,0-.92-.02Z"/>
  </g>
  <g id="Vector_layer-2" data-name="Vector layer">
    <path class="cls-1" d="M34.85,38.99s.02.04.03.05c-.59-.72-1.14-1.18-1.3-.84-.14.25.16.38.32.51.25.24.48.5.7.77-.05.01-.09.03-.12.07-.06.06-.08.14-.07.22-.02,0-.03.02-.04.03-.05,0-.11.03-.16.07-.18.23.11.41.27.54.14.13.28.28.4.44-.94-.88-1.88-1.75-2.82-2.62-2.63-2.55-5.25-5.11-7.91-7.62-.18-.19-.37-.38-.56-.56-.05-.05-.1-.11-.15-.16-.36-.35-.73-.7-1.09-1.05-.38-.37-.75-.74-1.13-1.1-.36-.34-.7-.7-1.07-1.03-.2-.19-.4-.37-.6-.56-.16-.16-.32-.32-.48-.48-.34-.34-.68-.68-1.08-.95,0,0-.02-.01-.03-.02-.64-.59-1.3-1.15-2-1.68-.14-.17-.3-.33-.47-.47-.48-.43-1.06-.8-1.69-.98-.02-.03-.05-.05-.08-.07l-.09.02c-.17-.04-.35-.07-.53-.08-.46-.03-.94.07-1.31.36-.35.27-.54.68-.6,1.11-.07.53.06,1.07.27,1.55.18.42.44.82.74,1.17.01.04.04.08.07.11.04.04.09.07.13.11.07.08.15.15.23.23.19.17.39.33.6.48,1.19,1.01,2.38,2.02,3.57,3.04l7.75,6.59c2.64,2.25,5.29,4.49,7.93,6.74.27.23.54.46.81.68l-.11.08h0c-.19-.07-.38-.15-.54-.24-.28-.29-.72.15-.36.38.1.07.19.12.27.17-.02.07-.02.16.04.23-.02.01-.03.03-.04.04l-.02.02s-.01,0-.02.01l-.19.21c-.49-.19-.96-.41-1.43-.64-.8-.4-1.59-.84-2.35-1.3-.8-.48-1.58-.98-2.35-1.51-1.57-1.05-3.08-2.18-4.57-3.34-2.39-1.88-4.69-3.86-6.91-5.93-1.89-1.75-3.72-3.56-5.48-5.44-1.14-1.22-2.26-2.46-3.33-3.75-1.11-1.33-2.18-2.69-3.16-4.12-.5-.73-.97-1.47-1.4-2.23-.43-.77-.84-1.57-1.09-2.42-.12-.39-.21-.79-.22-1.19,0-.4.07-.81.33-1.13.21-.27.53-.43.86-.5.18-.04.37-.05.56-.05.32,0,.64.05.96.12.89.2,1.75.55,2.58.93.98.46,1.94.99,2.87,1.55,1.11.67,2.2,1.39,3.27,2.13,1.21.85,2.4,1.74,3.56,2.65,1.33,1.04,2.64,2.12,3.91,3.23,2.9,2.51,5.68,5.16,8.32,7.94,1.17,1.24,2.31,2.51,3.41,3.81,1,1.18,1.96,2.4,2.87,3.66.39.55.78,1.11,1.14,1.68.04.05.08.12.11.18,0,0,0,.01,0,.02h0s.05.09.08.13c0,0,0,0,0,.01,0,0,0,0,0,0Z"/>
    <path class="cls-4" d="M34.87,40.84c.33.42.56.91.58,1.44-.74.36-1.46.76-2.12,1.26-.02.02-.04.03-.05.04-.27-.23-.54-.46-.81-.68-2.64-2.25-5.29-4.5-7.93-6.74l-7.75-6.59c-1.19-1.01-2.38-2.02-3.57-3.04-.21-.14-.41-.3-.6-.48-.08-.07-.16-.15-.23-.23-.04-.04-.09-.07-.13-.11-.04-.03-.06-.07-.07-.11-.3-.35-.55-.75-.74-1.17-.21-.48-.34-1.03-.27-1.55.06-.43.25-.84.6-1.11.38-.29.85-.39,1.31-.36.18.01.36.04.53.08.06.01.12.03.17.05.63.18,1.2.56,1.69.98.16.14.32.3.47.47.69.53,1.36,1.1,2,1.68,0,0,.02.01.03.02.39.27.74.61,1.08.95.16.16.32.32.48.48.2.19.4.38.6.56.37.33.71.69,1.07,1.03.38.36.76.73,1.13,1.1.36.36.72.7,1.09,1.05.05.05.1.1.15.16.19.18.38.37.56.56,2.66,2.52,5.29,5.07,7.91,7.62.94.87,1.88,1.75,2.82,2.62Z"/>
    <path class="cls-3" d="M37.45,70.18c7.84-.02,7.78,11.46-.06,11.36-.14-.01-.27-.02-.41-.04-.12-.02-.23-.03-.34-.05-.03,0-.06,0-.09-.02-.11-.02-.23-.05-.34-.08-.11-.03-.22-.06-.33-.09-.01,0-.02,0-.04-.01-.11-.04-.22-.07-.33-.12s-.21-.09-.32-.14c0,0-.01,0-.02,0-.1-.05-.2-.1-.3-.15-.1-.05-.2-.11-.3-.17,0,0-.01,0-.02,0-.09-.06-.18-.12-.26-.18-.07-.05-.14-.1-.2-.15-.05-.04-.11-.09-.16-.14-.01,0-.02-.02-.03-.03-.06-.05-.12-.11-.18-.16-.12-.12-.23-.24-.34-.36-.02-.02-.04-.05-.06-.08-.05-.06-.11-.13-.16-.2-.05-.06-.09-.12-.14-.19-.04-.05-.07-.1-.1-.15-.04-.07-.09-.14-.12-.2-.1-.18-.2-.37-.28-.56-.04-.07-.07-.15-.09-.23-.04-.09-.07-.17-.09-.26-.03-.09-.06-.19-.09-.29-.02-.09-.05-.18-.07-.26-.02-.09-.04-.18-.05-.27s-.03-.18-.04-.27c-.02-.18-.04-.36-.05-.54,0-.22,0-.45,0-.67,0-.01,0-.02,0-.03,0-.11.02-.21.03-.32.01-.1.03-.21.05-.31,0-.03.01-.06.02-.09.01-.07.03-.14.05-.22.02-.08.04-.16.06-.25.02-.08.05-.16.07-.24.03-.09.06-.18.1-.27.02-.05.04-.11.06-.16.02-.05.05-.11.07-.16,0,0,0,0,0-.01.04-.09.09-.19.14-.28.01-.02.03-.05.04-.07.05-.09.1-.18.16-.27.14-.23.3-.45.47-.66.07-.07.13-.14.2-.21l.09-.09s.06-.06.09-.09c.06-.06.13-.12.2-.18s.14-.11.21-.17c.21-.16.43-.31.67-.44.08-.05.16-.09.25-.13.09-.04.18-.09.27-.12.17-.07.35-.14.54-.2.21-.07.43-.12.66-.17.1-.02.2-.04.31-.05.09-.02.19-.03.28-.04.11-.02.21-.02.32-.03Z"/>
    <path class="cls-3" d="M76.14,75.51c.02.17.02.34.02.51,0,.14,0,.28-.02.42,0,.11-.02.22-.03.33,0,.02,0,.03,0,.04-.01.06-.02.12-.03.18-.02.13-.04.26-.07.39-.02.09-.04.18-.07.27,0,.02-.01.04-.02.05-.06.2-.13.41-.21.6,0,.02-.01.03-.02.04-.04.09-.08.19-.13.28-.06.14-.14.27-.21.4-.05.09-.11.17-.16.25-.07.1-.14.2-.22.3-.08.09-.16.19-.24.28,0,0,0,.01-.01.01-.08.09-.17.18-.26.26-.09.09-.19.17-.29.25-.1.08-.2.16-.31.23-.11.07-.22.14-.33.21s-.23.13-.35.19c0,0-.02.01-.03.01-.12.06-.24.11-.36.16-.12.05-.25.09-.39.14-.02,0-.03.01-.05.02-.13.04-.26.08-.39.11-.15.04-.3.07-.46.09h0c-.15.03-.31.05-.47.06-.16.02-.33.03-.5.04-6.92-.03-7.8-10.12-1-11.37.48-.07.94-.09,1.37-.06.18.01.36.03.54.05.05,0,.09.01.14.02.11.02.21.04.32.06.13.03.26.06.39.1.07.02.15.04.22.07,0,0,0,0,.01,0,.1.03.19.07.28.11.21.08.41.18.59.29.05.03.11.06.16.1.51.32.95.71,1.32,1.17.11.14.22.28.32.43.05.08.11.17.16.25.09.16.18.33.26.5.12.26.22.53.3.8.02.07.04.14.06.21.02.09.05.18.06.26.01.05.02.11.04.16h0c.04.23.07.46.09.69Z"/>
    <path d="M45.23,60.56c3.08.84,2.66,7.06-.82,6.7-3.19-.76-2.74-7.18.82-6.7Z"/>
    <path d="M63.7,60.24c3.36.71,2.87,7.41-.83,6.85-3.12-.9-2.71-7.12.83-6.85Z"/>
    <path d="M58.9,72.55c.09.3.13.62.12.94-.02.55-.23,1.08-.54,1.52-.5.71-1.28,1.2-2.09,1.46-.16.05-.32.09-.48.13,0,.14,0,.27,0,.41,0,.55.01,1.09.02,1.64l.04,3.36c0,1.03.02,2.06.03,3.09v.05c.07.02.14.03.22.04.12.02.24.02.37.03.18,0,.35-.01.52-.03,0,0,0,0,0,0,0,0,0,0,.01,0h.02c.2-.03.4-.07.57-.11.14-.04.29-.08.39-.12.07-.04.15-.07.22-.11,0,0,0,0,0,0,0,0,.02,0,.02-.01.02-.02.05-.04.08-.05,0,0,0,0,0,0h0s0,0,0,0h0s0-.02.02-.02c.1-.07.25-.05.32.04.04.05.07.12.06.18.02.02.03.04.04.05,0,.02.01.03.02.05.01.02.02.05.02.07.01.03.02.06.02.1,0,.04,0,.07,0,.1,0,0,0,.02,0,.02,0,.04.01.08.01.12,0,.03,0,.07,0,.1.01.07.02.13.02.2.02.45-.12.89-.39,1.26-.29.41-.71.71-1.16.93-.52.26-1.1.4-1.68.47-.27.03-.54.05-.8.05-.39,0-.78-.03-1.16-.1-.65-.11-1.29-.31-1.87-.62-.49-.27-.95-.62-1.29-1.07-.27-.38-.44-.82-.44-1.28,0-.12.02-.23.04-.34,0,0,0-.01,0-.02-.02-.07,0-.14.05-.21.08-.11.25-.13.35-.04,0,0,.01,0,.02,0,.02.02.03.03.05.04h0s0,0,0,0c0,0,.01,0,.02,0h.02c.07.04.14.07.21.1h.02c.17.07.35.11.52.15.29.06.59.1.88.12.21.01.41.02.61,0,.1,0,.2-.02.27-.03.05-.01.1-.02.12-.03.02,0,.03,0,.04-.02v-.04c0-1.46,0-2.92.01-4.38,0-1.38,0-2.75.01-4.13-.17-.03-.34-.07-.51-.13-.24-.07-.48-.16-.71-.27-.11-.05-.22-.11-.34-.17-.08-.04-.16-.09-.24-.14-.22-.14-.43-.31-.62-.49-.15-.14-.29-.3-.42-.46-.13-.18-.26-.37-.35-.57-.04-.1-.08-.2-.12-.29-.07-.18-.1-.37-.13-.55-.03-.19-.03-.39-.02-.58,0-.08.02-.16.03-.23.02-.11.04-.23.08-.34.08-.21.16-.42.28-.62.09-.15.19-.29.3-.42.2-.25.45-.46.71-.65.37-.27.8-.46,1.23-.61.2-.07.42-.12.62-.16.26-.05.51-.08.77-.1.49-.03.97,0,1.46.09,1.43.26,2.91,1.16,3.39,2.61h0s0,.02,0,.02,0,0,0,0Z"/>
    <path d="M34.57,72.26c.17.02.29.19.29.35,0,.17-.16.33-.33.33h-.03c-.09-.01-.18-.01-.27-.02-.21-.03-.43-.05-.6-.07-.24-.03-.48-.05-.73-.07-.47-.05-.94-.1-1.41-.14-.47-.05-.94-.1-1.41-.14-1.23-.12-2.45-.25-3.62-.38-1.1-.12-2.2-.25-3.3-.37l-1.1-.13c-1.16-.14-2.32-.27-3.47-.39-.32-.04-.64-.07-.9-.1-.04,0-.07,0-.11-.01h-.11c-.06,0-.12-.02-.18-.04h0s-.03,0-.05,0c-.05,0-.11,0-.16,0-.04,0-.08,0-.12,0-.03,0-.05,0-.05,0-.04,0-.07,0-.1,0-.03,0-.06,0-.09-.02-.1-.04-.2-.1-.26-.19-.22-.31-.01-.75.36-.79.06,0,.12,0,.16.01,0,0,.01,0,.02,0,.01,0,.02,0,.02,0,0,0,.02,0,.03,0,.02,0,.05,0,.07,0,.02,0,.03,0,.04,0,.05.02.11.03.16.04.02,0,.04,0,.06,0,0,0,.01,0,.02,0,.03,0,.06-.01.1,0,.05,0,.1.02.15.03.09.02.19.03.28.04.16.02.31.04.47.05.24.03.47.06.71.09.84.1,1.68.2,2.51.3.14.02.29.04.44.05.39.05.78.09,1.17.14,1.41.17,2.82.34,4.23.52,1.14.14,2.27.29,3.41.45.83.11,1.67.23,2.5.33.22.03.43.05.65.08.2.02.39.03.56.07Z"/>
    <path d="M19,76.72s-.1,0-.14-.02c0,0,0,0,0,0,0,0,0,0,0,0,0,0,0,0-.01,0h0s0,0,0,0c-.2-.03-.36-.21-.38-.41-.02-.22.13-.44.35-.49.04-.02.09-.03.14-.03.06,0,.12,0,.18-.01.16-.01.31-.02.46-.02.14,0,.27,0,.41-.01.07-.01.15-.01.22-.02.2,0,.39-.02.59-.02.42-.01.84-.02,1.26-.03.9-.02,1.8-.04,2.69-.05,1.93-.04,3.86-.09,5.78-.12,1.11-.02,2.23-.04,3.35-.06.15,0,.28.13.29.28.02.16-.11.32-.27.33-1.6.08-3.2.17-4.79.25-1.89.09-3.79.18-5.69.27-.64.03-1.29.06-1.93.09-.32.02-.64.03-.96.04-.1,0-.2,0-.31.01-.06,0-.13,0-.19,0,0,0,0,0,0,0,0,0,0,0,0,0,0,0,0,0,0,0-.14,0-.29.01-.43.02-.16,0-.31.01-.47.01-.05,0-.1,0-.15,0Z"/>
    <path d="M17.46,82.11c-.05,0-.11,0-.16-.03,0,0,0,0,0,0-.04-.02-.09-.05-.12-.09-.12-.14-.14-.37,0-.51.07-.08.16-.12.27-.14h.02s.07-.02.1-.02c0,0,0,0,0,0,.03,0,.06,0,.1,0,.02,0,.03,0,.04,0,.16-.03.33-.07.49-.1.34-.07.67-.14,1.01-.21.93-.2,1.86-.39,2.78-.58,1.95-.41,3.89-.81,5.84-1.21,1.28-.26,2.55-.52,3.83-.78.6-.12,1.2-.24,1.8-.37.11-.02.22-.05.33-.07.07-.02.14-.04.21-.05.2-.01.36.16.33.36-.02.12-.12.22-.23.25-.12.03-.24.05-.36.07-.42.09-.84.18-1.26.27-.96.21-1.91.42-2.87.63-1.94.42-3.88.83-5.82,1.25-1.22.26-2.43.52-3.65.77-.51.11-1.02.21-1.54.32-.25.05-.49.09-.73.15-.02.01-.05.02-.07.03-.02,0-.04.02-.06.03,0,0,0,0,0,0,0,0,0,0,0,0,0,0,0,0,0,0,0,0,0,0,0,0,0,0,0,0,0,0,.01,0,.03,0,.04-.02,0,0,0,0,.01,0,0,0,0,0,0,0-.02,0-.04.02-.06.03,0,0-.01,0-.02,0,0,0,0,0,0,0-.03.01-.06.02-.09.02-.05,0-.09.01-.14.01,0,0,0,0,0,0h0Z"/>
    <path d="M73,72.9c-.04-.12.04-.28.17-.31.81-.2,1.62-.39,2.44-.59.45-.11.88-.24,1.32-.37.47-.13.94-.25,1.41-.37,1.94-.5,3.88-.98,5.83-1.44,1.61-.38,3.21-.75,4.79-1.1.29-.07.58-.13.87-.21.31-.09.62-.17.93-.23.22-.05.45-.08.66-.12.13-.03.29-.09.42-.04.17.06.23.28.13.43,0,.01-.02.03-.03.04,0,0,0,0,0,0,0,0-.01.01-.02.02,0,0,0,0,0,0,0,0-.01,0-.02.01,0,0,0,0-.01,0,0,0,0,0,0,0-.05.03-.11.04-.16.05-.07.02-.13.04-.2.05-.12.03-.24.06-.35.11-.14.05-.29.09-.43.12-.31.08-.63.14-.94.21,0,0,0,0,0,0-.39.09-.79.2-1.18.3-.89.23-1.79.45-2.68.68-1.9.48-3.81.93-5.72,1.38-.73.17-1.46.34-2.2.5-.37.08-.74.16-1.11.23-.36.07-.71.14-1.06.21,0,0,0,0,0,0-.83.2-1.67.4-2.51.6-.02,0-.05,0-.07,0-.11,0-.21-.06-.24-.18Z"/>
    <path d="M73.25,75.42c-.04-.23.16-.43.38-.4.09,0,.19-.01.29-.02l.64-.06c.47-.04.94-.08,1.41-.12.97-.08,1.95-.16,2.93-.23,1.87-.14,3.73-.28,5.59-.44,1.05-.09,2.11-.18,3.16-.27.34-.03.67-.05,1.01-.07.31-.02.63-.06.92-.04.04,0,.08,0,.12,0,.12,0,.24,0,.34.06.07.03.13.1.15.19.02.11-.05.21-.14.26-.11.08-.26.08-.4.1,0,0,0,0,0,0-.09.02-.18.04-.28.05-.18.02-.35.03-.52.05-.29.03-.57.06-.86.08-.89.08-1.78.14-2.66.21-.91.07-1.82.14-2.74.21-.93.07-1.86.16-2.78.23-1.09.09-2.17.18-3.26.27-.54.04-1.09.09-1.63.12-.41.03-.82.05-1.21.09h.01s-.03,0-.04,0h0s-.06.01-.09.01c-.16,0-.31-.12-.34-.29Z"/>
    <path d="M91.03,80.13s-.09.02-.14.02c-.07,0-.14,0-.22-.01-.06,0-.13,0-.19-.02-.66-.07-1.31-.15-1.96-.23-.98-.12-1.97-.23-2.95-.35-1.96-.23-3.91-.46-5.87-.71-1.06-.14-2.12-.27-3.19-.41-.52-.07-1.03-.14-1.54-.21-.25-.03-.49-.07-.74-.11-.15-.03-.31-.05-.46-.08,0,0,0,0,0,0,0,0,0,0,0,0-.03,0-.05,0-.08-.01-.14-.02-.24-.14-.22-.27.02-.13.14-.24.27-.22.03,0,.05,0,.06,0,.13,0,.25,0,.38.02.23.02.45.04.68.06.46.04.93.09,1.39.14,1.01.1,2.01.21,3.02.32,1.95.21,3.89.44,5.83.67,1.07.12,2.14.25,3.2.38.75.09,1.51.18,2.26.28.06,0,.12,0,.18.02.07.01.14.02.21.04.05.01.1.03.15.06h.04c.06,0,.12.01.18.04.12.06.18.2.17.32-.02.15-.13.26-.27.29-.02,0-.03,0-.05,0-.05,0-.1-.01-.14-.02Z"/>
    <path class="cls-6" d="M32.9,72.76c-.5.81-.79,1.75-.85,2.7-.5,0-1.01.02-1.51.03-1.93.03-3.85.08-5.78.12-.62.01-1.25.03-1.87.04-.17,0-.34,0-.5,0-.1-.62-.18-1.25-.23-1.89-.06-.72-.09-1.45-.09-2.18.16.02.33.04.5.06,1.3.15,2.6.3,3.91.44,1.17.13,2.39.26,3.62.38.94.1,1.88.19,2.82.29Z"/>
    <path class="cls-6" d="M32.52,78.25c-.29.06-.58.12-.88.18-1.28.26-2.55.52-3.83.78-1.27.26-2.54.52-3.82.79-.16.04-.33.07-.5.11-.41-1.14-.73-2.31-.96-3.5l.5-.02c.12,0,.25-.01.38-.02,1.89-.09,3.79-.18,5.69-.27.97-.05,1.95-.1,2.92-.15.04.73.2,1.45.49,2.12Z"/>
    <path class="cls-6" d="M85.34,74.78c.16-.01.33-.02.49-.04-.07.98-.18,1.95-.36,2.91-.07.37-.15.74-.25,1.1-.04,0-.08-.01-.12-.02,0,0-.02,0-.03,0-.12-.01-.24-.03-.36-.04-.05,0-.1-.02-.14-.02-1.77-.21-3.54-.41-5.3-.61-1-.11-2.01-.21-3.02-.32-.11-.01-.22-.02-.34-.04.21-.71.28-1.46.22-2.2.14,0,.29-.02.43-.03,1.09-.09,2.17-.17,3.26-.27.93-.07,1.86-.16,2.78-.23.91-.07,1.82-.14,2.72-.21h.02Z"/>
    <path class="cls-6" d="M85.85,70.16c.04.78.06,1.55.05,2.33,0,.52-.01,1.04-.04,1.55-.17.01-.34.03-.5.04-.29.02-.58.05-.87.07-1.86.16-3.73.29-5.59.44-.95.07-1.9.15-2.85.23-.15-.78-.44-1.54-.88-2.2.22-.05.43-.1.65-.16t0,0c.35-.08.71-.14,1.06-.21.37-.07.74-.15,1.11-.23.73-.16,1.47-.33,2.2-.5,1.73-.4,3.45-.81,5.17-1.24.16-.04.33-.08.49-.12Z"/>
    <path class="cls-6" d="M44.41,67.26c3.48.36,3.9-5.86.82-6.7-3.56-.48-4.01,5.94-.82,6.7ZM59.02,73.49c.01-.32-.03-.63-.12-.94,0,0,0,0,0,0s0-.01,0-.02h0c-.48-1.45-1.96-2.35-3.39-2.61-.48-.09-.97-.12-1.46-.09-.26.02-.52.05-.77.1-.21.04-.42.09-.62.16-.43.15-.86.34-1.23.61-.26.19-.51.4-.71.65-.11.14-.21.27-.3.42-.12.2-.2.4-.28.62-.04.11-.06.23-.08.34-.02.08-.03.16-.03.23-.01.19-.02.39.02.58.03.18.06.38.13.55.04.1.07.2.12.29.09.2.22.39.35.57.12.17.27.33.42.46.19.18.4.35.62.49.08.05.16.1.24.14.11.06.22.12.34.17.23.11.47.2.71.27.17.05.34.1.51.13,0,1.38,0,2.75-.01,4.13,0,1.46,0,2.92-.01,4.38v.04s-.02.01-.04.02c-.02,0-.07.02-.12.03-.07.01-.17.02-.27.03-.2.01-.41,0-.61,0-.29-.02-.59-.07-.88-.12-.18-.04-.35-.08-.52-.14h-.02c-.07-.03-.14-.06-.21-.09h-.02s-.01-.01-.02-.02t0,0h0s-.04-.02-.05-.04c0,0-.01,0-.02,0-.1-.09-.27-.06-.35.04-.05.06-.06.14-.05.21,0,0,0,.01,0,.02-.02.11-.04.22-.04.34,0,.46.16.91.44,1.28.33.46.79.8,1.29,1.07.58.31,1.22.51,1.87.62.38.07.77.1,1.16.1.27,0,.54-.02.8-.05.57-.07,1.15-.21,1.68-.47.45-.22.87-.52,1.16-.93.27-.37.41-.8.39-1.26,0-.07-.01-.13-.02-.2,0-.04,0-.07,0-.1,0-.05,0-.09-.01-.12,0,0,0-.02,0-.02,0-.03,0-.07,0-.1,0-.04,0-.07-.02-.1,0-.02,0-.05-.02-.07,0-.02-.01-.03-.02-.05,0-.02-.02-.04-.04-.05,0-.07-.02-.13-.06-.18-.08-.09-.23-.12-.32-.04,0,0-.01,0-.02,0s0,0,0,0h0s0,0,0,0h0s0,0,0,.01c-.03.02-.06.04-.08.05,0,0-.02,0-.02.01,0,0,0,0,0,0-.07.04-.14.07-.22.11-.11.04-.25.09-.39.12-.18.04-.37.08-.57.11h-.02s0,0-.01,0c0,0,0,0,0,0-.18.02-.35.03-.52.03-.12,0-.25-.01-.37-.03-.08,0-.15-.02-.22-.04v-.05c0-1.03-.02-2.06-.03-3.09l-.04-3.36c0-.55-.01-1.09-.02-1.64,0-.13,0-.27,0-.41.16-.04.32-.08.48-.13.82-.27,1.59-.76,2.09-1.46.31-.44.52-.97.54-1.52ZM62.87,67.09c3.7.56,4.19-6.14.83-6.85-3.54-.27-3.95,5.95-.83,6.85ZM85.78,68.98c.01.16.02.31.03.46-.55.12-1.09.25-1.64.38-1.95.46-3.89.95-5.83,1.44-.47.12-.94.24-1.41.37-.44.12-.88.26-1.32.37-.25.06-.5.12-.75.18-.36-.45-.8-.85-1.32-1.17-.05-.04-.11-.07-.16-.1-.19-.11-.39-.21-.59-.29-.09-.04-.18-.07-.28-.11,0,0,0,0-.01,0-.07-.03-.14-.05-.22-.07-.12-.04-.25-.07-.39-.1-.11-.02-.21-.05-.32-.06-.05,0-.09-.02-.14-.02-.18-.03-.35-.04-.54-.05-.43-.02-.89,0-1.37.06-6.8,1.25-5.92,11.34,1,11.37.17,0,.34-.02.5-.04.16-.02.32-.04.47-.06h0c.16-.03.31-.06.46-.09.13-.03.27-.07.39-.11.02,0,.04,0,.05-.02.13-.04.26-.09.39-.14.12-.05.25-.11.36-.16.01,0,.02,0,.03-.01.12-.06.23-.12.35-.19s.23-.14.33-.21c.11-.07.21-.15.31-.23.1-.08.2-.16.29-.25.09-.09.18-.17.26-.26,0,0,0,0,.01-.01.08-.09.16-.19.24-.28.08-.1.15-.2.22-.3.06-.08.11-.17.16-.25.08-.13.15-.26.21-.4.05-.09.09-.18.13-.28,0-.01.01-.02.02-.04.27.04.54.07.8.11,1.06.14,2.12.28,3.19.41.98.12,1.96.24,2.94.36.79.09,1.57.19,2.36.28-.03.09-.06.18-.1.27-.02.04-.04.07-.07.1-.07.24-.16.47-.25.71-.29.71-.65,1.39-1.04,2.05-.41.7-.87,1.38-1.34,2.04-.94,1.3-1.99,2.54-3.1,3.7-.99,1.04-2.04,2.02-3.16,2.93-.78.64-1.6,1.25-2.46,1.78-.61.38-1.25.73-1.92,1-.02,0-.04.02-.06.02-.11.07-.21.13-.32.18-.39.19-.8.32-1.21.43-.45.12-.91.22-1.37.3-.89.16-1.79.28-2.69.37-1.75.18-3.5.27-5.26.31-.86.02-1.71.03-2.57.03-.98,0-1.95-.01-2.93-.04-3.54-.09-7.07-.32-10.58-.71-1.87-.21-3.73-.46-5.59-.8-.1-.02-.2-.04-.29-.05-.01,0-.02,0-.03,0-.05,0-.11-.02-.16-.03-.07-.01-.12-.05-.15-.11-2.15-.66-4.21-1.6-6.09-2.82-1.5-.97-2.89-2.13-4.11-3.43-1.21-1.29-2.25-2.73-3.11-4.27-.48-.87-.91-1.77-1.27-2.7,0,0,0,0,.01,0,1.94-.41,3.88-.83,5.82-1.25.96-.21,1.91-.42,2.87-.63l.34-.07c.04.07.08.14.12.2.03.05.07.1.1.15.04.07.09.13.14.19.05.07.1.13.16.2.02.03.04.05.06.08.11.12.22.25.34.36.05.05.11.11.18.16.01.01.02.02.03.03.05.05.11.09.16.14.07.05.13.11.2.15.09.06.17.12.26.18,0,0,.01,0,.02,0,.1.06.2.12.3.17.1.05.2.11.3.15,0,0,0,0,.02,0,.11.05.21.09.32.14s.22.08.33.12c.02,0,.03.01.04.01.11.04.22.07.33.09.11.03.22.05.34.08.03,0,.06.01.09.02.11.02.23.04.34.05.13.02.27.03.41.04,7.84.1,7.91-11.38.06-11.36-.11,0-.22.02-.32.03-.09,0-.19.02-.28.04-.11.02-.21.03-.31.05-.23.05-.45.1-.66.17-.19.06-.37.12-.54.2-.09.04-.18.08-.27.12-.09.04-.17.09-.25.13-.24.13-.46.28-.67.44-.07.05-.14.11-.21.17s-.13.12-.2.18c-.04.03-.07.06-.09.09l-.09.09c-.07.07-.13.14-.2.21-.82-.11-1.66-.22-2.5-.33-1.14-.15-2.27-.3-3.41-.45-1.41-.18-2.82-.35-4.23-.52-.39-.05-.78-.09-1.17-.14.04-1.67.23-3.34.54-4.98.08-.65.19-1.29.32-1.93.29-1.4.68-2.78,1.13-4.14.49-1.49,1.06-2.95,1.69-4.39.61-1.39,1.29-2.77,2.02-4.1.89-1.62,1.86-3.2,2.95-4.68.3-.4.6-.8.92-1.19.21-.26.43-.52.66-.77l.19-.21s.01-.01.02-.01l.02-.02s.02-.03.04-.04c-.05-.07-.05-.16-.04-.23-.08-.05-.17-.11-.27-.17-.36-.23.08-.67.36-.38.17.09.35.17.54.24h0l.11-.08s.04-.03.05-.04c.66-.5,1.38-.9,2.12-1.26-.02-.53-.25-1.02-.58-1.44-.12-.16-.25-.3-.4-.44-.16-.13-.45-.3-.27-.54.05-.04.1-.06.16-.07.01-.01.02-.02.04-.03-.01-.08,0-.16.07-.22.04-.04.08-.05.12-.07-.22-.27-.45-.53-.7-.77-.16-.13-.46-.26-.32-.51.16-.34.71.12,1.3.84.54.65,1.1,1.52,1.44,2.21.02.03.05.07.07.1.08.12.15.27.21.43.49-.2.99-.38,1.49-.55.87-.3,1.75-.55,2.64-.78,1.95-.5,3.92-.86,5.91-1.13,2.09-.29,4.19-.47,6.3-.56,1.79-.07,3.57-.08,5.36,0,.05,0,.1,0,.15,0,.06,0,.12,0,.17,0,.13,0,.25.01.38.02.21.01.43.02.64.04,1,.06,2,.16,3,.28,1.3.16,2.61.38,3.89.68.83.2,1.66.43,2.46.72.83.3,1.64.66,2.37,1.14.02.02.04.03.06.04.04.02.08.04.12.05.47.22.91.5,1.33.79.89.63,1.71,1.36,2.49,2.14.89.88,1.71,1.83,2.49,2.81.8,1,1.54,2.05,2.23,3.13.55.86,1.07,1.75,1.54,2.67.33.65.64,1.31.9,1.99.14.38.28.77.4,1.16v.02c.03.06.05.13.07.19,0,.02,0,.04,0,.06h0c.33.67.61,1.36.86,2.07.56,1.61.96,3.27,1.27,4.94.32,1.74.55,3.5.68,5.27Z"/>
  </g>
</svg>