<?xml version="1.0" encoding="UTF-8"?>
<svg xmlns="http://www.w3.org/2000/svg" viewBox="0 0 120.48 116.34">
  <defs>
    <style>
      .cls-1 {
        fill: #95755e;
      }

      .cls-2 {
        fill: #37281d;
      }

      .cls-3 {
        fill: #735946;
      }

      .cls-4 {
        fill: #bfa089;
      }

      .cls-5 {
        fill: #96765e;
      }
    </style>
  </defs>
  <g id="Vector_layer" data-name="Vector layer">
    <path class="cls-2" d="M1.99,65.14s-.09-.09-.14-.14c-.19-.3-.37-.6-.56-.9,0,0,0,0,0,0,0,0,0,0,0-.01,0,0,0,0,0,0,0,0,0,0,0,0,0,0,0,0,0,0-.07-.11-.14-.22-.2-.32-.03-.06-.06-.12-.09-.18-.03-.07-.05-.14-.08-.21,0,0,0,.01,0,.02-.04-.13-.08-.26-.12-.39-.02-.04-.03-.08-.05-.12-.28-1.44-.44-2.91-.54-4.38C.06,56.63,0,54.76,0,52.9c0-1.96.04-3.92.13-5.88.17-3.77.48-7.53.91-11.29.34-3.02.76-6.03,1.26-9.03.48-2.86,1.02-5.71,1.67-8.55.39-1.72.82-3.43,1.31-5.13.38-1.37.81-2.73,1.29-4.08.42-1.16.87-2.31,1.41-3.43.31-.63.64-1.26,1.04-1.84.34-.5.72-.98,1.2-1.36.38-.29.86-.49,1.35-.41.05,0,.1.02.14.03.06-.01.11-.02.17-.04.69-.14,1.4-.22,2.1-.27.83-.06,1.66-.07,2.48-.05,1.1.03,2.2.11,3.29.24,1.43.16,2.86.41,4.27.69,1.55.31,3.08.71,4.57,1.2,1.24.41,2.46.89,3.62,1.48.6.3,1.19.64,1.74,1.03.38.27.74.56,1.06.89.16.16.31.34.44.53.12.17.2.35.28.54.03.07.05.13.08.21.02.07.03.14.04.22h0s0,.01,0,.02c.03.02.05.05.06.09h0c.03.07.05.14.04.21.13.43.17.87.18,1.32.01.48,0,.95-.05,1.43-.1.99-.27,1.97-.47,2.94-.21.99-.46,1.97-.72,2.94-.27.98-.56,1.94-.87,2.9-.63,1.97-1.33,3.93-2.07,5.86-1.47,3.83-3.11,7.59-4.87,11.3-.86,1.8-1.74,3.59-2.66,5.36-.94,1.8-1.9,3.58-2.92,5.34-.17.28-.33.56-.5.85,0,0,0,0,0,0-.02.04-.05.08-.05.09-.97,1.65-1.96,3.28-3.02,4.88-1.03,1.57-2.09,3.12-3.27,4.59-.82,1.02-1.68,2.02-2.68,2.87-.25.22-.51.42-.79.6-.38.41-.79.8-1.22,1.17-.83.72-1.75,1.37-2.76,1.84-.87.41-1.94.76-2.97.76-.82,0-1.62-.23-2.25-.83Z"/>
    <path class="cls-2" d="M42.02,89.05c.5.05,1,.11,1.51.16-.39.05-.77.08-1.16.09-.32-.06-.74-.08-1.16-.12-.16-.02-.33-.04-.49-.07,0-.03.02-.05.04-.08.05-.09.12-.16.25-.2h0c.16-.05.33-.02.5.04.18.05.36.14.52.18Z"/>
    <path class="cls-1" d="M98.09,41.93c-.11-.44-.23-.88-.34-1.32-.38-1.63-.69-3.3-1.12-4.93.2.43.39.86.55,1.29,0,0,0,.01,0,.02t0,0c.24.68.44,1.36.6,2.05.11.52.2,1.06.25,1.61,0,0,0,0,0,.01v.02c.03.41.05.82.05,1.23Z"/>
    <path class="cls-3" d="M80.4,43.4c4.57,1.77,6.49-5.67,2.83-7.77-4.79-2.44-7.05,5.87-2.83,7.77ZM97.75,40.61c.11.44.23.88.34,1.32,0-.41-.02-.82-.05-1.23v-.02s0-.01,0-.01c-.05-.55-.14-1.09-.25-1.61-.16-.7-.36-1.38-.6-2.05t0,0s0-.02,0-.02c-.17-.44-.35-.87-.55-1.29.43,1.63.74,3.3,1.12,4.93ZM98.73,41.63c0,.71-.05,1.42-.16,2.12-.08.51-.2,1.02-.34,1.52-.23.77-.53,1.51-.91,2.21-.39.71-.86,1.37-1.39,1.97-1.04,1.17-2.31,2.11-3.74,2.75-1.61.71-3.36,1.08-5.12,1.11-.09,0-.18,0-.27,0-1.6,0-3.21-.27-4.74-.74-1.78-.55-3.45-1.37-4.99-2.41-1.45-.98-2.75-2.19-3.87-3.53-1.16-1.39-2.1-2.96-2.79-4.63-.36-.87-.64-1.77-.84-2.68-.2-.91-.3-1.83-.3-2.76-.02-1.69.3-3.39.97-4.95.63-1.46,1.59-2.79,2.79-3.85.39-.34.8-.64,1.23-.92.51-.32,1.04-.61,1.6-.84.91-.38,1.88-.66,2.86-.81.45-.07.9-.13,1.36-.17.43-.04.86-.05,1.29-.04.32,0,.64.02.95.04.11-.17.31-.28.52-.26.05,0,.09.02.13.04.3,0,.6.06.89.12.41.07.81.17,1.21.28,1.34.36,2.64.88,3.87,1.53.87.46,1.69,1,2.48,1.59.73.54,1.41,1.14,2.05,1.77.75.74,1.45,1.55,2.07,2.41.54.74,1.02,1.52,1.43,2.33.05.11.11.21.16.32.36.73.66,1.48.91,2.26.29.88.48,1.79.59,2.7.06.51.09,1.04.1,1.55Z"/>
    <path d="M36.64,34.65c4.5.65,4,8.78-.7,8.44-4.53-.63-4.02-8.81.7-8.44Z"/>
    <path d="M83.23,35.62c3.66,2.1,1.73,9.54-2.83,7.77-4.22-1.91-1.96-10.21,2.83-7.77Z"/>
    <path d="M65.67,55.98c.04,1.1-.57,2.11-1.38,2.82-.66.59-1.45,1-2.28,1.29-.44.16-.9.27-1.36.36-.14.02-.27.04-.41.06.08.08.11.2.01.32-.03,2.59-.4,5.22-.33,7.8-.02.25.14.68.13,1,.04.02.07.04.1.06h.02s0,.01,0,.01c.1.05.2.09.29.12.14.05.29.09.42.11.18.04.36.05.5.07.22.01.45.01.64,0,.24-.02.47-.05.67-.09.21-.04.43-.1.6-.16.18-.06.36-.13.5-.2.14-.07.28-.14.38-.21.09-.06.18-.12.27-.2.08-.07.14-.13.19-.18.04-.05.09-.09.12-.15,0,0,0-.01.01-.01t0,0s0,0,0,0h0s.04-.07.05-.1c.07-.12.23-.16.34-.09.09.05.13.16.12.25h0s0,.03.01.04c0,0,0,.01,0,.02h0v.02s0,0,0,0v.02c.09.54-.02,1.08-.29,1.55-.47.84-1.35,1.37-2.23,1.7-.64.24-1.31.38-1.99.44-.28.03-.57.04-.85.04-.43,0-.87-.03-1.3-.09-.95-.12-1.89-.39-2.75-.82-.69-.35-1.33-.82-1.8-1.43-.21-.27-.37-.58-.48-.91-.11-.35-.14-.73-.08-1.09h0c.02-.06.04-.12.07-.18h0c.02-.06.05-.12.07-.18,0-.02.02-.03.03-.04,0,0,.01-.02.02-.03,0,0,0-.01.01-.02,0,0,.02,0,.03-.01,0,.01.02.02.02.03.01.02.03.04.04.05.04.06.09.12.12.18.04.07.08.13.12.2,0,.02.01.03.02.04,0,.01,0,.02.02.04,0,0,0,.02.01.02t0,0c.04.07.07.13.09.17.05.08.11.16.15.2.07.09.15.17.21.22.09.08.19.16.27.21.1.06.2.12.3.18,0,0,.01,0,.02,0t0,0h0c.12.06.24.11.37.15.17.06.35.11.49.14.18.04.37.06.52.07.2.01.4.01.57,0,.21-.01.41-.04.59-.07.2-.04.39-.09.55-.14.04-.02.08-.03.12-.04.11-1.75.2-3.52.05-5.28,0-1.24-.12-2.48-.15-3.71-.58-.05-1.15-.15-1.71-.3-.86-.23-1.68-.63-2.36-1.19-.32-.27-.61-.57-.84-.92-.11-.16-.2-.33-.29-.5-.09-.19-.16-.4-.21-.61-.02-.09-.04-.19-.05-.28-.02-.1-.02-.2-.02-.3,0-.12,0-.24,0-.35,0-.14.03-.27.06-.4.09-.41.26-.8.48-1.15.41-.64.98-1.14,1.61-1.54.35-.23.73-.41,1.12-.57.43-.18.89-.31,1.35-.41.93-.21,1.89-.27,2.84-.19.86.07,1.72.27,2.52.61.71.3,1.38.72,1.91,1.29.13.14.26.3.37.46t0,0s.02.02.02.03c0,0,0,0,0,0s0,0,.01.02,0,.01.01.02c.02.03.03.05.05.08v.02c.3.48.47,1.02.5,1.59Z"/>
    <path d="M68.96,60.62c-.03-.18.1-.37.28-.4.6-.09,1.2-.21,1.79-.32.97-.18,1.94-.35,2.91-.52,1.86-.32,3.73-.61,5.59-.93,1.89-.32,3.79-.62,5.69-.95,1.87-.32,3.74-.66,5.61-.96,1.24-.2,2.48-.41,3.73-.6.59-.09,1.17-.19,1.75-.28.23-.04.47-.08.71-.11.09,0,.18-.02.27-.02.03,0,.06,0,.09,0,.2.02.37.18.4.38.03.19-.07.41-.25.48-.04.01-.07.03-.1.03-.02,0-.04.01-.06.02-.15.04-.3.07-.46.09-.39.07-.79.13-1.18.2-.88.14-1.75.3-2.62.44-1.82.3-3.65.6-5.48.88-3.8.57-7.61,1.18-11.4,1.8-1.32.21-2.64.43-3.97.62-.96.14-1.93.26-2.89.43-.02,0-.04,0-.06,0-.16,0-.31-.12-.34-.29Z"/>
    <path d="M70.22,64.21c-.01-.28.21-.5.49-.52.22-.02.44,0,.66-.02.41-.02.82-.06,1.21-.1,1.3-.14,2.59-.27,3.88-.41.05,0,.1-.01.15-.02.02,0,.03,0,.05,0,0,0,.02,0,.02,0,1.94-.2,3.89-.37,5.84-.54,1.97-.18,3.94-.38,5.91-.53.92-.07,1.84-.14,2.76-.2.41-.02.81-.04,1.21-.05.11,0,.22,0,.34,0,.07-.03.15-.05.23-.05.11,0,.22.01.32.06.02,0,.03.01.05.02.18.09.31.27.34.48.04.21-.03.4-.16.55-.12.15-.32.21-.51.23-.07,0-.14,0-.2-.02-.09.02-.18.03-.28.04-.43.06-.86.11-1.3.15-.96.09-1.92.17-2.88.25-1.95.16-3.91.27-5.86.4-1.87.12-3.73.26-5.6.37-.89.05-1.79.1-2.69.14-.9.05-1.81.08-2.65.16-.27.03-.55.08-.82.11-.01,0-.02,0-.03,0-.26,0-.48-.23-.49-.49Z"/>
    <path d="M95.2,71.23c-.09,0-.17-.03-.24-.07-.02,0-.04,0-.07,0-.41-.04-.81-.07-1.21-.11-.98-.1-1.95-.19-2.92-.29-1.96-.2-3.92-.42-5.88-.64-4-.44-8-.79-12-1.28-.84-.1-1.67-.21-2.51-.29-.04,0-.08,0-.12,0-.25-.01-.45-.27-.42-.52s.26-.46.52-.43c.05,0,.09.02.13.04,1.79.18,3.59.29,5.37.46,2,.19,3.99.41,5.99.62,1.98.2,3.95.38,5.93.57,1.96.19,3.93.39,5.89.6.44.05.88.09,1.32.14.04,0,.07,0,.11.01.16-.04.33-.02.48.05.03,0,.06.01.1.02,0,0,0,0,0,0,.24.06.42.25.43.52,0,.29-.23.58-.54.57-.03,0-.07,0-.1,0-.06.02-.13.03-.2.03-.01,0-.03,0-.04,0Z"/>
    <path d="M47.13,61.9s-.01,0-.02,0c0,0-.01,0-.02,0,0,0,0,0,0,0h0c-.39-.06-.79-.1-1.19-.14-.48-.05-.96-.1-1.44-.15-1.02-.1-2.04-.21-3.06-.33-2.07-.23-4.13-.45-6.2-.68-4.11-.45-8.21-1-12.33-1.43-.49-.05-.98-.09-1.47-.14-.34-.03-.69-.08-1.04-.11-.02,0-.04,0-.07,0-.07,0-.14,0-.2-.01-.12,0-.25-.03-.3-.07-.02,0-.05-.02-.07-.03,0,0,0,0,0,0-.01,0-.03-.01-.04-.02-.05-.03-.1-.06-.14-.11-.18-.21-.14-.58.11-.72.06-.03.12-.05.12-.05.14-.06.3-.06.45-.03.08,0,.17.02.25.05.38.06.77.11,1.15.16.48.07.95.13,1.43.2,1.01.14,2.02.26,3.03.38,2.09.25,4.18.49,6.27.74,2.09.25,4.18.52,6.27.79,1.99.26,3.99.5,5.98.77.48.07.96.13,1.45.2.38.05.76.1,1.14.13h.02s0,0,0,0c.15.02.27.13.27.29,0,.16-.13.31-.29.31-.01,0-.03,0-.04,0Z"/>
    <path d="M44.99,65.09c.12.25-.02.52-.27.61-.11.04-.24.04-.36.05,0,0-.02,0-.03,0-.08,0-.16.01-.24.02-.12.01-.25.02-.38.03-.03,0-.05,0-.08,0-.31.03-.62.05-.93.07-.19.02-.38.03-.57.04-.07,0-.13.01-.2.02-.03,0-.05,0-.08,0-.91.07-1.81.14-2.71.21-2.01.15-4.02.29-6.04.44-2.03.14-4.05.3-6.08.45-.93.06-1.86.14-2.79.2-.35.02-.7.05-1.05.07-.11,0-.22.02-.34.02-.07,0-.15,0-.23-.01-.01,0-.02,0-.03,0-.15,0-.29-.07-.38-.17-.09-.08-.14-.18-.16-.29h0c-.02-.11,0-.21.04-.31,0,0,0,0,0,0,0,0,0-.01,0-.02,0,0,0-.01,0-.02,0,0,0,0,0,0,0,0,0-.02,0-.02,0,0,0,0,0,0,0,0,0-.01.01-.02.08-.14.23-.25.39-.27.05-.01.09-.02.14-.03.21-.04.43-.05.65-.06.85-.05,1.71-.11,2.56-.16,2.02-.12,4.04-.25,6.05-.37,2.01-.12,4.02-.25,6.02-.37.64-.04,1.28-.08,1.92-.11.54-.04,1.07-.07,1.6-.09,0,0,0,0,.01,0,.1,0,.2-.01.31-.02.18-.01.36-.02.54-.03.47-.03.94-.05,1.41-.07,0,0,.01,0,.02,0,.06,0,.12,0,.18,0,.02,0,.04,0,.05,0h.04c.12,0,.25-.01.37-.02.03,0,.07,0,.1,0h.09s.02,0,.02,0h.03s.03,0,.04.01c.13.03.25.12.3.24Z"/>
    <path d="M45.9,68.87c.16.19.09.46-.12.57-.16.08-.35.12-.52.16-.15.04-.29.08-.44.12-.03,0-.07.02-.1.02t0,0c-.06.02-.12.03-.18.05-.22.05-.43.11-.65.17-.24.06-.48.12-.72.18-.03,0-.05.01-.08.02t0,0s-.01,0-.02,0c0,0-.01,0-.02,0-.03,0-.06.02-.09.02-.11.03-.21.05-.31.08-.2.05-.41.11-.61.15,0,0-.01,0-.02,0l-.27.07c-.47.12-.95.24-1.42.36-1.94.49-3.87,1.03-5.81,1.54-1.39.36-2.78.7-4.18,1.04-.66.16-1.33.32-2,.46-.26.06-.52.12-.79.16-.09.02-.18.03-.27.03-.12,0-.25-.02-.35-.11-.22-.16-.29-.45-.17-.7.12-.25.43-.33.68-.4.43-.13.86-.23,1.29-.34.97-.25,1.94-.48,2.91-.71,1.93-.46,3.88-.88,5.82-1.29,1.42-.3,2.84-.62,4.25-.95.08-.02.17-.04.25-.05t0,0c.12-.03.24-.05.36-.08.03,0,.05-.02.08-.02.03,0,.06-.02.1-.02,0,0,.02,0,.02,0,.39-.09.77-.18,1.16-.27.3-.07.6-.14.91-.2.01,0,.02,0,.03,0h0c.15-.04.3-.07.46-.1.02,0,.04,0,.05-.01.02,0,.04,0,.07-.02h.01c.09-.02.17-.04.26-.05.04,0,.08,0,.11,0h0c.11,0,.22.04.3.13Z"/>
    <path class="cls-5" d="M77.16,88.21c-.08.03-.15.06-.23.09-.07.03-.14.06-.21.09-.02,0-.05.02-.07.03,0,0-.02,0-.02,0-.14.05-.29.11-.43.16-.12.05-.25.09-.37.13-.12.04-.25.08-.37.12-.01,0-.02,0-.03,0-.26.08-.52.16-.78.23-.13.04-.26.07-.39.11-.13.03-.26.06-.39.09-.18.04-.36.08-.55.12h0c-.07.02-.13.03-.2.04-.02,0-.03,0-.04,0l-.38.07s-.02,0-.03,0c-.27.05-.54.09-.8.13-.14.02-.27.04-.41.06-.36.05-.72.09-1.09.13-.36.04-.73.07-1.09.1.59-.08,1.19-.15,1.78-.23.3-.04.59-.07.89-.11.3-.04.59-.08.89-.12h0s0,0,0,0h.05c.45-.14.9-.26,1.36-.39h.04c.17-.07.35-.12.52-.17.12-.04.25-.08.38-.11.16-.05.33-.09.49-.14,0,0,.01,0,.02,0,0,0,0,0,.01,0,.29-.09.59-.18.88-.26.2-.06.38-.12.57-.17Z"/>
    <path class="cls-4" d="M44.72,65.7c.25-.1.39-.36.27-.61-.05-.12-.17-.21-.3-.24-.02,0-.03,0-.04-.01h-.03s-.02,0-.02,0h-.09s-.07,0-.1,0c-.12,0-.25,0-.37.02h0c0,.05,0,.11,0,.16,0,.06,0,.12.01.18,0,.02,0,.03,0,.04v.04s0,.07,0,.1v.16c.02.05.02.1.02.14,0,.02,0,.04,0,.05,0,.01,0,.03,0,.04.08,0,.16-.01.24-.02,0,0,.02,0,.03,0,.12,0,.25,0,.36-.05ZM45.77,69.44c.21-.11.29-.38.12-.57-.08-.09-.19-.13-.3-.12h0c-.12,0-.25.02-.37.05h0s-.05.01-.07.02c-.02,0-.04,0-.05.01-.15.03-.31.06-.46.1h0s-.02,0-.03,0c0,0,0,.01,0,.02,0,.02.01.05.02.07,0,.03.02.07.02.1,0,.03.01.05.02.08,0,.01,0,.03.01.04,0,.04.02.07.02.1h0c.02.07.03.13.05.2h0s.01.05.02.08c0,.02.01.04.02.06,0,.01,0,.03.01.04,0,0,0,0,0,.01.14-.04.29-.08.44-.12.17-.05.36-.08.52-.16ZM47.16,61.9c.16,0,.29-.15.29-.31s-.12-.27-.27-.29h0s0,0-.02,0c-.38-.03-.76-.08-1.14-.13-.48-.06-.96-.13-1.45-.2l-.34-.05s0,.01,0,.02c0,.04-.01.07-.01.1,0,.01,0,.02,0,.04-.02.12-.04.23-.05.35,0,.03-.01.06-.01.09,0,.02,0,.03,0,.04,0,0,.02,0,.02,0,.09,0,.18.02.28.03.48.05.96.1,1.44.15.4.04.8.08,1.2.14h0s.01,0,.02,0,0,0,.02,0c.02,0,.03,0,.04,0ZM64.3,58.8c.8-.71,1.41-1.72,1.38-2.82-.02-.57-.2-1.11-.48-1.59v-.02s-.05-.05-.06-.08c0,0,0-.01-.01-.02s0-.01-.01-.02,0,0,0,0c0-.01-.02-.02-.02-.03t0,0c-.11-.16-.24-.32-.37-.46-.53-.57-1.2-.98-1.91-1.29-.8-.34-1.66-.54-2.52-.61-.95-.08-1.91-.02-2.84.19-.46.1-.91.23-1.35.41-.39.16-.77.34-1.12.57-.63.41-1.21.91-1.61,1.54-.22.35-.39.74-.48,1.15-.03.13-.05.27-.06.4-.01.11-.02.23,0,.35,0,.1,0,.2.02.3.02.09.04.19.05.28.04.21.12.42.21.61.09.17.18.34.29.5.24.34.52.65.84.92.69.56,1.51.95,2.36,1.19.56.15,1.13.25,1.71.3.03,1.23.16,2.48.15,3.71.15,1.76.06,3.53-.05,5.28-.04.02-.08.03-.12.04-.16.05-.35.1-.55.14-.18.04-.38.06-.59.07-.17.01-.37.01-.57,0-.16-.01-.34-.04-.52-.07-.14-.03-.32-.08-.49-.14-.12-.04-.24-.09-.37-.15h0s0,0,0,0c0,0,0,0-.02,0-.1-.05-.2-.12-.3-.18-.07-.05-.18-.13-.27-.21-.06-.05-.14-.14-.21-.22-.04-.05-.1-.12-.15-.2-.02-.04-.06-.11-.09-.17t0,0s0-.01-.01-.02c0-.01-.01-.02-.02-.04,0-.01-.02-.02-.02-.04-.04-.06-.08-.13-.12-.2-.04-.06-.08-.12-.12-.18,0-.02-.02-.04-.04-.05,0-.01-.01-.02-.02-.03-.01,0-.02,0-.03.01,0,0,0,.01-.01.02,0,.01-.02.02-.02.03-.01.02-.02.03-.03.04-.03.06-.05.12-.07.18h0c-.02.06-.05.12-.07.18h0c-.06.37-.03.74.08,1.09.11.33.27.63.48.91.47.62,1.11,1.08,1.8,1.43.86.43,1.8.7,2.75.82.43.06.87.09,1.3.09.29,0,.57-.02.85-.04.68-.07,1.35-.2,1.99-.44.88-.33,1.76-.86,2.23-1.7.27-.47.38-1.02.29-1.55v-.02s0,0,0,0h0v-.02s0,0,0-.02c0-.02,0-.03-.01-.04h0c.02-.1-.02-.2-.12-.26-.11-.07-.28-.03-.34.09-.02.03-.04.06-.05.09h0s0,0,0,.01t0,0s0,0-.01.01c-.04.05-.08.1-.12.15-.04.05-.11.12-.19.18-.09.07-.18.14-.27.2-.11.07-.24.14-.38.21-.14.07-.32.14-.5.2-.18.06-.39.11-.6.16-.2.04-.43.07-.67.09-.19.01-.41.01-.64,0-.14-.01-.32-.03-.5-.07-.13-.02-.28-.06-.42-.11-.09-.03-.19-.07-.29-.12h-.03s-.06-.05-.1-.07c0-.32-.15-.75-.13-1-.07-2.58.3-5.21.33-7.8.09-.12.07-.24-.01-.32.14-.02.27-.04.41-.06.46-.08.92-.2,1.36-.36.83-.29,1.62-.71,2.28-1.29ZM73.8,67.94h0c-1.11-.1-2.22-.18-3.33-.3-.04-.02-.09-.03-.13-.04-.25-.04-.49.18-.52.43s.17.5.42.52c.04,0,.08,0,.12,0,.84.08,1.68.19,2.52.3.24.03.47.06.71.09,0,0,0-.01,0-.02,0-.02,0-.04.01-.05,0-.04.02-.07.02-.11,0,0,0-.01,0-.02.02-.08.04-.16.05-.24,0,0,0-.02,0-.03,0,0,0-.01,0-.02,0,0,0,0,0-.02,0-.02.01-.03.01-.05.01-.04.02-.08.02-.12,0,0,0,0,0-.02.02-.08.04-.16.05-.24,0-.01,0-.02,0-.03,0,0,0-.02,0-.02ZM73.87,60.22h0c-.02-.08-.03-.16-.05-.23,0-.02,0-.04-.01-.07-.01-.07-.03-.14-.04-.2-.01-.07-.03-.15-.05-.22v-.06s-.02,0-.02-.01c-.89.15-1.78.31-2.67.47-.6.11-1.19.23-1.79.32-.18.03-.31.21-.28.4.03.16.18.29.34.29.02,0,.04,0,.05,0,.96-.17,1.93-.29,2.89-.43.54-.08,1.09-.16,1.63-.25ZM74.18,64.02v-.05h0v-.05c0-.05,0-.1,0-.16,0-.04,0-.07,0-.11,0-.05,0-.09,0-.14,0,0,0-.02,0-.03v-.08h0c-.53.05-1.06.1-1.59.16-.39.04-.8.09-1.21.1-.22.01-.44,0-.66.02-.28.02-.5.24-.49.52,0,.26.23.5.49.5.01,0,.02,0,.03,0,.28-.02.55-.08.82-.11.6-.05,1.23-.09,1.86-.12.25-.01.5-.02.75-.04,0-.06,0-.12,0-.18v-.09c0-.05,0-.1,0-.15ZM76.21,63.87v.09c0,.09,0,.18,0,.26v.14c-.02,1.25-.14,2.51-.36,3.75h0c0,.05-.02.11-.03.16,0,.01,0,.03,0,.04,0,.06-.02.12-.04.19,0,.04-.01.07-.02.11,0,.02,0,.03-.01.04,0,.04-.01.07-.02.11,0,.02,0,.03-.01.04,0,.06-.02.12-.04.18,0,.05-.02.11-.03.16,0,0,0,.01,0,.02-1.8,8.14-7.82,15.21-16.78,15.23-.8-.01-1.57-.09-2.32-.21-.2-.03-.39-.07-.59-.11l-.15-.04c-.18-.04-.36-.08-.54-.12-.53-.14-1.04-.3-1.54-.49-.18-.07-.35-.14-.52-.21-3.96-1.66-7.04-4.92-8.99-8.84-.1-.21-.2-.42-.3-.63-.1-.22-.2-.44-.29-.66-.05-.12-.11-.25-.15-.37-.09-.21-.17-.43-.25-.65-.21-.57-.4-1.15-.56-1.74v-.04s-.02,0-.02-.01,0,0,0-.01c0-.03-.02-.06-.02-.09l-.07-.26h0s-.02-.06-.02-.09c0-.02,0-.03,0-.04,0,0,0,0,0-.01,0-.02-.01-.05-.02-.07-.02-.09-.05-.18-.07-.28h0c-.27-1.15-.46-2.31-.55-3.47,0-.04,0-.08-.01-.12,0-.1-.02-.2-.02-.3,0-.02,0-.04,0-.05,0,0,0-.02,0-.02,0-.05,0-.09,0-.13v-.29s-.02-.04-.02-.05v-.03c-.05-1.21,0-2.42.17-3.61h0s0-.06.01-.08c0-.04.01-.09.02-.12.02-.1.03-.2.05-.29,0-.03,0-.05.01-.07,0-.04.01-.08.02-.12h0c.08-.49.18-.98.3-1.45,3.58-16.73,23.56-20.95,31.52-4.92.81,1.51,1.4,3.14,1.79,4.82,0,.02,0,.04.01.05s0,.04.01.05c0,.04.02.09.03.13,0,.03.02.06.02.1.01.05.02.1.03.16,0,.02.01.04.01.06,0,.01,0,.02,0,.04.01.05.02.09.03.14,0,.03.01.05.02.08,0,0,0,.01,0,.02.04.18.07.37.1.56.03.19.06.39.09.58,0,.04,0,.07.01.11.04.26.06.51.09.77.04.41.06.81.07,1.22v.06s0,.03,0,.05v.06s0,.08,0,.12c0,.08,0,.15,0,.23,0,.02,0,.03,0,.05h0s0,.03,0,.04v.11Z"/>
    <path d="M42.61,61.4c-.3-.05-.61-.05-.89-.13-.35-.17-.03-.57.17-.47.31.11.98-.07,1,.38-.02.14-.15.23-.28.22Z"/>
    <path d="M43.64,61.44c-.61-.07-1.23-.1-1.84-.23-.13-.02-.21-.18-.18-.3.05-.2.26-.2.42-.15-.01,0-.02,0-.04,0,.56.1,1.13.13,1.7.2.13.02.23.14.21.28-.02.14-.15.23-.28.21Z"/>
    <path d="M44.11,61.57c-.62-.06-1.25-.15-1.87-.25-.13-.03-.21-.18-.18-.3.04-.14.17-.21.3-.18.6.09,1.2.17,1.8.24.32.04.26.54-.06.5Z"/>
    <path d="M44.25,61.55c-.4-.17-1.54.11-1.49-.45.04-.13.18-.21.3-.18.42.04.83.05,1.25.13.32.04.26.54-.06.5Z"/>
    <path d="M43.77,61.03c.07.11.04.29-.07.36-.04.03-.09.04-.16.03-.14-.02-.28-.04-.42-.07-.09-.02-.18-.03-.27-.05,0,0-.01,0-.02,0,0,0-.02,0-.02,0-.25-.05-.49-.1-.73-.15-.02,0-.05,0-.08-.02-.12-.02-.25-.05-.37-.07-.02,0-.04,0-.05-.01-.02,0-.03,0-.04,0-.13-.03-.21-.18-.18-.3.02-.08.08-.14.15-.16,0,0,.02,0,.03,0,.02,0,.04-.01.06-.01.02,0,.04,0,.06,0,.14.02.28.05.42.08.37.07.73.15,1.09.21.14.03.29.05.44.07.03,0,.05,0,.07.02.02.01.05.02.06.04.02.01.02.02.04.04Z"/>
    <path d="M44.63,61.5c-.58-.08-1.09-.14-1.65-.15-.14,0-.25-.11-.25-.25,0-.13.11-.26.25-.25.57,0,1.15.08,1.72.16.32.04.26.54-.06.5Z"/>
    <path d="M41.22,65.78c-.22-.49.51-.43.81-.48.35.04,1.03-.31,1.15.16,0,.13-.1.26-.23.26-.5.04-.99.07-1.47.17-.1.02-.2-.02-.25-.11Z"/>
    <path d="M41.19,65.73c0-.13.1-.26.23-.26.62-.03,1.24-.04,1.84-.2.32-.06.41.43.1.49-.62.17-1.27.17-1.91.21-.14,0-.25-.1-.26-.24Z"/>
    <path d="M42.14,65.84c-.14-.01-.24-.13-.23-.27.07-.37.59-.19.86-.25.43.09,1.32-.4,1.54.07.02.13-.07.27-.2.29-.65.07-1.31.18-1.97.16Z"/>
    <path d="M43.07,65.83c-.25.02-.38-.31-.18-.47.46-.12,1.01-.06,1.5-.17.32-.07.41.43.09.49-.11.02-.21.04-.32.05-.37,0-.72.08-1.09.1Z"/>
    <path d="M43.1,65.79c-.33-.02-.28-.53.04-.5.39.04.8.01,1.19-.04.13-.03.27.07.29.2.01.54-1.15.32-1.52.34Z"/>
    <path d="M42.08,65.33c.11-.53,1.15-.19,1.58-.3.3.06.82-.22.94.16-.01.52-.81.26-1.16.34-.4-.09-1.21.27-1.36-.21Z"/>
    <path d="M41.09,65.39c-.03-.14.07-.26.2-.29.79-.15,1.6-.13,2.41-.13.32-.02.35.49.03.5-.78.01-1.57-.02-2.34.13-.13.02-.27-.06-.29-.2Z"/>
    <path d="M44.41,65.11s0,.06-.01.09c0,.02-.01.04-.02.05-.02.04-.05.07-.09.09-.03.02-.07.03-.11.03-.04,0-.07,0-.11,0-.05,0-.11,0-.16,0-.12.01-.25.02-.38.02-.12,0-.24.01-.36.01-.09,0-.18,0-.26.01-.03,0-.05,0-.07,0-.23.01-.46.02-.68.03-.06,0-.12,0-.19,0-.05,0-.09,0-.14,0-.09,0-.19,0-.28.01-.06.02-.13.02-.19,0-.03,0-.05-.02-.07-.04h0s-.04-.05-.05-.08c-.03-.11,0-.19.05-.25.04-.05.11-.09.21-.12.05-.02.11-.03.18-.04h.14c.49-.05,1.14.05,1.37-.02.2.01.58-.09.87-.07.14,0,.27.04.33.14.02.03.04.06.05.11Z"/>
    <path d="M41.76,70.08c.03-.45.75-.32,1.05-.46.43-.12.87-.24,1.29-.38.12-.05.27,0,.32.14.05.12,0,.28-.14.33-.48.16-.98.31-1.48.43-.33,0-.92.4-1.05-.05Z"/>
    <path d="M45.4,69.06c.03.07.02.14,0,.2h0c-.02.05-.05.09-.09.12-.12.1-.32.17-.52.22-.29.08-.6.14-.75.23-.33.09-.64.21-.96.33-.01,0-.02,0-.03,0-.13.05-.27.1-.4.14l-.08.02c-.07.02-.15.04-.22.05-.11.02-.22.04-.34.05-.06,0-.12,0-.18,0-.19-.01-.26-.22-.19-.36.02-.05.06-.09.12-.12.01,0,.03-.01.04-.02s.04,0,.06,0c.03,0,.06,0,.09,0,.04,0,.07,0,.11,0,.15-.02.3-.05.45-.1.12-.04.25-.08.38-.11.02,0,.03-.01.05-.02,0,0,.01,0,.02,0,0,0,.02,0,.03,0,.43-.18.86-.31,1.29-.44h0l.28-.09s.07-.02.1-.03c.14-.05.27-.09.41-.14.02,0,.03-.02.04-.02.04-.02.07-.02.11-.01.08,0,.15.05.19.12Z"/>
    <path d="M42,70.11c-.02-.13.08-.26.22-.28.96-.18,1.88-.42,2.79-.77.45-.23.55.44.09.5-.92.33-1.86.6-2.82.76-.13.02-.26-.08-.28-.22Z"/>
    <path d="M41.7,70.11c0-.14.13-.26.27-.25,1.01-.17,2.02-.35,2.96-.72.28-.16.53.28.25.43-.15.08-.32.11-.47.18-.81.29-1.63.41-2.45.57-.21.05-.55.08-.56-.21Z"/>
    <path d="M41.86,69.8c-.03-.12.05-.28.18-.3.62-.15,1.27-.2,1.89-.3.41.02,1.14-.53,1.37-.08.04.14-.05.27-.18.3-.98.32-2.03.36-3.02.56-.11,0-.22-.07-.25-.19Z"/>
    <path d="M41.53,69.93c-.04-.13.05-.27.18-.3.94-.27,1.88-.58,2.84-.79.14-.04.29-.04.44-.04.32,0,.32.51,0,.5-1.1.1-2.13.57-3.21.82-.11,0-.21-.08-.24-.19Z"/>
    <path d="M44.58,69.24c-.18-.53.61-.39.91-.48.32-.04.38.46.06.5-.31-.01-.74.25-.97-.01Z"/>
    <path d="M74.6,59.62c.06-.45.77-.28,1.11-.42.26-.05.76-.19.73.23-.1.32-.61.2-.88.3-.3,0-.85.32-.95-.11Z"/>
    <path d="M73.03,59.94c-.03-.14.06-.26.19-.3.96-.29,1.93-.52,2.92-.6.42-.12.7.37.24.5-.8.03-1.58.18-2.34.38-.3.06-.85.43-1.01.02Z"/>
    <path d="M72.85,59.92c-.05-.13.02-.27.15-.32.56-.19,1.17-.19,1.74-.29.47-.14.99-.2,1.47-.16.13.03.23.15.2.29-.02.13-.16.23-.29.2-.44,0-.86.03-1.25.16-.56.12-1.16.09-1.7.28-.13.05-.27-.03-.32-.15Z"/>
    <path d="M74.25,59.84c0-.48.79-.33,1.11-.45.29-.02.86-.27.91.18-.03.31-.39.22-.61.27-.4-.04-1.23.43-1.41-.01Z"/>
    <path d="M76.35,59.56c.03.1.01.21-.06.28,0,0,0,0,0,0-.01.01-.03.02-.05.03-.02.01-.04.02-.07.02h-.02c-.1.02-.2.03-.3.04-.08,0-.16,0-.25.02-.59.05-1.15.18-1.73.27-.1.01-.2.03-.29.04-.09,0-.17-.05-.21-.12-.02-.03-.03-.07-.04-.11h0c0-.14.09-.25.23-.27.07-.01.14-.02.21-.03.18-.03.37-.06.55-.09.1-.02.2-.04.3-.05.38-.06.75-.12,1.13-.15.13-.01.26-.02.39-.03.02,0,.04,0,.06.01.07.02.12.07.14.14,0,0,0,0,0,.01h0Z"/>
    <path d="M73.32,63.91c.02-.43.66-.33.96-.41.84-.06,1.79-.28,2.58-.09.43.72-1.21.35-1.58.48-.57.07-1.15.11-1.71.24-.12,0-.23-.1-.24-.22Z"/>
    <path d="M73.33,64.05c-.02-.14.08-.26.21-.28,1.09-.21,2.2-.3,3.3-.34.32.04.26.54-.07.5-1.09.07-2.15.15-3.21.35-.12,0-.23-.1-.24-.22Z"/>
    <path d="M73.45,63.86c-.02-.14.08-.26.21-.28.75-.13,1.54-.26,2.3-.29.23,0,.45-.08.68-.05.25.05.28.44.02.5-1,.03-1.99.16-2.98.33-.12,0-.23-.1-.24-.22Z"/>
    <path d="M76.91,63.41s0,.02,0,.03c0,.02,0,.03,0,.05-.01.04-.04.07-.06.1h0c-.04.05-.1.07-.17.07-.15,0-.3.01-.45.02-.14.01-.28.02-.41.04s-.27.03-.41.05c-.02,0-.03,0-.05,0-.36.05-.71.11-1.07.18-.03,0-.06,0-.09.02-.18.03-.36.07-.54.1-.05.01-.11.02-.16.03,0,0-.01,0-.02,0-.04,0-.07,0-.09-.02,0,0-.02,0-.03-.01,0,0-.01,0-.02,0-.07-.04-.12-.11-.12-.18,0-.06,0-.11.03-.16h0c.04-.07.11-.11.19-.12.25-.05.5-.1.76-.14.37-.07.74-.12,1.11-.18.02,0,.05,0,.07,0l.25-.04c.15,0,.37-.04.59-.08.1-.01.2-.02.29-.02.04,0,.07,0,.11,0h0c.16.02.29.09.32.26Z"/>
    <path d="M73.23,63.81c-.02-.14.08-.25.21-.28.52-.05,1.05-.21,1.56-.2.54-.07,1.08-.11,1.62-.09.11,0,.21.1.23.22.02.14-.08.26-.21.28-1.06-.01-2.1.13-3.14.3-.13.02-.26-.08-.28-.21Z"/>
    <path d="M73.38,64.11c-.02-.14.08-.26.21-.28,1.01-.14,2.07-.11,3.07-.09-.03-.01-.06-.02-.1-.02.11,0,.21.09.23.21.02.13-.08.27-.21.28-.54.03-1.09.03-1.63.03-.45-.02-.88.02-1.32.09-.12,0-.23-.1-.25-.22Z"/>
    <path d="M76.79,63.98s0,.02,0,.02c0,.17-.09.26-.23.31,0,0-.01,0-.02,0-.04.01-.09.02-.13.03-.07,0-.13.01-.2.02-.12,0-.25,0-.35,0-.05,0-.09,0-.14,0-.03,0-.06,0-.09.01-.73.05-1.39.1-2.11.12-.03,0-.06,0-.09-.02h0c-.09-.04-.15-.13-.15-.23,0-.07.02-.12.05-.15h0s0-.02.01-.02c0-.01.02-.02.03-.02s.01,0,.02,0c.02-.01.03-.02.05-.02.03-.01.05-.02.09-.02.07-.02.14-.02.21-.02h.09c.12-.01.24-.02.36-.02.03,0,.06,0,.09,0,.1,0,.2-.01.3-.02.15,0,.31-.02.46-.02,0,0,.02,0,.03,0,.25-.01.51-.02.76-.04,0,0,.01,0,.02,0,.12-.01.25-.02.37-.03.09-.01.18-.02.27-.03.07-.02.14,0,.2.04.04.02.07.05.09.08.01.02.02.04.03.06Z"/>
    <path d="M75.84,68.8c-1.01-.07-2.01-.07-3.02-.1-.14-.02-.23-.14-.21-.28.14-.43.86-.1,1.22-.21.85,0,1.63.11,2.47.09.28.03.28.46,0,.5-.15,0-.31,0-.46,0Z"/>
    <path d="M76.13,68.64c-1.12-.14-2.23-.2-3.36-.21-.33,0-.32-.5,0-.5,1.2.06,2.46.02,3.62.28.27.16.01.59-.26.43Z"/>
    <path d="M75.98,69.02c-1.05-.11-2.11-.27-3.16-.35-.14,0-.25-.11-.25-.25s.11-.25.25-.25c1.08.07,2.14.24,3.21.35.42,0,.35.63-.05.5Z"/>
    <path d="M76.07,69.18c-1.1-.1-2.2-.3-3.3-.45-.32-.04-.25-.54.07-.5,1.12.16,2.24.34,3.36.46.31.08.19.57-.13.48Z"/>
    <path d="M75.96,68.79c-.85-.17-1.73-.26-2.59-.34-.26-.04-.61.12-.68-.21-.03-.33.36-.3.59-.29.93.07,1.81.17,2.72.34.39.01.33.59-.04.5Z"/>
    <path d="M75.22,68.65c-.71-.19-1.42-.22-2.14-.23-.13,0-.25-.12-.25-.25,0-.14.11-.24.25-.25.76.01,1.53.05,2.27.25.31.08.18.58-.13.48Z"/>
    <path d="M74.91,69.02c-.64-.03-1.28-.08-1.91-.2-.13-.03-.21-.18-.18-.31.04-.14.17-.21.3-.18.63.12,1.28.14,1.91.2.31.08.18.57-.13.48Z"/>
    <path class="cls-2" d="M84.33,112.04h0c-.19.09-.39.17-.58.25-.03.01-.06.03-.09.04-.9.31-1.8.63-2.7.96-.37.08-.73.17-1.09.29-.12.04-.23.07-.35.11-.12.04-.25.09-.37.12-.12.04-.25.08-.38.11-.11.02-.22.05-.34.07,0,0-.02,0-.02,0h0c-.2.04-.39.07-.59.1-.18.03-.36.05-.54.09-.35.07-.7.14-1.05.22-.34.08-.69.16-1.04.21-.37.06-.73.12-1.1.16-.38.04-.75.07-1.13.11s-.76.06-1.14.11c-.8.1-1.6.21-2.39.32-.34.04-.67.09-1.01.14-.37.04-.74.09-1.11.12-.69.05-1.38.11-2.07.16-.66.05-1.31.13-1.96.21-.66.08-1.31.15-1.97.22-.15.02-.3.02-.45.04-.18.02-.36.04-.54.04-.32.02-.63.04-.95.05,0,0,0,0,.01,0-.25,0-.48,0-.73,0h-.3c-.36,0-.72-.02-1.09-.03-.73-.02-1.47-.04-2.21-.03-.61,0-1.23,0-1.85.01-.23-.02-.46-.04-.68-.07-.29-.04-.57-.09-.86-.12-.29-.04-.57-.06-.86-.09-.26-.03-.53-.05-.79-.07-.48-.04-.96-.08-1.45-.12-.16-.01-.31-.02-.46-.04-.11-.02-.21-.03-.32-.04-.05-.01-.11-.02-.16-.02,0,0-.02,0-.03,0h0c-.24-.02-.47-.05-.7-.07-.03,0-.05,0-.09-.01-.18-.02-.36-.04-.54-.06-.04,0-.08,0-.12-.01-1.91-.45-3.85-.8-5.72-1.32-.05-.02-.09-.04-.14-.05-.16-.06-.32-.12-.48-.17-.27-.1-.54-.18-.82-.28-.53-.18-1.05-.4-1.56-.61-.14-.06-.28-.12-.41-.19-.15-.08-.3-.16-.46-.23-.02-.01-.05-.02-.07-.04-.01-.02-.02-.04-.02-.06-.02-.06-.01-.12,0-.17,0-.05.02-.11.03-.16,0-.05.02-.09.04-.12.11-.52.2-1.05.29-1.58.17-.99.34-1.98.5-2.96.12-.72.26-1.43.39-2.15.12-.64.23-1.28.35-1.92.25-1.39.5-2.79.75-4.18.16-.86.31-1.71.47-2.57.14-.78.3-1.55.45-2.33.09-.52.2-1.03.29-1.54.1-.53.2-1.05.29-1.58l.39-2.18s0-.04.01-.06h0c.11.01.21.02.32.04.05.01.11.02.17.02.11.01.21.02.32.03.02,0,.03,0,.05,0,.09,0,.17.02.25.02.1,0,.2.02.29.03.09.01.18.02.26.04.18,0,.37-.01.55-.03.09,0,.19-.01.29-.02.09,0,.18-.02.27-.03.02,0,.03,0,.05,0h0c1.72.18,3.44.35,5.16.5.41.04.81.07,1.21.11.51.04,1.02.08,1.52.11.12,0,.24.02.36.02.12.01.25.02.37.03.38.03.75.05,1.13.07.19.01.38.02.57.03.18.01.37.02.55.03,1.19.06,2.39.11,3.58.13.34,0,.69.02,1.04.02.34,0,.69,0,1.03,0s.69,0,1.04,0c.19,0,.38,0,.56,0,.7-.01,1.4-.03,2.11-.06.08,0,.16,0,.23,0,.21,0,.42-.02.62-.03.14,0,.27-.01.41-.02.09,0,.17,0,.26-.01.25,0,.5-.01.75-.02.75-.02,1.5-.05,2.25-.09.1,0,.19-.01.29-.02.05,0,.1,0,.14,0,.16-.01.32-.02.48-.04h.02s.02,0,.03,0c.37-.03.73-.06,1.09-.1.36-.04.72-.08,1.09-.13.14-.02.27-.04.41-.06.26-.04.53-.08.79-.12h0c.18-.03.36-.07.53-.1h0s.04,0,.07-.01c0,0,.02,0,.03,0,.2-.04.39-.08.58-.13.13-.03.26-.06.39-.09.04,0,.07-.02.11-.02.1-.02.19-.05.29-.08.13-.03.26-.07.39-.11.13-.04.27-.08.39-.12.01,0,.02,0,.03,0,.12-.04.25-.08.37-.12.12-.04.25-.08.37-.13.14-.05.29-.1.43-.16,0,0,.02,0,.02,0h0s.04-.02.07-.03c.07-.03.14-.06.21-.09.08-.03.15-.06.23-.09,0,0,.01,0,.02,0,0,0,.02,0,.02,0,.09-.04.17-.07.25-.11.01,0,.02-.01.04-.02.07-.03.15-.07.23-.11.04-.02.08-.04.12-.06.08-.04.16-.07.24-.12h0c.05,0,.1,0,.14-.02h0s.01,0,.02-.01c.04-.01.07-.03.11-.05,0,0,.02,0,.02-.01.04-.02.07-.05.1-.08l.19-.06s.09-.03.13-.04c.07-.02.14-.04.2-.07.01,0,.02,0,.03-.01l.07-.02c.07.03.14.09.15.18l1.44,7.04c.17.82.34,1.65.51,2.47.18.84.36,1.68.54,2.52.38,1.76.76,3.52,1.12,5.28.33,1.57.64,3.14.95,4.71.07.32.12.64.18.96.04.21.08.43.12.65.02.09.04.19.05.28.02.04.03.09.04.14,0,0,0,0,0,.01.02.03.03.06.04.09h0c.04.11.07.21.07.3h0Z"/>
    <path class="cls-2" d="M77.95,88.17c.12.16.02.31-.22.45-.05.03-.11.05-.16.08-.55.24-1.5.43-2.24.59-.47.1-.85.18-1,.24-.32.08-.62.19-.93.31l-.14.06c-.66.28-1.3.61-1.98.84-1.09.28-2.2.46-3.27.79-.62.17-1.23.43-1.84.63-.09,0-.18-.05-.23-.14-.06-.12,0-.28.12-.33.41-.17.83-.33,1.26-.46,1.17-.38,2.38-.65,3.55-.89.1-.04.19-.08.29-.12.7-.28,1.39-.55,2.09-.8,0,0,.02,0,.03,0,0,0,.02,0,.03-.01h0c.32-.12.64-.23.97-.33.17-.05.35-.11.52-.16.12-.04.25-.08.38-.11.16-.05.33-.09.49-.14,0,0,.01,0,.02,0,.31-.08.62-.16.93-.22,0,0,.02,0,.02,0,.13-.03.27-.06.41-.09.29,0,.7-.4.89-.16Z"/>
    <path class="cls-2" d="M77.68,88.05c.5-.09.73.51.2.53-.05.01-.1.02-.15.04-.07.02-.14.03-.21.05-.71.18-1.46.41-2.2.62-.31.09-.62.17-.93.25-.33.11-.67.21-1,.31,0,0,0,0,0,0-.09.03-.18.05-.27.08h0c-1.91.54-3.85.89-5.79,1.3h0c-.67.14-1.33.29-2,.45-.13.04-.28-.04-.32-.16s.04-.27.16-.31c.44-.14.89-.26,1.34-.36.02,0,.04,0,.06-.01.77-.17,1.54-.29,2.32-.4,1.26-.25,2.51-.57,3.75-.9,0,0,.01,0,.02,0,0,0,.02,0,.03,0,.05-.01.09-.02.14-.04h0s0,0,0,0h0s.03,0,.04-.01c.45-.12.9-.25,1.36-.38h.04c.47-.14.93-.28,1.4-.42,0,0,.01,0,.02,0,0,0,0,0,.01,0,.29-.09.59-.18.88-.26.2-.06.38-.12.57-.17h0s0,0,0,0t0,0c.17-.05.33-.1.5-.15Z"/>
    <path class="cls-2" d="M77.56,88.69c.15.14.07.46-.19.44-1.37.29-2.75.54-4.13.76h0c-.05.01-.1.02-.14.02-.64.11-1.29.2-1.94.29h0c-1.32.19-2.64.35-3.96.51-.21.03-.42.07-.62.11-.02,0-.04,0-.06.01-1.43.27-2.84.64-4.27.88-.11,0-.22-.09-.24-.2-.02-.14.07-.27.2-.29.76-.15,1.52-.3,2.29-.45,1.56-.38,3.15-.62,4.75-.83h.02s.02,0,.03,0c.59-.08,1.19-.15,1.78-.23.3-.04.59-.07.89-.11.3-.04.59-.08.89-.12h0s0,0,0,0c.07,0,.15-.02.22-.03.01,0,.03,0,.04,0,.02,0,.05,0,.08-.01.02,0,.04,0,.06,0h0c1.26-.19,2.51-.42,3.75-.75.14-.03.28-.04.42-.03.04,0,.07.01.1.03.02,0,.04.02.05.03Z"/>
    <path class="cls-5" d="M15.48,58.88c.02-.05.04-.11.07-.17-.03.06-.05.11-.07.17ZM35.93,43.09c4.71.34,5.2-7.79.7-8.44-4.73-.37-5.23,7.81-.7,8.44ZM97.52,56.4c.18-.08.29-.29.25-.48-.03-.2-.2-.36-.4-.38-.03,0-.06,0-.09,0-.09,0-.18.01-.27.02-.23.03-.47.07-.71.11-.58.09-1.16.19-1.75.28-1.25.19-2.49.39-3.73.6-1.87.3-3.74.64-5.61.96-1.89.33-3.79.64-5.69.95-1.25.21-2.51.41-3.76.62-.04,0-.07,0-.1.02-.38-1.69-.97-3.32-1.79-4.82-7.96-16.02-27.94-11.81-31.52,4.92-.12.47-.22.96-.3,1.44-.14-.03-.28-.05-.42-.08-.02,0-.04,0-.06,0-.02,0-.04,0-.06.01-.01,0-.02,0-.03,0-.96-.12-1.93-.24-2.89-.37-2.09-.27-4.18-.54-6.27-.79s-4.18-.49-6.27-.74c-1.01-.12-2.02-.25-3.03-.38-.48-.06-.95-.13-1.43-.2-.38-.06-.77-.11-1.15-.16-.08-.04-.16-.05-.25-.05-.15-.03-.31-.03-.45.04,0,0-.06.01-.12.05-.25.14-.29.51-.11.72.04.05.09.08.14.11.02,0,.03.02.04.02h0s.05.02.07.03c.05.04.18.06.3.07.07.02.14.02.2.02.02,0,.04,0,.07,0,.34.02.69.07,1.04.11.49.05.98.09,1.47.14,4.12.43,8.22.98,12.33,1.43,2.07.23,4.13.45,6.2.68.19.02.38.04.57.06-.16,1.18-.21,2.39-.17,3.61h-.14c-.06.02-.12.03-.18.05-.54.03-1.07.06-1.6.09-.64.04-1.28.07-1.92.11-2,.12-4.01.25-6.02.37-2.02.12-4.04.25-6.05.37-.85.05-1.71.11-2.56.16-.22.02-.44.02-.65.06-.05,0-.09.02-.14.03-.17.02-.31.12-.39.27,0,0,0,.01-.01.02,0,0,0,0,0,0,0,0,0,.02,0,.02,0,0,0,0,0,0,0,0,0,.01,0,.02,0,0,0,.01,0,.02,0,0,0,0,0,0-.04.09-.05.2-.04.3h0c.02.12.07.22.16.3.1.1.23.16.38.17,0,0,.02,0,.03,0,.07,0,.15.01.23.01.11,0,.23,0,.34-.02.35-.02.7-.05,1.05-.07.93-.07,1.86-.14,2.79-.2,2.02-.14,4.05-.3,6.08-.45,2.01-.14,4.02-.29,6.04-.44.91-.07,1.81-.14,2.71-.21.09,1.16.28,2.32.55,3.47,0,0-.02,0-.02,0-.12.02-.23.05-.35.07-.03,0-.05.02-.08.03-.08.02-.17.04-.25.05-1.41.33-2.83.64-4.25.95-1.94.42-3.89.83-5.82,1.29-.97.23-1.95.46-2.91.71-.43.11-.87.21-1.29.34-.25.07-.55.15-.68.4-.12.25-.05.54.17.7.11.08.23.11.35.11.09,0,.18-.01.27-.03.26-.04.52-.1.79-.16.67-.14,1.34-.3,2-.46,1.4-.34,2.79-.67,4.18-1.04,1.94-.5,3.87-1.04,5.81-1.54.47-.12.95-.24,1.42-.36l.27-.07c.11,0,.23-.02.34-.05.07-.02.15-.03.22-.05l.08-.02c.16.59.35,1.17.56,1.74.08.22.16.44.25.65.05.12.1.25.15.37.09.22.19.45.29.66.1.21.2.42.3.63,1.96,3.93,5.04,7.18,8.99,8.84.17.07.35.14.52.21.5.19,1.01.35,1.54.49.18.04.36.09.54.12l.15.04c.2.04.39.08.59.11.75.12,1.53.2,2.32.21,8.96-.01,14.97-7.08,16.78-15.23,3.07.34,6.16.62,9.23.96,1.96.22,3.92.44,5.88.64.97.1,1.95.2,2.92.29.4.04.81.08,1.21.11.02,0,.04,0,.07,0,.07.04.15.07.24.07h.04c.07,0,.14-.01.2-.03.04,0,.07,0,.1,0,.3,0,.55-.29.54-.57-.01-.27-.2-.46-.43-.52h0s-.07-.02-.1-.02c-.14-.07-.32-.09-.48-.05-.04,0-.07,0-.11,0-.44-.05-.88-.1-1.32-.14-1.96-.21-3.93-.41-5.89-.6-1.98-.19-3.95-.37-5.93-.57-1.99-.2-3.98-.43-5.98-.62.22-1.24.34-2.49.36-3.75.07,0,.14,0,.2-.02.05,0,.09-.02.13-.03,0,0,.02,0,.02,0h0c.11,0,.22-.01.34-.02,1.87-.11,3.73-.25,5.6-.37,1.95-.13,3.91-.25,5.86-.4.96-.07,1.92-.15,2.88-.25.43-.04.87-.09,1.3-.15.09-.01.19-.02.28-.04.06.02.13.03.2.02.19-.02.38-.08.51-.23.13-.16.2-.35.16-.55-.04-.2-.16-.38-.34-.48-.01,0-.03-.01-.04-.02-.1-.05-.21-.07-.33-.06-.08,0-.15.03-.22.05-.11,0-.23,0-.34,0-.41.01-.81.03-1.21.05-.92.05-1.84.12-2.76.2-1.97.15-3.94.35-5.91.53-1.95.18-3.89.35-5.83.55h-.02s-.03,0-.05,0c0,0-.01,0-.02,0h0s-.07,0-.11,0c-.09,0-.19.01-.29.02-.02-.41-.04-.82-.07-1.22-.02-.26-.05-.51-.09-.77,0-.04,0-.07-.01-.11-.03-.19-.05-.39-.09-.58-.03-.19-.06-.38-.1-.56.1,0,.2-.02.3-.04h.02s.05,0,.07-.02c.02,0,.04-.02.05-.03,0,0,0,0,0,0,.94-.15,1.89-.3,2.83-.46,2.83-.46,5.66-.9,8.49-1.33,1.83-.27,3.66-.57,5.48-.88.88-.14,1.75-.3,2.62-.44.39-.07.79-.12,1.18-.2.15-.03.3-.05.46-.09.02,0,.04-.01.07-.02.03,0,.07-.02.1-.03ZM104.03,53.73c.32.55.01,1.18.03,1.78-.01.25-.02.5-.04.76,0,.03,0,.06,0,.09,0,.21,0,.41-.02.62,0,.02,0,.04,0,.06,0,.06,0,.12,0,.18-.04,1.47-.07,2.95-.26,4.4-.03.93-.33,1.8-.64,2.66-.02.12-.05.23-.07.35-.34,1.56-.91,3.06-1.61,4.49-.77,1.58-1.76,3.04-2.8,4.45-.66.89-1.38,1.73-2.12,2.55-.91,1-1.89,1.95-2.9,2.84-.79.7-1.61,1.35-2.45,1.99-1.08.82-2.2,1.59-3.34,2.3-1.02.63-2.06,1.23-3.13,1.77-.85.43-1.72.83-2.6,1.2-.5.21-1.01.4-1.47.57-.18.07-.35.14-.52.23-.23.11-.46.19-.7.29-.09.04-.19.08-.29.11l-.07.02c-.12.04-.24.08-.36.12l-.19.06h0s-.06.06-.1.09c0,0-.01,0-.02.01-.03.02-.07.04-.11.05,0,0-.01,0-.02,0-.05.02-.09.02-.14.02h0s0,0,0,0c-.08.04-.16.08-.24.12-.04.02-.08.04-.12.06-.08.04-.16.07-.23.11-.01,0-.02.01-.04.02-.09.04-.18.08-.27.12,0,0,0,0-.02,0-.19.05-.38.11-.57.17-.29.09-.59.17-.88.26,0,0,0,0-.01,0,0,0-.01,0-.02,0-.16.04-.33.09-.49.14-.13.04-.26.07-.38.11-.18.05-.35.11-.52.16h-.04s0,.01,0,.01c-.45.13-.9.26-1.36.38,0,0-.02,0-.03,0t0,0h-.01s0,0,0,0h0c-.29.04-.59.08-.89.12-.29.04-.59.08-.89.11-.59.07-1.19.15-1.78.23,0,0-.02,0-.03,0h-.02c-.16.02-.32.02-.48.04-.05,0-.09,0-.14,0-1.09.07-2.2.1-3.29.12-.09,0-.17,0-.26.02-.14.01-.27.02-.41.02-.21.01-.41.02-.62.03-.07,0-.15,0-.23,0-.7.03-1.4.05-2.11.06-.19,0-.38,0-.56,0-.35,0-.69,0-1.04,0s-.69,0-1.03,0c-1.73-.02-3.45-.08-5.17-.18-.69-.04-1.38-.08-2.07-.13-1.04-.07-2.07-.16-3.1-.24-1.72-.15-3.44-.32-5.16-.5-.02,0-.04,0-.05,0-.09.01-.18.02-.27.03-.1.01-.2.02-.29.02-.18.01-.37.02-.55.02-.08-.02-.17-.03-.26-.04-.09-.01-.18-.02-.29-.03-.08,0-.17-.02-.25-.02-.02,0-.04,0-.05,0-.16-.02-.32-.03-.48-.05-.38-.05-.74-.11-1.03-.25-.04,0-.08-.02-.12-.02-.95-.18-1.88-.43-2.8-.71-3.37-1.03-6.55-2.66-9.42-4.71-.77-.55-1.52-1.12-2.24-1.72-.71-.59-1.4-1.22-2.06-1.88-1.25-1.23-2.41-2.56-3.45-3.98-.49-.66-.94-1.36-1.37-2.06-.4-.67-.79-1.34-1.14-2.04-.56-1.11-1.04-2.27-1.43-3.45-.79-2.42-1.2-4.97-1.02-7.52,0-.09.01-.17.02-.26-.08-.02-.15-.07-.18-.15-.09-.43-.23-1.04-.08-1.49,0,0,0-.02,0-.02,0-.51.46-.85.73-1.23.17-.14.18-.42.38-.5.04-.06.09-.12.14-.18.02-.02.04-.04.05-.05.66-.91,1.29-1.85,1.91-2.79,1.05-1.6,2.05-3.23,3.02-4.88.01,0,.04-.05.05-.09,0,0,0,0,0-.01.17-.29.34-.57.5-.85,1.02-1.76,1.98-3.54,2.92-5.34.92-1.77,1.8-3.56,2.66-5.36,1.76-3.71,3.41-7.47,4.88-11.3.74-1.93,1.44-3.89,2.07-5.86.31-.96.6-1.93.87-2.9.26-.97.51-1.95.72-2.94.2-.97.38-1.95.47-2.94.04-.39.06-.77.06-1.16-.12-.53-.21-1.07-.17-1.58.02-.13.13-.2.24-.21h.01s.04-.07.07-.1c.02-.02.04-.02.06-.04.02-.02.05-.04.07-.06.12-.11.24-.21.37-.31.16-.13.32-.25.48-.36.34-.24.7-.46,1.06-.68.42-.25.85-.47,1.3-.68.74-.34,1.5-.64,2.27-.92,1.67-.59,3.39-1.04,5.12-1.41.88-.18,1.76-.34,2.64-.5.91-.15,1.84-.27,2.77-.38.88-.11,1.77-.19,2.66-.26.86-.07,1.71-.12,2.56-.16,1.79-.08,3.57-.08,5.36,0,1.7.07,3.39.21,5.07.48,1.73.27,3.45.65,5.09,1.26.96.36,1.91.79,2.71,1.44.44.36.83.79,1.05,1.31,0,0,0,.02.01.03.27.4.55.87.72,1.26.15.13.3.26.46.38.21.25.69.53.56.9,1.2,1.5,2.79,2.56,4.32,3.65,1.14,1.32,2.53,2.42,3.35,3.98,1.88,3.02,3.51,6.22,5.57,9.12,1.22,1.38,2.65,2.55,3.5,4.23.71,1.35,1.25,2.77,1.69,4.22-.05-.11-.1-.21-.16-.32-.41-.82-.89-1.59-1.43-2.33-.62-.86-1.32-1.66-2.07-2.41-.64-.63-1.32-1.23-2.05-1.77-.79-.58-1.61-1.12-2.48-1.59-1.22-.65-2.53-1.16-3.87-1.53-.4-.11-.8-.2-1.21-.28-.29-.05-.59-.12-.89-.12-.04-.02-.09-.03-.13-.04-.21-.02-.41.09-.52.26-.32-.02-.63-.04-.95-.04-.43,0-.86,0-1.29.04-.46.04-.91.1-1.36.17-.98.15-1.94.43-2.86.81-.55.23-1.09.52-1.6.84-.43.28-.85.58-1.23.92-1.19,1.06-2.15,2.39-2.79,3.85-.67,1.55-.98,3.25-.97,4.95,0,.93.11,1.86.3,2.76.2.91.48,1.82.84,2.68.7,1.67,1.63,3.24,2.79,4.63,1.12,1.34,2.42,2.55,3.87,3.53,1.54,1.04,3.21,1.86,4.99,2.41,1.53.48,3.14.74,4.74.74.09,0,.18,0,.27,0,1.76-.03,3.51-.39,5.12-1.11,1.43-.63,2.7-1.58,3.74-2.75.54-.6,1.01-1.26,1.39-1.97.38-.7.69-1.44.91-2.21.15-.5.26-1.01.34-1.52.11-.7.16-1.41.16-2.12.34,1.45.7,2.9,1.16,4.31.66,1.77.58,3.8,1.79,5.36.55-.09.43.68.6,1.01.18.3.33.72.47,1.17.02,0,.04,0,.06,0,.04-.51.06-1,.07-1.48.01-.11.06-.2.16-.25.64-.18.44,1.36.45,1.74.07,0,.13.03.18.08.13-.07.33-.04.37.15Z"/>
  </g>
  <g id="Vector_layer-2" data-name="Vector layer">
    <path class="cls-2" d="M119.71,60.63s0,0,0,0c0,0,0,0,0,0Z"/>
    <path class="cls-2" d="M119.03,61.72s.09-.1.14-.15c.18-.31.36-.63.54-.94,0,0,0,0,0,0,0,0,0-.01,0-.02,0,0,0,0,0,0,0,0,0,0,0,0,0,0,0,0,0,0,.07-.11.13-.23.2-.34.03-.06.06-.13.08-.19.02-.07.04-.14.07-.22,0,0,0,.01,0,.02.04-.13.07-.26.11-.39.02-.04.03-.08.04-.12.2-1.45.25-2.91.26-4.37.01-1.85-.07-3.7-.21-5.55-.14-1.94-.35-3.87-.6-5.79-.48-3.71-1.12-7.4-1.88-11.08-.61-2.95-1.31-5.89-2.09-8.82-.75-2.79-1.57-5.56-2.51-8.3-.56-1.67-1.17-3.32-1.84-4.96-.53-1.32-1.11-2.63-1.74-3.92-.55-1.11-1.14-2.21-1.82-3.26-.39-.6-.81-1.18-1.29-1.73-.41-.47-.87-.91-1.43-1.24-.44-.26-.98-.41-1.51-.29-.05.01-.1.02-.15.04-.07,0-.13-.01-.19-.02-.78-.08-1.56-.1-2.34-.09-.92.01-1.83.08-2.74.17-1.21.12-2.41.3-3.6.52-1.57.29-3.11.65-4.65,1.05-1.68.44-3.33.97-4.94,1.58-1.34.51-2.64,1.1-3.87,1.78-.64.35-1.26.73-1.83,1.17-.4.3-.77.62-1.1.98-.17.17-.31.36-.44.56-.12.18-.19.37-.27.56-.03.07-.05.14-.07.21-.01.07-.02.14-.02.22,0,0,0,0,0,.01h0s-.05.06-.06.09h0c-.03.08-.04.14-.03.21-.1.43-.12.88-.09,1.32.02.47.08.94.17,1.4.18.97.45,1.92.75,2.87.31.96.66,1.9,1.03,2.84.37.94.76,1.87,1.18,2.79.84,1.9,1.77,3.77,2.74,5.61,1.91,3.65,4.02,7.23,6.24,10.74,1.08,1.71,2.19,3.4,3.35,5.07,1.17,1.7,2.37,3.38,3.63,5.03.21.26.41.53.62.8,0,0,0,0,0,0,.03.04.06.08.07.08,1.19,1.55,2.41,3.07,3.7,4.56,1.25,1.46,2.54,2.9,3.95,4.25.98.94,2,1.85,3.17,2.61.29.19.59.37.92.52.46.37.94.73,1.44,1.05.97.64,2.04,1.2,3.18,1.58.99.33,2.2.59,3.33.5.91-.07,1.76-.37,2.41-1.02Z"/>
  </g>
</svg>