<?xml version="1.0" encoding="UTF-8"?>
<svg id="Layer_1" data-name="Layer 1" xmlns="http://www.w3.org/2000/svg" viewBox="0 0 20.42 24">
  <defs>
    <style>
      .cls-1 {
        fill: #fff;
      }
    </style>
  </defs>
  <path class="cls-1" d="M20.26,22.76l-6.64-8.57c1.65-1.49,2.7-3.63,2.7-6.03C16.33,3.66,12.66,0,8.16,0S0,3.66,0,8.16s3.66,8.16,8.16,8.16c1.56,0,3-.46,4.24-1.22l6.66,8.6c.15.19.37.29.6.29.16,0,.33-.05.47-.16.33-.26.39-.74.13-1.07ZM1.59,8.16c0-3.63,2.95-6.58,6.58-6.58s6.58,2.95,6.58,6.58-2.95,6.58-6.58,6.58S1.59,11.79,1.59,8.16Z"/>
</svg>