<?xml version="1.0" encoding="UTF-8"?>
<svg xmlns="http://www.w3.org/2000/svg" xmlns:xlink="http://www.w3.org/1999/xlink" version="1.1" viewBox="0 0 375.51 57.37">
  <!-- Generator: Adobe Illustrator 29.8.2, SVG Export Plug-In . SVG Version: 2.1.1 Build 3)  -->
  <defs>
    <style>
      .st0 {
        fill: url(#linear-gradient3);
      }

      .st1, .st2 {
        fill: none;
      }

      .st1, .st2, .st3 {
        stroke-miterlimit: 10;
      }

      .st1, .st2, .st4 {
        stroke-width: 3px;
      }

      .st1, .st3 {
        stroke: #fff;
      }

      .st5 {
        isolation: isolate;
      }

      .st2 {
        stroke: url(#linear-gradient2);
      }

      .st6, .st3 {
        fill: #fff;
      }

      .st4 {
        fill: url(#linear-gradient);
        stroke: url(#linear-gradient1);
        stroke-linecap: round;
        stroke-linejoin: round;
      }
    </style>
    <linearGradient id="linear-gradient" x1="56.09" y1="-14.66" x2="67.76" y2="-14.66" gradientTransform="translate(0 31.23) scale(1 -1)" gradientUnits="userSpaceOnUse">
      <stop offset=".21" stop-color="#d37fff"/>
      <stop offset=".35" stop-color="#c164f8"/>
      <stop offset=".65" stop-color="#9e2fea"/>
      <stop offset=".88" stop-color="#890ee2"/>
      <stop offset="1" stop-color="#8102df"/>
    </linearGradient>
    <linearGradient id="linear-gradient1" x1="54.59" y1="-14.66" x2="69.26" y2="-14.66" gradientTransform="translate(0 31.23) scale(1 -1)" gradientUnits="userSpaceOnUse">
      <stop offset=".21" stop-color="#d37fff"/>
      <stop offset=".35" stop-color="#c164f8"/>
      <stop offset=".65" stop-color="#9e2fea"/>
      <stop offset=".88" stop-color="#890ee2"/>
      <stop offset="1" stop-color="#8102df"/>
    </linearGradient>
    <linearGradient id="linear-gradient2" x1="28.06" y1="3.39" x2="61.26" y2="3.39" gradientTransform="translate(0 31.23) scale(1 -1)" gradientUnits="userSpaceOnUse">
      <stop offset=".21" stop-color="#d37fff"/>
      <stop offset=".35" stop-color="#c164f8"/>
      <stop offset=".65" stop-color="#9e2fea"/>
      <stop offset=".88" stop-color="#890ee2"/>
      <stop offset="1" stop-color="#8102df"/>
    </linearGradient>
    <linearGradient id="linear-gradient3" x1="35.43" y1="3.08" x2="55.29" y2="3.08" gradientTransform="translate(0 31.23) scale(1 -1)" gradientUnits="userSpaceOnUse">
      <stop offset=".21" stop-color="#d37fff"/>
      <stop offset=".35" stop-color="#c164f8"/>
      <stop offset=".65" stop-color="#9e2fea"/>
      <stop offset=".88" stop-color="#890ee2"/>
      <stop offset="1" stop-color="#8102df"/>
    </linearGradient>
  </defs>
  <g id="Logo-container">
    <g id="Logo">
      <path class="st4" d="M56.09,39.69l11.67,12.41s-11.67-12.41-11.67-12.41Z"/>
      <path class="st2" d="M59.76,27.86c0,4.34-1.83,8.25-4.76,11-2.7,2.54-6.34,4.09-10.34,4.09-8.34,0-15.1-6.76-15.1-15.1s6.76-15.1,15.1-15.1,15.1,6.76,15.1,15.1h0Z"/>
      <circle class="st0" cx="45.36" cy="28.16" r="9.93"/>
      <path class="st3" d="M40.56,23.48c-.47.34-.45.86-.48,4.68-.03,3.53-.05,4.01.39,4.39.99.85,2.91.06,5.54-1.03,2.77-1.14,5.18-2.14,5.12-3.37-.02-.46-.37-.88-5.27-3.08-4.05-1.82-4.78-1.97-5.3-1.59Z"/>
      <path class="st1" d="M70.96,44.11c2.5-2,5.25-4.45,8.04-7.41,2.46-2.61,4.51-5.17,6.22-7.51-7.75-14.87-23.13-24.26-39.86-24.35-16.54-.09-31.87,8.93-39.86,23.45,2.12,3.76,7.32,11.77,17.35,17.41,13.19,7.42,25.99,5.85,29.97,5.21"/>
    </g>
  </g>
  <g id="Text-container">
    <g id="Text">
      <g class="st5">
        <g class="st5">
          <path class="st6" d="M115.39,44.05c-2.25,0-4.21-.36-5.87-1.09-1.66-.73-2.96-1.75-3.89-3.05-.94-1.31-1.47-2.84-1.6-4.59h4.09c.11,1.18.51,2.15,1.2,2.91.69.76,1.56,1.33,2.63,1.7,1.07.37,2.22.56,3.43.56,1.41,0,2.68-.23,3.81-.69,1.13-.46,2.02-1.11,2.68-1.95.66-.84.99-1.81.99-2.92,0-1.01-.28-1.83-.85-2.46-.57-.63-1.32-1.15-2.26-1.55-.94-.41-1.97-.76-3.09-1.07l-3.78-1.07c-2.52-.71-4.48-1.74-5.88-3.07-1.4-1.33-2.1-3.03-2.1-5.1,0-1.76.48-3.31,1.43-4.63.95-1.32,2.24-2.35,3.86-3.08,1.62-.73,3.44-1.09,5.46-1.09s3.88.36,5.46,1.09c1.58.73,2.83,1.72,3.75,2.97.92,1.25,1.4,2.67,1.46,4.25h-3.91c-.18-1.53-.91-2.71-2.18-3.54-1.27-.83-2.84-1.25-4.7-1.25-1.34,0-2.52.22-3.54.66-1.01.44-1.8,1.04-2.36,1.81-.56.76-.84,1.63-.84,2.61,0,1.09.34,1.97,1.02,2.63.68.67,1.48,1.18,2.42,1.55.93.37,1.77.66,2.53.87l3.13.86c.84.22,1.77.53,2.78.92,1.01.39,1.98.91,2.91,1.56.92.65,1.68,1.48,2.28,2.48.6,1,.89,2.23.89,3.68,0,1.71-.44,3.25-1.33,4.62-.89,1.37-2.18,2.46-3.87,3.25-1.69.8-3.74,1.2-6.15,1.2Z"/>
          <path class="st6" d="M141.74,20.03v3.23h-12.14v-3.23h12.14ZM133.13,14.45h3.78v22.97c0,1.05.21,1.82.64,2.3.43.48,1.14.72,2.13.72.24,0,.54-.03.91-.08.37-.06.71-.11,1.02-.17l.78,3.19c-.39.14-.84.25-1.33.32-.5.07-.99.1-1.48.1-2.03,0-3.61-.54-4.75-1.61-1.13-1.07-1.7-2.56-1.7-4.48V14.45Z"/>
        </g>
        <g class="st5">
          <path class="st6" d="M146.57,43.5v-23.47h3.65v3.61h.25c.43-1.19,1.21-2.14,2.32-2.87,1.11-.72,2.37-1.08,3.77-1.08.28,0,.61,0,1,.02.39.01.69.03.91.04v3.8c-.11-.03-.39-.07-.84-.13-.45-.06-.92-.08-1.43-.08-1.12,0-2.12.23-3.01.7-.89.47-1.58,1.11-2.09,1.93-.5.82-.76,1.76-.76,2.82v14.7h-3.78Z"/>
        </g>
        <g class="st5">
          <path class="st6" d="M171.91,44.01c-2.27,0-4.22-.5-5.87-1.51-1.65-1.01-2.91-2.41-3.8-4.22-.89-1.8-1.33-3.91-1.33-6.32s.43-4.53,1.3-6.36c.87-1.83,2.1-3.27,3.68-4.3,1.59-1.04,3.45-1.55,5.57-1.55,1.25,0,2.47.21,3.69.62,1.21.41,2.31,1.08,3.3,2,.99.92,1.77,2.12,2.36,3.62.59,1.5.88,3.33.88,5.5v1.58h-18.23v-3.19h16.19l-1.76,1.18c0-1.54-.24-2.91-.72-4.1-.48-1.2-1.2-2.13-2.15-2.81-.95-.68-2.13-1.02-3.55-1.02s-2.62.35-3.63,1.04c-1.01.69-1.78,1.6-2.31,2.71-.53,1.11-.8,2.31-.8,3.58v2.12c0,1.74.3,3.21.9,4.42.6,1.21,1.45,2.13,2.53,2.75,1.08.62,2.34.93,3.77.93.92,0,1.76-.13,2.52-.4.76-.27,1.41-.67,1.95-1.21.55-.54.97-1.21,1.26-2l3.65,1.01c-.36,1.18-.98,2.21-1.85,3.11-.87.9-1.94,1.6-3.22,2.1-1.28.5-2.73.76-4.34.76Z"/>
        </g>
        <g class="st5">
          <path class="st6" d="M194.1,44.05c-1.48,0-2.83-.28-4.04-.84s-2.17-1.38-2.89-2.46c-.71-1.08-1.07-2.39-1.07-3.93,0-1.34.27-2.44.8-3.28s1.24-1.5,2.13-1.98c.89-.48,1.87-.84,2.95-1.08s2.16-.43,3.25-.57c1.4-.18,2.54-.32,3.42-.42.88-.1,1.54-.27,1.96-.5.43-.24.64-.64.64-1.22v-.12c0-.98-.18-1.81-.55-2.49s-.91-1.2-1.64-1.56-1.64-.55-2.73-.55-2.08.17-2.88.52c-.8.35-1.45.79-1.94,1.31-.5.53-.87,1.06-1.12,1.61l-3.63-1.2c.6-1.43,1.41-2.54,2.44-3.35,1.02-.8,2.15-1.38,3.38-1.71,1.23-.34,2.45-.5,3.65-.5.78,0,1.68.09,2.68.28,1,.19,1.97.56,2.9,1.12.93.56,1.7,1.39,2.31,2.49.61,1.1.91,2.57.91,4.4v15.47h-3.72v-3.19h-.25c-.27.55-.69,1.11-1.28,1.69s-1.35,1.07-2.29,1.46c-.94.39-2.07.59-3.4.59ZM194.76,40.71c1.4,0,2.58-.27,3.55-.82s1.7-1.26,2.2-2.13.76-1.79.76-2.74v-3.25c-.15.18-.49.35-1.01.49-.52.15-1.11.28-1.77.39-.66.11-1.31.21-1.93.28-.62.08-1.12.14-1.48.18-.91.11-1.76.3-2.55.58-.79.27-1.42.67-1.9,1.2-.48.53-.71,1.24-.71,2.13,0,.81.21,1.49.63,2.04s.99.96,1.72,1.24c.73.28,1.56.42,2.5.42Z"/>
          <path class="st6" d="M211.68,43.5v-23.47h3.67l.02,5.25h-.29c.32-1.27.83-2.33,1.52-3.16.69-.83,1.5-1.46,2.44-1.88s1.9-.63,2.91-.63c1.71,0,3.09.52,4.15,1.58,1.06,1.05,1.74,2.43,2.05,4.14h-.5c.28-1.18.79-2.19,1.53-3.04.74-.85,1.64-1.51,2.7-1.97,1.06-.46,2.21-.69,3.45-.69,1.36,0,2.6.29,3.72.88,1.12.59,2.01,1.48,2.68,2.67.66,1.19,1,2.7,1,4.51v15.83h-3.78v-15.73c0-1.69-.48-2.9-1.43-3.63s-2.06-1.09-3.32-1.09c-1.05,0-1.96.22-2.72.66-.76.44-1.35,1.05-1.76,1.82s-.62,1.65-.62,2.65v15.33h-3.78v-16.1c0-1.3-.43-2.35-1.3-3.15-.87-.8-1.97-1.2-3.3-1.2-.91,0-1.77.21-2.57.64-.8.43-1.45,1.06-1.94,1.9-.49.84-.74,1.88-.74,3.13v14.78h-3.78Z"/>
        </g>
        <g class="st5">
          <path class="st6" d="M247.12,43.5l11.36-31.28h4.62l11.51,31.28h-4.2l-6.63-18.56c-.41-1.15-.88-2.58-1.42-4.29-.54-1.71-1.19-3.9-1.96-6.56h.76c-.76,2.69-1.41,4.9-1.96,6.65-.55,1.74-1.01,3.15-1.38,4.21l-6.45,18.56h-4.24ZM252.83,34.77v-3.49h16.06v3.49h-16.06Z"/>
        </g>
        <g class="st5">
          <path class="st6" d="M281.36,43.5l-7.12-23.47h4.01l2.86,10.25c.39,1.4.81,2.99,1.26,4.76s.89,3.78,1.32,6.01h-.65c.42-2.14.85-4.1,1.28-5.88.43-1.78.85-3.41,1.26-4.89l2.81-10.25h4.03l2.77,10.25c.39,1.44.8,3.05,1.23,4.82.43,1.77.85,3.75,1.27,5.95h-.67c.45-2.17.89-4.14,1.33-5.91.44-1.77.86-3.39,1.27-4.86l2.86-10.25h4.01l-7.12,23.47h-3.76l-3.04-10.62c-.31-1.08-.61-2.18-.9-3.3-.29-1.12-.58-2.27-.86-3.44s-.57-2.37-.86-3.59h.84c-.28,1.2-.56,2.4-.85,3.58s-.58,2.34-.87,3.47-.6,2.23-.9,3.28l-3.04,10.62h-3.76Z"/>
          <path class="st6" d="M317.85,44.05c-1.48,0-2.83-.28-4.04-.84-1.21-.56-2.17-1.38-2.89-2.46-.71-1.08-1.07-2.39-1.07-3.93,0-1.34.27-2.44.8-3.28.53-.84,1.24-1.5,2.13-1.98.89-.48,1.87-.84,2.95-1.08,1.08-.24,2.16-.43,3.25-.57,1.4-.18,2.54-.32,3.42-.42.88-.1,1.54-.27,1.96-.5.43-.24.64-.64.64-1.22v-.12c0-.98-.18-1.81-.55-2.49s-.91-1.2-1.64-1.56c-.73-.36-1.64-.55-2.73-.55s-2.08.17-2.88.52c-.8.35-1.45.79-1.94,1.31-.5.53-.87,1.06-1.12,1.61l-3.63-1.2c.6-1.43,1.41-2.54,2.44-3.35,1.02-.8,2.15-1.38,3.38-1.71s2.45-.5,3.65-.5c.78,0,1.68.09,2.68.28,1,.19,1.97.56,2.9,1.12.93.56,1.7,1.39,2.31,2.49.61,1.1.91,2.57.91,4.4v15.47h-3.72v-3.19h-.25c-.27.55-.69,1.11-1.28,1.69s-1.35,1.07-2.29,1.46-2.07.59-3.4.59ZM318.51,40.71c1.4,0,2.58-.27,3.55-.82.97-.55,1.7-1.26,2.21-2.13s.76-1.79.76-2.74v-3.25c-.15.18-.49.35-1.01.49-.52.15-1.11.28-1.77.39-.67.11-1.31.21-1.93.28s-1.12.14-1.48.18c-.91.11-1.76.3-2.55.58-.79.27-1.42.67-1.9,1.2-.48.53-.71,1.24-.71,2.13,0,.81.21,1.49.63,2.04s.99.96,1.72,1.24c.73.28,1.56.42,2.5.42Z"/>
        </g>
        <g class="st5">
          <path class="st6" d="M335.43,43.5v-23.47h3.65v3.61h.25c.43-1.19,1.21-2.14,2.32-2.87,1.11-.72,2.37-1.08,3.77-1.08.28,0,.61,0,1,.02.38.01.69.03.91.04v3.8c-.11-.03-.39-.07-.84-.13s-.92-.08-1.43-.08c-1.12,0-2.12.23-3.01.7-.89.47-1.58,1.11-2.09,1.93-.5.82-.76,1.76-.76,2.82v14.7h-3.78Z"/>
        </g>
        <g class="st5">
          <path class="st6" d="M360.77,44.01c-2.27,0-4.22-.5-5.87-1.51s-2.91-2.41-3.8-4.22c-.89-1.8-1.33-3.91-1.33-6.32s.43-4.53,1.3-6.36c.87-1.83,2.1-3.27,3.68-4.3,1.59-1.04,3.45-1.55,5.58-1.55,1.25,0,2.47.21,3.68.62,1.21.41,2.31,1.08,3.3,2,.99.92,1.77,2.12,2.36,3.62.59,1.5.88,3.33.88,5.5v1.58h-18.22v-3.19h16.19l-1.76,1.18c0-1.54-.24-2.91-.72-4.1-.48-1.2-1.2-2.13-2.15-2.81s-2.13-1.02-3.55-1.02-2.62.35-3.63,1.04c-1.01.69-1.78,1.6-2.31,2.71-.53,1.11-.8,2.31-.8,3.58v2.12c0,1.74.3,3.21.9,4.42.6,1.21,1.45,2.13,2.53,2.75,1.08.62,2.34.93,3.77.93.92,0,1.76-.13,2.52-.4.76-.27,1.41-.67,1.95-1.21.55-.54.97-1.21,1.26-2l3.65,1.01c-.36,1.18-.98,2.21-1.85,3.11s-1.94,1.6-3.22,2.1c-1.28.5-2.73.76-4.34.76Z"/>
        </g>
      </g>
    </g>
  </g>
</svg>