<?xml version="1.0" encoding="UTF-8"?>
<svg id="Vector_layer" data-name="Vector layer" xmlns="http://www.w3.org/2000/svg" viewBox="0 0 109.02 128.96">
  <defs>
    <style>
      .cls-1 {
        fill: #e8b473;
      }

      .cls-2 {
        fill: #e9b473;
      }

      .cls-3 {
        fill: #b48448;
      }

      .cls-4 {
        fill: #ff9d0d;
      }

      .cls-5 {
        fill: #603d12;
      }

      .cls-6 {
        fill: #5f3c12;
      }
    </style>
  </defs>
  <path d="M6.78,7.12s-.07.08-.1.12c.03-.04.07-.08.1-.12Z"/>
  <path d="M38.57,127.75s0,0,0,0c0,0,0,0,0,0,0,0,0,0,0,0Z"/>
  <path d="M36.65,126.57c-.06-.02-.11-.03-.17-.05.07.02.14.04.21.06-.01,0-.03,0-.04,0Z"/>
  <path d="M40.27,127.46s-.04,0-.07-.01c.04,0,.07.02.11.02-.01,0-.03,0-.04,0Z"/>
  <path d="M43.15,128.01c-.24-.04-.47-.07-.71-.11h0c-.05,0-.11-.02-.16-.02,0,0,0,0,.01,0-.18-.03-.36-.07-.53-.11-.16-.04-.32-.07-.48-.11.65.13,1.3.25,1.94.36-.03,0-.05,0-.08-.01Z"/>
  <path d="M43.91,128.14s.08.01.12.02c-.04,0-.08-.01-.12-.02Z"/>
  <path d="M44.92,128.29s.04,0,.05,0c0,0,0,0,0,0-.02,0-.03,0-.05,0Z"/>
  <path d="M73.06,127.07s-.01,0-.02,0c.03,0,.05-.01.08-.02-.02,0-.04.01-.06.02,0,0,0,0,0,0Z"/>
  <path class="cls-1" d="M22.87,74.43c-.22.04-.43.07-.65.11-.15-.28-.29-.55-.43-.84.21-.04.42-.07.62-.11.15.29.3.56.46.84Z"/>
  <path class="cls-3" d="M60.07,30.04c.14,0,.24.14.23.27,0,.01,0,.03,0,.04,0,.02,0,.04,0,.05,0,.05-.01.1-.02.15-.21,1.98-.42,3.96-.63,5.94-.14,1.3-.28,2.61-.41,3.92-.12,1.27-.25,2.54-.38,3.8-.13,1.29-.28,2.57-.39,3.86-.04.48-.09.96-.14,1.44-.07.61-.14,1.21-.2,1.82-.07.68-.15,1.35-.21,2.03-.04.37-.05.74-.09,1.11-.04.46-.1.92-.14,1.38-.04.4-.07.8-.12,1.2-.06.57-.12,1.13-.21,1.68-.02.14-.05.29-.07.4-.03.18-.05.36-.08.54l-.02.11s0,.03,0,.05c0,.06-.02.12-.05.17-.03.1-.11.17-.2.18-.04.04-.09.07-.15.07h-.21c-.12-.05-.25-.11-.38-.16-.36-.13-.73-.22-1.09-.34-.2-.06-.39-.12-.59-.16-.2-.04-.39-.07-.59-.1-.37-.05-.74-.09-1.12-.11-.71-.04-1.41-.05-2.12.01-.82.07-1.64.25-2.43.52-.16.05-.32.12-.49.16-.09.02-.18.08-.27.12-.11.05-.23.11-.34.17h-.07s-.03,0-.05,0h-.12s-.07,0-.1,0h-.02s-.06.02-.09.02h0s-.09-.01-.13-.03c-.02,0-.04-.02-.06-.04-.11-.1-.12-.28-.01-.38l-.69-3.67c-.53-2.8-1.06-5.61-1.59-8.41-.54-2.87-1.08-5.73-1.62-8.6-.38-2-.75-4-1.13-6-.16-.86-.33-1.72-.49-2.58-.09-.02-.16-.08-.2-.16-.01-.02-.02-.05-.02-.08-.01-.13.08-.25.21-.28.02,0,.03,0,.05,0h0s.07-.04.11-.05c.08-.02.16,0,.21.06,1.12,0,2.23-.02,3.35-.02,2.14-.01,4.29-.03,6.43-.04,2.11-.01,4.22-.03,6.33-.04.82,0,1.64-.02,2.46-.02h.14Z"/>
  <path d="M59.37,63.12c.02.23.01.48-.05.71-.04.18-.11.34-.18.51-.36.78-1.06,1.34-1.79,1.74-.92.5-1.93.84-2.96,1.03-.09.02-.19.04-.28.05-.09.02-.19.03-.29.04-.09.02-.19.02-.28.04-.1,0-.19.02-.29.03s-.19.02-.29.02c-.05,0-.1,0-.15.01-.03,0-.05,0-.08,0-.02,0-.04,0-.05,0-.14,0-.27.01-.41.01h-.05c-.07,0-.15,0-.22,0-.03,0-.06,0-.1,0-.01,0-.02,0-.04,0-.14,0-.29,0-.44-.02-.12,0-.23-.01-.35-.02-.17-.01-.33-.03-.5-.05-.09,0-.18-.02-.26-.04-.13-.02-.25-.04-.38-.05-.06,0-.12-.02-.17-.03l-.32-.06c-.3-.06-.6-.13-.89-.21-.36-.1-.72-.24-1.07-.4-.3-.13-.6-.28-.88-.45-.68-.41-1.32-.97-1.62-1.72-.2-.5-.21-1.05-.04-1.57.16-.48.48-.88.84-1.23.26-.24.55-.45.85-.64.01-.04.03-.08.05-.11.04-.06.1-.11.15-.13,0,0,.01,0,.02-.01h0s0,0,0,0h0s0,0,.02-.01c.07-.06.15-.1.23-.14l.07-.04c.11-.06.22-.11.34-.17.09-.04.17-.09.27-.12.16-.04.32-.11.49-.16.78-.27,1.6-.45,2.43-.52.71-.06,1.41-.05,2.12-.01.38.02.75.06,1.12.11.2.03.4.06.59.1.2.04.39.1.59.16.36.11.73.2,1.09.34.12.05.25.1.38.16.14.07.27.13.41.2.27.14.54.28.8.45.38.25.71.56,1.01.91.04.05.08.1.11.14.25.34.41.75.45,1.17Z"/>
  <path d="M29.92,54.64c-2.88-2.26.03-8.9,3.09-4.94,1.53,2.06-.2,6.79-3.09,4.94ZM31.13,53.31c.98-.28,1.02-3.27-.12-3.21-.88.65-.91,2.71.12,3.21Z"/>
  <path d="M72.98,53.32c.75-.67.81-2.56-.15-3.06-.91.5-.93,2.65.03,3.11.04,0,.07-.01.09-.03h0s.01,0,.02-.02ZM74.79,49.79c1.23,1.93.23,6.06-2.6,5.32-.07-.02-.14-.05-.2-.08-.05-.02-.1-.05-.15-.08-.02-.02-.05-.03-.07-.05,0,0,0,0-.01,0-.04-.03-.07-.05-.11-.08,0,0-.02-.01-.02-.02s-.02-.02-.02-.02c-.04-.05-.09-.09-.12-.13,0,0,0,0-.01,0,.04.05.08.1.13.14-.05-.04-.1-.08-.14-.12,0,0-.01,0-.02-.02-.04-.04-.09-.09-.13-.14-.04-.04-.08-.09-.12-.14-.05-.07-.11-.14-.15-.21-.03-.04-.06-.09-.09-.14-.15-.24-.27-.5-.36-.77-.02-.05-.04-.11-.05-.17-.49-1.67.04-3.75,1.66-4.45,1.04-.39,2.12.23,2.61,1.16Z"/>
  <path d="M72.55,53.93c-.04-.09-.05-.18-.06-.28,0-.06-.01-.11-.02-.17-.11,0-.21-.07-.28-.15-.94-.12-.52-3.23.4-3.08.01-.35.46-.68.65-.26.11.03.19.13.21.24,0,.01,0,.03,0,.04.81.03.32,1.61.36,2.14.11.2.03.55-.21.6-.03.03-.06.06-.09.09-.03.03-.07.05-.1.06-.07.1-.15.19-.26.24,0,.32-.28.96-.61.52Z"/>
  <path d="M31.02,53.65c-.19-.03-.26-.21-.35-.37-1.21.43-.68-3.78.24-3.43.27-.16.56.06.58.35.05.03.09.07.12.12.03.04.05.07.08.11.08-.11.23-.17.36-.14.52.2.13.91.11,1.32-.2.54-.06,1.44-.71,1.65-.06.18-.21.43-.43.38Z"/>
  <path d="M70.23,67.57c-1.58-1.28.65-3.5,1.92-1.93.99,1.22-.7,2.93-1.92,1.93ZM71.06,67.28c1.06,0,1.08-1.54.02-1.58-1.04.03-1.05,1.54-.02,1.58Z"/>
  <path d="M67.38,70.86c-1.17-.82-.24-2.76,1.13-2.37,2,.62.62,3.54-1.13,2.37ZM68.16,70.62c.63.04,1.09-.78.7-1.29-.48-.71-1.61-.29-1.52.54,0,0,0,0,0,0h0c.01.16.07.31.16.42,0,0-.01-.02-.02-.02,0,0,.02.03,0,.01.15.21.41.34.67.34Z"/>
  <path d="M71.84,73.31c1.11,0,1.15-1.59.07-1.66-.44.07-.77.23-.86.68h0c-.1.49.3.98.8.98h-.01ZM71.9,71.15c1.99.08,1.5,3.17-.42,2.61-.04-.01-.08-.02-.11-.04-.07-.03-.14-.06-.21-.1-.06-.04-.12-.08-.17-.12-.1-.09-.19-.2-.25-.32-.02-.03-.03-.06-.04-.09-.03-.06-.05-.12-.07-.18-.01-.04-.02-.09-.03-.13-.01-.06-.02-.11-.02-.17-.05-.74.45-1.54,1.33-1.46Z"/>
  <path d="M64.84,74.91c-1.35-.95-.02-3.05,1.41-2.27,1.61.91.1,3.31-1.41,2.27ZM65.59,74.66c1.41-.09.89-2.14-.4-1.55,0,0,0,0,.01,0,0,0,0,0,0,0-.04.02-.07.05-.11.07,0,0,0,0,.01-.01,0,0,0,0,0,0,0,0,0,0,.01,0,0,0,0,0,0,0-.03.02-.08.06-.09.07-.03.03-.07.07-.08.08-.44.49-.06,1.37.62,1.37Z"/>
  <path d="M62.4,70.44c-1.09-.91.01-2.76,1.34-2.25,1.95.8.3,3.58-1.34,2.25ZM63.29,70.28c.2,0,.43-.08.57-.21.7-.66-.08-1.78-.93-1.36-.77.38-.5,1.58.36,1.58Z"/>
  <path d="M44.96,73.63c-1.14-.84-.17-2.76,1.19-2.33,2,.67.53,3.55-1.19,2.33ZM45.78,73.41c.17,0,.37-.06.49-.15,1.05-.86-.46-2.2-1.2-1.11,0,0,.01-.02.01-.02,0,.02-.06.09-.05.1-.08.16-.09.38-.06.54,0,.04.03.08.03.11.01.03.02.05.03.08,0,0,0,.01.01.02,0,0,0,0,0,0,0,0,0,0,0,0,.09.17.23.29.39.37,0,0,0,0,0,0,0,0,0,0,0,0,.08.04.16.06.25.07,0,0,0,0,0,0,0,0,0,0,0,0,.04,0,.07,0,.11,0Z"/>
  <path d="M41.21,71.27c-1.41-.11-1.61-2.24-.24-2.6,2.05-.5,2.34,2.73.24,2.6ZM41.34,70.77c.76.03,1.14-.99.54-1.47-.73-.61-1.71.28-1.26,1.05,0,0,0-.02-.01-.03.13.24.35.4.62.44,0,0,0,0,0,0,0,0,0,0,0,0,.04,0,.07,0,.11,0Z"/>
  <path d="M34.96,67.96c-1.15-.87-.11-2.8,1.26-2.3,1.92.74.42,3.53-1.26,2.3ZM35.78,67.75c.64.04,1.09-.77.69-1.31-.39-.58-1.34-.39-1.48.26,0,0,0,0,0,0,0,0,0,0,0,0-.07.25-.02.52.14.73,0,0,0,0,0,0,0,0,0,0,0-.01.15.22.41.35.67.35Z"/>
  <path d="M34.24,74.28c-1.58-.19-1.49-2.58.1-2.65,1.9-.07,1.79,2.86-.1,2.65ZM34.4,73.8c.63.03,1.06-.71.74-1.24-.32-.59-1.22-.54-1.48.05-.09.18-.1.38-.05.57,0,0,0,0,0,0,.03.11.08.2.14.29,0,0-.01-.02-.02-.02.03.03.06.08.08.1.02.03.07.07.08.07.15.12.33.18.51.19Z"/>
  <path d="M39.44,75.48c-1.8-.19-1.42-2.95.37-2.64,1.64.3,1.3,2.8-.37,2.64ZM39.53,74.98c.81.05,1.17-1.03.55-1.48,0,0,0,0,.01,0-.37-.31-.97-.22-1.22.19-.21.31-.17.68.03.96,0,0,0,0,0,0,0,0,0,0-.01-.02.05.06.1.12.16.17,0,0,0,0,0,0,0,0,0,0,0,0,.12.1.33.19.5.19Z"/>
  <path d="M70.91,67.44c-.43-.11-.85-.6-.73-1.06.17-.4.44-.95.95-.86.4.04.68.42.86.75.15.65-.43,1.24-1.08,1.17Z"/>
  <path d="M67.87,70.77c-.77-.3-1.01-1.5-.09-1.79.22-.04.48-.21.67.02.25,0,.5.2.55.45.57.57-.53,1.48-1.13,1.32Z"/>
  <path d="M71.54,73.37c-.88-.28-.9-2.02.23-1.82.47-.3,1.04.58,1.05.99.05.58-.76,1.18-1.28.83Z"/>
  <path d="M65.73,74.7s-.06-.03-.09-.04c-.46.08-1.19-.28-.98-.84-.08-.45.38-.83.78-.87.35-.29.86.1.92.48.08.16.26.31.27.51,0,.38-.5.88-.89.76Z"/>
  <path d="M62.9,70.3c-1.11-.16-.56-2.15.46-1.72.2-.1.44.01.56.19.31-.06.39.29.3.53.12.16.15.39.06.56-.06.1-.15.16-.26.18-.13.2-.35.35-.6.31-.17.08-.35.05-.51-.04Z"/>
  <path d="M45.55,73.57c-.19-.1-.4-.18-.44-.42-1.04-.58.26-2.15,1.08-1.32,0,0,0,0,0,0,.49,0,.75,1.23.24,1.32-.18.3-.51.54-.87.41Z"/>
  <path d="M41.32,70.82c-.24-.06-.64-.06-.71-.35-.18-.27-.23-.74-.11-1.05.13-.34.54-.44.87-.38.06-.03.12-.04.2-.05.12,0,.24.07.3.18.18-.02.34.15.33.33.05.04.08.11.08.17,0,.12,0,.27-.07.38.07.45-.45.87-.88.77Z"/>
  <path d="M39.26,75.03c-.06-.03-.11-.07-.16-.13-.94-.18-.43-1.98.47-1.67.14-.06.32-.04.45.06.03.02.06.05.08.08.28.04.29.43.35.63.12.28.08.7-.26.8-.03.03-.07.06-.12.08-.04.01-.07.02-.1.03-.2.17-.47.28-.71.14Z"/>
  <path d="M35.61,67.78c-.83.16-.92-1-.63-1.53.31-.36,1.28-.49,1.45.06,0,0,0,0,0,0,.35.21.51.77.2,1.08-.27.21-.67.63-1.02.4Z"/>
  <path d="M34.3,74.05c-.29-.08-.39-.41-.62-.57-.13-.24-.26-.52-.2-.8.07-.3.4-.51.68-.58.09-.24.43-.22.53,0,.61-.03.8.9.66,1.37-.08.21-.3.3-.49.39-.17.11-.35.25-.57.19Z"/>
  <path d="M30.09,66.12c0,.12-.09.25-.22.26-.1.02-.2.02-.3.03-.24.01-.48.02-.72.02-.36,0-.72.01-1.08.01h-.1c-.89,0-1.79,0-2.68,0-1.62,0-3.24-.02-4.86-.03h-.02c-.16,0-.32,0-.48,0h0c-.13,0-.27,0-.4,0-1.07,0-2.15-.01-3.22-.01-.41,0-.83,0-1.24.02-.21,0-.42,0-.62.02-.01,0-.02,0-.03.01-.06.02-.12.04-.18.04-.04,0-.07,0-.11-.01-.02,0-.04-.01-.07-.02-.08-.03-.15-.07-.21-.14-.2-.21-.13-.56.1-.71.03-.02.07-.04.1-.05.13-.05.28-.05.41.02.05,0,.1,0,.15,0,.12,0,.24.01.36.02.34.02.67.03.95.04,1.3.03,2.61.05,3.91.06h.05c.16,0,.32,0,.48,0,0,0,.01,0,.02,0,.46,0,.92.01,1.38.02,1.88.02,3.75.04,5.62.08h.61s.03.01.04.01c.02,0,.04,0,.06,0,.37,0,.73.02,1.09.03.22,0,.45.02.67.03.04,0,.07,0,.11,0,.03,0,.06,0,.09,0,.02,0,.05,0,.07,0,.03,0,.05.01.08.02h0s0,0,0,0h.01s.08.04.11.07l.02.02s.02.04.03.05c0,0,0,0,0,.01.01.02.02.05.02.08Z"/>
  <path d="M30.95,70.09c0,.13-.11.25-.24.25-.04,0-.08,0-.12,0-.31.05-.62.06-.94.08-.43.02-.86.05-1.29.07-.92.04-1.83.08-2.75.12-1.42.05-2.84.11-4.25.18-.06,0-.12,0-.19,0-.11,0-.22,0-.34.02-.09,0-.18,0-.27,0-.22.01-.45.02-.67.03-.96.05-1.93.1-2.9.15-.56.03-1.12.05-1.68.09-.09.07-.21.11-.33.11-.02,0-.04,0-.05,0-.13-.01-.27-.07-.37-.17,0,0-.02-.02-.02-.02-.04-.04-.08-.09-.11-.14-.03-.05-.05-.11-.07-.18h0s0-.02,0-.02h0s0-.03,0-.05c0-.12.04-.24.11-.34.01-.02.02-.03.04-.04.02-.02.04-.04.05-.06.05-.05.12-.1.19-.12.04-.02.09-.04.14-.04h0c.05,0,.11,0,.16,0,.09,0,.17.04.24.08.45,0,.91,0,1.36-.02.87-.01,1.75-.01,2.62-.03.35,0,.69-.01,1.04-.02.07,0,.14,0,.21,0,.12,0,.25,0,.38,0,.06,0,.12,0,.18,0,.44,0,.87-.02,1.3-.03.85-.02,1.7-.04,2.55-.06,1.03-.03,2.07-.05,3.1-.07.48-.01.96-.02,1.43-.02.37,0,.73-.02,1.1.02.04,0,.07,0,.11,0,.14,0,.25.11.26.25Z"/>
  <path d="M15.59,75.68s0,0,0,0c-.03,0-.06-.01-.08-.03-.17,0-.32-.13-.35-.3-.03-.17.07-.34.23-.4.02-.02.04-.04.07-.05.07-.05.16-.07.25-.09.07-.02.14-.03.18-.04.55-.13,1.11-.21,1.66-.31.86-.15,1.73-.3,2.6-.46,1.9-.34,3.8-.69,5.7-1.03.75-.14,1.51-.27,2.26-.4.34-.06.69-.12,1.04-.18.14-.02.28-.05.42-.07.08-.01.16-.02.25,0,.16.04.29.18.32.34s-.05.34-.19.43c-.08.05-.19.07-.29.09-.21.05-.43.09-.65.13-.48.09-.96.18-1.43.27-.96.18-1.93.35-2.89.52-1.85.33-3.7.66-5.55,1-.77.14-1.54.28-2.3.42-.2.04-.41.08-.61.11-.09.01-.19.02-.29.04-.08.01-.15.02-.23.02-.04,0-.08,0-.11-.01Z"/>
  <path d="M94.05,64.52c.07.24-.09.5-.34.55-.13.02-.27.02-.38.04-.74.07-1.48.12-2.23.17-.94.06-1.88.12-2.82.18-1.16.07-2.32.15-3.49.22-.04,0-.09,0-.13,0-.69.04-1.39.09-2.08.12-1.16.07-2.32.13-3.49.2-.91.05-1.82.08-2.72.15-.02,0-.05.01-.08.02h-.06.02c-.2.02-.38-.1-.41-.3-.04-.21.13-.41.34-.42h0s.05,0,.08,0c.03,0,.05,0,.08,0,.24,0,.48-.03.71-.05.46-.04.93-.07,1.39-.11.95-.08,1.9-.15,2.86-.23.94-.07,1.89-.14,2.83-.21.2-.02.4-.03.61-.04.74-.05,1.48-.11,2.22-.16,1.34-.09,2.67-.19,4.01-.28.59-.04,1.19-.08,1.79-.11.16,0,.32-.01.48-.02.12,0,.25-.02.38-.02h0c.18,0,.36.11.42.3Z"/>
  <path d="M95.23,69.05h-.24c-.25,0-.49,0-.73,0-.86,0-1.73,0-2.59-.01-1.02,0-2.03,0-3.04,0-.89,0-1.77,0-2.66,0-1.84,0-3.68-.03-5.52-.05-.89-.01-1.78-.03-2.66-.05l-1.09-.02c-.19,0-.38-.02-.57,0-.03,0-.06,0-.09.01-.2,0-.37-.15-.38-.35,0-.22.18-.38.4-.37h.04c.21.02.43,0,.65,0,.42,0,.84-.02,1.25-.03.95-.02,1.89-.04,2.84-.05,1.96-.02,3.92-.04,5.88-.05.82,0,1.63,0,2.45,0,.95,0,1.9,0,2.86,0,.79,0,1.58,0,2.37-.01.21,0,.42,0,.63,0,.08,0,.15,0,.23,0,.06,0,.11,0,.17,0,0,0,.02,0,.02,0,0,0,0,0,0,0,0,0,0,0,0,0,.01,0,.03,0,.04,0,.22.01.41.2.45.41.05.28-.14.51-.41.57-.03,0-.06,0-.09.01-.04,0-.08.01-.11.01-.03,0-.07,0-.1,0Z"/>
  <path d="M91.23,71.9c.08.13.05.29-.06.38,0,0,0,0,0,0-.06.06-.14.11-.23.11-.04,0-.09,0-.12-.02,0,0-.01,0-.02,0-.14,0-.27-.02-.4-.04-.17.02-.34.01-.51.01-.23,0-.45,0-.68,0-.83,0-1.66-.04-2.49-.07-.72-.03-1.45-.06-2.18-.1-.35-.02-.7-.03-1.05-.05-.68-.03-1.37-.07-2.05-.1-.82-.04-1.65-.08-2.47-.14-.26-.02-.52-.04-.78-.06-.16-.01-.32-.03-.43-.04h-.11c-.2-.01-.34-.2-.33-.39.02-.2.2-.34.39-.33h.04c.14,0,.29.01.38.02.41,0,.83.01,1.19.02.93.02,1.87.07,2.8.11.54.02,1.08.05,1.62.07.33.01.65.03.98.04.91.04,1.83.09,2.74.14.71.04,1.43.09,2.13.15.28.03.56.04.84.09.13,0,.27,0,.4,0h0s.07-.01.11,0c.09,0,.18.05.23.12t0,0s0,0,.01.02c.01.01.02.03.04.05Z"/>
  <path d="M50.7,78.02s-.07-.09-.1-.14c0,0,0,0,0,0,0-.02-.01-.03-.02-.05,0-.02-.01-.04-.01-.06-.02-.08-.02-.17-.02-.25v-.29c-.02-.19-.02-.37-.02-.56,0-.33-.04-.66-.04-.99,0-.36-.04-.71-.05-1.06-.01-.37-.02-.73-.03-1.09,0-.35-.01-.7-.03-1.05-.01-.34-.04-.69-.04-1.03,0-.3,0-.61,0-.91-.01-.62-.02-1.24-.03-1.86,0-.43.01-.85,0-1.28,0-.19,0-.39,0-.58,0-.07,0-.15.02-.22,0,0,0-.02,0-.03-.01-.05-.02-.09-.02-.14,0-.29.23-.55.52-.55.27,0,.51.19.55.46.01.08,0,.16-.01.23.02.09.02.18.03.25.02.18.02.35.02.53,0,.2.02.41.02.61.02.45.02.9.02,1.35,0,.38,0,.76,0,1.14,0,.28.02.57.02.85,0,.35,0,.69,0,1.04,0,.35,0,.7,0,1.05,0,.68.02,1.36-.02,1.97-.01.31,0,.62-.02.93-.01.23,0,.46,0,.7,0,.14,0,.27,0,.41,0,.16.02.34-.04.49-.07.18-.24.28-.42.28-.11,0-.22-.04-.31-.12Z"/>
  <path d="M51.79,77.84c-.08-.18-.08-.39,0-.57,0-.03,0-.06,0-.09,0-.06-.01-.12-.02-.18-.01-.06-.01-.13-.01-.19,0,0,0,0,0,0,.01-.38-.03-.75-.04-1.12,0-.34,0-.68,0-1.02.02-1.08,0-2.16,0-3.24,0-.61.01-1.21.03-1.8.02-.6.05-1.2.1-1.8.02-.26.04-.51.07-.77.01-.17.02-.35.07-.52,0,0,0,0,0,0,0,0,0-.02,0-.03.02-.07.06-.13.13-.17.08-.05.21-.06.29,0,.08.05.13.13.15.22.04.14.06.29.07.44.03.24.05.49.07.68.05.52.09,1.05.12,1.57.04.55.05,1.1.07,1.65.03,1.11.03,2.21.05,3.32.01.56.05,1.14.04,1.69,0,.2-.01.4-.02.6,0,.1,0,.2,0,.3,0,.09,0,.17,0,.21-.02.09-.02.17-.03.26.07.14.09.3.06.46-.07.28-.32.49-.61.5,0,0-.01,0-.02,0-.25,0-.49-.15-.6-.38Z"/>
  <path d="M51.8,78.47c-.32-.14-.44-.51-.48-.84-.04-.3-.16-.68.07-.93-.08-1.18-.18-2.34-.23-3.52-.41-1.14-.15-2.46-.22-3.66.12-.96-.03-2.06.31-2.94.06-.27.32-.46.6-.43.3.04.5.31.47.6-.09,1.11-.16,2.22-.32,3.32.22,1.14.05,2.38.16,3.52.35,1.25.07,2.58.36,3.86.38.53-.07,1.29-.73,1.02Z"/>
  <path d="M52.02,73.15c-.35-.04-.59-.36-.55-.71.1-.95.14-1.85.2-2.79,0-1.26.24-2.54.47-3.76.03-.21.23-.38.44-.35s.37.23.34.44c-.36,1.8-.14,3.61-.12,5.44-.07.61.15,1.78-.78,1.73Z"/>
  <path d="M51.62,76.63c-.31-3.71-.04-7.49.71-11.11.35-.49,1.11.07.74.54-.33,3.51-.22,7.03-.14,10.55.02.85-1.31.87-1.31.02Z"/>
  <path d="M52.53,78.49c-.44-.07-.87-.24-1.32-.23-.29.09-.63-.13-.68-.44-.07-1,1.37-.43,1.97-.67.87-.03.89,1.35.02,1.34Z"/>
  <path d="M57.61,77.67c-.95-.01-1.89-.03-2.84-.05-.8-.01-1.61-.02-2.41-.04-.14,0-.25-.11-.25-.25,0-.13.11-.26.25-.25,1.25.02,2.5.04,3.75.06l1.5.02c.14,0,.25.11.25.25,0,.13-.11.25-.24.25,0,0,0,0,0,0Z"/>
  <path d="M46.86,77.65c-.09-.02-.16-.05-.21-.13-.07-.11-.04-.25.06-.33,0,0,0,0,.01,0,0,0,0,0,0,0,0,0,0,0,0,0,.04-.02.08-.04.12-.05,0,0,0,0,.01,0,.06-.03.13-.03.19-.02.02,0,.05.02.07.03.6,0,1.2,0,1.8-.01.74,0,1.47-.01,2.21-.02,0,0,0,0,0,0h.07c.14,0,.25.11.25.25,0,.14-.11.25-.25.25-1.05,0-2.11.02-3.17.02-.31,0-.61,0-.92,0,0,0-.02,0-.03.01-.04.02-.08.02-.12.02s-.08,0-.12-.03Z"/>
  <path d="M57.89,77.45c.04.06.04.12.02.18-.11.36-.32.7-.55.98-.13.16-.28.32-.43.46-.11.09-.21.19-.32.28-.15.12-.3.23-.46.33-.61.39-1.31.66-2.01.85-.66.18-1.36.26-2.05.28-.08,0-.16,0-.25,0-.62,0-1.24-.07-1.84-.21-.72-.17-1.43-.46-2.03-.9-.07-.05-.13-.1-.19-.15-.05-.04-.09-.08-.14-.12-.12-.12-.23-.25-.34-.38-.17-.23-.31-.48-.41-.75-.06-.16-.1-.33-.12-.5,0-.06-.01-.12-.01-.19,0-.09,0-.19,0-.28,0,0,0-.01,0-.02,0-.05.04-.1.07-.13.05-.05.12-.08.2-.07.03,0,.05.01.07.02.1.05.15.15.14.26v.06c0,.07,0,.12,0,.18v.05c0,.08.02.16.03.21.02.09.04.18.07.26.03.07.06.15.09.22,0,0,0,0,0,.01,0,0,0,.01,0,.01.05.08.09.17.13.22.02.04.05.07.07.1.04.06.09.12.13.16.09.1.18.2.26.26.08.07.16.13.24.19.05.04.1.07.14.1,0,0,.01,0,.02.01.16.1.31.19.47.27,0,0,.01,0,.02,0h0s.02.01.02.01c.22.1.44.18.66.26.28.09.56.16.82.21.34.06.68.1,1,.11.37.02.74,0,1.07-.02.34-.03.68-.08,1-.15.25-.05.51-.12.76-.2.07-.02.14-.04.22-.07.07-.02.13-.05.19-.07.22-.08.43-.17.63-.27,0,0,.01,0,.02,0,0,0,0,0,0,0,.02-.01.05-.03.07-.04.2-.11.39-.22.57-.33.04-.02.07-.04.11-.07.05-.04.11-.07.16-.11,0,0,0,0,.01,0,.03-.02.05-.04.08-.06.06-.05.12-.09.17-.13.14-.12.27-.25.39-.39.09-.11.17-.21.24-.32,0,0,.01-.02.02-.03.06-.1.12-.2.17-.29h0s0-.02,0-.02c.01-.02.02-.04.03-.07.03-.06.05-.11.07-.15,0,0,0-.02,0-.03t0,0c.04-.13.2-.19.32-.14.04.02.07.04.1.07h0s.02.03.03.04Z"/>
  <path d="M47.12,77.87c.08.07.1.16.08.23,0,.02-.01.04-.02.05-.05.11-.17.18-.29.15-.05-.01-.09-.04-.13-.09-.08-.13-.16-.29-.2-.45,0-.03-.02-.07-.02-.1-.02-.09-.03-.19-.02-.28,0-.03.01-.05.02-.08s.02-.04.04-.06c0,0,0,0,0,0,.02-.02.04-.03.05-.04.02-.01.04-.02.06-.03,0,0,0,0,0,0,.04,0,.09,0,.14,0,.12.03.23.14.19.29,0,.02,0,.03-.01.04,0,.03.02.07.03.1,0,.01,0,.02,0,.04,0,.04.02.08.04.12,0,.03.02.07.03.1Z"/>
  <path d="M48.96,79.5c.02.07.02.15-.02.21-.04.07-.14.12-.27.1-.06-.02-.12-.04-.18-.06-.43-.16-.85-.39-1.18-.7-.03-.03-.06-.06-.09-.09-.04-.04-.07-.07-.11-.11-.08-.09-.16-.19-.22-.29-.02-.03-.04-.07-.06-.1-.06-.11-.11-.22-.15-.34-.02-.05-.04-.11-.06-.18-.01-.04-.03-.09-.04-.13,0-.01,0-.02,0-.04,0-.03-.02-.07-.02-.1-.01-.1,0-.2.06-.27.02-.03.06-.05.1-.07.02-.01.05-.02.07-.02.12-.02.22.06.26.16.02.04.02.09.02.14,0,0,0,.01,0,.02s0,.01,0,.02l.04.13c.03.11.07.21.12.32.01.03.02.05.04.08.01.03.03.06.05.09.02.04.04.08.07.11.1.13.2.24.32.33.28.23.61.38.94.55.01,0,.02.01.04.02.17,0,.27.1.31.21Z"/>
  <path d="M53.93,79.98c-.47-.16-.09-.62.26-.63-.57-.51.44-.6.77-.67.6-.19,1.25-.34,1.74-.75-.19.02-.38.04-.57.04-.59.11-2.94.11-3.5.01-.26-.02-.72.13-.81-.21-.02-.14.08-.26.21-.29,1.2-.09,2.41-.15,3.61-.01.16-.2.47-.1.69-.09.31.08.62.01.93.03.53.11.16.91-.26.92.24.5-.66.5-.92.74-.32.27-.66.46-1.06.51-.31.26-.69.39-1.09.4Z"/>
  <path d="M51.12,80.39c-.19-.03-.37-.07-.55-.13-.02,0-.03-.01-.05-.02-.19.26-.74.09-.92-.12-.35-.06-1.73-.32-1-.81,0-.01.01-.03.02-.04-.05-.08-.05-.19,0-.27.01-.02.03-.04.05-.06,0-.04.02-.07.04-.1-.06-.08-.08-.19-.02-.29,0-.02.02-.03.03-.05,0,0,0,0,0,0-.2-.13-.39-.49-.08-.61,0-.03,0-.06.02-.09-.02-.52.72-.26,1.05-.29.44.07.98-.18,1.36.09.21.04.39.3.23.49.4-.05.8-.07,1.21-.09.03-.08.11-.15.2-.15.84-.09,1.69-.16,2.53-.14.3-.17,1.07-.03,1.43-.01.46.16.15.58-.19.65-.11.38-.67.15-.89.47.07,0,.13,0,.17,0,.04,0,.08,0,.12-.01.3-.33.74.22.34.43-.34.3-.81.3-1.19.55-.36.29-.94.22-1.37.39-.17.37-.71.1-1.04.17-.44.19-1,.11-1.47.06ZM54.58,79.38c.1-.02.19-.06.28-.1-.03,0-.06-.02-.08-.03,0,0-.02-.01-.03-.02-.25.05-.48.09-.72.15.18-.01.36,0,.54,0Z"/>
  <path d="M48.95,79.51c-.39-.1-.97-.18-1.19-.54-.18-.04-.4-.15-.39-.37-.13-.08-.15-.27-.06-.39-.2-.04-.36-.26-.22-.45-.07-.25.22-.37.43-.36.4.03.85-.03,1.23.1.25-.03.56.09.5.39-.02.22-.34.3-.46.11,0,0,0,0,0,0,0,.01,0,.03,0,.04,0,.04-.02.07-.04.1.02.04.04.08.04.14,0,.05-.01.1-.04.14.04.02.07.05.1.09.04.07.04.14.02.21.06.04.12.09.15.16.01.04.02.07.02.11.32.07.24.55-.09.51Z"/>
  <path class="cls-2" d="M74.99,112.74s0,.02,0,.03c-.03-.01-.07-.01-.1,0-.13.03-.23.17-.19.3.01.05.03.1.04.15-.03.01-.05.02-.09.02h-.03c-2.82-.02-5.64-.05-8.46-.07l-10.82-.09c-.87,0-1.73-.02-2.6-.02-.46,0-.92,0-1.38,0-.37,0-.73,0-1.1,0-.92,0-1.84-.02-2.76-.02-.81,0-1.61-.01-2.42-.02-1.57-.02-3.15-.02-4.72-.04-.7,0-1.39-.03-2.09-.03-.71,0-1.42,0-2.13,0-.51,0-1.02-.01-1.52-.02-.21,0-.41,0-.62,0-.21,0-.43-.02-.64-.02-.18,0-.36,0-.54,0-.18,0-.35,0-.53,0h-.41s-.09,0-.12-.02c0,0,0,0-.01,0,0-.01,0-.02,0-.03.02-.12-.04-.24-.17-.28-.06-.02-.12-.01-.18.01.1-.62.19-1.25.29-1.87.21-1.41.43-2.81.64-4.22.05-.37.11-.73.16-1.1.01-.08.07-.14.13-.18,0,0,.01,0,.02,0,.04-.02.09-.03.14-.02.03,0,.06.02.09.04h0c.64,0,1.29,0,1.94.02,1.09,0,2.19.01,3.29.02,3.59.02,7.18.04,10.78.06,3.59.02,7.18.04,10.77.07,2.98.02,5.96.04,8.94.05,1.61,0,3.21.02,4.82.03,0,0,0-.02,0-.03h0s.07,0,.11,0c.1.02.25.01.39-.02h0s0,.02,0,.02c0,.01,0,.02,0,.03.15,1.02.3,2.05.45,3.07.18,1.2.35,2.41.53,3.61-.01.04-.02.08,0,.12.03.12.05.24.07.36,0,0,0,.01,0,.02,0,.04.01.08.02.12Z"/>
  <path class="cls-6" d="M76.62,120.84c-.19,0-.38-.01-.57-.02-.45-.01-.91-.02-1.32-.03-2.48-.05-4.95-.11-7.43-.16-2.46-.05-4.91-.1-7.37-.16-2.52-.05-5.04-.11-7.55-.16-2.55-.05-5.11-.11-7.67-.16-3.04-.06-6.09-.12-9.13-.19-1.77-.04-3.53-.07-5.26-.11h-.1s-.04,0-.06-.01c0,0,0-.02,0-.03,0,0,0-.01,0-.02h0s0-.02,0-.04c.04-.13-.04-.27-.17-.31-.09-.02-.18,0-.24.06.02-.05.03-.11.04-.16v.02c.08-.32.18-.62.2-.96,0-.02,0-.04,0-.05.02-.1.04-.19.07-.29.34-1.52.69-3.04,1.03-4.56.02-.08.04-.17.05-.25.03-.07.05-.14.07-.21.04-.12.08-.25.11-.38,0-.03.02-.06.02-.09.02-.01.03-.02.05-.03.05-.02.12-.03.18-.01.13.04.19.16.17.28,0,.01,0,.02,0,.03,0,0,0,0,.01,0,.04.01.08.02.12.02h.41c.18,0,.36,0,.53,0,.18,0,.36,0,.54,0,.21,0,.43.02.64.02.21,0,.41,0,.62,0,.51,0,1.02.01,1.52.02.71,0,1.42.01,2.13,0,.7,0,1.39.02,2.09.03,1.57.02,3.15.02,4.72.04.81.01,1.61.02,2.42.02.92,0,1.84.02,2.76.02.36,0,.73,0,1.1,0,.46,0,.91,0,1.38,0,.87,0,1.73.02,2.6.02l10.82.09c2.82.02,5.64.05,8.46.07h.03s.06,0,.09-.02c-.01-.05-.03-.1-.04-.15-.04-.13.06-.27.19-.3.04,0,.07,0,.1,0,0,0,0,0,.01,0,0,.03.01.05.02.08.02.09.04.18.07.26.05.15.12.3.17.46,0,0,0,0,0,0,0,0,0,0,0,0,0,0,0,0,0,0,0,0,0,0,0,0,0,0,0,0,0,0,.03.08.05.16.08.24,0,0,0,0,0-.01,0,0,0,.02,0,.03h0c.04.13.07.26.12.39.04.14.09.27.13.41.05.15.1.3.15.45.23.87.46,1.75.69,2.62.25.95.5,1.9.75,2.85h0s0,.01,0,.02c.02.05,0,.11-.02.15-.05-.11-.17-.17-.29-.14-.11.03-.19.14-.18.26-.03,0-.06,0-.09,0Z"/>
  <path class="cls-2" d="M28.74,123.83s.01,0,.02,0c0,0,0,0,0,0,0,0-.01,0-.02,0Z"/>
  <path class="cls-2" d="M28.78,123.85s0,0,0,0c0,0,0,0,0,0,0,0,0,0,0,0,0,0,0,0,0,0Z"/>
  <path class="cls-2" d="M69.85,126.98c-1.41-.03-2.83-.05-4.24-.08-1.79-.04-3.58-.07-5.37-.1-2.59-.05-5.18-.1-7.77-.14-3.02-.06-6.04-.11-9.05-.17-2.23-.04-4.45-.08-6.68-.12-.27,0-.53-.01-.8-.02-.12-.05-.24-.09-.36-.14-.15-.05-.3-.11-.45-.16-.18-.07-.37-.12-.55-.2-.14-.05-.29-.11-.43-.16-.16-.06-.33-.11-.5-.16-.16-.06-.33-.11-.5-.16-.16-.05-.31-.11-.47-.16-.21-.07-.42-.12-.62-.18,0,0,.02,0,.03.01-.28-.09-.55-.2-.83-.3-.12-.04-.24-.09-.36-.12-.12-.04-.25-.07-.38-.11-.04-.01-.09-.03-.13-.04-.09-.04-.19-.07-.29-.1-.24-.08-.48-.16-.72-.25.01,0,.02,0,.03.01-.02,0-.04-.01-.05-.02.01,0,.02,0,.03.01-.06-.02-.13-.05-.19-.08-.07-.04-.13-.07-.2-.11-.08-.03-.16-.06-.23-.09h0,0s0,0,0,0h0s0,0,0,0h0s0,0,0,0h0s0,0,0,0,0,0-.02,0c-.04-.01-.07-.03-.11-.04,0-.04,0-.08,0-.12h0c.1-.39.2-.79.3-1.18.2-.78.4-1.55.6-2.33.03-.07.06-.15.09-.22.05-.14.09-.28.12-.42.06-.06.15-.09.24-.06.13.04.21.18.17.31,0,.01,0,.02,0,.03h0s0,.02,0,.03c0,0,0,.02,0,.03.02,0,.04,0,.06,0h.02s0,0,0,0h.07c1.73.04,3.5.07,5.26.11,3.04.07,6.09.13,9.13.19,2.55.05,5.11.11,7.67.16,2.52.05,5.04.11,7.55.16,2.46.05,4.91.11,7.37.16,2.48.05,4.95.1,7.43.16.42.01.87.02,1.32.03.19,0,.38.01.57.02.03,0,.06,0,.09,0,0-.12.07-.23.18-.26.12-.03.24.03.29.14,0,.01.01.02.02.04.32,1.07.64,2.13.96,3.2.08.26.16.52.23.77.02.05.01.11,0,.15-.02,0-.04.02-.05.02-.46.18-.93.36-1.4.53-.48.16-.96.32-1.44.46-.08.02-.16.05-.24.07-.13.03-.25.06-.37.09-.72.17-1.44.34-2.15.53-.56.15-1.12.29-1.68.42-.41,0-.81-.01-1.21-.02Z"/>
  <path class="cls-5" d="M36.2,126.44s0,0,0,0c0,0,0,0,0,0Z"/>
  <path class="cls-5" d="M36.15,126.43s0,0,0,0c0,0,.01,0,.02,0,0,0-.01,0-.02,0Z"/>
  <path class="cls-5" d="M69.76,127.43h0s0,0,0,0c0,0,0,0,0,0Z"/>
  <path class="cls-5" d="M56.53,128.96c-.63-.01-1.25-.05-1.88-.09-.54-.03-1.07-.06-1.61-.07-.54,0-1.08-.04-1.62-.05-.29,0-.57-.02-.86-.04-.26-.01-.52-.02-.79-.02h.04s-.09,0-.14,0h.04c-.17,0-.34-.01-.52-.02-.16-.01-.32-.02-.48-.03-.15,0-.3-.01-.46-.02-.13,0-.27,0-.4-.02h0c-.12-.01-.23-.03-.35-.04-.11,0-.22-.01-.34-.02-.22-.02-.44-.04-.66-.07-.13-.02-.26-.03-.39-.05-.12-.02-.24-.04-.36-.05-.12-.02-.24-.04-.36-.06-.1-.02-.2-.03-.3-.04-.04,0-.08,0-.11.01-.18-.04-.37-.06-.55-.09-.21-.03-.43-.06-.64-.1-.12-.02-.23-.04-.35-.06-.07-.01-.14-.02-.21-.03-.67-.11-1.34-.23-2-.37-.07-.02-.14-.03-.22-.05-.18-.04-.35-.07-.53-.11-.16-.04-.32-.07-.48-.11-.42-.1-.84-.2-1.26-.32-.25-.07-.48-.14-.73-.2-.2-.05-.4-.09-.6-.12.01,0,.02,0,.04,0-.21-.04-.42-.11-.63-.16-.03,0-.07-.01-.1-.02-.08-.02-.16-.04-.24-.07-.09-.03-.18-.05-.26-.08h0,0s-.02,0-.03,0h0s-.02,0-.02,0c-.07-.02-.13-.05-.2-.07.26,0,.52,0,.79.02,2.23.04,4.45.08,6.68.12,3.02.06,6.04.11,9.05.17,2.59.05,5.18.1,7.77.14,1.79.03,3.58.07,5.37.1,1.41.03,2.82.05,4.24.08.4,0,.8.02,1.2.02-.11.03-.22.05-.33.07-.65.14-1.3.3-1.95.46-.41.07-.83.13-1.24.21,0,0,.02,0,.03,0-.57.1-1.14.2-1.71.28-.51.07-1.02.16-1.53.25.01,0,.02,0,.03,0-.25.04-.5.09-.75.14-.2,0-.41,0-.61.03-.17.01-.33.04-.5.05-.08,0-.17,0-.25.02-.09.01-.18.03-.26.05,0,0,0,0,0,0h-.04c-.07,0-.15,0-.22.01-.1.01-.19.02-.29.03h-.02s-.09-.01-.14,0c-.04,0-.07.01-.1.03-.14,0-.28.02-.41.04.01,0,.02,0,.03,0-.04,0-.07.01-.11.02-.07,0-.13,0-.19.01-.08,0-.16.02-.24.03-.04,0-.08,0-.12.02-.02,0-.04,0-.05,0-.14.01-.29.03-.44.04-.09,0-.19,0-.29.01-.05,0-.09.01-.13.03l-.43.04h0s-.05,0-.08,0h.04s-.05,0-.08,0h.03c-.31.02-.63.05-.95.07-.3.02-.6.02-.91.03h-.3Z"/>
  <path class="cls-2" d="M74.82,113.14s-.07,0-.1,0c-.05,0-.1,0-.14-.02-.07,0-.12-.02-.19-.03-.13,0-.23-.12-.23-.25s.1-.23.22-.25c.07,0,.13-.01.19-.02.08,0,.14.01.2.06,0,0,.01,0,.02,0h0,0s-.01,0-.02,0c.05,0,.1,0,.14.03h0,0s0,0,0,0h0s0,0,.01,0h0s.05.03.07.06c0,.04.02.08.02.12,0,.04.02.08.03.12-.03.09-.11.16-.21.17h-.02Z"/>
  <path class="cls-2" d="M74.65,113.15c-.12-.17-.14-.49.12-.55.09-.01.16,0,.22.04.02.07.03.14.04.21.02.08.03.15.05.22-.03.11-.11.2-.21.2-.06,0-.14-.03-.22-.12Z"/>
  <path class="cls-2" d="M74.96,113.22h-.06s-.09-.02-.14-.04c-.05,0-.11,0-.17-.01.01,0,.02,0,.03,0s.01,0,.02,0c-.16-.03-.4,0-.48-.16-.15-.4.32-.41.53-.33,0,0,.02,0,.02,0,0,0,0,0,.02,0h0s.09,0,.14.01c0,0,.06,0,.1,0,.01.05.02.1.03.16.02.09.04.18.07.26.01.03.02.06.04.09-.03.01-.06.02-.1.02-.02,0-.04,0-.07,0Z"/>
  <path class="cls-2" d="M75.05,113.28s-.09-.01-.12-.03c-.1,0-.21,0-.31-.02-.14,0-.29-.01-.43-.02-.14,0-.25-.12-.25-.25,0-.14.12-.25.26-.25.25.01.49.02.74.04h.01s.03,0,.05-.01c0,.04.01.07.02.11.02.09.04.18.07.26.02.05.04.1.06.16-.03.01-.06.02-.09.02h0Z"/>
  <path class="cls-2" d="M31.83,112.82s-.05,0-.07-.02c-.05-.01-.11-.02-.16-.05-.1-.07-.14-.21-.08-.32.05-.11.16-.14.27-.14h.09s.08,0,.1,0c.06,0,.11.02.16.06.05.04.09.1.1.18,0,.03,0,.05-.01.08-.01.05-.04.09-.08.13,0,0,0,0,0,0,0,0,0,0,0,0,0,0,0,0,0,0,0,0,0,0,0,0,0,0,0,0,0,0,0,0,0,0,0,0,0,0,0,0-.01,0,0,0,0,0,0,0,0,0,0,0,0,0,0,0,0,0,0,0,0,0,0,0,0,0,0,0,0,0,0,0,0,0,0,0,0,0,0,0,0,0,0,0,0,0,0,0,0,0,0,0,0,0,0,0,0,0-.01,0,0,0,0,0,0,0,0,0-.04.03-.09.04-.14.04-.03,0-.06,0-.1-.01Z"/>
  <path class="cls-2" d="M31.66,112.86h0c-.06,0-.12,0-.18,0,0,0,0,0,0,0-.06,0-.11,0-.17-.01h0s-.02,0-.04,0c.02-.05.03-.11.05-.16.03-.11.06-.21.08-.32.05,0,.1,0,.16,0,.08,0,.16,0,.23.02.21,0,.29.12.28.25-.01.13-.12.25-.28.25-.04,0-.08,0-.13-.02Z"/>
  <path class="cls-5" d="M30.26,119.85c-.07-.02-.19,0-.25-.03,0,0-.01,0-.02,0,0,0-.01,0-.02,0,.01,0,.02,0,.02,0-.11-.01-.2-.03-.3-.04.04-.13.07-.26.1-.4,0,.01,0,.02,0,.02,0,0,0-.01,0-.02,0,0,0,0,0,0,0,0,0,0,0,0,0-.03.01-.05.02-.08.03,0,.06.01.08.03.19-.12.58-.09.66.14.09.17-.03.41-.22.41-.02,0-.05,0-.08-.01Z"/>
  <path class="cls-5" d="M76.96,120.85c-.32,0-1.1,0-.67-.49.13-.27.52-.15.75-.14.02,0,.04,0,.06,0,.05.21.12.41.17.62h0s0,0,0,0c-.06.02-.13.03-.19.03-.04,0-.08,0-.12-.02Z"/>
  <path class="cls-2" d="M71.48,54.65s.07.09.12.13c-.05-.04-.09-.09-.13-.14,0,0,0,0,.01,0Z"/>
  <path class="cls-4" d="M.73,42.97h0s0,0,0,0v.03s0-.02,0-.03ZM1.14,50.55s-.02-.04-.03-.05c-.04-.12-.07-.25-.1-.38.03.13.06.26.09.38.02.02.03.03.04.05ZM11.64,50.4s.01.03.02.05c0-.02,0-.03-.02-.05ZM38.95,2.67c-.09.03-.17.04-.24.02-.02,0-.03,0-.05,0h.05c.07.01.16,0,.24-.03ZM39.18,2.54s-.07.06-.11.08c.04-.02.07-.05.11-.08ZM51.44.58c1.2,0,2.4.02,3.61.08-1.21-.07-2.42-.09-3.61-.09-2.39.03-4.77.17-7.09.48-1.31.19-2.61.43-3.85.77-.19.05-.38.11-.57.17.19-.06.38-.11.57-.16,1.24-.34,2.54-.58,3.85-.77,2.33-.31,4.71-.45,7.09-.48ZM60.27,1.21c-.61-.11-1.23-.2-1.85-.28,0,0-.01,0-.01,0-.28-.03-.55-.06-.83-.08.28.03.55.05.83.09,0,0,0,0,.02,0,.62.07,1.23.16,1.85.27ZM62.1,1.59c.16.04.32.08.48.12-.16-.05-.32-.09-.48-.13-.61-.15-1.21-.28-1.83-.38.61.11,1.22.24,1.83.39ZM63.53,14.89c.02-.25.04-.51.05-.76-.02.25-.04.51-.05.77h0s0,0,0,0ZM64.32,2.33h0c-.06-.03-.12-.06-.17-.08-.05-.03-.11-.05-.16-.07-.08-.03-.15-.06-.23-.09.08.03.15.06.23.09.05.02.1.04.16.06s.11.05.17.08ZM71.28,4.76h0,0s0,0,0,0ZM89.03,95.41c.11-.14.22-.27.32-.41-.11.14-.21.27-.32.41ZM94.61,89.27s.06-.02.1-.03c-.03,0-.07.02-.1.03ZM95.45,88.61c-.13.13-.26.26-.39.38-.02.02-.04.04-.06.06.02-.02.04-.04.06-.05.13-.12.27-.26.39-.39ZM95.54,69.03c.27-.06.45-.29.41-.57-.04-.21-.23-.4-.45-.41-.01,0-.03,0-.04,0,0,0-.02,0-.02,0-.05-.01-.11-.02-.17,0-.08,0-.16,0-.23,0-.21,0-.42,0-.63,0h-2.37c-.95.02-1.9.02-2.86.01-.81,0-1.63,0-2.45,0-.79,0-1.57,0-2.36.02,0-.01,0-.02,0-.04.04-.21.07-.43.09-.65.02-.16.04-.31.06-.47.03-.23.06-.47.09-.71.02-.18.04-.35.05-.53.04,0,.09,0,.13,0,1.16-.07,2.32-.14,3.49-.22.94-.06,1.88-.12,2.82-.18.74-.05,1.48-.1,2.23-.17.11-.01.24-.02.38-.04.25-.04.41-.3.34-.55-.06-.2-.24-.3-.42-.3h0c-.12,0-.25,0-.38.01-.16,0-.32.01-.48.02-.6.03-1.2.07-1.79.11-1.34.09-2.67.19-4.01.28-.74.05-1.48.11-2.22.16.09-1.02.14-2.04.18-3.07.01-.34.02-.68.02-1.02.01-.96,0-1.93-.02-2.89-.02-.36-.03-.72-.06-1.07,0-.09-.01-.17-.02-.26,0-.02,0-.04,0-.06h0s0-.02,0-.02c0-.16,0-.31,0-.46v-.09s0,0,0,0c0-.04,0-.08,0-.12h0c-.01-1.42-.03-2.83-.04-4.24,0-.55-.01-1.09-.02-1.64.03-.05.05-.11.06-.16,0,0,0,0,0-.01h0c-.01-.09-.02-.18-.03-.26,0,0,0-.02,0-.02s0,0,0,0v-.06s-.02-.05-.02-.07h0s0-.02,0-.02h0c0-.05-.01-.09-.02-.14-.02-.15-.04-.3-.07-.46h0c-.01-.09-.02-.17-.04-.25,0-.02,0-.03,0-.05-.02-.1-.04-.21-.06-.31-.02-.12-.05-.24-.08-.36-.02-.09-.04-.18-.07-.28,0-.01,0-.02-.01-.03-.02-.09-.05-.18-.08-.27,0,0,0,0,0,0-.03-.09-.06-.18-.09-.27-.27-.49-.47-1-.69-1.51-.06-.13-.17-.26-.26-.39-.02-.04-.05-.07-.07-.1s-.04-.07-.05-.11c-.02-.03-.02-.05-.03-.08,0-.02-.01-.04-.01-.07t0,0h0c-.12-.21-.26-.42-.4-.61.11-.03.23-.05.34-.09.7-.2,1.36-.5,1.95-.92.32-.22.62-.46.9-.74.3-.3.57-.62.82-.97.55-.78.95-1.68,1.14-2.61.1-.48.16-.96.16-1.45s-.05-.99-.16-1.47c-.47-2.19-2.06-4.09-4.13-4.93-.96-.39-2.01-.58-3.05-.51-1.16.07-2.29.43-3.28,1.05-.29.18-.57.39-.82.62-.07.05-.13.11-.19.17-.07.06-.12.12-.19.18-.4.4-.75.85-1.04,1.33l-.09.16c-.07.12-.14.25-.2.38-.01.02-.02.04-.03.06-.57-.02-1.14-.02-1.7-.14-.08-.02-.15-.04-.23-.05t0,0c-.08-.08-.16-.16-.25-.23l-.12-.09c-.13-.1-.27-.19-.4-.28-.66-.42-1.38-.75-2.09-1.06-1.04-.46-2.14-.86-3.27-1.2-.41-.13-.82-.24-1.23-.36-.42-.11-.83-.22-1.25-.32-.89-.2-1.79-.4-2.69-.49-.34-.04-.69-.06-1.04-.07-.09,0-.19,0-.29,0-.06-.03-.13-.04-.2-.03-.08.02-.14.05-.19.11-.82,0-1.64.01-2.46.02-2.11.01-4.22.03-6.33.04-2.14.02-4.29.03-6.43.04-1.11,0-2.23.02-3.35.02-.04-.07-.11-.13-.2-.13-.54-.05-1.08-.08-1.61.01-2.2.3-4.41.75-6.38,1.78-.04,0-.08.01-.11.03-.03-.11-.06-.22-.1-.33-.46-1.41-1.38-2.64-2.57-3.51-.62-.45-1.33-.8-2.07-1.02-.9-.26-1.86-.34-2.8-.22-2.3.29-4.41,1.75-5.48,3.82-.54,1.04-.81,2.21-.77,3.38.04,1.25.41,2.49,1.11,3.54.59.89,1.36,1.64,2.27,2.2.41.25.86.45,1.32.59.17.05.34.1.51.14.09.02.18.04.27.06.05,0,.11.02.17.03h0s0,0,.01,0c.07.03.15.05.23.05-.12.05-.23.18-.23.3-.03.02-.05.04-.08.07-.07.06-.14.12-.21.18-.49.45-.93.96-1.31,1.5-.56.8-1.02,1.65-1.44,2.53-.44.92-.8,1.88-1.11,2.86-.13.4-.25.8-.37,1.2-.12.43-.23.86-.33,1.29-.38,1.64-.64,3.32-.78,5-.14,1.68-.19,3.38-.07,5.07.02.25.04.49.06.73,0,.04,0,.08,0,.11,0,.36,0,.72,0,1.08,0,.14,0,.27,0,.4,0,.17,0,.33.02.5.02.38.04.76.07,1.14.03.35.06.7.11,1.05,0,.01,0,.03,0,.04-1.3-.01-2.61-.03-3.91-.06-.29,0-.62-.02-.95-.04-.12,0-.24,0-.36-.02-.05,0-.1,0-.15,0-.13-.06-.28-.07-.41-.02-.03.01-.07.03-.1.05-.23.15-.3.5-.1.71.06.07.13.11.21.14.02.01.04.02.07.02.04,0,.07.01.11.01.06,0,.12-.01.18-.04.01,0,.02,0,.03-.01.21,0,.42,0,.62-.02.41-.01.83-.02,1.24-.02,1.07,0,2.15,0,3.22.01.13,0,.27,0,.4,0,0,0,0,0,0,0h0c.03.33.07.65.12.96.02.12.04.24.06.36.02.14.05.29.07.44.04.22.09.45.14.67.09.4.2.79.31,1.18-.35,0-.69.01-1.04.02-.88.02-1.75.02-2.62.03-.45,0-.91.02-1.36.02-.07-.05-.16-.07-.24-.08-.05,0-.11,0-.16,0h0s-.1.02-.14.04c-.07.03-.14.07-.19.12-.02.02-.04.04-.05.06-.01.01-.02.03-.04.04-.07.1-.11.21-.11.34,0,.02,0,.03,0,.04h0s0,.01,0,.02h0c.01.08.04.14.07.19.03.05.06.09.11.14,0,0,.01.01.02.02.1.09.23.16.37.17.02,0,.04,0,.05,0,.12,0,.24-.04.33-.11.56-.04,1.12-.06,1.68-.09.96-.05,1.93-.11,2.9-.15.22-.01.45-.02.67-.03.01.04.02.08.04.12.26.76.56,1.5.9,2.23.09.18.17.36.26.54l-1.64.29c-.87.15-1.73.3-2.6.46-.55.1-1.11.18-1.66.31-.04,0-.11.02-.18.04-.09.02-.17.04-.25.09-.03.02-.05.04-.07.05-.16.06-.26.23-.23.4.03.17.18.3.35.3.03.01.05.02.08.03.04,0,.07.01.11.01.07,0,.15-.01.23-.02.09-.01.19-.02.29-.04.21-.03.41-.07.61-.11.77-.14,1.54-.28,2.3-.42,1.03-.19,2.05-.38,3.08-.56.12.22.23.43.36.65l.09.16c.12.21.24.42.37.62.03.05.06.1.09.15.09.15.19.3.29.45.07.11.14.21.21.32.12.18.25.36.38.54.53.73,1.09,1.43,1.69,2.11.32.36.64.71.97,1.05.36.38.72.75,1.11,1.11.93.86,1.91,1.67,2.95,2.39.5.34,1,.68,1.51.99.61.36,1.24.69,1.88.99.61.29,1.23.54,1.86.76.5.18,1,.34,1.52.47.39.1.79.19,1.19.26.18.03.35.05.52.08.09.01.19.03.28.04h0s.01,0,.02,0c.13.02.27.04.41.03,0,0,.01,0,.02,0,.02.01.05.01.08.01h.04s.04,0,.05-.02h0c.18.02.37.04.56.06.71.07,1.43.13,2.15.18,1.81.11,3.63.16,5.45.16h.47c1.7,0,3.41-.04,5.12-.11.96-.04,1.92-.09,2.88-.15.51-.03,1.02-.07,1.52-.11.52-.03,1.03-.07,1.54-.11.14-.01.29-.02.44-.04,1.03-.09,2.05-.21,3.07-.34,1.34-.17,2.67-.38,3.98-.68.62-.15,1.25-.32,1.84-.57.21-.09.43-.19.62-.33.07-.05.14-.11.2-.17.03-.03.05-.06.07-.09.03-.03.05-.07.07-.11.16-.08.32-.17.48-.25.31-.17.62-.34.92-.53.76-.46,1.5-.95,2.22-1.46,1.31-.93,2.57-1.94,3.76-3.03.62-.57,1.23-1.16,1.81-1.77.55-.58,1.08-1.18,1.56-1.82.46-.61.91-1.25,1.22-1.96l.06-.15s.04-.09.06-.14h0s.08-.03.12-.05.08-.04.11-.07c.01,0,.02-.02.03-.02.04-.03.08-.07.11-.1.05-.05.1-.11.14-.16.02-.03.04-.05.06-.08.06-.09.12-.18.16-.26.18-.32.32-.66.44-1,.04-.11.08-.22.11-.33.35.02.7.04,1.05.05.73.04,1.45.07,2.18.1.83.04,1.66.07,2.49.07.23,0,.45,0,.68,0,.17,0,.34,0,.51-.01.13.01.27.04.4.04,0,0,.01,0,.02,0,.04.02.08.02.12.02.09,0,.17-.04.23-.11,0,0,0,0,0,0,.11-.1.14-.25.06-.38-.01-.02-.02-.04-.04-.05,0,0,0-.01-.01-.02t0,0c-.06-.07-.14-.11-.23-.12-.04,0-.08,0-.11,0h0c-.13-.02-.27-.01-.4,0-.28-.05-.56-.06-.84-.09-.71-.07-1.42-.11-2.13-.15-.91-.05-1.82-.1-2.74-.14-.33-.02-.65-.03-.98-.04.05-.18.1-.37.14-.55.13-.55.25-1.11.35-1.67,0-.01,0-.02,0-.04.59,0,1.18,0,1.76.01.88,0,1.77,0,2.66,0,1.01,0,2.02,0,3.04,0,.86,0,1.72,0,2.59.01.24,0,.49,0,.73,0h.24s.07,0,.1,0,.07,0,.11-.02c.03,0,.06,0,.09,0ZM108.94,50.33c.07,2.44.11,4.88.06,7.32-.03,1.79-.1,3.57-.24,5.35,0,.02-.01.04-.02.05-.03.11-.05.23-.07.34-.01.07-.02.15-.03.22,0,0,0,0,0,0,0,0,0,0,0,.01,0,0,0,.01,0,.02h0v.02c-.02.08-.03.16-.04.24-.03.16-.06.32-.08.49-.01.08-.02.16-.03.24,0,.04,0,.09-.01.13,0,.07,0,.13,0,.2,0,.04,0,.09,0,.14h0v.02s0,.01,0,.02c0,.02,0,.04,0,.05,0,.03,0,.06-.01.09h0c-.03.25-.07.48-.12.71-.06.26-.13.52-.19.78-.1.32-.21.63-.32.94-.1.29-.2.59-.3.88-.11.3-.22.59-.34.89-.51,1.29-1.07,2.55-1.66,3.81-.34.73-.71,1.46-1.07,2.19-.37.72-.72,1.45-1.1,2.16-.69,1.3-1.41,2.58-2.16,3.85-.46.76-.93,1.51-1.41,2.26-.46.71-.94,1.42-1.44,2.11-.45.63-.93,1.24-1.41,1.84-.33.41-.67.81-1.04,1.2-.27.28-.54.55-.84.8-.09.07-.18.14-.27.21-.15.26-.33.51-.57.65-.04.04-.07.09-.12.12,0,.05,0,.1-.02.15-.04.07-.11.13-.2.14-.02,0-.03,0-.05,0-.06,0-.12-.02-.17-.06,0,0,0,0,0,0-.12-.07-.23-.14-.32-.2-.62-.37-1.25-.71-1.88-1.07-1.01-.58-2.02-1.16-3.03-1.74-.96-.55-1.93-1.11-2.9-1.66l2.98,5.03c.62,1.04,1.23,2.08,1.85,3.12h0s.04.06.05.09c.01.02.02.04.03.06-.02.02-.04.03-.05.04-.03.03-.05.05-.08.09,0,0,0,0,0,0-.04.04-.07.07-.09.11-.01.01-.02.03-.03.04,0,0,0,.01-.01.02-.05.06-.08.12-.09.2-.03.04-.05.07-.08.11-.11.15-.23.3-.35.45-.25.32-.52.63-.8.93-.43.46-.88.9-1.35,1.33-.28.26-.57.51-.86.76-.31.27-.62.53-.95.79-.6.48-1.22.94-1.85,1.38-.72.51-1.46,1-2.21,1.48-1.02.64-2.06,1.23-3.14,1.77-.85.42-1.73.8-2.63,1.08-.35.11-.71.2-1.07.26-.22.04-.45.07-.69.07-.06,0-.12,0-.18,0h0c-.14.02-.29.02-.39,0h-.11s0,.03,0,.04c-1.61-.01-3.21-.02-4.82-.03-2.98-.02-5.96-.04-8.94-.05-3.59-.02-7.18-.04-10.77-.07-3.59-.02-7.18-.04-10.78-.06-1.09,0-2.19-.02-3.29-.02-.64,0-1.29-.02-1.94-.02h0s-.06-.03-.09-.04c-.05,0-.1,0-.14.02,0,0-.01,0-.02,0-.02,0-.03-.01-.05-.02-.16-.02-.33-.07-.48-.11-.37-.11-.73-.26-1.08-.42-.48-.22-.96-.47-1.42-.73-1.02-.57-1.99-1.2-2.95-1.86-1.41-.97-2.79-2.02-4.12-3.11-1.21-1-2.39-2.03-3.52-3.11-.8-.76-1.57-1.55-2.29-2.39-.38-.43-.73-.87-1.05-1.35,0,0,0,0,0,0,0-.01-.02-.02-.02-.04-.04-.02-.07-.04-.09-.06-.1-.1-.09-.25,0-.35l1.52-1.65c1.02-1.1,2.04-2.2,3.05-3.3.85-.93,1.7-1.85,2.56-2.77-1.92.9-3.84,1.8-5.76,2.71-1.3.61-2.6,1.23-3.9,1.84,0,.02-.02.03-.03.04-.05.05-.12.08-.19.08-.06,0-.12-.02-.16-.06-.38-.37-.74-.77-1.09-1.17-.88-1.02-1.67-2.11-2.4-3.23-.93-1.42-1.77-2.89-2.55-4.4-.82-1.58-1.55-3.2-2.23-4.84-.66-1.62-1.27-3.26-1.8-4.93-.56-1.74-1.04-3.5-1.42-5.29-.32-1.54-.58-3.1-.7-4.66-.06-.75-.08-1.49-.05-2.24.02-.65.08-1.3.21-1.94.07-.33.15-.65.26-.96,0,0,0-.02.01-.02-.07-.05-.12-.13-.12-.22,0-.14.1-.28.25-.3.07-.01.12,0,.18.03.36-.02.73-.04,1.08-.08,1.14-.12,2.26-.3,3.36-.56.85-.2,1.68-.45,2.5-.75.48-.19.95-.39,1.4-.64h0c.25-.14.49-.28.72-.45.14-.11.29-.22.39-.32.09-.08.16-.16.24-.25.04-.06.09-.11.11-.15.04-.05.07-.11.09-.17.02-.04.04-.09.04-.11.01-.04.02-.08.02-.09s0-.01,0-.02c-.7.03-1.41.05-2.11.07-2.66.09-5.33.18-7.99.27-.04,0-.08,0-.12,0h-.01s-.09-.01-.12-.04c0,0,0,0-.01,0-.1-.03-.18-.12-.21-.23-.02-.07-.02-.13,0-.19-.02-.09-.05-.19-.07-.28-.04-.18-.09-.36-.12-.54-.09-.41-.15-.82-.21-1.23-.16-1.22-.19-2.46-.14-3.7.06-1.62.27-3.23.57-4.81.34-1.74.79-3.46,1.33-5.15.89-2.77,1.99-5.47,3.29-8.07.94-1.88,1.99-3.7,3.14-5.46.94-1.45,1.95-2.84,3.04-4.18,1-1.24,2.08-2.42,3.22-3.53,1.6-1.55,3.36-2.97,5.31-4.04.68-.38,1.38-.71,2.1-.97.04,0,.07,0,.11,0,0,0,.01,0,.02.01s.01,0,.02.01c.05.03.09.05.14.08.06.04.12.06.18.1.03.02.05.04.08.07,0,0,.02.01.02.02.05.04.1.08.15.12.06.04.11.08.18.11.02,0,.03.02.04.02,0,0,0,0,0,.01.12.16.25.31.37.46.36.46.73.92,1.09,1.38.8,1.01,1.6,2.03,2.41,3.04.61.77,1.23,1.54,1.84,2.32.59.75,1.16,1.52,1.74,2.29.28.38.56.75.84,1.12.28.38.55.76.84,1.12h0s0,.02,0,.02l.02.02s.02.02.03.03c.18.11.38.22.56.33.23.14.46.27.7.41-.02-.04-.04-.09-.05-.13l-.2-.49c-.28-.7-.57-1.39-.86-2.09-.33-.82-.66-1.64-1-2.46-.36-.88-.72-1.77-1.09-2.65-1.16-2.75-2.31-5.49-3.47-8.23-.04-.1,0-.22.09-.29,0-.08.05-.16.13-.2.5-.26,1.01-.52,1.51-.79.28-.14.55-.29.83-.43.06-.03.12-.05.18-.08.08-.04.16-.05.24-.06.14-.03.28-.05.42-.08.48-.09.95-.18,1.42-.27,0,0,0-.01,0-.02.03,0,.06,0,.09,0s.06,0,.09,0c0,0,.02,0,.03,0,.07-.02.14-.04.21-.07.01.01.02.03.03.04.04.07.07.14.11.21.02.02.04.05.05.08h0c1.2,2.14,2.4,4.27,3.6,6.39.94,1.66,1.88,3.33,2.81,5-.04-.52-.07-1.04-.09-1.57-.05-1.31-.11-2.62-.14-3.94-.04-1.39-.07-2.78-.09-4.17-.02-.91-.05-1.82-.1-2.73v-.06s.02-.09.02-.14c0,0,0-.01,0-.02h0s0-.05.01-.07c0-.05.01-.1,0-.14,0-.01,0-.02,0-.04-.01-.05-.03-.1-.04-.15,0,0,0-.02,0-.02,0-.03-.01-.06-.02-.09.03-.02.06-.03.09-.05.05-.02.09-.04.13-.06.08-.04.16-.08.24-.11.18-.08.37-.15.55-.24,0,0,0,0,.01,0,.34-.12.67-.22,1.01-.32.86-.24,1.74-.43,2.62-.58,2.02-.34,4.06-.54,6.11-.63,2.07-.09,4.14-.08,6.21.05,1,.06,2,.15,3,.28.96.12,1.91.25,2.86.44.84.17,1.68.37,2.5.63.38.12.76.27,1.12.43,0,0,.01,0,.02,0,.02,0,.03.01.04.02l.08.06s0,0,0,.01c.02,0,.04.02.05.04.07.05.14.11.2.16,0,.03,0,.06,0,.1,0,.03,0,.06,0,.1,0,.09-.01.18-.02.27-.03.72-.08,1.44-.13,2.15-.03.39-.06.78-.09,1.16-.05.64-.1,1.27-.15,1.91-.11,1.23-.21,2.45-.32,3.68-.07.8-.13,1.61-.18,2.42,0,0,0,0,0-.01.21-.31.42-.62.63-.94.62-.93,1.25-1.85,1.88-2.77.52-.77,1.05-1.54,1.57-2.3.29-.42.59-.84.88-1.26.43-.6.84-1.21,1.25-1.83.14-.21.29-.42.43-.63.05-.07.13-.1.21-.1.07-.07.17-.11.27-.1.03,0,.06,0,.08.02.02,0,.04,0,.05,0,.01,0,.02,0,.03,0,.5.04,1,.1,1.49.19.6.11,1.19.24,1.77.41.88.26,1.74.58,2.6.92,1.68.68,3.31,1.5,4.9,2.39,1.48.83,2.91,1.72,4.32,2.66,1.5,1.01,2.96,2.09,4.39,3.21,1.36,1.08,2.69,2.21,3.96,3.4,1.31,1.23,2.57,2.5,3.74,3.86.94,1.09,1.84,2.22,2.62,3.43.46.71.89,1.45,1.23,2.22.01.02.02.04.02.05h0s0,.02,0,.03h0c.03.17.07.32.1.48,0,0-.02.02-.03.02-.06.05-.13.09-.18.14-.39.32-.77.64-1.15.96-.46.38-.91.77-1.37,1.15-1.29,1.1-2.58,2.2-3.87,3.29-.64.54-1.28,1.09-1.92,1.63.06-.01.12-.02.19-.03.09-.02.18-.03.27-.04h0s.07-.01.1-.02c.04,0,.08-.01.12-.02.19-.03.37-.06.52-.09.38-.06.76-.12,1.1-.18.91-.15,1.81-.33,2.72-.48,1.09-.18,2.18-.36,3.27-.53.67-.11,1.34-.21,1.98-.3.47-.08.95-.16,1.42-.24t0,0c.05,0,.11-.02.16-.02.12-.02.24-.06.36-.09.02,0,.05,0,.07-.01.07.03.14.07.2.11.16.11.26.3.35.46.13.25.23.52.32.79.12.36.21.72.3,1.09.15.63.28,1.27.38,1.92h0c.04.2.06.39.09.58.09.62.18,1.24.25,1.87.08.7.16,1.4.23,2.1.07.71.13,1.42.18,2.13.05.75.1,1.5.14,2.25.09,1.51.18,3.02.22,4.53v.04Z"/>
  <path class="cls-4" d="M39.09,3.12s-.02-.04-.04-.06c-.5.52-.71-.63-.2-.76.52-.18.47.27.67.58.16.28-.28.52-.44.24Z"/>
  <path class="cls-4" d="M39.44,2.8c-.82-1.08,2.19-1.22,2.8-1.55,1.49-.51,3.01-.56,4.55-.69,1.19-.09,2.34.05,3.52-.09.22.03.29.33.11.45-.25.12-.55.12-.81.18-.14.27-.6-.01-.91.06-2,.17-4.13.58-6.09.51-.91.31-1.96.4-2.8.81.18.24-.18.54-.38.32Z"/>
  <path class="cls-4" d="M64.34,2.68s-.06-.02-.09-.02c0,0-.02,0-.02,0-1.29-.25-2.58-.81-3.94-.82-.66-.11-1.26-.06-1.89-.13-.08-.02-.15-.09-.17-.17-.51-.11-1.16.02-1.57-.28-.42-.09-1.02.12-1.34-.19-1.49-.03-2.93.2-4.4.16-.12-.02-.22-.12-.22-.24-.69-.03-1.38.12-2.03.3-.13.04-.27,0-.32-.14-.08-.59,1.14-.48,1.54-.63.72-.25,1.57-.15,2.34-.23.3.05.79-.14.97.18t0,0c.29.04.72-.14.92.13.67.09,1.97-.29,2.44.15.94,0,1.88.09,2.82.2.25.04.57.05.69.31.09.02.18.03.26.06.1.01.21.03.31.04.08-.29.42-.16.63-.12.89.21,1.88.38,2.69.76.19.07.4.15.58.24.25.14.08.53-.19.46Z"/>
  <path class="cls-4" d="M63.08,16.73c0-.07.02-.14.07-.19,0,0,0,0,0,0,.02-1.32.02-2.58-.17-3.86-.01-.12.09-.24.2-.26.12-.02.24.05.29.16.19.9.24,1.84.31,2.76-.07.37.27,1.22-.15,1.35,0,.32-.53.38-.55.04Z"/>
  <path class="cls-4" d="M85.3,49.04c.15.01.27.19.23.34-.02.27.08.74-.26.82-.1.18-.37.16-.45-.04-.02-.07-.03-.15-.04-.23v-.02s0-.08-.01-.12c0-.08,0-.16,0-.23,0-.12,0-.25.01-.38,0-.01,0-.02,0-.03h0s0-.03,0-.04c0-.1,0-.21,0-.3.15-.39.55-.22.51.23Z"/>
  <path class="cls-2" d="M29.92,54.64c2.88,1.85,4.61-2.89,3.09-4.94-3.06-3.96-5.97,2.68-3.09,4.94ZM34.24,74.29c1.89.21,2-2.72.1-2.65-1.59.07-1.68,2.46-.1,2.65ZM34.96,67.96c1.68,1.22,3.18-1.56,1.26-2.3-1.36-.49-2.41,1.43-1.26,2.3ZM39.44,75.48c1.66.16,2.01-2.34.37-2.64-1.79-.31-2.17,2.45-.37,2.64ZM41.21,71.27c2.11.12,1.81-3.1-.24-2.6-1.37.36-1.18,2.5.24,2.6ZM44.96,73.63c1.71,1.22,3.18-1.65,1.18-2.33-1.35-.43-2.32,1.48-1.18,2.33ZM62.4,70.44c1.63,1.34,3.29-1.44,1.34-2.25-1.32-.51-2.42,1.33-1.34,2.25ZM64.84,74.91c1.52,1.04,3.03-1.36,1.41-2.27-1.43-.79-2.76,1.32-1.41,2.27ZM67.38,70.86c1.75,1.17,3.13-1.75,1.13-2.37-1.37-.39-2.3,1.55-1.13,2.37ZM71.48,73.75c1.92.57,2.41-2.53.42-2.61-.89-.08-1.38.71-1.33,1.46,0,.06.01.11.02.17,0,.04.02.09.03.13.02.06.04.12.07.18.01.03.02.06.04.09.07.12.15.22.25.32.05.04.11.09.17.12.06.04.13.07.21.1.04.01.07.02.11.04ZM70.23,67.57c1.22,1,2.91-.71,1.92-1.93-1.28-1.57-3.5.65-1.92,1.93ZM72.73,35.01s-.02-.02-.03-.04c0,.01.02.03.03.04ZM72.19,55.11c2.83.74,3.83-3.39,2.6-5.32-.49-.92-1.57-1.55-2.61-1.16-1.62.7-2.15,2.78-1.66,4.45.02.05.04.11.05.17.09.27.21.53.36.77.03.05.06.09.09.14.05.07.1.14.15.21.04.05.08.09.12.14.04.05.09.09.13.14,0,0,.01.01.02.02.05.04.09.09.14.12,0,0,.02.01.02.02s.02.02.02.02c.04.03.07.05.11.08,0,0,0,0,.01,0,.02.02.05.03.07.05.05.03.1.05.15.08.06.03.13.06.2.08ZM82.27,43.6v-.02s-.01.02-.02.03c0,0,.01,0,.02,0ZM87.91,35.74c.11.48.16.98.16,1.47s-.06.97-.16,1.45c-.2.93-.6,1.83-1.14,2.61-.25.35-.52.68-.82.97-.28.27-.58.52-.9.74-.6.41-1.25.72-1.95.92-.11.04-.23.06-.34.09.14.19.27.39.4.6h0s0,.01,0,.02c0,.02,0,.05.01.07,0,.03.02.05.03.08.01.04.03.07.05.11s.04.07.07.1c.09.13.2.25.26.39.22.5.42,1.02.69,1.51.03.09.06.18.09.27,0,0,0,0,0,0,.03.09.06.18.08.27,0,.01,0,.02.01.03.03.09.05.18.07.28.03.12.06.23.08.36.02.1.04.21.06.31,0,.02,0,.03,0,.05.02.08.03.16.04.24h0c.02.16.05.31.07.46v.05h0s0,.02,0,.03c0,.12-.01.25-.01.38,0,.08,0,.16,0,.23,0,.04,0,.08.01.12v.02c0,.51.01,1.03.02,1.54.01,1.41.03,2.82.04,4.23h0s0,.09,0,.12c0,0,0,0,0,0v.09c0,.16,0,.31,0,.46,0,0,0,.01,0,.02h0s0,.04,0,.07c.01.09.02.17.02.26.03.36.04.71.06,1.07.03.96.04,1.93.02,2.89,0,.34-.01.68-.02,1.02-.03,1.02-.09,2.05-.18,3.07-.2.02-.4.03-.61.04-.94.07-1.89.14-2.83.21-.95.07-1.9.15-2.86.23-.46.04-.93.08-1.39.11-.23.02-.47.04-.71.05-.02,0-.05,0-.08,0-.03,0-.05,0-.08,0h0c-.21,0-.38.21-.34.42.03.2.22.32.41.29h-.02s.04,0,.06,0c.03,0,.05,0,.08-.02.9-.07,1.81-.1,2.72-.15,1.16-.06,2.33-.13,3.49-.2.69-.04,1.39-.08,2.08-.12-.02.18-.04.36-.05.53-.03.24-.05.48-.09.71-.02.16-.04.31-.06.47-.03.22-.06.44-.09.65,0,.02,0,.03,0,.04-1.18,0-2.35.02-3.52.04-.95.02-1.89.03-2.84.05-.42,0-.84.02-1.25.03-.21,0-.43.02-.65.01h-.04c-.21-.02-.41.14-.4.36,0,.2.18.36.38.35.03,0,.06-.01.09-.02.19,0,.38.01.57.01l1.09.02c.89.02,1.78.04,2.66.05,1.25.01,2.5.03,3.76.04,0,.01,0,.02,0,.04-.1.56-.21,1.12-.35,1.67-.04.19-.09.37-.14.55-.54-.03-1.08-.05-1.62-.07-.93-.04-1.87-.09-2.8-.11-.36-.01-.77-.02-1.19-.02-.1,0-.24,0-.38,0h-.04c-.2-.02-.38.12-.39.32-.02.19.13.38.33.39h.11c.11,0,.27.02.43.04.26.02.52.04.78.06.82.06,1.65.11,2.47.14.68.04,1.37.07,2.05.1-.03.11-.07.22-.11.33-.12.34-.26.68-.44,1-.05.08-.1.17-.16.26-.02.02-.04.05-.06.08-.04.05-.09.11-.14.16-.04.04-.07.07-.11.1-.01,0-.02.02-.03.02-.04.03-.07.05-.11.07s-.08.04-.12.05h0c-.02.05-.04.1-.06.14l-.06.15c-.31.71-.75,1.35-1.22,1.96-.48.63-1.01,1.23-1.56,1.82-.58.61-1.19,1.2-1.81,1.77-1.19,1.09-2.45,2.1-3.76,3.03-.72.52-1.46,1.01-2.22,1.46-.3.18-.61.36-.92.53-.16.09-.32.17-.48.25-.02.04-.04.07-.07.11-.02.04-.05.07-.07.09-.06.06-.12.12-.2.17-.19.14-.4.24-.62.33-.59.25-1.22.42-1.84.57-1.31.3-2.64.51-3.98.68-1.02.13-2.04.25-3.07.34-.16.01-.3.02-.44.04-.51.04-1.03.08-1.54.11-.51.03-1.02.07-1.52.11-.96.06-1.92.11-2.88.15-1.71.07-3.41.11-5.12.11h-.47c-1.82,0-3.63-.05-5.45-.16-.72-.05-1.44-.1-2.15-.18-.19-.02-.38-.04-.56-.06h0s-.04.01-.05.02h-.04s-.06,0-.08-.01c-.01,0-.02,0-.02,0-.14,0-.28-.01-.41-.03h-.02c-.09-.01-.18-.03-.28-.04-.18-.02-.35-.05-.52-.08-.4-.07-.8-.16-1.19-.26-.51-.13-1.02-.29-1.52-.47-.63-.22-1.25-.47-1.86-.76-.64-.3-1.27-.63-1.88-.99-.52-.31-1.02-.64-1.51-.99-1.04-.73-2.02-1.53-2.95-2.39-.38-.36-.74-.73-1.11-1.11-.33-.34-.65-.69-.97-1.05-.6-.68-1.16-1.38-1.69-2.11-.13-.18-.25-.36-.38-.54-.07-.11-.14-.21-.21-.32-.1-.15-.2-.3-.29-.45-.03-.05-.06-.1-.09-.15-.12-.2-.25-.41-.37-.62l-.09-.16c-.12-.21-.24-.43-.36-.65.21-.04.43-.08.65-.11.61-.11,1.21-.21,1.82-.32.96-.17,1.93-.35,2.89-.52.48-.09.96-.18,1.43-.27.22-.04.43-.08.65-.13.1-.02.2-.03.29-.09.14-.09.22-.26.19-.43s-.16-.3-.32-.34c-.09-.02-.17,0-.25,0-.14.02-.28.04-.42.07-.34.06-.69.12-1.04.18-.75.13-1.51.26-2.26.4-1.14.2-2.29.41-3.43.62-.21.04-.41.07-.62.11-.09-.18-.18-.36-.26-.54-.34-.73-.64-1.47-.9-2.23-.02-.04-.03-.08-.04-.12.09,0,.18,0,.27,0,.11,0,.23-.01.34-.02,0,.01,0,.02,0,.03.06-.01.12-.02.19-.02,0,0,0-.01,0-.02,1.42-.06,2.84-.12,4.25-.18.91-.04,1.83-.07,2.75-.12.43-.02.86-.04,1.29-.07.31-.02.63-.03.94-.08.04,0,.08,0,.12,0,.13,0,.25-.12.24-.25,0-.14-.12-.25-.26-.25-.04,0-.07,0-.11,0-.37-.04-.73-.02-1.1-.02-.48,0-.96,0-1.43.02-1.04.02-2.07.04-3.1.07-.85.03-1.7.05-2.55.06-.43.01-.87.02-1.3.03,0,0,0-.02,0-.02,0,0,0,0,0,0-.04,0-.07.01-.11.02-.02,0-.04,0-.06,0,0,0,0,.01,0,.02-.12,0-.25,0-.38,0-.07,0-.14,0-.21,0-.12-.39-.22-.78-.31-1.18-.05-.22-.1-.45-.14-.67-.03-.14-.05-.29-.07-.44-.02-.12-.04-.23-.06-.36-.05-.32-.09-.64-.12-.96h0s0,0,0,0h0c.16,0,.32,0,.48,0h.02c1.62.01,3.24.03,4.86.03.89,0,1.79,0,2.68,0h.1c.36,0,.72,0,1.08-.01.24,0,.48,0,.72-.02.1,0,.2,0,.3-.03.13-.01.23-.14.22-.26,0-.03,0-.05-.02-.08,0,0,0,0,0-.01,0-.02-.02-.04-.03-.05l-.02-.02s-.07-.05-.11-.07h0s0,0,0,0c0,0,0,0,0,0h0s-.05-.02-.08-.02c-.02,0-.05,0-.07,0-.03,0-.06,0-.09,0-.04,0-.07,0-.11,0-.22-.01-.45-.02-.67-.03-.36-.01-.72-.02-1.09-.03-.02,0-.04,0-.06,0h-.65c-1.88-.05-3.75-.08-5.62-.09-.46,0-.92,0-1.38-.02,0,0,0,0-.02,0-.16,0-.32,0-.48,0h-.05s0-.03,0-.04c-.05-.35-.08-.7-.11-1.05-.03-.38-.05-.76-.07-1.14,0-.17-.02-.33-.02-.5,0-.13,0-.27,0-.4,0-.36,0-.72,0-1.08,0-.03,0-.07,0-.11-.02-.24-.04-.49-.06-.73-.12-1.69-.08-3.39.07-5.07.14-1.68.4-3.36.78-5,.1-.43.21-.86.33-1.29.11-.41.24-.8.37-1.2.31-.97.67-1.93,1.11-2.86.42-.88.88-1.73,1.44-2.53.38-.54.82-1.05,1.31-1.5.07-.06.14-.12.21-.18.03-.02.05-.05.08-.07,0-.13.1-.25.23-.3-.07,0-.16-.03-.23-.05,0,0,0,0-.01,0h0s0,0,0,0t0,0c-.05-.02-.11-.02-.17-.03-.09-.02-.18-.04-.27-.06-.17-.04-.34-.09-.51-.14-.46-.15-.91-.34-1.32-.59-.91-.55-1.68-1.31-2.27-2.2-.7-1.05-1.07-2.29-1.11-3.54-.04-1.17.23-2.34.77-3.38,1.06-2.07,3.18-3.53,5.48-3.82.93-.12,1.89-.04,2.8.22.74.21,1.45.57,2.07,1.02,1.2.87,2.11,2.1,2.57,3.51.04.11.07.22.1.33.03-.02.07-.03.11-.03,1.97-1.04,4.18-1.48,6.38-1.78.53-.09,1.07-.06,1.61-.01.09,0,.16.06.2.13-.05-.05-.13-.08-.21-.06-.04,0-.08.02-.11.05h0s-.03,0-.05,0c-.13.03-.22.15-.21.28,0,.03,0,.05.02.08.04.08.11.14.2.16.16.86.32,1.72.49,2.58.38,2,.75,4,1.13,6,.54,2.87,1.08,5.73,1.62,8.6.53,2.8,1.06,5.61,1.59,8.41l.69,3.67c-.11.1-.1.28.01.38.02.02.04.03.06.04.04.02.08.03.13.03h0s.06,0,.09-.02h.02s.06,0,.1,0h.12s.03,0,.05,0h.07l-.07.04c-.08.04-.16.09-.23.14,0,0-.01,0-.02,0h0s0,0,0,0c0,0-.01,0-.02.01-.05.03-.11.07-.15.13-.02.04-.04.07-.05.11-.3.18-.59.39-.85.64-.36.34-.68.75-.84,1.23-.18.51-.16,1.06.04,1.57.3.75.94,1.31,1.62,1.72.28.17.58.32.88.45.35.16.7.3,1.07.4.3.08.59.16.89.21l.32.06c.05.01.11.02.17.03.13.02.25.04.38.05,0,.07,0,.15,0,.22,0,.43-.02.86,0,1.28,0,.62.02,1.24.03,1.86,0,.3,0,.61,0,.91,0,.34.02.69.04,1.03.02.35.02.7.03,1.05,0,.36.02.73.03,1.09.01.35.04.7.05,1.06,0,.33.04.66.04.99,0,.14,0,.29,0,.43-.54,0-1.08.01-1.61.02-.6,0-1.2,0-1.8.01-.02-.01-.05-.02-.07-.03-.06-.02-.13,0-.19.02,0,0,0,0-.01,0-.05,0-.09.02-.12.05,0,0,0,0,0,0,0,0,0,0,0,0,0,0,0,0,0,0-.02,0-.04.02-.06.03-.02,0-.04.02-.05.04,0,0,0,0,0,0-.01.02-.02.04-.04.06s-.02.05-.02.08c-.01.09,0,.19.02.28,0,.03.01.07.02.1,0,.01,0,.02,0,.04.01.05.03.09.04.13.02.07.05.12.06.18.04.12.09.23.15.34.02.04.04.07.06.1.06.11.14.2.22.29.04.04.07.08.11.11.03.03.06.06.09.09.11.13.22.26.34.38.05.04.09.08.14.12.06.05.12.11.19.15.6.45,1.31.73,2.03.9.6.14,1.22.21,1.84.21.08,0,.16,0,.25,0,.69-.02,1.38-.11,2.05-.28.7-.19,1.4-.45,2.01-.85.16-.1.32-.21.46-.33.11-.09.21-.19.32-.28.15-.14.3-.3.43-.46.23-.29.44-.62.55-.98.02-.05.01-.12-.02-.18,0-.01-.02-.02-.03-.04h0c0-.14-.12-.24-.25-.25l-1.5-.02c-1.04-.02-2.09-.03-3.13-.05,0-.04.01-.07.02-.1,0-.04.02-.13,0-.21,0-.1,0-.2,0-.3,0-.2,0-.4.02-.6.02-.55-.02-1.13-.04-1.69-.02-1.11-.02-2.21-.05-3.32-.01-.44-.02-.89-.05-1.33.02-.75.05-1.51.1-2.26.09,0,.19-.01.29-.02s.19-.02.29-.03c.09-.01.19-.02.28-.04.1-.01.19-.03.29-.04.09-.01.19-.03.28-.05,1.03-.19,2.04-.52,2.96-1.03.73-.4,1.43-.96,1.79-1.74.08-.16.14-.33.18-.51.06-.23.07-.48.05-.71-.05-.42-.21-.83-.45-1.17-.03-.04-.07-.09-.11-.14-.3-.35-.62-.66-1.01-.91-.26-.16-.53-.31-.8-.45-.14-.07-.27-.14-.41-.2h.21c.06,0,.11-.03.15-.07.1-.01.18-.09.2-.18.03-.05.05-.11.05-.17,0-.02,0-.03,0-.05l.02-.11c.03-.18.05-.36.08-.54.02-.11.04-.25.07-.4.09-.55.14-1.12.21-1.68.04-.4.07-.8.12-1.2.04-.46.1-.92.14-1.38.04-.37.05-.74.09-1.11.06-.68.14-1.35.21-2.03.07-.61.14-1.21.2-1.82.05-.48.1-.96.14-1.44.11-1.29.26-2.57.39-3.86.13-1.27.26-2.54.38-3.8.13-1.31.27-2.61.41-3.92.21-1.98.42-3.96.63-5.94,0-.05.01-.1.02-.15,0-.02,0-.04,0-.05,0-.01,0-.03,0-.04,0-.13-.1-.27-.23-.27h-.14c.05-.06.11-.1.19-.11.07-.01.14,0,.2.03.1,0,.2,0,.29,0,.35,0,.69.03,1.04.07.91.09,1.8.29,2.69.49.42.1.84.2,1.25.32.41.11.82.23,1.23.36,1.12.35,2.22.75,3.27,1.2.72.31,1.43.64,2.09,1.06.14.09.27.18.4.28l.12.09c.09.07.17.15.25.23t0,0c.07.02.15.04.23.05.55.12,1.12.12,1.7.14,0-.02.02-.04.03-.06.06-.13.13-.25.2-.38l.09-.16c.29-.48.64-.93,1.04-1.33.06-.06.12-.12.19-.18.06-.06.12-.12.19-.17.26-.23.54-.43.82-.62.98-.62,2.12-.98,3.28-1.05,1.04-.07,2.09.12,3.05.51,2.07.84,3.66,2.74,4.13,4.93Z"/>
</svg>