<?xml version="1.0" encoding="UTF-8"?>
<svg id="Vector_layer" data-name="Vector layer" xmlns="http://www.w3.org/2000/svg" viewBox="0 0 109.02 128.96">
  <defs>
    <style>
      .cls-1 {
        fill: #e8b473;
      }

      .cls-2 {
        fill: #e9b473;
      }

      .cls-3 {
        fill: #b48448;
      }

      .cls-4 {
        fill: #ff9d0d;
      }

      .cls-5 {
        fill: #603d12;
      }

      .cls-6 {
        fill: #ff9d0c;
      }

      .cls-7 {
        fill: #5f3c12;
      }
    </style>
  </defs>
  <path d="M6.78,7.12s-.07.08-.1.12c.03-.04.07-.08.1-.12Z"/>
  <path d="M38.57,127.75s0,0,0,0c0,0,0,0,0,0,0,0,0,0,0,0Z"/>
  <path d="M36.65,126.57c-.06-.02-.11-.03-.17-.05.07.02.14.04.21.06-.01,0-.03,0-.04,0Z"/>
  <path d="M40.27,127.46s-.04,0-.07-.01c.04,0,.07.02.11.02-.01,0-.03,0-.04,0Z"/>
  <path d="M43.15,128.01c-.24-.04-.47-.07-.71-.11h0c-.05,0-.11-.02-.16-.02,0,0,0,0,.01,0-.18-.03-.36-.07-.53-.11-.16-.04-.32-.07-.48-.11.65.13,1.3.25,1.94.36-.03,0-.05,0-.08-.01Z"/>
  <path d="M43.91,128.13s.08.01.12.02c-.04,0-.08-.01-.12-.02Z"/>
  <path d="M44.92,128.29s.04,0,.05,0c0,0,0,0,0,0-.02,0-.03,0-.05,0Z"/>
  <path d="M73.06,127.07s-.01,0-.02,0c.03,0,.05-.01.08-.02-.02,0-.04.01-.06.02,0,0,0,0,0,0Z"/>
  <path class="cls-6" d="M38.59,2.7c-.14,0-.28-.04-.38-.13t0,0s-.02-.02-.03-.02c.02-.08.03-.16,0-.24-.01-.05-.03-.1-.04-.15,0-.04-.02-.07-.02-.11.03-.02.06-.03.09-.05.14-.07.28-.13.42-.2l-.05.02c.18-.08.37-.15.55-.24,0,0,0,0,.01,0,.34-.12.67-.22,1.01-.32.86-.24,1.74-.43,2.62-.58,2.02-.34,4.06-.54,6.11-.63,2.07-.09,4.14-.08,6.21.05,1,.06,2,.15,3,.28.96.12,1.91.25,2.86.44.84.17,1.68.37,2.5.63.4.13.8.28,1.18.46.03.02.06.04.09.06.07.07.09.18.05.28-.06.12-.21.18-.33.12-.16-.07-.32-.14-.45-.2-.61-.24-1.24-.43-1.89-.59-1.21-.3-2.44-.51-3.68-.66,0,0-.01,0-.01,0-2.33-.25-4.67-.36-6.98-.35-2.39.03-4.77.17-7.09.48-1.31.19-2.61.43-3.85.77-.38.11-.75.22-1.12.36-.02.11-.07.21-.14.3-.15.18-.37.24-.52.21-.03,0-.06,0-.09,0h-.04Z"/>
  <path class="cls-6" d="M38.75,16.49c-.07-.04-.12-.07-.18-.12-.13-.14-.19-.35-.14-.54.03-.11.1-.2.18-.27-.05-.65-.09-1.3-.12-1.95-.05-1.31-.11-2.62-.14-3.94-.04-1.39-.07-2.78-.09-4.17-.01-.91-.05-1.82-.09-2.73,0-.02,0-.04,0-.06,0-.04,0-.09,0-.14.01-.09.03-.17,0-.27-.01-.05-.03-.1-.04-.14,0,0,0-.02,0-.03v-.02s0-.05.01-.07c.02-.01.04-.02.06-.03.09-.05.18-.09.27-.12.09.04.16.12.16.23.04.89.07,1.79.11,2.68.06.92.13,1.84.18,2.73,0,.08,0,.17.01.21,0,.12.02.23.02.31.02.25.03.5.05.75.08,1.4.14,2.81.21,4.21.02.43.04.85.05,1.27.01.38,0,.75.02,1.13v.13c.07.05.13.11.17.18.11.2.09.45-.05.62-.05.06-.1.1-.16.14-.09.05-.18.08-.28.08-.07,0-.14-.02-.21-.05Z"/>
  <path class="cls-6" d="M38.66,16.33c-1.46-2.59-2.92-5.19-4.38-7.79-.85-1.51-1.7-3.01-2.54-4.52-.02-.02-.04-.04-.04-.07,0,0,0,0,0-.02-.04-.07-.07-.14-.11-.21-.04-.07-.04-.14-.01-.21.03,0,.06,0,.09,0s.06,0,.09,0c.08-.01.16-.04.24-.07.01.01.02.03.03.04.04.07.07.14.11.21.02.02.04.05.05.08h0c1.2,2.14,2.4,4.27,3.6,6.39,1.11,1.97,2.22,3.95,3.33,5.92.07.12.02.28-.1.34-.04.02-.08.03-.12.03-.09,0-.18-.05-.22-.13Z"/>
  <path class="cls-6" d="M26.85,5.58c-.07-.12-.02-.27.1-.34.5-.26,1.01-.52,1.51-.79.28-.14.55-.29.83-.43.06-.03.12-.05.18-.08.08-.04.16-.05.24-.06.14-.03.28-.05.42-.08.48-.09.96-.18,1.43-.27.02,0,.04,0,.06,0,0,0,.02,0,.03,0,.03,0,.06,0,.09,0,0,0,.02,0,.03,0,.1.02.18.08.21.18.03.13-.05.28-.18.3l-.57.11c-.25.05-.49.09-.74.14-.26.05-.52.09-.78.15-.04.01-.07.03-.1.04-.34.16-.68.34-1.01.52-.23.12-.46.24-.69.36-.24.12-.48.25-.71.37-.04.02-.08.03-.12.03-.09,0-.18-.05-.22-.13Z"/>
  <path class="cls-6" d="M34.36,22.44c0,.07-.02.13-.05.19-.01.02-.03.04-.04.06,0,0,0,0,0,0-.05.05-.12.08-.2.08-.03,0-.05,0-.07-.01-.02,0-.03,0-.05-.02-.04-.02-.07-.05-.1-.08-.02-.02-.03-.04-.04-.05h0c-.04-.07-.07-.15-.1-.22-.04-.1-.09-.2-.13-.29-.03-.06-.05-.12-.08-.18-.03-.04-.05-.07-.07-.12s-.04-.09-.05-.13l-.2-.49c-.28-.7-.57-1.39-.86-2.09-.33-.82-.66-1.64-1-2.46-.36-.88-.72-1.77-1.09-2.65-1.16-2.75-2.31-5.49-3.47-8.23-.04-.1,0-.22.09-.29.02-.02.04-.03.06-.04.13-.05.27.02.32.15,0,0,0,.01,0,.02,0,0,0,0,0,.02.01.02.02.05.03.07h0c1.2,2.83,2.38,5.66,3.57,8.48.35.84.72,1.68,1.09,2.52.34.79.7,1.59,1.04,2.38.28.64.56,1.29.84,1.93l.2.46s.04.08.05.13c.01.03.02.06.02.09.06.16.12.32.19.48.03.07.06.15.09.23,0,.02.01.05.02.07,0,0,0,.02,0,.02Z"/>
  <path class="cls-6" d="M33.79,22.59c-.58-.34-1.15-.68-1.73-1.02-.07-.04-.15-.08-.21-.13-.1-.07-.17-.18-.25-.28-.13-.17-.25-.34-.38-.5-.22-.3-.45-.59-.67-.89-.54-.72-1.08-1.45-1.63-2.17-.27-.36-.56-.71-.84-1.07-.3-.38-.6-.76-.89-1.14-1.46-1.88-2.94-3.73-4.41-5.6-.16-.2-.32-.41-.49-.61-.05-.07-.09-.16-.11-.25,0-.05-.01-.11-.02-.16,0-.02,0-.05,0-.07.05.03.1.06.15.09.06.04.12.06.18.1.09.07.17.14.26.2.06.04.11.08.18.11.01,0,.03.01.04.02,0,0,0,0,.01.01.12.16.25.31.37.46.36.46.73.92,1.09,1.38.8,1.01,1.6,2.03,2.41,3.04.61.77,1.23,1.54,1.84,2.32.59.75,1.16,1.52,1.74,2.29.28.38.56.75.84,1.12.28.38.55.76.84,1.12h0s0,.02,0,.02l.02.02s.02.02.03.03c.18.11.38.22.56.33.26.15.52.3.78.46.19.11.38.22.57.34.12.07.15.23.08.34-.05.07-.13.11-.21.11-.05,0-.09-.01-.13-.04Z"/>
  <path class="cls-6" d="M.57,50.83c-.02-.07-.02-.13,0-.19-.02-.09-.05-.19-.07-.28-.04-.18-.09-.36-.12-.54-.09-.41-.15-.82-.21-1.23-.16-1.22-.19-2.46-.14-3.7.06-1.62.27-3.23.57-4.81.34-1.74.79-3.46,1.33-5.15.89-2.77,1.99-5.47,3.29-8.07.94-1.88,1.99-3.7,3.14-5.46.94-1.45,1.95-2.84,3.04-4.18,1-1.24,2.08-2.42,3.22-3.53,1.6-1.55,3.36-2.97,5.31-4.04.68-.37,1.38-.71,2.1-.97.03,0,.07,0,.1,0,.06.04.11.07.17.11.06.04.12.06.18.1.04.02.07.05.1.08-.03.04-.07.07-.12.09-.04.01-.07.02-.11.04,0,0-.01,0-.02,0h0c-.33.11-.65.24-.94.38-.63.28-1.24.6-1.83.95h0c-.83.5-1.62,1.06-2.37,1.65-1.05.84-2.05,1.75-2.96,2.69-1.09,1.11-2.1,2.29-3.06,3.52-.19.25-.38.5-.57.75h0c-1.15,1.54-2.21,3.14-3.18,4.79-.21.35-.42.71-.62,1.07h0c-1.22,2.19-2.3,4.46-3.22,6.78-.78,1.98-1.44,4-1.95,6.07h0c-.21.86-.4,1.72-.55,2.6-.16.86-.28,1.73-.37,2.6,0,0,0,.01,0,0v.03c-.12,1.19-.18,2.38-.15,3.54.02.82.09,1.65.21,2.43.08.52.18,1.03.32,1.54.04.04.07.09.09.14.06.17-.03.35-.19.41-.04.01-.07.02-.11.02-.14,0-.29-.1-.32-.25Z"/>
  <path class="cls-6" d="M.67,50.86c0-.14.11-.25.24-.26,1.2-.03,2.39-.08,3.59-.12,1.32-.04,2.63-.09,3.95-.13l2.89-.09s.04,0,.06,0c.14,0,.25.11.26.24s-.11.25-.24.26c-.79.03-1.59.05-2.38.08-2.66.09-5.33.18-7.99.27-.04,0-.08,0-.12,0,0,0,0,0,0,0h0s0,0,0,0c-.13,0-.25-.11-.25-.24Z"/>
  <path class="cls-6" d="M.77,54.6c0-.14.1-.28.25-.3.06,0,.12,0,.18.03.36-.01.73-.04,1.09-.08,1.13-.12,2.26-.3,3.36-.56.85-.2,1.69-.45,2.5-.76,0,0,0,0,0,0,.48-.19.95-.39,1.4-.64,0,0,0,0,0,0,0,0,0,0,0,0,.25-.14.49-.28.72-.44.15-.11.29-.22.39-.32.08-.08.16-.16.24-.25.04-.06.09-.11.11-.15.03-.05.07-.11.09-.17.02-.04.04-.09.04-.11.01-.04.02-.08.02-.09,0-.04.01-.08.02-.12,0-.03,0-.05,0-.05,0-.02,0-.03,0-.05,0,0,0,0,0,0,0,0,0,0,0-.01,0,0,0,0,0,0,0,0,0,0,0,0,0,0,0,0,0,0,0,0,0,0,0,0,0,0,0,0,0,0h0s0-.02,0-.02c0,0,0,0,0,0,0,0,0,0,0,0,0,0,0,0,0,0-.04-.13.03-.27.16-.32.13-.04.27.04.31.17.01.04.02.07.03.11,0,0,0,.01,0,.02.11.66-.43,1.25-.92,1.64-.17.13-.34.25-.52.37-.11.07-.21.13-.32.19-.03.02-.07.04-.11.06-.05.03-.11.06-.16.09-.64.34-1.32.6-2,.83-.91.3-1.84.54-2.78.73-.93.18-1.87.31-2.81.4-.28.03-.55.05-.83.07-.04.03-.09.04-.14.04,0,0,0,0-.01,0-.15,0-.28-.13-.29-.28Z"/>
  <path class="cls-6" d="M12.65,88.52c-.38-.37-.74-.77-1.09-1.17-.88-1.02-1.67-2.11-2.4-3.23-.93-1.42-1.77-2.89-2.55-4.4-.82-1.58-1.55-3.2-2.23-4.84-.66-1.62-1.27-3.26-1.8-4.93-.56-1.74-1.04-3.5-1.42-5.29-.32-1.54-.58-3.1-.7-4.66-.06-.75-.08-1.49-.05-2.24.02-.65.08-1.3.21-1.94.07-.33.15-.65.26-.96.05-.13.19-.2.32-.15.13.05.2.19.15.32-.04.11-.08.22-.1.31-.1.35-.17.7-.22,1.05-.08.55-.12,1.12-.12,1.64-.02,1.07.06,2.14.18,3.21,0,0,0,0,0,0,.23,1.84.6,3.66,1.06,5.43.69,2.67,1.58,5.29,2.62,7.83.99,2.42,2.12,4.79,3.41,7.06.85,1.48,1.77,2.93,2.8,4.28.58.76,1.2,1.5,1.87,2.18.05.05.1.09.15.14.09.1.11.25.02.36-.05.05-.12.08-.19.08-.06,0-.12-.02-.16-.06Z"/>
  <path class="cls-6" d="M12.62,88.36c-.05-.13.01-.27.14-.32,2.73-1.28,5.45-2.57,8.18-3.85.89-.42,1.78-.84,2.67-1.25.01,0,.02-.01.03-.02,0,0,0,0,0,0,0,0,.01,0,.02,0,.02,0,.03-.01.05-.02.12-.06.28.02.32.14.05.13-.01.27-.14.33,0,0-.01,0-.02,0,0,0,0,0,0,0,0,0,0,0,0,0,0,0,0,0,0,0,0,0,0,0,0,0,0,0-.01,0-.02,0,0,0,0,0-.01,0,0,0-.01,0-.02,0-2.29,1.08-4.59,2.16-6.88,3.24-1.33.62-2.66,1.25-3.99,1.88-.03.01-.06.02-.09.02-.1,0-.2-.06-.23-.16Z"/>
  <path class="cls-6" d="M15.56,91.99c-.1-.1-.09-.25,0-.35.51-.55,1.02-1.1,1.52-1.65,1.02-1.1,2.04-2.2,3.05-3.3,1.12-1.22,2.25-2.44,3.38-3.66h.01c.09-.11.26-.1.35,0,.1.1.09.25,0,.35-1.11,1.2-2.21,2.4-3.32,3.6-1.02,1.11-2.04,2.21-3.06,3.31-.53.57-1.05,1.14-1.58,1.71t0,0s-.11.07-.17.07c-.07,0-.14-.03-.18-.07Z"/>
  <path class="cls-6" d="M33.39,104.85c.04.13-.04.27-.18.31-.11.03-.22.05-.33.05h0s-.06-.03-.09-.04c-.05,0-.1,0-.14.02-.02,0-.04,0-.06-.01-.16-.02-.33-.07-.48-.11-.37-.11-.73-.26-1.08-.42-.48-.22-.96-.47-1.42-.73-1.02-.57-1.99-1.2-2.95-1.86-1.41-.97-2.79-2.02-4.12-3.11-1.21-1-2.39-2.03-3.52-3.11-.8-.76-1.57-1.55-2.29-2.39-.38-.43-.73-.87-1.05-1.35,0,0,0,0,0,0-.07-.11-.07-.26.05-.35.1-.08.27-.07.35.04,0,0,0,.01,0,.02,0,0,0,0,0,0,.41.59.85,1.11,1.29,1.61,1.34,1.51,2.84,2.89,4.35,4.19,2.03,1.73,4.14,3.36,6.36,4.79.97.62,1.96,1.22,2.97,1.7.36.17.73.33,1.09.44.16.05.33.1.46.12.08.02.15.03.23.03.04,0,.09,0,.12,0,0,0,.02,0,.03,0h0s.03,0,.05,0c.02,0,.03,0,.05-.01.04-.01.09-.01.13,0,.02,0,.04.01.06.03h0c.05.03.09.08.11.14Z"/>
  <path class="cls-6" d="M73.83,105.19v.02c-.05-.05-.12-.08-.21-.07-.1.01-.18.09-.21.18,0,.03,0,.06,0,.1,0,0,0,.02,0,.03-1.61-.01-3.21-.02-4.82-.03-2.98-.02-5.96-.04-8.94-.05-3.59-.02-7.18-.04-10.77-.07-3.59-.02-7.18-.04-10.78-.06-1.09,0-2.19-.02-3.29-.02-.64,0-1.29-.02-1.94-.02h0s-.06-.03-.09-.04c-.05,0-.1,0-.14.02,0,0-.01,0-.02,0-.02,0-.03-.01-.05-.02-.08-.04-.14-.12-.14-.22,0-.13.11-.25.25-.25.2,0,.39,0,.58,0h0c.67,0,1.34,0,2,.01,1.44.01,2.88.02,4.32.03,3.58.02,7.15.04,10.73.07,3.55.02,7.09.04,10.63.06,2.93.02,5.86.04,8.79.05,1.15,0,2.3.01,3.45.02h.37c.14,0,.25.11.25.25Z"/>
  <path class="cls-6" d="M90.23,94.26c.1.07.14.19.13.31-.03.03-.05.05-.08.09,0,0,0,0,0,0-.05.05-.09.1-.12.15,0,0,0,.01-.01.02-.05.06-.08.12-.09.2-.03.04-.05.07-.08.11-.11.15-.23.3-.35.45-.25.32-.52.63-.8.93-.43.46-.88.9-1.35,1.33-.28.26-.57.51-.86.76-.31.27-.62.53-.95.79-.6.48-1.22.94-1.85,1.38-.72.51-1.46,1-2.21,1.48-1.02.64-2.06,1.23-3.14,1.77-.85.42-1.73.8-2.63,1.08-.35.11-.71.2-1.07.26-.22.04-.45.07-.69.07-.06,0-.12,0-.18,0,0-.02,0-.04,0-.05,0-.06-.04-.11-.07-.14-.05-.05-.12-.08-.21-.07-.1.01-.18.09-.21.18-.03,0-.05-.02-.08-.03-.13-.05-.2-.2-.14-.32,0,0,0-.02.02-.02,0-.02.02-.04.04-.05,0-.01.02-.02.02-.02,0,0,.02-.02.03-.02.02-.02.04-.02.06-.03.05-.02.11-.02.16,0,.03.01.05.02.05.02.06.02.11.03.14.04.08.01.16.02.23.03.13,0,.25,0,.37,0,.21-.02.43-.06.62-.09.44-.1.87-.23,1.29-.38.88-.32,1.73-.71,2.55-1.14h0c.18-.09.36-.19.53-.29,1.25-.67,2.45-1.43,3.62-2.23.69-.49,1.37-1,2.04-1.53.63-.5,1.26-1.02,1.84-1.55.47-.43.93-.87,1.37-1.33.3-.32.6-.64.86-.95.11-.14.22-.27.32-.41.1-.14.2-.28.3-.42,0,0,0-.01.01-.02t0,0s.02-.02.02-.04c0-.04.02-.07.02-.07.01-.03.02-.05.04-.07,0-.01.01-.02.02-.04.09-.16.32-.18.46-.07Z"/>
  <path class="cls-6" d="M89.96,94.73s0-.01-.01-.02c-1.44-2.43-2.88-4.87-4.32-7.3-.29-.49-.58-.99-.88-1.48-.06-.04-.11-.1-.12-.18-.02-.09,0-.18.07-.25.05-.05.11-.08.18-.09.04,0,.07,0,.1.01,0,0,0,0,.01,0,.02,0,.04.02.06.03.02,0,.03.02.05.04.06.05.09.12.09.19,1.1,1.86,2.2,3.71,3.3,5.57.64,1.07,1.27,2.14,1.9,3.21.01.02.02.04.03.06-.05.04-.1.09-.14.15,0,0,0,0,0-.01-.04.05-.09.09-.12.15,0,0,0,.02,0,.02,0,0,0,0-.01.01-.07,0-.14-.05-.17-.11Z"/>
  <path class="cls-6" d="M93.66,90.91s0,0-.02,0c0,0,0,0,0,0-.12-.07-.24-.15-.32-.2-.62-.37-1.25-.71-1.88-1.07-1.01-.58-2.02-1.16-3.03-1.74-1.2-.68-2.4-1.37-3.59-2.05,0,0-.01,0-.02,0,0,0,0,0,0,0-.12-.07-.18-.21-.11-.34.06-.12.22-.18.34-.11,0,0,0,0,0,0,0,0,0,0,0,0,0,0,0,0,0,0,0,0,0,0,0,0,.87.49,1.73.99,2.6,1.48,1.07.61,2.15,1.23,3.23,1.84.66.37,1.32.75,1.97,1.12.28.16.55.32.84.47.09.04.18.1.24.13.15.06.23.23.16.38-.04.07-.11.13-.2.14-.02,0-.03,0-.05,0-.06,0-.12-.02-.17-.06h0Z"/>
  <path class="cls-6" d="M93.82,90.14c-.05-.12,0-.28.12-.33.06-.02.12-.05.17-.08,0,0,.02,0,.02-.01,0,0,0,0,0,0,.11-.07.23-.14.31-.2.22-.17.43-.35.61-.52.53-.5,1.01-1.05,1.45-1.6.61-.75,1.16-1.54,1.7-2.33.64-.93,1.23-1.88,1.79-2.8.78-1.29,1.52-2.59,2.25-3.91.39-.72.78-1.45,1.16-2.19.36-.7.71-1.42,1.04-2.14.32-.71.65-1.41.96-2.11.46-1.05.88-2.11,1.28-3.18.18-.48.37-.96.53-1.45.15-.47.3-.94.42-1.36.12-.41.23-.83.32-1.25.06-.28.1-.56.14-.84-.07-.25.15-.51.4-.49.07,0,.13.03.18.06-.01.07-.02.15-.03.22,0,0,0,0,0,0,0,0,0,0,0,0,0,0,0,0,0,0,0,.01,0,.02,0,.03,0,0,0,0,0,0,0,0,0,0,0-.02,0,0,0,.01,0,.02,0,0,0,0,0,0v.02h0c-.05.32-.12.64-.16.96-.02.15-.01.31-.01.47,0,0,0,0,0,0h0c-.04.3-.09.59-.14.88-.06.26-.13.52-.19.78-.1.32-.21.63-.32.94-.1.29-.2.59-.3.88-.11.3-.22.59-.34.89-.51,1.29-1.07,2.55-1.66,3.81-.34.73-.71,1.46-1.07,2.19-.37.72-.72,1.45-1.1,2.16-.69,1.3-1.41,2.58-2.16,3.85-.46.76-.93,1.51-1.41,2.26-.46.71-.94,1.42-1.44,2.11-.45.63-.93,1.24-1.41,1.84-.33.41-.67.81-1.04,1.2-.27.28-.54.55-.84.8-.23.2-.48.38-.75.52-.05.02-.09.05-.14.07-.03.02-.07.02-.1.02-.09,0-.19-.05-.23-.14Z"/>
  <path class="cls-6" d="M93.74,90.52c-.66-.25.89-1.85,1.05-.96.17.34-.3.58-.52.77-.14.09-.33.32-.53.19Z"/>
  <path class="cls-6" d="M93.82,90.7c-.72-.18.3-1.02.56-1.21.16-.32.66-.4.59.06-.19.35-.41.78-.76.98-.09.13-.23.25-.39.16Z"/>
  <path class="cls-6" d="M108.25,65.34c-.14-.02-.22-.16-.21-.29.04-.3.08-.61.11-.92h0c.19-1.82.28-3.66.33-5.5.06-2.33.05-4.66-.01-6.96-.05-1.54-.1-3.08-.19-4.61-.05-.88-.11-1.75-.18-2.63-.06-.66-.12-1.32-.18-1.98-.07-.7-.14-1.41-.22-2.11-.07-.63-.16-1.27-.25-1.9-.05-.36-.11-.72-.16-1.09l-.05-.27c0-.05-.02-.11-.02-.16-.02-.09-.03-.18-.05-.27-.04-.23-.08-.46-.12-.69-.12-.59-.25-1.18-.42-1.76-.07-.24-.16-.48-.26-.7-.05-.1-.09-.2-.15-.29-.02-.03-.04-.06-.05-.07-.01-.02-.02-.03-.04-.04,0,0-.01-.01-.02-.02t0,0s-.02.02-.02.03c-.04.06-.08.13-.12.2h0s-.01.02-.02.03c0,0,0,.01,0,.02,0,.03-.01.06-.03.09-.07.14-.23.22-.38.17-.15-.05-.25-.2-.22-.36,0-.05.03-.1.06-.14l.02-.04c.07-.18.17-.36.31-.48.05,0,.11-.02.16-.02.12-.02.24-.06.36-.09.02,0,.05,0,.07-.01.07.03.14.07.2.11.16.11.26.3.35.46.13.25.23.52.32.79.12.36.21.72.3,1.09.15.63.28,1.27.38,1.92h0c.04.2.06.39.09.58.09.62.18,1.24.25,1.87.08.7.16,1.4.23,2.1.07.71.13,1.42.18,2.13.05.75.1,1.5.14,2.25.09,1.51.18,3.02.22,4.53v.04c.07,2.44.11,4.88.06,7.32-.03,1.79-.1,3.57-.24,5.35,0,.02,0,.03-.01.05-.05.19-.07.38-.09.57h0s0,0,0,0c0,0,0,0,0,.01,0,0,0,.01,0,.01,0,0,0,0,0,0,0,0,0,0,0,.01h0c-.05.32-.12.64-.16.96-.02.16-.01.33,0,.5,0,.05-.01.1-.02.14-.05.04-.11.07-.17.07-.01,0-.03,0-.04,0Z"/>
  <path class="cls-6" d="M93.02,35.01c-.05-.21.12-.43.34-.42h.02s.07,0,.11.01c0,0,.01,0,.02,0,.04,0,.07-.01.11-.02.18-.03.37-.06.55-.09.09-.02.18-.03.27-.04,0,0,0,0,0,0,.03,0,.07-.01.1-.02.04,0,.08-.01.12-.02.19-.03.37-.06.52-.09.38-.06.76-.12,1.1-.18.91-.15,1.81-.33,2.72-.48,1.09-.18,2.18-.36,3.27-.53.67-.11,1.34-.21,1.98-.3.61-.1,1.21-.2,1.82-.3.14-.02.27.05.3.18.03.12-.05.28-.19.3-.23.04-.45.08-.68.11-.42.07-.84.14-1.26.22-1.07.21-2.15.4-3.22.59-.81.14-1.62.29-2.44.42-.72.12-1.44.23-2.12.34-.56.09-1.12.19-1.68.29-.07.01-.15.03-.22.04,0,0,0,0,0,0-.17.03-.34.06-.51.09-.12.02-.25.04-.37.07-.03,0-.06,0-.09.01-.03.02-.06.03-.1.05,0,0,0,0,0,0,0,0-.02,0-.02,0-.04.02-.08.02-.12.02-.15,0-.3-.11-.33-.26Z"/>
  <path class="cls-6" d="M93.22,34.87c-.09-.1-.09-.27.01-.36,1.08-.91,2.15-1.83,3.23-2.74,1.2-1.02,2.4-2.03,3.59-3.05.47-.41.95-.82,1.43-1.23.18-.16.36-.3.54-.46.04-.03.07-.07.11-.1.02-.02.04-.04.06-.06.07-.05.16-.07.24-.05,0,.01,0,.02,0,.03.03.16.07.32.1.48-.01,0-.02.01-.03.02-.06.05-.13.09-.18.14-.39.32-.77.64-1.15.96-.46.38-.91.77-1.37,1.15-1.29,1.1-2.58,2.2-3.87,3.29-.78.66-1.56,1.33-2.34,1.99-.05.04-.11.07-.18.07s-.13-.02-.18-.08Z"/>
  <path class="cls-6" d="M101.95,26.99c-.23-.51-.5-1.01-.77-1.46-.58-.98-1.24-1.9-1.94-2.78-1.23-1.54-2.59-2.98-3.99-4.34-1-.96-2.04-1.88-3.11-2.78-1.08-.91-2.18-1.78-3.29-2.6-1.18-.86-2.38-1.7-3.61-2.49-.58-.38-1.17-.73-1.76-1.09-.54-.32-1.09-.64-1.64-.94h0c-1.67-.91-3.38-1.75-5.15-2.44h0c-1.04-.4-2.09-.74-3.16-1-.49-.12-.99-.22-1.45-.28-.25-.03-.49-.05-.74-.05h-.01s0,0,0,0c-.03,0-.05,0-.08,0,0,0,0,0,0,0,0,0,.01,0,.02,0,0,0-.01,0-.02,0-.03,0-.07.01-.1.01-.2,0-.35-.19-.34-.38,0-.2.18-.36.38-.34.03,0,.06,0,.08.02.03,0,.05.01.05,0,.01,0,.02,0,.03,0,.5.04,1,.1,1.49.19.6.11,1.19.24,1.77.41.88.26,1.74.58,2.6.92,1.68.68,3.31,1.5,4.9,2.39,1.48.83,2.91,1.72,4.32,2.66,1.5,1.01,2.96,2.09,4.39,3.21,1.36,1.08,2.69,2.21,3.96,3.4,1.31,1.23,2.57,2.5,3.74,3.86.94,1.09,1.84,2.22,2.62,3.43.46.71.89,1.45,1.23,2.22,0,.02.01.04.02.06,0,0,0,0,0,.01.02.11-.03.21-.13.26-.04.02-.07.03-.11.03-.09,0-.19-.05-.23-.14Z"/>
  <path class="cls-6" d="M63.59,15.06c-.05-.09-.06-.19-.02-.28,0,0,0,0,0,0,.02-.05.05-.09.08-.14.04-.06.07-.12.11-.17.11-.17.22-.34.34-.51.21-.31.42-.62.63-.94.62-.93,1.25-1.85,1.88-2.77.52-.77,1.05-1.54,1.57-2.3.29-.42.59-.84.88-1.26.43-.6.84-1.21,1.25-1.83.14-.21.29-.42.43-.63.08-.11.25-.13.35-.05.11.08.12.23.05.35,0,.01-.02.02-.02.04,0,0,0,0,0,.01,0,0,0,0,0,0,0,0,0,0,0,0-.53.79-1.06,1.57-1.57,2.37,0,0,0,0,0,0-1.08,1.68-2.19,3.34-3.3,5-.41.61-.82,1.22-1.22,1.83l-.53.77c-.09.12-.17.25-.25.38-.04.06-.08.13-.13.18-.06.06-.15.09-.23.09-.11,0-.21-.05-.27-.15Z"/>
  <path class="cls-6" d="M63.74,15.25c-.14-.02-.23-.14-.22-.28,0-.02,0-.04,0-.05h0s0-.02,0-.03l.11-1.52c.03-.41.05-.82.09-1.23.02-.36.04-.73.05-1.1.07-1.35.13-2.69.21-4.04.05-.93.11-1.87.18-2.8.03-.4.06-.8.09-1.2.02-.2.04-.39.05-.58,0-.05.01-.11.02-.16,0-.04,0-.06.01-.09,0-.04.02-.07.04-.11.02-.04.05-.07.09-.11h0s.08-.05.12-.06c.08.05.16.1.23.16l-.04-.02c.07.05.14.11.21.16,0,.03,0,.06,0,.1,0,.03,0,.06,0,.1,0,.09-.01.18-.02.28h0c-.03.71-.08,1.43-.13,2.15-.03.39-.06.78-.09,1.16-.05.64-.1,1.27-.15,1.91-.11,1.23-.21,2.45-.32,3.68-.11,1.15-.17,2.31-.25,3.46,0,.13-.13.22-.25.22h-.02Z"/>
  <path class="cls-1" d="M19.79,64.46s0-.03,0-.05c-.12-.46-.21-.93-.28-1.4-.12-.8-.21-1.6-.27-2.41-.12-1.69-.08-3.39.07-5.07.14-1.68.4-3.36.78-5,.1-.43.21-.86.33-1.29.11-.41.24-.8.37-1.2.31-.97.67-1.93,1.11-2.86.42-.88.88-1.73,1.44-2.53.38-.54.82-1.05,1.31-1.5.14-.13.29-.25.44-.36,0,0,0,0,.01-.01.02-.01.04-.03.06-.04,0,0,0,0,0,0,.11-.08.26-.08.35.03.09.1.08.27-.03.35h0s0,0-.01.01c0,0,0,0-.02.01,0,0-.02.01-.03.02-.19.14-.38.3-.53.44-.25.24-.49.5-.71.77-.33.41-.62.83-.88,1.25-.36.59-.68,1.2-.96,1.82-.45,1.01-.84,2.05-1.15,3.08-.46,1.55-.81,3.14-1.05,4.7-.12.8-.22,1.61-.29,2.42-.07.81-.1,1.62-.12,2.39-.02,1.29.03,2.59.17,3.87.07.57.16,1.13.26,1.7.03.18.07.36.1.54.01.05.02.1.03.15,0,.01.01.02.02.04.07.15,0,.33-.16.38-.03,0-.06.01-.08.01-.14,0-.27-.11-.28-.26Z"/>
  <path class="cls-1" d="M39.94,87.71s-.02,0-.02,0c-.14,0-.28-.01-.41-.03,0,0-.01,0-.02,0,0,0,0,0,0,0,0,0,0,0,0,0-.09,0-.18-.03-.28-.04-.18-.02-.35-.05-.52-.08-.4-.07-.8-.16-1.19-.26-.51-.13-1.02-.29-1.52-.47-.63-.22-1.25-.47-1.86-.76-.64-.3-1.27-.63-1.88-.99-.52-.31-1.02-.64-1.51-.99-1.04-.73-2.02-1.53-2.95-2.39-.38-.36-.74-.73-1.11-1.11-.33-.34-.65-.69-.97-1.05-.6-.68-1.16-1.38-1.69-2.11-.97-1.34-1.79-2.78-2.49-4.27-.34-.73-.64-1.47-.9-2.23-.31-.9-.57-1.82-.75-2.76-.16-.88-.28-1.77-.32-2.67-.03-.72-.01-1.44.06-2.16.03-.26.07-.52.11-.78.02-.13.15-.23.29-.21.13.02.23.15.21.29,0,0,0,0,0,0-.05.32-.1.63-.13.95,0,0,0,0,0,0-.06.61-.07,1.23-.04,1.82.03.68.1,1.35.22,2.01.16.9.4,1.79.66,2.63.32.99.72,1.95,1.14,2.86.47,1,1.03,1.96,1.6,2.86.69,1.06,1.44,2.09,2.23,3.02.34.4.7.8,1.06,1.18.42.44.86.86,1.3,1.26.84.77,1.73,1.49,2.66,2.15.9.63,1.85,1.2,2.79,1.69.77.41,1.56.77,2.36,1.07.76.28,1.54.5,2.28.68.25.05.49.11.74.15.09.02.19.04.29.05.05,0,.11.01.16.02.14.03.29.04.42.07,0,0,.01,0,.02,0,0,0,0,0,0,0,0,0,0,0,0,0,.04,0,.09,0,.13.02.13.04.21.16.21.29,0,.15-.12.27-.27.29-.01,0-.03,0-.04,0-.03,0-.06,0-.08-.01Z"/>
  <path class="cls-1" d="M21.27,71.74c-1.59-3.19-2.02-6.78-1.96-10.3-.02-.32,0-1.02.49-.8.3.34.14,1.12.19,1.56.04,1.26.1,2.57.06,3.81.21,1.48.64,2.89,1.15,4.29.14.44.31.81.52,1.2.07.12.02.27-.1.34-.12.06-.28.02-.34-.1Z"/>
  <path class="cls-1" d="M48.28,88.1c-1.82,0-3.63-.05-5.45-.16-.72-.05-1.44-.1-2.15-.18-.82-.08-1.64-.19-2.45-.34-.46-.09-.91-.19-1.36-.34-.13-.05-.19-.21-.14-.33.05-.13.2-.18.33-.14h.04c.44.16.89.25,1.31.33.8.15,1.62.25,2.43.34.71.07,1.43.12,2.14.17.24.02.48.03.68.04,1.84.09,3.68.12,5.52.12,1.91,0,3.82-.06,5.73-.15,1.08-.05,2.17-.11,3.21-.2.52-.05,1.03-.09,1.54-.14.49-.05.97-.1,1.45-.15.52-.05,1.05-.11,1.57-.18.63-.08,1.27-.18,1.89-.28.75-.12,1.5-.26,2.23-.42.62-.14,1.24-.3,1.8-.5.17-.06.35-.14.51-.22,0,0,0,0,0,0,.09-.05.17-.1.24-.14,0,0,.02-.01.03-.02,0,0,0,0,0,0,.04-.03.07-.06.11-.09.01-.01.02-.02.04-.04,0,0,0-.01.02-.02,0,0,0-.02.01-.02,0,0,0,0,0,0,0,0,0,0,0,0,0,0,0-.01,0-.02,0,0-.01-.02-.02-.03,0,0-.02-.01-.02-.02-.05-.03-.1-.06-.15-.09-.04,0-.08-.01-.12-.03-.04-.02-.08-.03-.12-.05-.15-.09-.22-.28-.15-.44.07-.18.28-.26.46-.2.04.02.08.04.12.06.05.03.09.07.12.11.07.04.13.08.19.14.05.05.1.1.14.16.13.16.18.36.13.56s-.21.37-.38.49c-.19.14-.4.24-.62.33-.59.25-1.22.42-1.84.57-1.31.3-2.64.51-3.98.68-1.02.13-2.04.25-3.07.34-.15.01-.3.03-.44.04-.51.04-1.03.08-1.54.11-.51.03-1.02.07-1.52.11-.96.06-1.92.11-2.88.15-1.71.07-3.41.11-5.12.11-.16,0-.31,0-.47,0Z"/>
  <path class="cls-1" d="M67,86.24c-.03-.13.05-.27.18-.3.2-.05.4-.11.57-.16.55-.18,1.08-.41,1.59-.65,1.04-.5,2.04-1.09,2.97-1.71,1.29-.85,2.52-1.78,3.7-2.77.17-.14.34-.29.48-.41,1.09-.95,2.13-1.96,3.08-3.03.5-.57.98-1.17,1.38-1.77.21-.31.4-.64.55-.94.09-.19.17-.38.23-.54.04-.12.07-.24.09-.32.02-.08.03-.16.03-.21,0-.02,0-.03,0-.05,0,0,0-.01,0-.02,0,0,0,0,0,0,0,0,0,0,0-.01,0-.03-.01-.06-.01-.1-.02-.14.09-.28.23-.3.14-.02.29.09.3.23,0,.05,0,.1,0,.15,0,0,0,0,0,0,0,0,0,0,0,0,0,0,0,0,0,0,0,0,0,0,0,0,0,.01,0,.03,0,.04,0,0,0,0,0,0,0,0,0,0,0,0,0,0,0,0,0,0,0,0,0,0,0,0,0,0,0,0,0,0,0,0,0,0,0,0,0,0,0,0,0,0,0,0,0,0,0,0-.02.39-.15.76-.3,1.12-.31.71-.75,1.35-1.22,1.96-.48.63-1.01,1.23-1.56,1.82-.58.61-1.19,1.2-1.81,1.77-1.19,1.09-2.45,2.1-3.76,3.03-1.38.98-2.82,1.89-4.35,2.61-.66.31-1.35.59-2.06.75-.02,0-.04,0-.06,0-.11,0-.22-.07-.25-.19Z"/>
  <path class="cls-1" d="M81.44,73.96c-.09-.1-.08-.27.02-.36.1-.09.26-.08.35.02h0s0,0,0,.01c0,0,0,0,0,0,0,0,.02.02.02.02.02.01.04.02.05.04,0,0,0,0,0,0,0,0,.01,0,.02.01,0,0,.02,0,.03,0,0,0,0,0,0,0,0,0,0,0,0,0,0,0,0,0,0,0,0,0,.02,0,.03,0,0,0,0,0,0,0,0,0,0,0,0,0,0,0,0,0,0,0,0,0,.02,0,.03,0,0,0,0,0,0,0,0,0,0,0,0,0,0,0,0,0,0,0,0,0,0,0,0,0,0,0,0,0,0,0,.01,0,.02-.01.03-.01,0,0,.01,0,.02-.01.03-.02.05-.03.06-.04,0,0,0,0,.01-.01,0,0,0,0,0,0,.02-.02.04-.03.06-.05.04-.04.07-.08.11-.12,0,0,0,0,0,0,0,0,0,0,0,0h0c.07-.1.13-.2.17-.27.11-.2.2-.4.28-.58.2-.49.35-1,.49-1.52,0,0,0,0,0,0,.13-.52.25-1.04.35-1.57.13-.69.25-1.38.34-2.07,0,0,0,0,0,0,0,0,0,0,0,0,0,0,0-.02,0-.02,0,0,0,0,0,0,0-.02,0-.05,0-.06.03-.22.06-.44.08-.65,0,0,0-.02,0-.01,0,0,0-.02,0-.02.22-1.81.36-3.64.4-5.47.01-.54.02-1.08.01-1.59,0-.7-.05-1.4-.09-2.11-.02-.29-.05-.58-.08-.87-.02-.21-.04-.42-.06-.63,0,0,0-.02-.01-.03-.05-.05-.08-.12-.08-.2v-.02s0-.06,0-.09c.03-.17.2-.3.37-.29.15,0,.28.11.32.25,0,.01,0,.03.01.04.01.08,0,.16-.03.23,0,.01,0,.02,0,.03,0,.08.02.17.03.25.02.17.04.34.05.51.03.36.04.71.06,1.07.03.96.04,1.93.02,2.89-.02,1.84-.14,3.67-.34,5.5-.11.95-.24,1.9-.41,2.84-.14.81-.32,1.62-.54,2.41-.09.33-.19.66-.31.99-.12.34-.26.68-.44,1-.2.34-.47.73-.89.77-.02,0-.04,0-.06,0-.21,0-.4-.11-.54-.26Z"/>
  <path class="cls-1" d="M84.35,56.41s0-.02,0-.03c0-.01,0-.02,0-.04-.02-1.4-.03-2.81-.04-4.21-.01-1.3-.02-2.61-.04-3.92v-.06s-.02-.05-.02-.09c0-.03,0-.05,0-.08-.01-.14.08-.28.24-.3.17-.02.32.14.3.31,0,.05,0,.1-.02.15,0,.07,0,.15,0,.23,0,.31,0,.62.01.93,0,.73.01,1.45.02,2.18.01,1.48.03,2.97.04,4.45,0,.16,0,.32,0,.49,0,.14-.12.25-.26.25-.14,0-.24-.12-.24-.26Z"/>
  <path class="cls-1" d="M73.26,34.73s.02.1,0,.15c-.03.15-.16.24-.3.24-.06,0-.12-.02-.17-.05-.16-.11-.17-.33-.05-.46,0-.02,0-.03-.02-.04-.01-.02-.03-.05-.04-.07h0c-.04-.05-.08-.1-.12-.14-.09-.08-.17-.16-.25-.21-.19-.14-.39-.27-.59-.39-.56-.33-1.15-.61-1.75-.87,0,0,0,0,0,0,0,0,0,0,0,0-.32-.13-.63-.25-.96-.38-.43-.16-.87-.32-1.31-.46-.64-.21-1.28-.4-1.89-.57-1.23-.34-2.49-.61-3.71-.78-.55-.08-1.1-.14-1.61-.15h-.12s-.04.02-.06.02c0-.05.01-.1.02-.15,0-.02,0-.04,0-.05,0-.01,0-.03,0-.04,0-.13-.1-.27-.23-.27h-.14c.05-.06.11-.1.19-.11.07-.01.14,0,.2.03.1,0,.2,0,.29,0,.35,0,.69.03,1.04.07.91.09,1.8.29,2.69.49.42.1.84.2,1.25.32.41.11.82.23,1.23.36,1.12.35,2.22.75,3.27,1.2.72.31,1.43.64,2.09,1.06.29.18.57.38.8.64.16.18.3.4.27.64,0,0,0,0,0,.01Z"/>
  <path class="cls-1" d="M73.56,35.15c-.2-.01-.4-.04-.59-.1-.13-.04-.27-.11-.34-.22-.02-.02-.03-.04-.04-.07,0-.02-.01-.04-.01-.06,0-.02,0-.04,0-.06,0-.12.11-.23.23-.23.1,0,.2.05.24.14.01,0,.03.01.04.02.02,0,.04.01.06.02,0,0,0,0,0,0,0,0,.01,0,.02,0,0,0,0,0,0,0,.08.02.17.04.26.05.15.02.3.03.45.03.17,0,.34,0,.5-.03,0,0,0,0,0,0,.1-.01.21-.03.3-.05,0,0,0,0,0,0h0s.06-.02.08-.03c0-.06.02-.12.06-.16.09-.11.25-.12.35-.03.02.01.03.02.04.04.01.02.02.03.03.05.03.05.05.1.05.15.01.12-.05.22-.13.29-.12.09-.27.14-.41.18-.24.06-.5.09-.75.09-.04,0-.08,0-.12,0-.12,0-.24,0-.36-.01Z"/>
  <path class="cls-1" d="M74.81,34.74c-.72-.04-1.43.01-2.11-.27-.26-.06-.58-.16-.67-.45-.07-.3.38-.42.5-.14.77.35,1.58.33,2.41.36.46,0,.3.62-.12.5Z"/>
  <path class="cls-1" d="M82.24,43.79c-.04-.18.1-.35.28-.36.03,0,.06-.01.1,0,.05,0,.09-.02.1-.03.27-.07.54-.16.77-.26.29-.12.58-.26.83-.39.25-.15.5-.3.73-.48.24-.18.46-.38.67-.59,0,0,0,0,0,0,0,0,0,0,.01-.01,0,0,.01-.01.02-.02,0,0,0,0,0,0,.19-.2.38-.41.55-.63.17-.23.33-.47.46-.69.13-.23.24-.46.33-.68.11-.27.2-.55.27-.83.06-.24.11-.49.15-.73.03-.28.05-.57.05-.85,0-.29-.02-.57-.05-.85-.03-.27-.09-.54-.16-.8,0,0,0,0,0,0,0,0,0,0,0,0,0,0,0-.02,0-.03,0,0,0,0,0,0-.08-.29-.18-.58-.29-.84-.11-.25-.22-.49-.36-.72-.13-.23-.27-.45-.43-.66,0,0,0,0,0,0-.19-.24-.39-.48-.61-.7-.19-.19-.4-.37-.61-.53-.23-.17-.47-.33-.71-.48-.27-.15-.54-.28-.82-.4-.26-.1-.53-.19-.77-.25-.27-.07-.55-.12-.83-.16-.27-.03-.55-.05-.83-.05-.28,0-.55.03-.82.06,0,0,0,0,0,0,0,0,0,0,0,0,0,0-.02,0-.02,0-.25.04-.49.08-.72.14,0,0,0,0,0,0h0s-.02,0-.03,0c0,0,0,0,0,0-.28.08-.56.17-.8.27-.26.11-.51.23-.74.36-.25.15-.49.31-.69.46-.23.18-.46.37-.66.58-.21.21-.4.43-.56.64-.18.23-.33.47-.47.72-.12.21-.23.42-.32.64,0,0,0,0,0,.01-.05.12-.21.17-.33.12-.13-.06-.17-.21-.12-.34,0,0,0-.01,0-.02,0,0,0-.01,0-.02.55-1.26,1.49-2.34,2.65-3.08.98-.62,2.12-.98,3.28-1.05,1.04-.07,2.09.12,3.05.51,2.07.84,3.66,2.74,4.13,4.93.11.48.16.98.16,1.47s-.06.97-.16,1.45c-.2.93-.6,1.83-1.14,2.61-.25.35-.52.68-.82.97-.28.27-.58.52-.9.74-.6.41-1.25.72-1.95.92-.12.03-.23.06-.35.09-.04.02-.08.03-.12.04-.03,0-.05.01-.08.01-.14,0-.27-.11-.3-.25Z"/>
  <path class="cls-1" d="M84.41,50.02c-.27-.06-.33-.39-.18-.59.05-.74-.16-1.43-.73-1.93-1.25-.93-1.55-2.37-1.27-3.85.08-.21.4-.21.47,0,.04.67-.2,1.43.06,2.07.41,1.15,1.85,1.71,1.98,3,0,0,0,0,0,0,0,0,0,0-.02-.02,0,.01.02.02.02.03,0,0,0-.01,0-.02.09.16.08.36.06.55h0s0-.03,0-.04c-.01.12.06.23.07.36,0,.24-.19.5-.45.44Z"/>
  <path class="cls-1" d="M84.36,49.01c-.12-.13-.06-.27-.07-.42,0-.05,0-.13,0-.18-.03-.02-.05-.04-.07-.06,0,0,0,0,0,.01,0,0,.01,0,.02.01-.25-.28-.25-.76-.59-1.01-.35-.54-1.06-.84-1.28-1.44-.35-.23-.7-.43-1.02-.68-.31-.36.22-.62.45-.27,1.31.8,3.03,1.89,2.98,3.62.09.27-.14.67-.43.41Z"/>
  <path class="cls-3" d="M60.07,30.04c.14,0,.24.14.23.27,0,.01,0,.03,0,.04,0,.02,0,.04,0,.05,0,.05-.01.1-.02.15-.21,1.98-.42,3.96-.63,5.94-.14,1.3-.28,2.61-.41,3.92-.12,1.27-.25,2.54-.38,3.8-.13,1.29-.28,2.57-.39,3.86-.04.48-.09.96-.14,1.44-.07.61-.14,1.21-.2,1.82-.07.68-.15,1.35-.21,2.03-.04.37-.05.74-.09,1.11-.04.46-.1.92-.14,1.38-.04.4-.07.8-.12,1.2-.06.57-.12,1.13-.21,1.68-.02.14-.05.29-.07.4-.03.18-.05.36-.08.54l-.02.11s0,.03,0,.05c0,.06-.02.12-.05.17-.03.1-.11.17-.2.18-.04.04-.09.07-.15.07h-.21c-.12-.05-.25-.11-.38-.16-.36-.13-.73-.22-1.09-.34-.2-.06-.39-.12-.59-.16-.2-.04-.39-.07-.59-.1-.37-.05-.74-.09-1.12-.11-.71-.04-1.41-.05-2.12.01-.82.07-1.64.25-2.43.52-.16.05-.32.12-.49.16-.09.02-.18.08-.27.12-.11.05-.23.11-.34.17h-.07s-.03,0-.05,0h-.12s-.07,0-.1,0h-.02s-.06.02-.09.02h0s-.09-.01-.13-.03c-.02,0-.04-.02-.06-.04-.11-.1-.12-.28-.01-.38l-.69-3.67c-.53-2.8-1.06-5.61-1.59-8.41-.54-2.87-1.08-5.73-1.62-8.6-.38-2-.75-4-1.13-6-.16-.86-.33-1.72-.49-2.58-.09-.02-.16-.08-.2-.16-.01-.02-.02-.05-.02-.08-.01-.13.08-.25.21-.28.02,0,.03,0,.05,0h0s.07-.04.11-.05c.08-.02.16,0,.21.06,1.12,0,2.23-.02,3.35-.02,2.14-.01,4.29-.03,6.43-.04,2.11-.01,4.22-.03,6.33-.04.82,0,1.64-.02,2.46-.02h.14Z"/>
  <path d="M59.37,63.12c.02.23.01.48-.05.71-.04.18-.11.34-.18.51-.36.78-1.06,1.34-1.79,1.74-1.39.76-2.96,1.13-4.53,1.21-.2.01-.4.02-.6.02-.55,0-1.1-.04-1.64-.1-.68-.07-1.36-.2-2.03-.39-.36-.1-.72-.24-1.07-.4-.3-.13-.6-.28-.88-.45-.68-.41-1.32-.97-1.62-1.72-.2-.5-.21-1.05-.04-1.57.16-.48.48-.88.84-1.23.26-.24.55-.45.85-.64.01-.04.03-.08.05-.11.04-.06.1-.11.15-.13,0,0,.01,0,.02-.01h0s0,0,0,0h0s0,0,.02-.01c.07-.06.15-.1.23-.14l.07-.04c.11-.06.22-.11.34-.17.09-.04.17-.09.27-.12.16-.04.32-.11.49-.16.78-.27,1.6-.45,2.43-.52.71-.06,1.41-.05,2.12-.01.38.02.75.06,1.12.11.2.03.4.06.59.1.2.04.39.1.59.16.36.11.73.2,1.09.34.12.05.25.1.38.16.14.07.27.13.41.2.27.14.54.28.8.45.38.25.71.56,1.01.91.04.05.08.1.11.14.25.34.41.75.45,1.17Z"/>
  <path d="M29.92,54.63c-2.88-2.26.03-8.9,3.09-4.94,1.53,2.06-.2,6.79-3.09,4.94ZM31.13,53.31c.98-.28,1.02-3.27-.12-3.21-.88.65-.91,2.71.12,3.21Z"/>
  <path d="M72.19,55.11c-.27-.09-.53-.24-.71-.46,0,0,0,0,0,0,.05.08.13.14.2.2-1.89-1.45-1.79-5.21.51-6.2,1.04-.4,2.12.23,2.61,1.16,1.23,1.93.23,6.06-2.6,5.32ZM72.85,53.37s.07-.02.09-.03h0s.02-.01.02-.02c0,0,0,0,0,0,0,0-.01,0-.02,0,.76-.66.82-2.57-.14-3.07-.91.51-.93,2.65.03,3.11Z"/>
  <path d="M72.55,53.92c-.04-.09-.05-.18-.06-.28,0-.06-.01-.11-.02-.17-.11,0-.21-.07-.28-.15-.94-.12-.52-3.23.4-3.08.01-.35.46-.68.65-.26.11.03.19.13.21.24,0,.01,0,.03,0,.04.81.03.32,1.61.36,2.14.11.2.03.55-.21.6-.03.03-.06.06-.09.09-.03.03-.07.05-.1.06-.07.1-.15.19-.26.24,0,.32-.28.96-.61.52Z"/>
  <path d="M31.02,53.65c-.19-.03-.26-.21-.35-.37-1.21.43-.68-3.78.24-3.43.27-.16.56.06.58.35.05.03.09.07.12.12.03.04.05.07.08.11.08-.11.23-.17.36-.14.52.2.13.91.11,1.32-.2.54-.06,1.44-.71,1.65-.06.18-.21.43-.43.38Z"/>
  <path d="M70.23,67.56c-1.58-1.28.65-3.5,1.92-1.93.99,1.22-.7,2.93-1.92,1.93ZM71.06,67.27c1.06,0,1.08-1.54.02-1.58-1.04.03-1.05,1.54-.02,1.58Z"/>
  <path d="M67.38,70.86c-1.17-.82-.24-2.76,1.13-2.37,2,.62.62,3.54-1.13,2.37ZM68.16,70.62c.63.04,1.09-.78.7-1.29-.48-.71-1.61-.29-1.52.54h0c.01.15.07.3.16.42,0,0-.01-.02-.02-.02,0,0,.02.03,0,.01.15.21.41.34.67.34Z"/>
  <path d="M71.51,73.76c-1.49-.38-1.11-2.75.39-2.62,1.99.08,1.49,3.17-.42,2.6,0,0,.03.01.03.01ZM71.84,73.31c1.11,0,1.15-1.59.07-1.66-.45.07-.79.24-.86.71,0-.01,0-.02,0-.04-.1.49.3.98.8.98,0,0-.02,0-.02,0Z"/>
  <path d="M64.84,74.91c-1.35-.95-.02-3.05,1.41-2.27,1.61.91.1,3.31-1.41,2.27ZM65.59,74.66c1.41-.09.89-2.14-.4-1.55,0,0,0,0,.01,0,0,0,0,0,0,0-.04.02-.07.05-.11.07,0,0,0,0,.01-.01,0,0,0,0,0,0,0,0,0,0,.01,0,0,0,0,0,0,0-.03.02-.08.06-.09.07-.03.03-.07.07-.08.08-.44.49-.06,1.37.62,1.37Z"/>
  <path d="M62.4,70.44c-1.09-.91.01-2.76,1.34-2.25,1.95.8.3,3.58-1.34,2.25ZM63.29,70.28c.2,0,.43-.08.57-.21.7-.66-.08-1.78-.93-1.36-.77.38-.5,1.58.36,1.58Z"/>
  <path d="M44.96,73.62c-1.14-.84-.17-2.76,1.19-2.33,2,.67.53,3.55-1.19,2.33ZM45.78,73.41c.17,0,.37-.06.49-.15,1.05-.86-.46-2.2-1.2-1.11,0,0,.01-.02.01-.02,0,.02-.06.09-.05.1-.08.16-.09.38-.06.54,0,.04.03.08.03.11.01.03.02.05.03.08,0,0,0,.01.01.02,0,0,0,0,0,0,0,0,0,0,0,0,.09.17.23.29.39.37,0,0,0,0,0,0,0,0,0,0,0,0,.08.04.16.06.25.07,0,0,0,0,0,0,0,0,0,0,0,0,.04,0,.07,0,.11,0Z"/>
  <path d="M41.21,71.26c-1.41-.11-1.61-2.24-.24-2.6,2.05-.5,2.34,2.73.24,2.6ZM41.34,70.77c.76.03,1.14-.99.54-1.47-.73-.61-1.71.28-1.26,1.05,0,0,0-.02-.01-.03.13.24.35.4.62.44,0,0,0,0,0,0,0,0,0,0,0,0,.04,0,.07,0,.11,0Z"/>
  <path d="M34.96,67.96c-1.15-.87-.11-2.8,1.26-2.3,1.92.74.42,3.53-1.26,2.3ZM35.78,67.75c.64.04,1.09-.77.69-1.31-.39-.58-1.34-.39-1.48.26,0,0,0,0,0,0,0,0,0,0,0,0-.07.25-.02.52.14.73,0,0,0,0,0,0,0,0,0,0,0-.01.15.22.41.35.67.35Z"/>
  <path d="M34.24,74.28c-1.58-.19-1.49-2.58.1-2.65,1.9-.07,1.79,2.86-.1,2.65ZM34.4,73.79c.63.03,1.06-.71.74-1.24-.32-.59-1.22-.54-1.48.05-.09.18-.1.38-.05.57,0,0,0,0,0,0,.03.11.08.2.14.29,0,0-.01-.02-.02-.02.03.03.06.08.08.1.02.03.07.07.08.07.15.12.33.18.51.19Z"/>
  <path d="M39.44,75.47c-1.8-.19-1.42-2.95.37-2.64,1.64.3,1.3,2.8-.37,2.64ZM39.53,74.98c.81.05,1.17-1.03.55-1.48,0,0,0,0,.01,0-.37-.31-.97-.22-1.22.19-.21.31-.17.68.03.96,0,0,0,0,0,0,0,0,0,0-.01-.02.05.06.1.12.16.17,0,0,0,0,0,0,0,0,0,0,0,0,.12.1.33.19.5.19Z"/>
  <path d="M70.91,67.44c-.43-.11-.85-.6-.73-1.06.17-.4.44-.95.95-.86.4.04.68.42.86.75.15.65-.43,1.24-1.08,1.17Z"/>
  <path d="M67.87,70.77c-.77-.3-1.01-1.5-.09-1.79.22-.04.48-.21.67.02.25,0,.5.2.55.45.57.57-.53,1.48-1.13,1.32Z"/>
  <path d="M71.54,73.36c-.88-.28-.9-2.02.23-1.82.47-.3,1.04.58,1.05.99.05.58-.76,1.18-1.28.83Z"/>
  <path d="M65.73,74.69s-.06-.03-.09-.04c-.46.08-1.19-.28-.98-.84-.08-.45.38-.83.78-.87.35-.29.86.1.92.48.08.16.26.31.27.51,0,.38-.5.88-.89.76Z"/>
  <path d="M62.9,70.3c-1.11-.16-.56-2.15.46-1.72.2-.1.44.01.56.19.31-.06.39.29.3.53.12.16.15.39.06.56-.06.1-.15.16-.26.18-.13.2-.35.35-.6.31-.17.08-.35.05-.51-.04Z"/>
  <path d="M45.55,73.57c-.19-.1-.4-.18-.44-.42-1.04-.58.26-2.15,1.08-1.32,0,0,0,0,0,0,.49,0,.75,1.23.24,1.32-.18.3-.51.54-.87.41Z"/>
  <path d="M41.32,70.82c-.24-.06-.64-.06-.71-.35-.18-.27-.23-.74-.11-1.05.13-.34.54-.44.87-.38.06-.03.12-.04.2-.05.12,0,.24.07.3.18.18-.02.34.15.33.33.05.04.08.11.08.17,0,.12,0,.27-.07.38.07.45-.45.87-.88.77Z"/>
  <path d="M39.26,75.03c-.06-.03-.11-.07-.16-.13-.94-.18-.43-1.98.47-1.67.14-.06.32-.04.45.06.03.02.06.05.08.08.28.04.29.43.35.63.12.28.08.7-.26.8-.03.03-.07.06-.12.08-.04.01-.07.02-.1.03-.2.17-.47.28-.71.14Z"/>
  <path d="M35.61,67.78c-.83.16-.92-1-.63-1.53.31-.36,1.28-.49,1.45.06,0,0,0,0,0,0,.35.21.51.77.2,1.08-.27.21-.67.63-1.02.4Z"/>
  <path d="M34.29,74.05c-.29-.08-.39-.41-.62-.57-.13-.24-.26-.52-.2-.8.07-.3.4-.51.68-.58.09-.24.43-.22.53,0,.61-.03.8.9.66,1.37-.08.21-.3.3-.49.39-.17.11-.35.25-.57.19Z"/>
  <path d="M13.81,66.46s-.05-.01-.07-.02c-.08-.03-.15-.08-.21-.14-.2-.21-.13-.56.1-.71.03-.02.06-.04.1-.05.13-.05.28-.05.41.02.05,0,.1,0,.15,0,.12,0,.24.01.36.02.34.02.67.03.95.04,1.95.04,3.89.06,5.84.08,1.88.02,3.75.04,5.62.08h.61s.03.01.04.01c.02,0,.04,0,.06,0,.36,0,.72.02,1.09.03.22,0,.45.02.67.03.12,0,.27,0,.38.05-.01,0-.02,0-.03,0h0s-.02,0-.03,0c.12.01.22.11.23.24,0,.13-.09.25-.22.26-.1.02-.2.03-.3.03-.24.01-.48.02-.72.02-.36,0-.72.01-1.08.01,0,0,0,0,0,0,0,0-.02,0-.02,0-.02,0-.05,0-.07,0-.89,0-1.79,0-2.68,0-1.92,0-3.84-.02-5.77-.04-1.07,0-2.15-.01-3.22-.01-.41,0-.83,0-1.24.02-.21,0-.42,0-.63.02,0,0,0,0,0,0-.01,0-.02,0-.03.01-.06.02-.12.03-.18.03-.04,0-.07,0-.11-.01Z"/>
  <path d="M14.94,71.19c-.13-.01-.27-.08-.37-.17,0,0-.01-.01-.02-.02-.04-.04-.08-.09-.1-.13-.03-.05-.06-.11-.07-.18,0,0,0,0,0-.01,0,0,0,0,0-.01,0,0,0,0,0,0,0-.01,0-.03,0-.04,0-.13.04-.24.11-.34.01-.01.02-.03.03-.04.02-.02.04-.04.05-.06.05-.05.12-.1.19-.12.05-.02.09-.03.14-.04,0,0,0,0,0,0,.05,0,.11-.01.16,0,.09,0,.17.04.24.08.45,0,.9,0,1.36-.01.87-.01,1.75-.01,2.62-.03,1.89-.04,3.77-.07,5.66-.12,1.03-.03,2.07-.05,3.1-.07.48-.01.96-.02,1.43-.02.37,0,.73-.02,1.1.02.04,0,.08,0,.11,0,.14,0,.25.11.26.25,0,.13-.11.25-.24.25-.04,0-.08,0-.12,0-.31.05-.62.06-.94.08-.43.02-.86.05-1.29.07-.92.04-1.83.08-2.75.12-1.91.07-3.81.15-5.71.24-.96.05-1.93.1-2.9.15-.56.03-1.12.05-1.68.09-.09.06-.21.1-.33.1-.02,0-.04,0-.06,0Z"/>
  <path d="M15.59,75.68s0,0,0,0c-.03,0-.06-.01-.08-.03-.17,0-.32-.13-.35-.3-.03-.17.07-.34.23-.4.02-.02.04-.04.07-.05.07-.05.16-.07.25-.09.07-.02.14-.03.18-.04.55-.13,1.11-.21,1.66-.31.86-.15,1.73-.3,2.6-.46,1.9-.34,3.8-.69,5.7-1.03.75-.14,1.51-.27,2.26-.4.34-.06.69-.12,1.04-.18.14-.02.28-.05.42-.07.08-.01.16-.02.25,0,.16.04.29.18.32.34s-.05.34-.19.43c-.08.05-.19.07-.29.09-.21.05-.43.09-.65.13-.48.09-.96.18-1.43.27-.96.18-1.93.35-2.89.52-1.85.33-3.7.66-5.55,1-.77.14-1.54.28-2.3.42-.2.04-.41.08-.61.11-.09.01-.19.02-.29.04-.08.01-.15.02-.23.02-.04,0-.08,0-.11-.01Z"/>
  <path d="M76.27,66.16c-.2.03-.38-.09-.41-.29-.04-.21.13-.41.34-.42,0,0,0,0,0,0,.03,0,.05,0,.08,0,.03,0,.05,0,.08,0,.24-.01.47-.03.71-.05.46-.04.93-.07,1.39-.11.95-.08,1.9-.15,2.86-.23,1.88-.15,3.77-.28,5.65-.41,1.34-.09,2.67-.19,4.01-.28.59-.04,1.19-.08,1.79-.11.16,0,.32-.01.48-.02.12,0,.25-.02.38-.02,0,0,0,0,0,0,.19,0,.36.1.42.3.07.24-.09.5-.34.55-.13.02-.27.02-.38.04-.74.07-1.48.12-2.23.17-.94.06-1.88.12-2.82.18-1.9.12-3.8.25-5.7.36-1.16.07-2.32.13-3.49.2-.91.05-1.81.08-2.72.15-.03,0-.05.01-.08.01h-.06.02Z"/>
  <path d="M95.23,69.04h-.24c-.25,0-.49,0-.73,0-.86,0-1.73,0-2.59-.01-1.02,0-2.03,0-3.04,0-.89,0-1.77,0-2.66,0-1.84,0-3.68-.03-5.52-.05-.89-.01-1.78-.03-2.66-.05l-1.09-.02c-.19,0-.38-.02-.57,0-.03,0-.06,0-.09.01-.2,0-.37-.15-.38-.35,0-.22.18-.38.4-.37h.04c.21.02.43,0,.65,0,.42,0,.84-.02,1.25-.03.95-.02,1.89-.04,2.84-.05,1.96-.02,3.92-.04,5.88-.05.82,0,1.63,0,2.45,0,.95,0,1.9,0,2.86,0,.79,0,1.58,0,2.37-.01.21,0,.42,0,.63,0,.08,0,.15,0,.23,0,.06,0,.11,0,.17,0,0,0,.02,0,.02,0,0,0,0,0,0,0,0,0,0,0,0,0,.01,0,.03,0,.04,0,.22.01.41.2.45.41.05.28-.14.51-.41.57-.03,0-.06,0-.09.01-.04,0-.08.01-.11.01-.03,0-.07,0-.1,0Z"/>
  <path d="M90.8,72.37s-.01,0-.02,0c-.14.01-.27-.02-.4-.03-.17.02-.34,0-.51,0-.23,0-.45,0-.68,0-.83,0-1.66-.04-2.49-.07-1.76-.07-3.52-.16-5.28-.25-.82-.04-1.65-.08-2.47-.14-.26-.02-.52-.04-.78-.06-.16-.01-.32-.03-.43-.04h-.11c-.2-.01-.34-.2-.33-.39.02-.2.2-.34.39-.33h.04c.14,0,.29.01.38.02.41,0,.83.01,1.19.02.93.02,1.87.07,2.8.11.87.04,1.73.07,2.6.12.91.04,1.83.09,2.74.14.71.04,1.43.09,2.13.15.28.03.56.05.84.09.13,0,.27-.01.4,0,0,0,0,0,0,0,0,0,0,0,0,0,.04,0,.07-.01.11,0,.09,0,.18.05.24.12,0,0,0,0,0,0,0,0,0,0,0,0,0,0,0,0,.01.02.01.01.03.03.04.05.08.13.05.29-.06.38,0,0,0,0,0,0-.06.06-.14.11-.23.11-.04,0-.09,0-.12-.02Z"/>
  <path d="M50.7,78.02s-.07-.09-.1-.14c0,0,0,0,0,0,0-.02-.01-.03-.02-.05,0-.02-.01-.04-.01-.06-.02-.08-.02-.17-.02-.25v-.29c-.02-.19-.02-.37-.02-.56,0-.33-.04-.66-.04-.99,0-.36-.04-.71-.05-1.06-.01-.37-.02-.73-.03-1.09,0-.35-.01-.7-.03-1.05-.01-.34-.04-.69-.04-1.03,0-.3,0-.61,0-.91-.01-.62-.02-1.24-.03-1.86,0-.43.01-.85,0-1.28,0-.19,0-.39,0-.58,0-.07,0-.15.02-.22,0,0,0-.02,0-.03-.01-.05-.02-.09-.02-.14,0-.29.23-.55.52-.55.27,0,.51.19.55.46.01.08,0,.16-.01.23.02.09.02.18.03.25.02.18.02.35.02.53,0,.2.02.41.02.61.02.45.02.9.02,1.35,0,.38,0,.76,0,1.14,0,.28.02.57.02.85,0,.35,0,.69,0,1.04,0,.35,0,.7,0,1.05,0,.68.02,1.36-.02,1.97-.01.31,0,.62-.02.93-.01.23,0,.46,0,.7,0,.14,0,.27,0,.41,0,.16.02.34-.04.49-.07.18-.24.28-.42.28-.11,0-.22-.04-.31-.12Z"/>
  <path d="M51.79,77.83c-.08-.18-.08-.39,0-.57,0-.03,0-.06,0-.09,0-.06-.01-.12-.02-.18-.01-.06-.01-.13-.01-.19,0,0,0,0,0,0,.01-.38-.03-.75-.04-1.12,0-.34,0-.68,0-1.02.02-1.08,0-2.16,0-3.24,0-.61.01-1.21.03-1.8.02-.6.05-1.2.1-1.8.02-.26.04-.51.07-.77.01-.17.02-.35.07-.52,0,0,0,0,0,0,0,0,0-.02,0-.03.02-.07.06-.13.13-.17.08-.05.21-.06.29,0,.08.05.13.13.15.22.04.14.06.29.07.44.03.24.05.49.07.68.05.52.09,1.05.12,1.57.04.55.05,1.1.07,1.65.03,1.11.03,2.21.05,3.32.01.56.05,1.14.04,1.69,0,.2-.01.4-.02.6,0,.1,0,.2,0,.3,0,.09,0,.17,0,.21-.02.09-.02.17-.03.26.07.14.09.3.06.46-.07.28-.32.49-.61.5,0,0-.01,0-.02,0-.25,0-.49-.15-.6-.38Z"/>
  <path d="M51.8,78.46c-.32-.14-.44-.51-.48-.84-.04-.3-.16-.68.07-.93-.08-1.18-.18-2.34-.23-3.52-.41-1.14-.15-2.46-.22-3.66.12-.96-.03-2.06.31-2.94.06-.27.32-.46.6-.43.3.04.5.31.47.6-.09,1.11-.16,2.22-.32,3.32.22,1.14.05,2.38.16,3.52.35,1.25.07,2.58.36,3.86.38.53-.07,1.29-.73,1.02Z"/>
  <path d="M52.02,73.15c-.35-.04-.59-.36-.55-.71.1-.95.14-1.85.2-2.79,0-1.26.24-2.54.47-3.76.03-.21.23-.38.44-.35s.37.23.34.44c-.36,1.8-.14,3.61-.12,5.44-.07.61.15,1.78-.78,1.73Z"/>
  <path d="M51.62,76.63c-.31-3.71-.04-7.49.71-11.11.35-.49,1.11.07.74.54-.33,3.51-.22,7.03-.14,10.55.02.85-1.31.87-1.31.02Z"/>
  <path d="M52.53,78.49c-.44-.07-.87-.24-1.32-.23-.29.09-.63-.13-.68-.44-.07-1,1.37-.43,1.97-.67.87-.03.89,1.35.02,1.34Z"/>
  <path d="M57.61,77.67c-.95-.01-1.89-.03-2.84-.05-.8-.01-1.61-.02-2.41-.04-.14,0-.25-.11-.25-.25,0-.13.11-.26.25-.25,1.25.02,2.5.04,3.75.06l1.5.02c.14,0,.25.11.25.25,0,.13-.11.25-.24.25,0,0,0,0,0,0Z"/>
  <path d="M46.86,77.65c-.09-.02-.16-.05-.21-.13-.07-.11-.04-.25.06-.33,0,0,0,0,.01,0,0,0,0,0,0,0,0,0,0,0,0,0,.04-.02.08-.04.12-.05,0,0,0,0,.01,0,.06-.03.13-.03.19-.02.02,0,.05.02.07.03.6,0,1.2,0,1.8-.01.74,0,1.47-.01,2.21-.02,0,0,0,0,0,0h.07c.14,0,.25.11.25.25,0,.14-.11.25-.25.25-1.05,0-2.11.02-3.17.02-.31,0-.61,0-.92,0,0,0-.02,0-.03.01-.04.02-.08.02-.12.02s-.08,0-.12-.03Z"/>
  <path d="M50,80.61c-.72-.17-1.43-.46-2.03-.9-.62-.46-1.11-1.13-1.2-1.91-.02-.16-.02-.31,0-.47.01-.14.14-.23.28-.22.14.02.23.14.22.28,0,.02,0,.03,0,.04,0,.09,0,.18,0,.26,0,.08.02.16.03.21.02.09.04.17.07.26.03.08.06.15.09.22,0,0,0,0,0,.01,0,0,0,.01,0,.01.05.09.09.17.13.22.07.1.14.19.2.26.09.1.18.19.26.26.13.12.27.22.39.3.16.1.32.19.49.28,0,0,0,0,0,0,0,0,0,0,0,0,0,0,.02,0,.02,0,.22.1.44.19.66.26.28.09.56.16.82.21.34.06.68.1,1,.11.37.02.74,0,1.07-.02.34-.03.68-.08,1-.15.33-.07.66-.16.98-.27,0,0,0,0,0,0,.28-.1.56-.22.82-.34,0,0,.01,0,.02,0,0,0,.01,0,0,0,.27-.14.53-.29.75-.44.15-.1.3-.21.41-.3.14-.12.27-.25.39-.39,0,0,0,0,0,0,0,0,0,0,0,0,0,0,0,0,0,0,.09-.1.17-.21.24-.32,0,0,0-.02.01-.02,0,0,0,0,0,0,.06-.1.12-.2.17-.3,0,0,0,0,0,0,0,0,0,0,0,0h0c.04-.09.07-.18.09-.23v-.04c.05-.13.21-.19.34-.14.13.05.18.2.15.29-.11.36-.32.7-.55.98-.13.16-.28.32-.43.46-.11.09-.21.19-.32.28-.15.12-.3.23-.46.33-.61.39-1.31.66-2.01.85-.66.18-1.36.26-2.05.28-.08,0-.16,0-.25,0-.62,0-1.24-.07-1.84-.21Z"/>
  <path d="M46.76,78.22c-.15-.24-.27-.54-.23-.82.06-.37.65-.23.49.13.03.12.06.23.1.35.26.24-.14.63-.36.35Z"/>
  <path d="M48.66,79.82c-.84-.28-1.71-.82-2-1.69-.08-.24-.27-.64.03-.79.2-.09.39.11.34.31.06.26.16.52.31.75.34.46.82.65,1.29.91.41,0,.45.57.02.52Z"/>
  <path d="M53.93,79.98c-.47-.16-.09-.62.26-.63-.57-.51.44-.6.77-.67.6-.19,1.25-.34,1.74-.75-.19.02-.38.04-.57.04-.59.11-2.94.11-3.5.01-.26-.02-.72.13-.81-.21-.02-.14.08-.26.21-.29,1.2-.09,2.41-.15,3.61-.01.16-.2.47-.1.69-.09.31.08.62.01.93.03.53.11.16.91-.26.92.24.5-.66.5-.92.74-.32.27-.66.46-1.06.51-.31.26-.69.39-1.09.4Z"/>
  <path d="M51.12,80.39c-.19-.03-.37-.07-.55-.13-.02,0-.03-.01-.05-.02-.19.26-.74.09-.92-.12-.35-.06-1.73-.32-1-.81,0-.01.01-.03.02-.04-.05-.08-.05-.19,0-.27.01-.02.03-.04.05-.06,0-.04.02-.07.04-.1-.06-.08-.08-.19-.02-.29,0-.02.02-.03.03-.05,0,0,0,0,0,0-.2-.13-.39-.49-.08-.61,0-.03,0-.06.02-.09-.02-.52.72-.26,1.05-.29.44.07.98-.18,1.36.09.21.04.39.3.23.49.4-.05.8-.07,1.21-.09.03-.08.11-.15.2-.15.84-.09,1.69-.16,2.53-.14.3-.17,1.07-.03,1.43-.01.46.16.15.58-.19.65-.11.38-.67.15-.89.47.07,0,.13,0,.17,0,.04,0,.08,0,.12-.01.3-.33.74.22.34.43-.34.3-.81.3-1.19.55-.36.29-.94.22-1.37.39-.17.37-.71.1-1.04.17-.44.19-1,.11-1.47.06ZM54.58,79.38c.1-.02.19-.06.28-.1-.03,0-.06-.02-.08-.03,0,0-.02-.01-.03-.02-.25.05-.48.09-.72.15.18-.01.36,0,.54,0Z"/>
  <path d="M48.95,79.5c-.39-.1-.97-.18-1.19-.54-.18-.04-.4-.15-.39-.37-.13-.08-.15-.27-.06-.39-.2-.04-.36-.26-.22-.45-.07-.25.22-.37.43-.36.4.03.85-.03,1.23.1.25-.03.56.09.5.39-.02.22-.34.3-.46.11,0,0,0,0,0,0,0,.01,0,.03,0,.04,0,.04-.02.07-.04.1.02.04.04.08.04.14,0,.05-.01.1-.04.14.04.02.07.05.1.09.04.07.04.14.02.21.06.04.12.09.15.16.01.04.02.07.02.11.32.07.24.55-.09.51Z"/>
  <path class="cls-4" d="M95.54,69.03c.27-.06.45-.29.41-.57-.04-.21-.23-.4-.45-.41-.01,0-.03,0-.04,0,0,0-.02,0-.02,0-.05-.01-.11-.02-.17,0-.08,0-.16,0-.23,0-.21,0-.42,0-.63,0h-2.37c-.95.02-1.9.02-2.86.01-.81,0-1.63,0-2.45,0-.79,0-1.57,0-2.36.02.09-.62.18-1.25.25-1.87.02-.18.04-.35.05-.53,1.21-.07,2.41-.15,3.62-.23.94-.06,1.88-.12,2.82-.18.74-.05,1.48-.1,2.23-.17.11-.01.24-.02.38-.04.25-.04.41-.3.34-.55-.06-.2-.24-.3-.42-.3h0c-.12,0-.25,0-.38.01-.16,0-.32.01-.48.02-.6.03-1.2.07-1.79.11-1.34.09-2.67.19-4.01.28-.74.05-1.48.11-2.22.16.11-1.36.18-2.73.2-4.09.01-.96,0-1.93-.02-2.89-.02-.36-.03-.72-.06-1.07,0-.11-.02-.21-.03-.32,0,0,0-.02,0-.02,0-.16,0-.31,0-.46v-.09s0-.08,0-.12h0c-.01-1.42-.03-2.83-.04-4.24,0-.55-.01-1.09-.02-1.64.05-.08.07-.17.07-.26,0-.12-.06-.22-.06-.32h0c.02-.14.03-.28,0-.4.02-.09.03-.18,0-.26,0-.13,0-.25-.02-.38h0v-.07c.01-.05.02-.1.02-.15.02-.11-.04-.21-.13-.27-.31-.92-1.12-1.62-1.96-2.19-.13-.49-.03-1.03,0-1.54.02,0,.04-.01.05-.02.11-.03.23-.06.34-.09.7-.2,1.36-.5,1.95-.92.32-.22.62-.46.9-.74.3-.3.57-.62.82-.97.55-.78.95-1.68,1.14-2.61.1-.48.16-.96.16-1.45s-.05-.99-.16-1.47c-.47-2.19-2.06-4.09-4.13-4.93-.96-.39-2.01-.58-3.05-.51-1.16.07-2.29.43-3.28,1.05-1.11.71-2.01,1.71-2.57,2.9-.65-.02-1.3-.02-1.93-.2-.22-.24-.5-.43-.77-.61-.66-.42-1.38-.75-2.09-1.06-1.04-.46-2.14-.86-3.27-1.2-.41-.13-.82-.24-1.23-.36-.42-.11-.83-.22-1.25-.32-.89-.2-1.79-.4-2.69-.49-.34-.04-.69-.06-1.04-.07-.09,0-.19,0-.29,0-.06-.03-.13-.04-.2-.03-.08.02-.14.05-.19.11-.82,0-1.64.01-2.46.02-2.11.01-4.22.03-6.33.04-2.14.02-4.29.03-6.43.04-1.11,0-2.23.02-3.35.02-.04-.07-.11-.13-.2-.13-.54-.05-1.08-.08-1.61.01-2.2.3-4.41.75-6.38,1.78-.04,0-.08.01-.11.03-.03-.11-.06-.22-.1-.33-.46-1.41-1.38-2.64-2.57-3.51-.62-.45-1.33-.8-2.07-1.02-.9-.26-1.86-.34-2.8-.22-2.3.29-4.41,1.75-5.48,3.82-.54,1.04-.81,2.21-.77,3.38.04,1.25.41,2.49,1.11,3.54.59.89,1.36,1.64,2.27,2.2.41.25.86.45,1.32.59.17.05.34.1.51.14.09.02.18.04.27.06.05,0,.11.02.17.03h0s0,0,.01,0c.07.03.15.05.23.05-.12.05-.23.18-.23.3-.1.08-.2.16-.3.25-.49.45-.93.96-1.31,1.5-.56.8-1.02,1.65-1.44,2.53-.44.92-.8,1.88-1.11,2.86-.13.4-.25.8-.37,1.2-.12.43-.23.86-.33,1.29-.38,1.64-.64,3.32-.78,5-.14,1.68-.19,3.38-.07,5.07.02.25.04.49.06.73,0,.04,0,.08,0,.11-.02,1.41.03,2.82.21,4.22-1.3-.01-2.61-.03-3.91-.06-.29,0-.62-.02-.95-.04-.12,0-.24,0-.36-.02-.05,0-.1,0-.15,0-.13-.06-.28-.07-.41-.02-.03.01-.07.03-.1.05-.23.15-.3.5-.1.71.06.07.13.11.21.14.02.01.04.02.07.02.04,0,.07.01.11.01.06,0,.12-.01.18-.04.01,0,.02,0,.03-.01.21,0,.42,0,.62-.02.41-.01.83-.02,1.24-.02,1.07,0,2.15,0,3.22.01.13,0,.27,0,.4,0,0,0,0,0,0,0,.05.59.14,1.17.25,1.75.12.62.27,1.24.45,1.85-.35,0-.69.01-1.04.02-.88.02-1.75.02-2.62.03-.45,0-.91.02-1.36.02-.07-.05-.16-.07-.24-.08-.05,0-.11,0-.16,0h0s-.1.02-.14.04c-.07.03-.14.07-.19.12-.02.02-.04.04-.05.06-.01.01-.02.03-.04.04-.07.1-.11.21-.11.34,0,.02,0,.03,0,.04h0s0,.01,0,.02h0c.01.08.04.14.07.19.03.05.06.09.11.14,0,0,.01.01.02.02.1.09.23.16.37.17.02,0,.04,0,.05,0,.12,0,.24-.04.33-.11.56-.04,1.12-.06,1.68-.09.96-.05,1.93-.11,2.9-.15.22-.01.45-.02.67-.03.01.04.02.08.04.12.26.76.56,1.5.9,2.23.09.18.17.36.26.54l-1.64.29c-.87.15-1.73.3-2.6.46-.55.1-1.11.18-1.66.31-.04,0-.11.02-.18.04-.09.02-.17.04-.25.09-.03.02-.05.04-.07.05-.16.06-.26.23-.23.4.03.17.18.3.35.3.03.01.05.02.08.03.04,0,.07.01.11.01.07,0,.15-.01.23-.02.09-.01.19-.02.29-.04.21-.03.41-.07.61-.11.77-.14,1.54-.28,2.3-.42,1.03-.19,2.05-.38,3.08-.56.53,1,1.12,1.97,1.79,2.89.53.73,1.09,1.43,1.69,2.11.32.36.64.71.97,1.05.36.38.72.75,1.11,1.11.93.86,1.91,1.67,2.95,2.39.5.34,1,.68,1.51.99.61.36,1.24.69,1.88.99.61.29,1.23.54,1.86.76.5.18,1,.34,1.52.47.39.1.79.19,1.19.26.18.03.35.05.52.08.09.01.19.03.28.04h0s.01,0,.02,0c.13.02.27.04.41.03,0,0,.01,0,.02,0,.02.01.05.01.08.01h.04s.04,0,.06-.02c.19.02.38.04.56.06.71.07,1.43.13,2.15.18,1.81.11,3.63.16,5.45.16h.47c1.7,0,3.41-.04,5.12-.11.96-.04,1.92-.09,2.88-.15.51-.03,1.02-.07,1.52-.11.52-.03,1.03-.07,1.54-.11.14-.01.29-.02.44-.04,1.03-.09,2.05-.21,3.07-.34,1.34-.17,2.67-.38,3.98-.68.62-.15,1.25-.32,1.84-.57.21-.09.43-.19.62-.33.13-.09.26-.22.34-.37,1.26-.65,2.46-1.43,3.62-2.25,1.31-.93,2.57-1.94,3.76-3.03.62-.57,1.23-1.16,1.81-1.77.55-.58,1.08-1.18,1.56-1.82.46-.61.91-1.25,1.22-1.96.04-.1.09-.2.12-.29h0c.34-.11.57-.45.74-.74.18-.32.32-.66.44-1,.04-.11.08-.22.11-.33,1.07.05,2.15.1,3.22.15.83.04,1.66.07,2.49.07.23,0,.45,0,.68,0,.17,0,.34,0,.51-.01.13.01.27.04.4.04,0,0,.01,0,.02,0,.04.02.08.02.12.02.09,0,.17-.04.23-.11,0,0,0,0,0,0,.11-.1.14-.25.06-.38-.01-.02-.02-.04-.04-.05,0,0,0-.01-.01-.02t0,0c-.06-.07-.14-.11-.23-.12-.04,0-.08,0-.11,0h0c-.13-.02-.27-.01-.4,0-.28-.05-.56-.06-.84-.09-.71-.07-1.42-.11-2.13-.15-.91-.05-1.82-.1-2.74-.14-.33-.02-.65-.03-.98-.04.2-.73.36-1.48.49-2.23,0-.01,0-.02,0-.04.59,0,1.18,0,1.76.01.88,0,1.77,0,2.66,0,1.01,0,2.02,0,3.04,0,.86,0,1.72,0,2.59.01.24,0,.49,0,.73,0h.24s.07,0,.1,0,.07,0,.11-.02c.03,0,.06,0,.09,0ZM108.47,51.66c.07,2.3.07,4.63.01,6.96-.04,1.61-.12,3.23-.26,4.83-.1.09-.16.23-.12.38-.04.29-.09.57-.14.84-.09.43-.2.84-.32,1.25-.12.43-.27.89-.42,1.36-.16.49-.35.97-.53,1.45-.4,1.07-.82,2.13-1.28,3.18-.31.7-.64,1.4-.96,2.11-.33.72-.68,1.43-1.04,2.14-.38.73-.77,1.46-1.16,2.19-.72,1.32-1.46,2.63-2.25,3.91-.56.92-1.16,1.87-1.79,2.8-.54.79-1.09,1.58-1.7,2.33-.44.54-.92,1.1-1.45,1.6-.08.08-.17.16-.27.24-.07-.01-.16.01-.23.06-.35-.05-.96.57-.98.96-.25-.13-.5-.28-.75-.42-.66-.38-1.31-.75-1.97-1.12-1.08-.61-2.15-1.23-3.23-1.84-.86-.5-1.73-.99-2.59-1.48,0,0,0,0-.01,0,0,0,0,0,0,0-.12-.07-.27,0-.34.11-.01.02-.02.05-.02.07-.03.06-.04.13-.03.2.02.08.06.14.12.18.29.49.59.99.88,1.48,1.38,2.32,2.75,4.64,4.12,6.96-.02.02-.03.05-.04.07,0,0-.01.04-.02.07,0,.01-.01.02-.02.04,0,0,0,0,0,.01,0,0,0,0-.01.02-.19.28-.4.56-.62.83-.26.31-.55.63-.86.95-.44.46-.9.9-1.37,1.33-.58.54-1.21,1.05-1.84,1.55-.67.52-1.34,1.04-2.04,1.53-1.33.92-2.71,1.77-4.15,2.52-.83.43-1.68.82-2.55,1.14-.42.15-.85.28-1.29.38-.2.04-.41.07-.62.09-.12,0-.24.01-.37,0-.07,0-.16-.02-.23-.03-.03,0-.08-.02-.14-.04,0,0-.03,0-.05-.02-.12-.05-.26,0-.31.12-1.15,0-2.3-.01-3.45-.02-2.93-.02-5.86-.04-8.79-.05-3.54-.02-7.09-.04-10.63-.06-3.57-.02-7.15-.05-10.73-.07-1.44,0-2.88-.02-4.32-.03-.67,0-1.34-.01-2.01-.01-.05-.04-.12-.05-.19-.03-.02,0-.03,0-.05.01-.02,0-.03,0-.05,0h0s-.02,0-.03,0c-.04,0-.08,0-.12,0-.07,0-.15-.01-.23-.03-.14-.02-.3-.07-.46-.12-.36-.11-.73-.27-1.09-.44-1.01-.48-2-1.08-2.97-1.7-2.21-1.43-4.33-3.06-6.36-4.79-1.52-1.3-3.01-2.68-4.35-4.19-.44-.5-.89-1.03-1.29-1.61l1.42-1.54c1.02-1.11,2.04-2.21,3.06-3.31,1.11-1.2,2.21-2.4,3.32-3.6,0,0,.01-.01.02-.02,0,0,0,0,.01,0,.12-.06.19-.2.14-.33-.05-.12-.2-.2-.32-.14-.02,0-.03.02-.05.02,0,0-.01,0-.02.01h0s-.02.01-.04.02l-2.67,1.25c-2.7,1.27-5.4,2.55-8.1,3.82-.68-.68-1.29-1.42-1.87-2.18-1.03-1.36-1.95-2.8-2.79-4.28-1.3-2.28-2.43-4.64-3.41-7.06-1.04-2.54-1.92-5.16-2.62-7.83-.46-1.77-.84-3.59-1.06-5.43-.12-1.06-.2-2.13-.18-3.2,0-.53.05-1.09.12-1.64.05-.35.13-.7.22-1.05.03-.09.06-.2.1-.31.02-.06.02-.12-.01-.18.23-.02.47-.03.71-.06.93-.09,1.88-.21,2.8-.4.94-.19,1.87-.42,2.78-.73.68-.23,1.36-.5,2-.83.05-.03.11-.05.16-.09.04-.02.07-.04.1-.06.11-.06.21-.12.32-.19.18-.11.36-.23.52-.37.47-.38.98-.93.92-1.56,0-.02,0-.04,0-.06,0-.04-.01-.08-.04-.12,0-.01,0-.02,0-.03-.04-.13-.18-.21-.31-.17-.05.02-.09.04-.11.08-.91.03-1.83.06-2.75.09-1.32.05-2.63.09-3.95.13-1.11.04-2.22.08-3.34.11-.02-.04-.04-.07-.06-.09-.14-.5-.24-1.02-.32-1.54-.12-.78-.19-1.61-.21-2.43,0-.21,0-.41,0-.62,0-.96.06-1.94.16-2.92,0,0,0-.02,0-.03h0c.09-.88.21-1.75.37-2.61.16-.87.34-1.74.55-2.6.51-2.07,1.17-4.09,1.95-6.06.92-2.32,2-4.6,3.22-6.79.2-.36.4-.71.61-1.07.97-1.65,2.03-3.25,3.18-4.79.19-.25.38-.5.57-.75.96-1.23,1.97-2.41,3.06-3.52.91-.94,1.91-1.85,2.96-2.69.75-.59,1.54-1.15,2.37-1.65.59-.36,1.2-.68,1.83-.96.27-.12.56-.23.86-.34,0,.01.02.03.03.04.16.2.32.41.49.61,1.47,1.87,2.95,3.73,4.41,5.6.3.38.59.76.89,1.14.28.36.57.71.84,1.07.55.72,1.09,1.45,1.63,2.17.22.3.45.59.67.89.13.17.25.34.38.5.07.1.14.21.25.28.07.05.14.09.21.13.58.34,1.15.68,1.73,1.02h0c.06.1.14.17.26.17.08,0,.15-.03.2-.08,0,0,0,0,0,0,.02-.02.03-.04.04-.06.04-.05.05-.12.05-.19,0,0,0-.02,0-.02,0-.02,0-.05-.02-.07-.03-.08-.06-.15-.09-.23-.07-.16-.13-.32-.19-.48,0-.03,0-.06-.02-.09-.01-.05-.03-.09-.05-.13l-.2-.46c-.28-.64-.56-1.29-.84-1.93-.34-.8-.7-1.59-1.04-2.38-.36-.84-.73-1.67-1.09-2.52-1.19-2.82-2.38-5.65-3.57-8.48.21-.11.43-.23.65-.34.23-.12.46-.24.69-.36.33-.18.67-.36,1.01-.52.03-.01.06-.02.1-.04.26-.06.52-.1.78-.15.25-.04.5-.09.74-.14.17-.03.34-.06.51-.09.85,1.51,1.7,3.01,2.54,4.52,1.38,2.45,2.76,4.91,4.14,7.36-.02.17.04.34.15.46.05.05.11.09.18.12.07.04.14.05.21.05.1,0,.19-.03.28-.08.06-.04.12-.08.16-.14.14-.18.16-.43.05-.62-.04-.07-.1-.13-.17-.18v-.13c0-.38,0-.75-.02-1.13-.01-.43-.04-.85-.05-1.27-.06-1.4-.12-2.8-.21-4.21-.02-.25-.03-.5-.05-.75,0-.07-.01-.19-.02-.31,0-.04,0-.12-.01-.21-.05-.88-.12-1.8-.18-2.73-.03-.69-.06-1.39-.09-2.08.02,0,.03,0,.05,0,.15.02.37-.04.52-.21.07-.09.12-.2.14-.3.37-.14.75-.25,1.12-.36,1.24-.34,2.54-.58,3.85-.77,2.33-.31,4.71-.45,7.09-.48,2.3-.01,4.64.09,6.97.35,0,0,0,0,.02,0,1.23.15,2.47.36,3.68.66.64.16,1.27.35,1.89.59.1.04.21.09.33.14,0,.03,0,.06,0,.09-.01.2-.04.39-.05.58-.03.4-.07.8-.09,1.2-.06.93-.12,1.87-.18,2.8-.08,1.35-.14,2.69-.21,4.04-.02.37-.03.73-.05,1.1-.03.41-.06.82-.09,1.23-.04.51-.07,1.02-.11,1.53h0v.02s0,.04,0,.05c0,.14.09.26.22.28h.02s.1-.02.14-.04c.07,0,.14-.04.19-.09.05-.05.09-.12.13-.18.09-.12.17-.25.25-.38l.53-.77c.41-.61.82-1.22,1.22-1.83,1.11-1.66,2.22-3.32,3.3-5,.49-.76.99-1.5,1.49-2.25.05.03.1.05.16.05.04,0,.07,0,.11-.01t0,0s.05,0,.07,0h0c.25,0,.5.03.74.05.46.05.96.16,1.46.28,1.06.26,2.12.6,3.15,1,1.77.69,3.48,1.53,5.14,2.44.55.3,1.1.62,1.64.94.59.36,1.18.71,1.76,1.09,1.23.79,2.43,1.62,3.61,2.49,1.11.82,2.21,1.69,3.29,2.6,1.07.89,2.1,1.82,3.11,2.78,1.41,1.36,2.77,2.79,4,4.34.7.88,1.36,1.81,1.94,2.79.27.45.54.95.77,1.46,0,.02.02.04.04.06-.16.15-.34.29-.52.45-.48.41-.95.82-1.43,1.23-1.2,1.02-2.39,2.04-3.59,3.05-1.07.91-2.15,1.83-3.23,2.74-.04.04-.07.09-.07.14-.11.08-.16.21-.13.35.04.16.18.26.33.26.04,0,.08,0,.12-.02,0,0,.01,0,.02,0,.04-.02.07-.03.1-.05h.09c.12-.04.25-.05.37-.08.17-.03.34-.06.5-.09t0,0c.07-.01.14-.02.22-.04.56-.1,1.12-.2,1.68-.29.68-.11,1.4-.22,2.12-.34.82-.13,1.63-.28,2.44-.42,1.07-.19,2.15-.38,3.22-.59.36-.07.72-.12,1.08-.19-.02.03-.03.06-.04.09-.03.15.07.31.22.36.15.05.31-.03.38-.17.02-.03.02-.06.03-.09,0,0,0-.01,0-.02,0,0,.01-.02.02-.02h0c.04-.07.08-.14.12-.2,0,0,.02-.02.03-.03,0,0,.01.01.02.02.01.01.02.02.03.04.02.02.04.04.05.07.06.09.11.18.15.29.11.22.18.46.26.7.17.58.3,1.16.42,1.76.04.23.09.46.12.69.02.09.03.18.05.27,0,.05.01.11.02.16.02.09.03.18.05.27.05.36.11.72.16,1.09.09.63.18,1.27.25,1.9.08.7.15,1.41.22,2.11.06.66.12,1.32.18,1.98.07.88.13,1.75.18,2.63.09,1.54.14,3.07.19,4.61Z"/>
  <path class="cls-2" d="M29.92,54.64c2.88,1.85,4.61-2.89,3.09-4.94-3.06-3.96-5.97,2.68-3.09,4.94ZM34.24,74.28c1.89.21,2-2.72.1-2.65-1.59.07-1.68,2.46-.1,2.65ZM34.96,67.96c1.68,1.22,3.18-1.56,1.26-2.3-1.36-.49-2.41,1.43-1.26,2.3ZM39.44,75.47c1.66.16,2.01-2.34.37-2.64-1.79-.31-2.17,2.45-.37,2.64ZM41.21,71.26c2.11.12,1.81-3.1-.24-2.6-1.37.36-1.18,2.5.24,2.6ZM44.96,73.62c1.71,1.22,3.18-1.65,1.18-2.33-1.35-.43-2.32,1.48-1.18,2.33ZM62.4,70.44c1.63,1.34,3.29-1.44,1.34-2.25-1.32-.51-2.42,1.33-1.34,2.25ZM64.84,74.91c1.52,1.04,3.03-1.36,1.41-2.27-1.43-.79-2.76,1.32-1.41,2.27ZM67.38,70.86c1.75,1.17,3.13-1.75,1.13-2.37-1.37-.39-2.3,1.55-1.13,2.37ZM71.48,73.75c1.92.57,2.41-2.53.42-2.61-1.49-.13-1.88,2.2-.42,2.61ZM70.23,67.56c1.22,1,2.91-.71,1.92-1.93-1.28-1.57-3.5.65-1.92,1.93ZM72.19,55.11c2.83.74,3.83-3.39,2.6-5.32-.49-.92-1.57-1.55-2.61-1.16-2.27.98-2.39,4.66-.58,6.14-.05-.04-.09-.09-.13-.14,0,0,0,0,.01,0,.04.05.09.11.15.16,0,0-.01,0-.02,0,.01,0,.02.02.04.03,0,0-.02-.01-.02-.02.16.14.36.24.56.31ZM87.5,36.38c.04.28.05.56.05.85,0,.29-.02.57-.05.86-.04.25-.09.49-.15.73-.07.27-.16.55-.27.83-.09.21-.2.45-.33.68-.13.22-.29.46-.46.7-.17.22-.36.43-.55.62,0,0-.01.01-.02.02t0,.01c-.21.21-.44.41-.68.59-.23.18-.48.33-.73.48-.25.14-.54.27-.83.39-.23.09-.5.19-.77.26,0,0-.05.02-.1.03-.03,0-.06,0-.09.01-.1,0-.18.06-.23.14,0,0,0,0,0,0-.03.02-.05.05-.06.09-.1.52-.12,1.04-.06,1.54-.12-.07-.24-.15-.36-.22-.23-.34-.76-.09-.45.27.31.24.64.43.97.65.21.61.59,1.16,1.18,1.61.57.5.78,1.19.73,1.93-.13.16-.11.41.05.53,0,.73.01,1.45.02,2.17.01,1.11.02,2.22.04,3.32-.1.04-.18.14-.2.25,0,.04,0,.06,0,.09v.02c0,.08.04.15.09.2,0,0,0,.02,0,.03.03.21.04.42.06.63.03.29.06.58.08.87.05.7.09,1.4.09,2.11,0,.51,0,1.05-.01,1.59-.03,1.2-.09,2.4-.2,3.59-.98.07-1.95.14-2.93.22-.95.07-1.9.15-2.86.23-.46.04-.93.08-1.39.11-.23.02-.47.04-.71.05-.02,0-.05,0-.08,0-.03,0-.05,0-.08,0h0c-.21,0-.38.21-.34.42.03.2.22.32.41.29h-.02s.04,0,.06,0c.03,0,.05,0,.08-.02.9-.07,1.81-.1,2.72-.15,1.16-.06,2.33-.13,3.49-.2l1.57-.09c-.04.33-.07.67-.11,1,0,0,0,0,0,.02h0c-.02.22-.05.44-.08.66,0,.01,0,.03,0,.05,0,0,0,.02,0,.02h0c-.03.21-.05.42-.09.62-1,0-2.01.02-3.02.03-.95.02-1.89.03-2.84.05-.42,0-.84.02-1.25.03-.21,0-.43.02-.65.01h-.04c-.21-.02-.41.14-.4.36,0,.2.18.36.38.35.03,0,.06-.01.09-.02.19,0,.38.01.57.01l1.09.02c.89.02,1.78.04,2.66.05,1.08.01,2.16.02,3.25.03-.03.18-.07.35-.1.53-.1.52-.22,1.04-.35,1.56-.01.05-.03.1-.04.15-.37-.02-.74-.04-1.11-.05-.93-.04-1.87-.09-2.8-.11-.36-.01-.77-.02-1.19-.02-.1,0-.24,0-.38,0h-.04c-.2-.02-.38.12-.39.32-.02.19.13.38.33.39h.11c.11,0,.27.02.43.04.26.02.52.04.78.06.82.06,1.65.11,2.47.14.51.03,1.02.05,1.54.08-.06.18-.12.35-.19.52-.07.18-.16.38-.28.58-.03.06-.08.13-.13.2,0-.01,0-.02,0-.04h0s0-.04,0-.05h0c0-.05,0-.1,0-.16-.01-.14-.16-.25-.3-.23-.15.02-.25.15-.23.3,0,.04,0,.07.02.1h0s0,.02,0,.03c0,.02,0,.04,0,.05,0,.05-.02.13-.03.21t0,0h-.01c-.09-.11-.25-.12-.35-.03-.1.09-.11.25-.02.36.07.07.14.13.22.17-.04.11-.1.23-.16.36-.15.3-.35.63-.55.94-.41.61-.88,1.2-1.38,1.78-.95,1.07-1.99,2.07-3.08,3.03-.14.12-.31.27-.48.41-1.18.99-2.41,1.92-3.7,2.77-.71.47-1.46.93-2.23,1.34-.02-.05-.05-.09-.08-.13-.04-.05-.09-.11-.14-.16-.06-.06-.12-.1-.2-.14-.03-.05-.07-.08-.12-.11-.04-.02-.08-.04-.12-.06-.18-.06-.38.01-.46.2-.07.16,0,.35.15.44.04.02.08.04.12.05.04.02.08.03.12.03.05.03.1.06.15.09,0,0,0,0,.02.02,0,.01.02.02.02.03,0,0,0,0,0,.01-.07.04-.15.07-.22.11-.51.24-1.04.47-1.59.65-.17.05-.37.11-.57.16-.05.01-.1.04-.14.09h0c-.07.02-.15.04-.22.05-.73.16-1.48.3-2.23.42-.63.1-1.26.2-1.89.28-.52.07-1.04.12-1.57.18-.48.05-.96.11-1.45.15-.51.05-1.03.1-1.54.14-1.05.09-2.13.15-3.21.2-1.91.09-3.82.14-5.73.15-1.84,0-3.68-.02-5.52-.12-.2-.01-.44-.02-.68-.04-.71-.04-1.43-.1-2.14-.17-.2-.02-.4-.04-.6-.07-.03-.04-.07-.06-.12-.07-.04-.01-.09-.02-.13-.02h0s-.02,0-.02,0c-.13-.03-.28-.05-.42-.07-.05,0-.11-.01-.16-.02-.1-.02-.2-.03-.29-.05-.25-.05-.5-.1-.74-.15-.75-.17-1.52-.39-2.29-.68-.8-.3-1.59-.67-2.36-1.07-.93-.49-1.88-1.06-2.79-1.7-.93-.66-1.82-1.38-2.66-2.15-.44-.41-.88-.82-1.3-1.27-.36-.38-.71-.78-1.06-1.18-.79-.94-1.54-1.96-2.23-3.02-.27-.43-.55-.87-.8-1.33.61-.11,1.21-.21,1.82-.32.96-.17,1.93-.35,2.89-.52.48-.09.96-.18,1.43-.27.22-.04.43-.08.65-.13.1-.02.2-.03.29-.09.14-.09.22-.26.19-.43s-.16-.3-.32-.34c-.09-.02-.17,0-.25,0-.14.02-.28.04-.42.07-.34.06-.69.12-1.04.18-.75.13-1.51.26-2.26.4-1.14.2-2.29.41-3.43.62-.12-.23-.23-.46-.34-.69-.16-.34-.32-.7-.47-1.06,0,0,.01,0,.02,0,.12-.07.16-.22.1-.34-.13-.24-.24-.47-.34-.72,1.42-.06,2.84-.12,4.25-.18.91-.04,1.83-.07,2.75-.12.43-.02.86-.04,1.29-.07.31-.02.63-.03.94-.08.04,0,.08,0,.12,0,.13,0,.25-.12.24-.25,0-.14-.12-.25-.26-.25-.04,0-.07,0-.11,0-.37-.04-.73-.02-1.1-.02-.48,0-.96,0-1.43.02-1.04.02-2.07.04-3.1.07-1.29.04-2.57.07-3.86.09-.39-1.09-.72-2.18-.93-3.31-.02-.09-.02-.19-.04-.28,1.62.01,3.24.03,4.86.03.89,0,1.79,0,2.68,0h.1c.36,0,.72,0,1.08-.01.24,0,.48,0,.72-.02.1,0,.2,0,.3-.03.13-.01.23-.14.22-.26,0-.11-.08-.2-.18-.23h0s0,0-.01,0h0c-.11-.04-.24-.04-.35-.04-.22-.01-.45-.02-.67-.03-.36-.01-.72-.02-1.09-.03-.02,0-.04,0-.06,0h-.65c-1.88-.05-3.75-.08-5.62-.09-.46,0-.92,0-1.38-.02,0-.06,0-.12-.01-.18,0-.25,0-.51,0-.77h.02s.06,0,.09-.02c.16-.05.23-.23.16-.38,0-.01-.01-.02-.02-.04,0-.05-.02-.1-.03-.15-.04-.18-.07-.36-.1-.54-.02-.09-.04-.18-.05-.27.02-.23.06-.46.1-.69.02-.14-.07-.27-.21-.29,0,0-.02,0-.02,0,0-.05,0-.11,0-.16-.05-.43.11-1.22-.19-1.56-.06-.87-.08-1.73-.06-2.61.02-.77.05-1.59.12-2.39.07-.81.17-1.62.29-2.42.24-1.56.59-3.14,1.05-4.7.3-1.03.7-2.07,1.15-3.08.28-.62.61-1.23.96-1.82.26-.41.55-.84.88-1.25.22-.27.46-.52.71-.77.15-.14.34-.3.53-.44,0,0,.02-.01.03-.02,0,0,0,0,.02-.01,0,0,0,0,.01,0h0c.05-.05.08-.11.09-.17-.15.17-.37.25-.56.11-.04-.05-.07-.11-.07-.16,0-.13.1-.25.23-.3-.07,0-.16-.03-.23-.05,0,0,0,0-.01,0h0s0,0,0,0t0,0c-.05-.02-.11-.02-.17-.03-.09-.02-.18-.04-.27-.06-.17-.04-.34-.09-.51-.14-.46-.15-.91-.34-1.32-.59-.91-.55-1.68-1.31-2.27-2.2-.7-1.05-1.07-2.29-1.11-3.54-.04-1.17.23-2.34.77-3.38,1.06-2.07,3.18-3.53,5.48-3.82.93-.12,1.89-.04,2.8.22.74.21,1.45.57,2.07,1.02,1.2.87,2.11,2.1,2.57,3.51.04.11.07.22.1.33.03-.02.07-.03.11-.03,1.97-1.04,4.18-1.48,6.38-1.78.53-.09,1.07-.06,1.61-.01.09,0,.16.06.2.13-.05-.05-.13-.08-.21-.06-.04,0-.08.02-.11.05h0s-.03,0-.05,0c-.13.03-.22.15-.21.28,0,.03,0,.05.02.08.04.08.11.14.2.16.16.86.32,1.72.49,2.58.38,2,.75,4,1.13,6,.54,2.87,1.08,5.73,1.62,8.6.53,2.8,1.06,5.61,1.59,8.41l.69,3.67c-.11.1-.1.28.01.38.02.02.04.03.06.04.04.02.08.03.13.03h0s.06,0,.09-.02h.02s.06,0,.1,0h.12s.03,0,.05,0h.07l-.07.04c-.08.04-.16.09-.23.14,0,0-.01,0-.02,0h0s0,0,0,0c0,0-.01,0-.02.01-.05.03-.11.07-.15.13-.02.04-.04.07-.05.11-.3.18-.59.39-.85.64-.36.34-.68.75-.84,1.23-.18.51-.16,1.06.04,1.57.3.75.94,1.31,1.62,1.72.28.17.58.32.88.45.35.16.7.3,1.07.4.58.16,1.17.28,1.77.36,0,.07,0,.15,0,.22,0,.43-.02.86,0,1.28,0,.62.02,1.24.03,1.86,0,.3,0,.61,0,.91,0,.34.02.69.04,1.03.02.35.02.7.03,1.05,0,.36.02.73.03,1.09.01.35.04.7.05,1.06,0,.33.04.66.04.99,0,.14,0,.29,0,.43-.54,0-1.08.01-1.61.02-.6,0-1.2,0-1.8.01-.02-.01-.05-.02-.07-.03-.06-.02-.13,0-.19.02,0,0,0,0-.01,0-.05,0-.09.02-.12.05,0,0,0,0,0,0,0,0,0,0-.01.01h0c-.09.02-.16.09-.18.21-.01.09,0,.19.02.28,0,.03.01.07.02.1.03.12.08.25.11.35.12.37.34.68.63.93.19.25.42.47.67.66.6.45,1.31.73,2.03.9.6.14,1.22.21,1.84.21.08,0,.16,0,.25,0,.69-.02,1.38-.11,2.05-.28.7-.19,1.4-.45,2.01-.85.16-.1.32-.21.46-.33.11-.09.21-.19.32-.28.15-.14.3-.3.43-.46.23-.29.44-.62.55-.98.02-.06,0-.15-.05-.21h0c0-.14-.12-.24-.25-.25l-1.5-.02c-1.04-.02-2.09-.03-3.13-.05,0-.04.01-.07.02-.1,0-.04.02-.13,0-.21,0-.1,0-.2,0-.3,0-.2,0-.4.02-.6.02-.55-.02-1.13-.04-1.69-.02-1.11-.02-2.21-.05-3.32-.01-.44-.02-.89-.05-1.33.02-.75.05-1.51.1-2.26,1.52-.09,3.04-.46,4.38-1.2.73-.4,1.43-.96,1.79-1.74.08-.16.14-.33.18-.51.06-.23.07-.48.05-.71-.05-.42-.21-.83-.45-1.17-.03-.04-.07-.09-.11-.14-.3-.35-.62-.66-1.01-.91-.26-.16-.53-.31-.8-.45-.14-.07-.27-.14-.41-.2h.21c.06,0,.11-.03.15-.07.1-.01.18-.09.2-.18.03-.05.05-.11.05-.17,0-.02,0-.03,0-.05l.02-.11c.03-.18.05-.36.08-.54.02-.11.04-.25.07-.4.09-.55.14-1.12.21-1.68.04-.4.07-.8.12-1.2.04-.46.1-.92.14-1.38.04-.37.05-.74.09-1.11.06-.68.14-1.35.21-2.03.07-.61.14-1.21.2-1.82.05-.48.1-.96.14-1.44.11-1.29.26-2.57.39-3.86.13-1.27.26-2.54.38-3.8.13-1.31.27-2.61.41-3.92.21-1.98.42-3.96.63-5.94.02,0,.04-.01.06-.02h.12c.51,0,1.07.07,1.61.15,1.22.17,2.48.44,3.71.78.61.17,1.26.36,1.89.57.44.14.88.3,1.31.46.32.12.64.24.96.38,0,0,0,0,0,0,0,0,0,0,0,0,.6.26,1.19.54,1.75.87.1.06.2.12.3.19,0,.03,0,.06,0,.1.09.27.38.38.63.43h0c-.05.04-.09.11-.09.18,0,.02,0,.04,0,.06,0,.01,0,.04.02.06s.02.05.04.07c.01.02.02.03.04.05.01.07.05.14.12.19.05.04.11.05.17.05.05,0,.09-.01.13-.03.15.04.31.06.46.07.12,0,.23.01.36.01h.12c.25,0,.51-.03.75-.09.14-.04.29-.09.41-.18.07-.07.14-.17.13-.29,0-.03,0-.05-.02-.07.08-.17.16-.34.26-.5.14-.25.3-.49.47-.72.16-.21.35-.43.56-.64.21-.21.43-.4.66-.58.2-.15.44-.31.7-.46.23-.13.48-.26.74-.36.24-.1.52-.19.8-.27.01,0,.02,0,.03,0,.24-.06.48-.11.73-.14h.02s0,0,0,0h0c.27-.03.54-.05.82-.05.27,0,.55.02.82.05.28.04.56.09.83.16.24.06.51.15.77.25.28.11.55.25.82.39.24.14.48.3.71.48.21.16.41.34.61.54.22.21.41.45.61.69.16.21.3.43.43.66.13.23.25.48.36.73.11.25.2.54.29.83,0,.01,0,.02,0,.03.07.27.12.53.16.8Z"/>
  <path class="cls-2" d="M83.11,48.69c-.19-1.59-.39-3.21-1.2-4.61-.11-.17-.27-.36-.22-.57.06-.31.54-.24.49.07.82,1.31,1.21,2.87,1.32,4.4,0,.3.28.76-.1.9-.13.03-.27-.06-.3-.19Z"/>
  <path class="cls-2" d="M84.3,50.21c-.16,0-.29-.14-.29-.3.04-1.02.22-2.12-.13-3.1-.6-.9-1.03-1.94-1.71-2.77-.27-.34.3-.71.43-.26.54.69.94,1.5,1.41,2.24.48.62.71,1.4.7,2.19,0,.59-.01,1.18-.12,1.77-.02.14-.16.25-.3.24Z"/>
  <path class="cls-2" d="M83.3,46.71c-.19-.38-.49-.75-.55-1.18-.24-.17-.21-.65.16-.56.39.24.49.79.71,1.18.09.21.28.58-.05.66,0,0,0,0,0,0-.1.02-.2-.02-.26-.1Z"/>
  <path class="cls-4" d="M85.36,52.52c-.57-1.84-.42-3.88-1.09-5.68-.27-.49-.47-1-.69-1.51-.13-.28-.44-.51-.43-.83,0-.32.52-.31.5.02,0,0,0,0,0,0,1,1.47,1.48,3.2,1.71,4.95.12.98.2,1.96.49,2.9.08.29-.38.43-.48.14Z"/>
  <path class="cls-2" d="M74.63,113.23h0c-2.82-.02-5.64-.05-8.46-.07-3.61-.03-7.21-.06-10.82-.09-.87,0-1.73-.02-2.6-.02-.46,0-.92,0-1.38,0-.37,0-.73,0-1.1,0-.92,0-1.84-.02-2.76-.02-.81,0-1.61-.01-2.42-.02-1.57-.02-3.15-.02-4.72-.04-.7,0-1.39-.03-2.09-.03-.71,0-1.42,0-2.13,0-.51,0-1.02-.01-1.52-.02-.21,0-.41,0-.62,0-.21,0-.43-.02-.64-.02-.18,0-.36,0-.54,0-.18,0-.35,0-.53,0h-.41s-.09,0-.12-.02c0,0,0,0-.01,0,0-.01,0-.02,0-.03.02-.12-.04-.24-.17-.28-.06-.02-.12-.01-.18.01.1-.62.19-1.25.29-1.87l.64-4.22c.05-.37.11-.73.16-1.1.01-.08.07-.14.13-.18,0,0,.01,0,.02,0,.04-.02.09-.03.14-.02.03,0,.06.02.09.04h0c.64,0,1.29,0,1.94.02,1.09,0,2.19.01,3.29.02,3.59.02,7.18.04,10.78.06,3.59.02,7.18.04,10.77.07,2.98.02,5.96.04,8.94.05,1.61,0,3.21.02,4.82.03,0,0,0-.02,0-.03,0-.04,0-.07,0-.1.03-.09.11-.17.21-.18.08-.01.16.02.21.07.04.04.07.09.07.14,0,.02,0,.04,0,.05,0,0,0,0,0,.01,0,.01,0,.02,0,.03.15,1.02.3,2.05.45,3.07.18,1.2.35,2.41.53,3.61-.01.04-.01.08,0,.12.03.12.05.24.07.36,0,0,0,.01,0,.02,0,.04.01.08.02.12,0,0,0,.02,0,.03-.03-.01-.07-.01-.1,0-.13.03-.23.17-.19.3.01.05.03.1.04.15-.03.01-.05.02-.09.02h-.02Z"/>
  <path class="cls-7" d="M76.62,120.84c-.19,0-.38-.01-.57-.02-.45-.01-.91-.02-1.32-.03-2.48-.05-4.95-.11-7.43-.16-2.46-.05-4.91-.1-7.37-.16-2.52-.05-5.04-.11-7.55-.16-2.55-.05-5.11-.11-7.67-.16-3.04-.06-6.09-.12-9.13-.19-1.77-.04-3.53-.07-5.26-.11h-.1s-.04,0-.06-.01c0,0,0-.02,0-.03,0,0,0-.01,0-.02h0s0-.02,0-.04c.04-.13-.04-.27-.17-.31-.09-.02-.18,0-.24.06.02-.05.03-.11.04-.16v.02c.08-.32.18-.62.2-.96,0-.02,0-.04,0-.05.02-.1.04-.19.07-.29.34-1.52.69-3.04,1.03-4.56.02-.08.04-.17.05-.25.03-.07.05-.14.07-.21.04-.12.08-.25.11-.38,0-.03.02-.06.02-.09.02-.01.03-.02.05-.03.05-.02.12-.03.18-.01.13.04.19.16.17.28,0,.01,0,.02,0,.03,0,0,0,0,.01,0,.04.01.08.02.12.02h.41c.18,0,.36,0,.53,0,.18,0,.36,0,.54,0,.21,0,.43.02.64.02.21,0,.41,0,.62,0,.51,0,1.02.01,1.52.02.71,0,1.42.01,2.13,0,.7,0,1.39.02,2.09.03,1.57.02,3.15.02,4.72.04.81.01,1.61.02,2.42.02.92,0,1.84.02,2.76.02.36,0,.73,0,1.1,0,.46,0,.91,0,1.38,0,.87,0,1.73.02,2.6.02,3.61.03,7.21.06,10.82.09,2.82.02,5.64.05,8.46.07h.03s.06,0,.09-.02c-.01-.05-.03-.1-.04-.15-.04-.13.06-.27.19-.3.04,0,.07,0,.1,0,0,0,0,0,.01,0,0,.03.01.05.02.08.02.09.04.18.07.26.05.15.12.3.17.46,0,0,0,0,0,0,0,0,0,0,0,0,0,0,0,0,0,0,0,0,0,0,0,0,0,0,0,0,0,0,.03.08.05.16.08.24,0,0,0,0,0-.01,0,0,0,.02,0,.03h0c.04.13.07.26.12.39.04.14.09.27.13.41.05.15.1.3.15.45.23.87.46,1.75.69,2.62.25.95.5,1.9.75,2.85h0s0,.01,0,.02c.02.05,0,.11-.02.15-.05-.11-.17-.17-.29-.14-.11.03-.19.14-.18.26-.03,0-.06,0-.09,0Z"/>
  <path class="cls-2" d="M28.74,123.83s.01,0,.02,0c0,0,0,0,0,0,0,0-.01,0-.02,0Z"/>
  <path class="cls-2" d="M28.78,123.84s0,0,0,0c0,0,0,0,0,0,0,0,0,0,0,0,0,0,0,0,0,0Z"/>
  <path class="cls-2" d="M69.84,126.98c-1.41-.03-2.83-.05-4.24-.08-1.79-.04-3.58-.07-5.37-.1-2.59-.05-5.18-.1-7.77-.14-3.02-.06-6.04-.11-9.05-.17-2.23-.04-4.45-.08-6.68-.12-.27,0-.53-.01-.8-.02-.12-.05-.24-.09-.36-.14-.15-.05-.3-.11-.45-.16-.18-.07-.37-.12-.55-.2-.14-.05-.29-.11-.43-.16-.16-.06-.33-.11-.5-.16-.16-.06-.33-.11-.5-.16-.16-.05-.31-.11-.47-.16-.21-.07-.42-.12-.62-.18,0,0,.02,0,.03.01-.28-.09-.55-.2-.83-.3-.12-.04-.24-.09-.36-.12-.12-.04-.25-.07-.38-.11-.04-.01-.09-.03-.13-.04-.09-.04-.19-.07-.29-.1-.24-.08-.48-.16-.72-.25.01,0,.02,0,.03.01-.02,0-.04-.01-.05-.02.01,0,.02,0,.03.01-.06-.02-.13-.05-.19-.08-.07-.04-.13-.07-.2-.11-.08-.03-.16-.06-.23-.09h0,0s0,0,0,0h0s0,0,0,0h0s0,0,0,0h0s0,0,0,0,0,0-.02,0c-.04-.01-.07-.03-.11-.04,0-.04,0-.08,0-.12h0c.1-.39.2-.79.3-1.18.2-.78.4-1.55.6-2.33.03-.07.06-.15.09-.22.05-.14.09-.28.12-.42.06-.06.15-.09.24-.06.13.04.21.18.17.31,0,.01,0,.02,0,.03h0s0,.02,0,.03c0,0,0,.02,0,.03.02,0,.04,0,.06,0h.02s0,0,0,0h.07c1.73.04,3.5.07,5.26.11,3.04.07,6.09.13,9.13.19,2.55.05,5.11.11,7.67.16,2.52.05,5.04.11,7.55.16,2.46.05,4.91.11,7.37.16,2.48.05,4.95.1,7.43.16.42.01.87.02,1.32.03.19,0,.38.01.57.02.03,0,.06,0,.09,0,0-.12.07-.23.18-.26.12-.03.24.03.29.14,0,.01.01.02.02.04.32,1.07.64,2.13.96,3.2.08.26.16.52.23.77.02.05.01.11,0,.15-.02,0-.04.02-.05.02-.46.18-.93.36-1.4.53-.48.16-.96.32-1.44.46-.08.02-.16.05-.24.07-.13.03-.25.06-.37.09-.72.17-1.44.34-2.15.53-.56.15-1.12.29-1.68.42-.41,0-.81-.01-1.21-.02Z"/>
  <path class="cls-5" d="M36.2,126.44s0,0,0,0c0,0,0,0,0,0Z"/>
  <path class="cls-5" d="M36.15,126.42s0,0,0,0c0,0,.01,0,.02,0,0,0-.01,0-.02,0Z"/>
  <path class="cls-5" d="M69.76,127.43h0s0,0,0,0c0,0,0,0,0,0Z"/>
  <path class="cls-5" d="M56.53,128.96c-.63-.01-1.25-.05-1.88-.09-.54-.03-1.07-.06-1.61-.07-.54,0-1.08-.04-1.62-.05-.29,0-.57-.02-.86-.04-.26-.01-.52-.02-.79-.02h.04s-.09,0-.14,0h.04c-.17,0-.34-.01-.52-.02-.16-.01-.32-.02-.48-.03-.15,0-.3-.01-.46-.02-.13,0-.27,0-.4-.02h0c-.12-.01-.23-.03-.35-.04-.11,0-.22-.01-.34-.02-.22-.02-.44-.04-.66-.07-.13-.02-.26-.03-.39-.05-.12-.02-.24-.04-.36-.05-.12-.02-.24-.04-.36-.06-.1-.02-.2-.03-.3-.04-.04,0-.08,0-.11.01-.18-.04-.37-.06-.55-.09-.21-.03-.43-.06-.64-.1-.12-.02-.23-.04-.35-.06-.07-.01-.14-.02-.21-.03-.67-.11-1.34-.23-2-.37-.07-.02-.14-.03-.22-.05-.18-.04-.35-.07-.53-.11-.16-.04-.32-.07-.48-.11-.42-.1-.84-.2-1.26-.32-.25-.07-.48-.14-.73-.2-.2-.05-.4-.09-.6-.12.01,0,.02,0,.04,0-.21-.04-.42-.11-.63-.16-.03,0-.07-.01-.1-.02-.08-.02-.16-.04-.24-.07-.09-.03-.18-.05-.26-.08h0,0s-.02,0-.03,0h0s-.02,0-.02,0c-.07-.02-.13-.05-.2-.07.26,0,.52,0,.79.02,2.23.04,4.45.08,6.68.12,3.02.06,6.04.11,9.05.17,2.59.05,5.18.1,7.77.14,1.79.03,3.58.07,5.37.1,1.41.03,2.82.05,4.24.08.4,0,.8.02,1.2.02-.11.03-.22.05-.33.07-.65.14-1.3.3-1.95.46-.41.07-.83.13-1.24.21,0,0,.02,0,.03,0-.57.1-1.14.2-1.71.28-.51.07-1.02.16-1.53.25.01,0,.02,0,.03,0-.25.04-.5.09-.75.14-.2,0-.41,0-.61.03-.17.01-.33.04-.5.05-.08,0-.17,0-.25.02-.09.01-.18.03-.26.05,0,0,0,0,0,0h-.04c-.07,0-.15,0-.22.01-.1.01-.19.02-.29.03h-.02s-.09-.01-.14,0c-.04,0-.07.01-.1.03-.14,0-.28.02-.41.04.01,0,.02,0,.03,0-.04,0-.07.01-.11.02-.07,0-.13,0-.19.01-.08,0-.16.02-.24.03-.04,0-.08,0-.12.02-.02,0-.04,0-.05,0-.14.01-.29.03-.44.04-.09,0-.19,0-.29.01-.05,0-.09.01-.13.03l-.43.04h0s-.05,0-.08,0h.04s-.05,0-.08,0h.03c-.31.02-.63.05-.95.07-.3.02-.6.02-.91.03h-.3Z"/>
  <path class="cls-2" d="M74.82,113.14s-.07,0-.1,0c-.05,0-.1,0-.14-.02-.07,0-.12-.02-.19-.03-.13,0-.23-.12-.23-.25s.1-.23.22-.25c.07,0,.13-.01.19-.02.08,0,.14.01.2.06,0,0,.01,0,.02,0h0,0s-.01,0-.02,0c.05,0,.1,0,.14.03h0,0s0,0,0,0h0s0,0,.01,0h0s.05.03.07.06c0,.04.02.08.02.12,0,.04.02.08.03.12-.03.09-.11.16-.21.17h-.02Z"/>
  <path class="cls-2" d="M74.65,113.15c-.12-.17-.14-.49.12-.55.09-.01.16,0,.22.04.02.07.03.14.04.21.02.08.03.15.05.22-.03.11-.11.2-.21.2-.06,0-.14-.03-.22-.12Z"/>
  <path class="cls-2" d="M74.96,113.22h-.06s-.09-.02-.14-.04c-.05,0-.11,0-.17-.01.01,0,.02,0,.03,0s.01,0,.02,0c-.16-.03-.4,0-.48-.16-.15-.4.32-.41.53-.33,0,0,.02,0,.02,0,0,0,0,0,.02,0h0s.09,0,.14.01c0,0,.06,0,.1,0,.01.05.02.1.03.16.02.09.04.18.07.26.01.03.02.06.04.09-.03.01-.06.02-.1.02-.02,0-.04,0-.07,0Z"/>
  <path class="cls-2" d="M75.05,113.28s-.09-.01-.12-.03c-.1,0-.21,0-.31-.02-.14,0-.29-.01-.43-.02-.14,0-.25-.12-.25-.25,0-.14.12-.25.26-.25.25.01.49.02.74.04h.01s.03,0,.05-.01c0,.04.01.07.02.11.02.09.04.18.07.26.02.05.04.1.06.16-.03.01-.06.02-.09.02h0Z"/>
  <path class="cls-2" d="M31.83,112.82s-.05,0-.07-.02c-.05-.01-.11-.02-.16-.05-.1-.07-.14-.21-.08-.32.05-.11.16-.14.27-.14h.09s.08,0,.1,0c.06,0,.11.02.16.06.05.04.09.1.1.18,0,.03,0,.05-.01.08-.01.05-.04.09-.08.13,0,0,0,0,0,0,0,0,0,0,0,0,0,0,0,0,0,0,0,0,0,0,0,0,0,0,0,0,0,0,0,0,0,0,0,0,0,0,0,0-.01,0,0,0,0,0,0,0,0,0,0,0,0,0,0,0,0,0,0,0,0,0,0,0,0,0,0,0,0,0,0,0,0,0,0,0,0,0,0,0,0,0,0,0,0,0,0,0,0,0,0,0,0,0,0,0,0,0-.01,0,0,0,0,0,0,0,0,0-.04.03-.09.04-.14.04-.03,0-.06,0-.1-.01Z"/>
  <path class="cls-2" d="M31.66,112.86h0c-.06,0-.12,0-.18,0,0,0,0,0,0,0-.06,0-.11,0-.17-.01h0s-.02,0-.04,0c.02-.05.03-.11.05-.16.03-.11.06-.21.08-.32.05,0,.1,0,.16,0,.08,0,.16,0,.23.02.21,0,.29.12.28.25-.01.13-.12.25-.28.25-.04,0-.08,0-.13-.02Z"/>
  <path class="cls-5" d="M30.26,119.85c-.07-.02-.19,0-.25-.03,0,0-.01,0-.02,0,0,0-.01,0-.02,0,.01,0,.02,0,.02,0-.11-.01-.2-.03-.3-.04.04-.13.07-.26.1-.4,0,.01,0,.02,0,.02,0,0,0-.01,0-.02,0,0,0,0,0,0,0,0,0,0,0,0,0-.03.01-.05.02-.08.03,0,.06.01.08.03.19-.12.58-.09.66.14.09.17-.03.41-.22.41-.02,0-.05,0-.08-.01Z"/>
  <path class="cls-5" d="M76.96,120.84c-.32,0-1.1,0-.67-.49.13-.27.52-.15.75-.14.02,0,.04,0,.06,0,.05.21.12.41.17.62h0s0,0,0,0c-.06.02-.13.03-.19.03-.04,0-.08,0-.12-.02Z"/>
  <path class="cls-4" d="M73.52,105.41c-.25,0-.48,0-.71-.01-.41-.12-.17-.62.21-.49.18-.21.58-.07.79-.11.16,0,.32-.06.42.08.39.43-.4.57-.71.52Z"/>
</svg>